<?xml version="1.0" encoding="utf-8"?>
<!-- Generator: Adobe Illustrator 18.1.1, SVG Export Plug-In . SVG Version: 6.00 Build 0)  -->
<svg version="1.1" id="Layer_1" xmlns="http://www.w3.org/2000/svg" xmlns:xlink="http://www.w3.org/1999/xlink" x="0px" y="0px"
	 viewBox="0 0 112.1 58.2" enable-background="new 0 0 112.1 58.2" xml:space="preserve">
<g>
	<g>
		<g>
			<g>
				
					<rect x="111" y="57.3" transform="matrix(0.1758 -0.9844 0.9844 0.1758 35.7167 157.3875)" fill="#ffffff" width="1.8" height="0.1"/>
				
					<rect x="110.8" y="57.3" transform="matrix(0.1758 -0.9844 0.9844 0.1758 35.6266 157.2294)" fill="#ffffff" width="1.8" height="0.1"/>
				
					<rect x="110.7" y="57.3" transform="matrix(0.1758 -0.9844 0.9844 0.1758 35.5348 157.07)" fill="#ffffff" width="1.8" height="0.1"/>
				
					<rect x="110.5" y="57.2" transform="matrix(0.1758 -0.9844 0.9844 0.1758 35.4445 156.9117)" fill="#ffffff" width="1.8" height="0.1"/>
				
					<rect x="110.4" y="57.2" transform="matrix(0.1758 -0.9844 0.9844 0.1758 35.3529 156.7524)" fill="#ffffff" width="1.8" height="0.1"/>
				
					<rect x="110.3" y="57.2" transform="matrix(0.1758 -0.9844 0.9844 0.1758 35.2619 156.5936)" fill="#ffffff" width="1.8" height="0.1"/>
				
					<rect x="110.1" y="57.2" transform="matrix(0.1758 -0.9844 0.9844 0.1758 35.1717 156.4355)" fill="#ffffff" width="1.8" height="0.1"/>
			</g>
		</g>
		<g>
			<g>
				
					<rect x="107.9" y="56.7" transform="matrix(0.1836 -0.983 0.983 0.1836 32.9758 153.3195)" fill="#ffffff" width="1.8" height="0.2"/>
				
					<rect x="107.6" y="56.7" transform="matrix(0.1845 -0.9828 0.9828 0.1845 32.7113 152.9285)" fill="#ffffff" width="1.8" height="0.2"/>
				
					<rect x="107.3" y="56.6" transform="matrix(0.1853 -0.9827 0.9827 0.1853 32.449 152.539)" fill="#ffffff" width="1.8" height="0.2"/>
				
					<rect x="107.1" y="56.5" transform="matrix(0.1862 -0.9825 0.9825 0.1862 32.1856 152.1482)" fill="#ffffff" width="1.8" height="0.2"/>
				
					<rect x="106.8" y="56.5" transform="matrix(0.1871 -0.9823 0.9823 0.1871 31.9236 151.7583)" fill="#ffffff" width="1.8" height="0.2"/>
				
					<rect x="106.5" y="56.4" transform="matrix(0.1879 -0.9822 0.9822 0.1879 31.662 151.3683)" fill="#ffffff" width="1.8" height="0.2"/>
				
					<rect x="106.2" y="56.4" transform="matrix(0.1888 -0.982 0.982 0.1888 31.401 150.9786)" fill="#ffffff" width="1.8" height="0.2"/>
			</g>
		</g>
		<g>
			<g>
				
					<rect x="103.9" y="55.9" transform="matrix(0.1959 -0.9806 0.9806 0.1959 29.3263 147.8385)" fill="#ffffff" width="1.8" height="0.2"/>
				
					<rect x="103.6" y="55.9" transform="matrix(0.1968 -0.9804 0.9804 0.1968 29.0692 147.4434)" fill="#ffffff" width="1.8" height="0.2"/>
				
					<rect x="103.4" y="55.8" transform="matrix(0.1977 -0.9803 0.9803 0.1977 28.8126 147.0484)" fill="#ffffff" width="1.8" height="0.2"/>
				
					<rect x="103.1" y="55.8" transform="matrix(0.1986 -0.9801 0.9801 0.1986 28.5572 146.6541)" fill="#ffffff" width="1.8" height="0.2"/>
				
					<rect x="102.8" y="55.7" transform="matrix(0.1995 -0.9799 0.9799 0.1995 28.3011 146.2587)" fill="#ffffff" width="1.8" height="0.2"/>
				
					<rect x="102.5" y="55.7" transform="matrix(0.2004 -0.9797 0.9797 0.2004 28.046 145.864)" fill="#ffffff" width="1.8" height="0.2"/>
				
					<rect x="102.2" y="55.6" transform="matrix(0.2013 -0.9795 0.9795 0.2013 27.7925 145.4702)" fill="#ffffff" width="1.8" height="0.2"/>
			</g>
		</g>
		<g>
			<g>
				
					<rect x="99.9" y="55.1" transform="matrix(0.2088 -0.978 0.978 0.2088 25.7769 142.2954)" fill="#ffffff" width="1.8" height="0.2"/>
				
					<rect x="99.7" y="55.1" transform="matrix(0.2097 -0.9778 0.9778 0.2097 25.5279 141.8963)" fill="#ffffff" width="1.8" height="0.2"/>
				
					<rect x="99.4" y="55" transform="matrix(0.2107 -0.9775 0.9775 0.2107 25.2788 141.4968)" fill="#ffffff" width="1.8" height="0.2"/>
				
					<rect x="99.1" y="54.9" transform="matrix(0.2117 -0.9773 0.9773 0.2117 25.0309 141.098)" fill="#ffffff" width="1.8" height="0.2"/>
				
					<rect x="98.8" y="54.9" transform="matrix(0.2126 -0.9771 0.9771 0.2126 24.7835 140.6993)" fill="#ffffff" width="1.8" height="0.2"/>
				
					<rect x="98.5" y="54.8" transform="matrix(0.2136 -0.9769 0.9769 0.2136 24.5376 140.3015)" fill="#ffffff" width="1.8" height="0.2"/>
				
					<rect x="98.2" y="54.8" transform="matrix(0.2145 -0.9767 0.9767 0.2145 24.2907 139.9025)" fill="#ffffff" width="1.8" height="0.2"/>
			</g>
		</g>
		<g>
			<g>
				
					<rect x="96" y="54.2" transform="matrix(0.2223 -0.975 0.975 0.2223 22.3441 136.6985)" fill="#ffffff" width="1.8" height="0.2"/>
				
					<rect x="95.7" y="54.2" transform="matrix(0.2233 -0.9747 0.9747 0.2233 22.1042 136.2965)" fill="#ffffff" width="1.8" height="0.2"/>
				
					<rect x="95.4" y="54.1" transform="matrix(0.2243 -0.9745 0.9745 0.2243 21.8652 135.8948)" fill="#ffffff" width="1.8" height="0.2"/>
				
					<rect x="95.1" y="54" transform="matrix(0.2253 -0.9743 0.9743 0.2253 21.6264 135.493)" fill="#ffffff" width="1.8" height="0.2"/>
				
					<rect x="94.8" y="54" transform="matrix(0.2263 -0.9741 0.9741 0.2263 21.3891 135.0922)" fill="#ffffff" width="1.8" height="0.2"/>
				
					<rect x="94.6" y="53.9" transform="matrix(0.2273 -0.9738 0.9738 0.2273 21.1519 134.691)" fill="#ffffff" width="1.8" height="0.2"/>
				
					<rect x="94.3" y="53.9" transform="matrix(0.2283 -0.9736 0.9736 0.2283 20.9151 134.2899)" fill="#ffffff" width="1.8" height="0.2"/>
			</g>
		</g>
		<g>
			<g>
				
					<rect x="92" y="53.3" transform="matrix(0.2364 -0.9716 0.9716 0.2364 19.0463 131.0647)" fill="#ffffff" width="1.8" height="0.2"/>
				
					<rect x="91.7" y="53.2" transform="matrix(0.2375 -0.9714 0.9714 0.2375 18.8162 130.6594)" fill="#ffffff" width="1.8" height="0.2"/>
				
					<rect x="91.5" y="53.2" transform="matrix(0.2385 -0.9711 0.9711 0.2385 18.5865 130.2542)" fill="#ffffff" width="1.8" height="0.2"/>
				
					<rect x="91.2" y="53.1" transform="matrix(0.2395 -0.9709 0.9709 0.2395 18.3581 129.8498)" fill="#ffffff" width="1.8" height="0.2"/>
				
					<rect x="90.9" y="53" transform="matrix(0.2406 -0.9706 0.9706 0.2406 18.1299 129.4451)" fill="#ffffff" width="1.8" height="0.2"/>
				
					<rect x="90.6" y="53" transform="matrix(0.2416 -0.9704 0.9704 0.2416 17.9021 129.0404)" fill="#ffffff" width="1.8" height="0.2"/>
				
					<rect x="90.3" y="52.9" transform="matrix(0.2426 -0.9701 0.9701 0.2426 17.6756 128.6367)" fill="#ffffff" width="1.8" height="0.2"/>
			</g>
		</g>
		<g>
			<g>
				
					<rect x="88.1" y="52.3" transform="matrix(0.2511 -0.968 0.968 0.2511 15.887 125.387)" fill="#ffffff" width="1.8" height="0.2"/>
				
					<rect x="87.8" y="52.3" transform="matrix(0.2522 -0.9677 0.9677 0.2522 15.6678 124.9794)" fill="#ffffff" width="1.8" height="0.2"/>
				
					<rect x="87.5" y="52.2" transform="matrix(0.2533 -0.9674 0.9674 0.2533 15.4484 124.5713)" fill="#ffffff" width="1.8" height="0.2"/>
				
					<rect x="87.2" y="52.1" transform="matrix(0.2543 -0.9671 0.9671 0.2543 15.2304 124.164)" fill="#ffffff" width="1.8" height="0.2"/>
				
					<rect x="87" y="52" transform="matrix(0.2554 -0.9668 0.9668 0.2554 15.0123 123.7564)" fill="#ffffff" width="1.8" height="0.2"/>
				
					<rect x="86.7" y="52" transform="matrix(0.2565 -0.9665 0.9665 0.2565 14.7957 123.3496)" fill="#ffffff" width="1.8" height="0.2"/>
				
					<rect x="86.4" y="51.9" transform="matrix(0.2576 -0.9663 0.9663 0.2576 14.5788 122.9424)" fill="#ffffff" width="1.8" height="0.2"/>
			</g>
		</g>
		<g>
			<g>
				
					<rect x="84.2" y="51.3" transform="matrix(0.2664 -0.9639 0.9639 0.2664 12.8774 119.6734)" fill="#ffffff" width="1.8" height="0.2"/>
				
					<rect x="83.9" y="51.2" transform="matrix(0.2675 -0.9636 0.9636 0.2675 12.6685 119.2627)" fill="#ffffff" width="1.8" height="0.2"/>
				
					<rect x="83.6" y="51.1" transform="matrix(0.2686 -0.9633 0.9633 0.2686 12.4607 118.8527)" fill="#ffffff" width="1.8" height="0.2"/>
				
					<rect x="83.3" y="51" transform="matrix(0.2697 -0.9629 0.9629 0.2697 12.253 118.4424)" fill="#ffffff" width="1.8" height="0.2"/>
				
					<rect x="83" y="51" transform="matrix(0.2708 -0.9626 0.9626 0.2708 12.0465 118.0329)" fill="#ffffff" width="1.8" height="0.2"/>
				
					<rect x="82.8" y="50.9" transform="matrix(0.272 -0.9623 0.9623 0.272 11.8409 117.6237)" fill="#ffffff" width="1.8" height="0.2"/>
				
					<rect x="82.5" y="50.8" transform="matrix(0.2731 -0.962 0.962 0.2731 11.6357 117.2148)" fill="#ffffff" width="1.8" height="0.2"/>
			</g>
		</g>
		<g>
			<g>
				
					<rect x="80.3" y="50.2" transform="matrix(0.2822 -0.9594 0.9594 0.2822 10.0256 113.9293)" fill="#ffffff" width="1.8" height="0.2"/>
				
					<rect x="80" y="50.1" transform="matrix(0.2834 -0.959 0.959 0.2834 9.8288 113.5172)" fill="#ffffff" width="1.8" height="0.2"/>
				
					<rect x="79.7" y="50" transform="matrix(0.2845 -0.9587 0.9587 0.2845 9.6322 113.1048)" fill="#ffffff" width="1.8" height="0.2"/>
				
					<rect x="79.4" y="49.9" transform="matrix(0.2857 -0.9583 0.9583 0.2857 9.4368 112.6932)" fill="#ffffff" width="1.8" height="0.2"/>
				
					<rect x="79.1" y="49.8" transform="matrix(0.2868 -0.958 0.958 0.2868 9.2419 112.2818)" fill="#ffffff" width="1.8" height="0.2"/>
				
					<rect x="78.9" y="49.8" transform="matrix(0.288 -0.9576 0.9576 0.288 9.0479 111.8708)" fill="#ffffff" width="1.8" height="0.2"/>
				
					<rect x="78.6" y="49.7" transform="matrix(0.2892 -0.9573 0.9573 0.2892 8.8544 111.46)" fill="#ffffff" width="1.8" height="0.2"/>
			</g>
		</g>
		<g>
			<g>
				
					<rect x="76.4" y="49" transform="matrix(0.2986 -0.9544 0.9544 0.2986 7.3409 108.1625)" fill="#ffffff" width="1.8" height="0.2"/>
				
					<rect x="76.1" y="48.9" transform="matrix(0.2998 -0.954 0.954 0.2998 7.1564 107.749)" fill="#ffffff" width="1.8" height="0.2"/>
				
					<rect x="75.8" y="48.8" transform="matrix(0.301 -0.9536 0.9536 0.301 6.9731 107.3365)" fill="#ffffff" width="1.8" height="0.2"/>
				
					<rect x="75.5" y="48.7" transform="matrix(0.3022 -0.9532 0.9532 0.3022 6.7895 106.923)" fill="#ffffff" width="1.8" height="0.2"/>
				
					<rect x="75.3" y="48.6" transform="matrix(0.3034 -0.9529 0.9529 0.3034 6.6075 106.5109)" fill="#ffffff" width="1.8" height="0.2"/>
				
					<rect x="75" y="48.6" transform="matrix(0.3046 -0.9525 0.9525 0.3046 6.4258 106.0987)" fill="#ffffff" width="1.8" height="0.2"/>
				
					<rect x="74.7" y="48.5" transform="matrix(0.3058 -0.9521 0.9521 0.3058 6.2445 105.6865)" fill="#ffffff" width="1.8" height="0.2"/>
			</g>
		</g>
		<g>
			<g>
				
					<rect x="72.5" y="47.7" transform="matrix(0.3156 -0.9489 0.9489 0.3156 4.8325 102.3817)" fill="#ffffff" width="1.8" height="0.2"/>
				
					<rect x="72.2" y="47.7" transform="matrix(0.3169 -0.9485 0.9485 0.3169 4.6608 101.9673)" fill="#ffffff" width="1.8" height="0.2"/>
				
					<rect x="72" y="47.6" transform="matrix(0.3181 -0.9481 0.9481 0.3181 4.4899 101.5536)" fill="#ffffff" width="1.8" height="0.2"/>
				
					<rect x="71.7" y="47.5" transform="matrix(0.3193 -0.9476 0.9476 0.3193 4.3203 101.1406)" fill="#ffffff" width="1.8" height="0.2"/>
				
					<rect x="71.4" y="47.4" transform="matrix(0.3206 -0.9472 0.9472 0.3206 4.1507 100.7274)" fill="#ffffff" width="1.8" height="0.2"/>
				
					<rect x="71.1" y="47.3" transform="matrix(0.3218 -0.9468 0.9468 0.3218 3.9819 100.3145)" fill="#ffffff" width="1.8" height="0.2"/>
				
					<rect x="70.9" y="47.2" transform="matrix(0.3231 -0.9464 0.9464 0.3231 3.8139 99.902)" fill="#ffffff" width="1.8" height="0.2"/>
			</g>
		</g>
		<g>
			<g>
				
					<rect x="68.7" y="46.4" transform="matrix(0.3332 -0.9429 0.9429 0.3332 2.5079 96.5948)" fill="#ffffff" width="1.8" height="0.2"/>
				
					<rect x="68.4" y="46.3" transform="matrix(0.3345 -0.9424 0.9424 0.3345 2.35 96.1809)" fill="#ffffff" width="1.8" height="0.2"/>
				
					<rect x="68.1" y="46.2" transform="matrix(0.3358 -0.9419 0.9419 0.3358 2.1922 95.7665)" fill="#ffffff" width="1.8" height="0.2"/>
				
					<rect x="67.8" y="46.1" transform="matrix(0.3371 -0.9415 0.9415 0.3371 2.036 95.3535)" fill="#ffffff" width="1.8" height="0.2"/>
				<rect x="67.6" y="46" transform="matrix(0.3383 -0.941 0.941 0.3383 1.88 94.9403)" fill="#ffffff" width="1.8" height="0.2"/>
				
					<rect x="67.3" y="45.9" transform="matrix(0.3396 -0.9406 0.9406 0.3396 1.7248 94.5276)" fill="#ffffff" width="1.8" height="0.2"/>
				
					<rect x="67" y="45.8" transform="matrix(0.3409 -0.9401 0.9401 0.3409 1.5705 94.1155)" fill="#ffffff" width="1.8" height="0.2"/>
			</g>
		</g>
		<g>
			<g>
				
					<rect x="64.8" y="45" transform="matrix(0.3514 -0.9362 0.9362 0.3514 0.3744 90.8109)" fill="#ffffff" width="1.8" height="0.2"/>
				
					<rect x="64.6" y="44.9" transform="matrix(0.3527 -0.9357 0.9357 0.3527 0.2307 90.3978)" fill="#ffffff" width="1.8" height="0.2"/>
				
					<rect x="64.3" y="44.8" transform="matrix(0.354 -0.9352 0.9352 0.354 8.727936e-002 89.9845)" fill="#ffffff" width="1.8" height="0.2"/>
				
					<rect x="64" y="44.7" transform="matrix(0.3554 -0.9347 0.9347 0.3554 -5.526312e-002 89.5717)" fill="#ffffff" width="1.8" height="0.2"/>
				
					<rect x="63.8" y="44.6" transform="matrix(0.3567 -0.9342 0.9342 0.3567 -0.1972 89.1593)" fill="#ffffff" width="1.8" height="0.2"/>
				
					<rect x="63.5" y="44.5" transform="matrix(0.358 -0.9337 0.9337 0.358 -0.338 88.7478)" fill="#ffffff" width="1.8" height="0.2"/>
				
					<rect x="63.2" y="44.4" transform="matrix(0.3593 -0.9332 0.9332 0.3593 -0.4782 88.3367)" fill="#ffffff" width="1.8" height="0.2"/>
			</g>
		</g>
		<g>
			<g>
				
					<rect x="61.1" y="43.6" transform="matrix(0.3701 -0.929 0.929 0.3701 -1.5575 85.0482)" fill="#ffffff" width="1.8" height="0.2"/>
				
					<rect x="60.8" y="43.5" transform="matrix(0.3715 -0.9284 0.9284 0.3715 -1.6868 84.6368)" fill="#ffffff" width="1.8" height="0.2"/>
				
					<rect x="60.5" y="43.4" transform="matrix(0.3729 -0.9279 0.9279 0.3729 -1.8152 84.2263)" fill="#ffffff" width="1.8" height="0.2"/>
				
					<rect x="60.2" y="43.2" transform="matrix(0.3743 -0.9273 0.9273 0.3743 -1.9432 83.8155)" fill="#ffffff" width="1.8" height="0.2"/>
				
					<rect x="60" y="43.1" transform="matrix(0.3756 -0.9268 0.9268 0.3756 -2.0702 83.4057)" fill="#ffffff" width="1.8" height="0.2"/>
				
					<rect x="59.7" y="43" transform="matrix(0.377 -0.9262 0.9262 0.377 -2.1966 82.9961)" fill="#ffffff" width="1.8" height="0.2"/>
				
					<rect x="59.4" y="42.9" transform="matrix(0.3784 -0.9257 0.9257 0.3784 -2.3221 82.5874)" fill="#ffffff" width="1.8" height="0.2"/>
			</g>
		</g>
		<g>
			<g>
				
					<rect x="57.3" y="42" transform="matrix(0.3895 -0.921 0.921 0.3895 -3.2836 79.3141)" fill="#ffffff" width="1.8" height="0.2"/>
				
					<rect x="57" y="41.9" transform="matrix(0.3909 -0.9204 0.9204 0.3909 -3.3978 78.9052)" fill="#ffffff" width="1.8" height="0.2"/>
				
					<rect x="56.8" y="41.8" transform="matrix(0.3923 -0.9198 0.9198 0.3923 -3.5117 78.4961)" fill="#ffffff" width="1.8" height="0.2"/>
				
					<rect x="56.5" y="41.7" transform="matrix(0.3937 -0.9192 0.9192 0.3937 -3.6247 78.0878)" fill="#ffffff" width="1.8" height="0.2"/>
				
					<rect x="56.2" y="41.6" transform="matrix(0.3951 -0.9186 0.9186 0.3951 -3.7365 77.6806)" fill="#ffffff" width="1.8" height="0.2"/>
				
					<rect x="56" y="41.5" transform="matrix(0.3966 -0.918 0.918 0.3966 -3.8481 77.2732)" fill="#ffffff" width="1.8" height="0.2"/>
				
					<rect x="55.7" y="41.4" transform="matrix(0.398 -0.9174 0.9174 0.398 -3.9588 76.8667)" fill="#ffffff" width="1.8" height="0.2"/>
			</g>
		</g>
		<g>
			<g>
				
					<rect x="53.6" y="40.4" transform="matrix(0.4095 -0.9123 0.9123 0.4095 -4.799 73.6157)" fill="#ffffff" width="1.8" height="0.2"/>
				
					<rect x="53.3" y="40.3" transform="matrix(0.4109 -0.9117 0.9117 0.4109 -4.8983 73.2092)" fill="#ffffff" width="1.8" height="0.2"/>
				
					<rect x="53" y="40.2" transform="matrix(0.4124 -0.911 0.911 0.4124 -4.9968 72.8033)" fill="#ffffff" width="1.8" height="0.2"/>
				
					<rect x="52.8" y="40.1" transform="matrix(0.4138 -0.9104 0.9104 0.4138 -5.0942 72.3986)" fill="#ffffff" width="1.8" height="0.2"/>
				
					<rect x="52.5" y="39.9" transform="matrix(0.4153 -0.9097 0.9097 0.4153 -5.1908 71.9945)" fill="#ffffff" width="1.8" height="0.2"/>
				
					<rect x="52.3" y="39.8" transform="matrix(0.4167 -0.909 0.909 0.4167 -5.287 71.5906)" fill="#ffffff" width="1.8" height="0.2"/>
				
					<rect x="52" y="39.7" transform="matrix(0.4182 -0.9084 0.9084 0.4182 -5.3822 71.1876)" fill="#ffffff" width="1.8" height="0.2"/>
			</g>
		</g>
		<g>
			<g>
				
					<rect x="49.9" y="38.7" transform="matrix(0.43 -0.9028 0.9028 0.43 -6.0984 67.9664)" fill="#ffffff" width="1.8" height="0.2"/>
				
					<rect x="49.6" y="38.6" transform="matrix(0.4315 -0.9021 0.9021 0.4315 -6.1818 67.5642)" fill="#ffffff" width="1.8" height="0.2"/>
				
					<rect x="49.4" y="38.5" transform="matrix(0.433 -0.9014 0.9014 0.433 -6.2644 67.163)" fill="#ffffff" width="1.8" height="0.2"/>
				
					<rect x="49.1" y="38.3" transform="matrix(0.4345 -0.9007 0.9007 0.4345 -6.3462 66.7624)" fill="#ffffff" width="1.8" height="0.2"/>
				
					<rect x="48.8" y="38.2" transform="matrix(0.436 -0.8999 0.8999 0.436 -6.4273 66.3623)" fill="#ffffff" width="1.8" height="0.2"/>
				
					<rect x="48.6" y="38.1" transform="matrix(0.4375 -0.8992 0.8992 0.4375 -6.5076 65.9631)" fill="#ffffff" width="1.8" height="0.2"/>
				
					<rect x="48.3" y="38" transform="matrix(0.439 -0.8985 0.8985 0.439 -6.587 65.5648)" fill="#ffffff" width="1.8" height="0.2"/>
			</g>
		</g>
		<g>
			<g>
				
					<rect x="46.2" y="36.9" transform="matrix(0.4512 -0.8924 0.8924 0.4512 -7.1765 62.3824)" fill="#ffffff" width="1.8" height="0.2"/>
				
					<rect x="46" y="36.8" transform="matrix(0.4527 -0.8916 0.8916 0.4527 -7.2438 61.9857)" fill="#ffffff" width="1.8" height="0.2"/>
				
					<rect x="45.7" y="36.7" transform="matrix(0.4543 -0.8909 0.8909 0.4543 -7.3102 61.5902)" fill="#ffffff" width="1.8" height="0.2"/>
				
					<rect x="45.5" y="36.5" transform="matrix(0.4558 -0.8901 0.8901 0.4558 -7.3759 61.1952)" fill="#ffffff" width="1.8" height="0.2"/>
				
					<rect x="45.2" y="36.4" transform="matrix(0.4574 -0.8893 0.8893 0.4574 -7.4411 60.8005)" fill="#ffffff" width="1.8" height="0.2"/>
				
					<rect x="45" y="36.3" transform="matrix(0.4589 -0.8885 0.8885 0.4589 -7.5055 60.4068)" fill="#ffffff" width="1.8" height="0.2"/>
				
					<rect x="44.7" y="36.1" transform="matrix(0.4604 -0.8877 0.8877 0.4604 -7.569 60.0138)" fill="#ffffff" width="1.8" height="0.2"/>
			</g>
		</g>
		<g>
			<g>
				
					<rect x="42.6" y="35.1" transform="matrix(0.4729 -0.8811 0.8811 0.4729 -8.0291 56.8814)" fill="#ffffff" width="1.8" height="0.2"/>
				
					<rect x="42.4" y="34.9" transform="matrix(0.4745 -0.8802 0.8802 0.4745 -8.0802 56.4912)" fill="#ffffff" width="1.8" height="0.2"/>
				
					<rect x="42.1" y="34.8" transform="matrix(0.4761 -0.8794 0.8794 0.4761 -8.1306 56.1021)" fill="#ffffff" width="1.8" height="0.2"/>
				
					<rect x="41.9" y="34.6" transform="matrix(0.4777 -0.8785 0.8785 0.4777 -8.18 55.7139)" fill="#ffffff" width="1.8" height="0.2"/>
				
					<rect x="41.6" y="34.5" transform="matrix(0.4793 -0.8777 0.8777 0.4793 -8.2292 55.3256)" fill="#ffffff" width="1.8" height="0.2"/>
				
					<rect x="41.4" y="34.4" transform="matrix(0.4808 -0.8768 0.8768 0.4808 -8.2771 54.9395)" fill="#ffffff" width="1.8" height="0.2"/>
				
					<rect x="41.1" y="34.2" transform="matrix(0.4824 -0.8759 0.8759 0.4824 -8.3245 54.5536)" fill="#ffffff" width="1.8" height="0.2"/>
			</g>
		</g>
		<g>
			<g>
				
					<rect x="39.1" y="33.1" transform="matrix(0.4952 -0.8688 0.8688 0.4952 -8.6545 51.4805)" fill="#ffffff" width="1.8" height="0.2"/>
				
					<rect x="38.8" y="32.9" transform="matrix(0.4968 -0.8678 0.8678 0.4968 -8.6892 51.0985)" fill="#ffffff" width="1.8" height="0.2"/>
				
					<rect x="38.6" y="32.8" transform="matrix(0.4985 -0.8669 0.8669 0.4985 -8.7233 50.7172)" fill="#ffffff" width="1.8" height="0.2"/>
				
					<rect x="38.3" y="32.7" transform="matrix(0.5001 -0.866 0.866 0.5001 -8.7566 50.3369)" fill="#ffffff" width="1.8" height="0.2"/>
				
					<rect x="38.1" y="32.5" transform="matrix(0.5017 -0.865 0.865 0.5017 -8.7892 49.9575)" fill="#ffffff" width="1.8" height="0.2"/>
				
					<rect x="37.8" y="32.4" transform="matrix(0.5033 -0.8641 0.8641 0.5033 -8.821 49.5791)" fill="#ffffff" width="1.8" height="0.2"/>
				
					<rect x="37.6" y="32.2" transform="matrix(0.5049 -0.8632 0.8632 0.5049 -8.8521 49.2017)" fill="#ffffff" width="1.8" height="0.2"/>
			</g>
		</g>
		<g>
			<g>
				
					<rect x="35.6" y="31" transform="matrix(0.518 -0.8554 0.8554 0.518 -9.0517 46.1999)" fill="#ffffff" width="1.8" height="0.2"/>
				
					<rect x="35.3" y="30.9" transform="matrix(0.5197 -0.8544 0.8544 0.5197 -9.0702 45.8269)" fill="#ffffff" width="1.8" height="0.2"/>
				
					<rect x="35.1" y="30.7" transform="matrix(0.5213 -0.8533 0.8533 0.5213 -9.0879 45.4556)" fill="#ffffff" width="1.8" height="0.2"/>
				
					<rect x="34.8" y="30.6" transform="matrix(0.523 -0.8523 0.8523 0.523 -9.1048 45.0849)" fill="#ffffff" width="1.8" height="0.2"/>
				
					<rect x="34.6" y="30.4" transform="matrix(0.5247 -0.8513 0.8513 0.5247 -9.1212 44.7151)" fill="#ffffff" width="1.8" height="0.2"/>
				
					<rect x="34.3" y="30.3" transform="matrix(0.5263 -0.8503 0.8503 0.5263 -9.1369 44.3462)" fill="#ffffff" width="1.8" height="0.2"/>
				
					<rect x="34.1" y="30.1" transform="matrix(0.528 -0.8493 0.8493 0.528 -9.1518 43.9787)" fill="#ffffff" width="1.8" height="0.2"/>
			</g>
		</g>
		<g>
			<g>
				
					<rect x="32.1" y="28.9" transform="matrix(0.5413 -0.8408 0.8408 0.5413 -9.2221 41.06)" fill="#ffffff" width="1.8" height="0.2"/>
				
					<rect x="31.9" y="28.7" transform="matrix(0.543 -0.8397 0.8397 0.543 -9.2244 40.6982)" fill="#ffffff" width="1.8" height="0.2"/>
				
					<rect x="31.6" y="28.6" transform="matrix(0.5447 -0.8386 0.8386 0.5447 -9.226 40.3377)" fill="#ffffff" width="1.8" height="0.2"/>
				
					<rect x="31.4" y="28.4" transform="matrix(0.5464 -0.8375 0.8375 0.5464 -9.2269 39.9781)" fill="#ffffff" width="1.8" height="0.2"/>
				
					<rect x="31.2" y="28.3" transform="matrix(0.5481 -0.8364 0.8364 0.5481 -9.2272 39.6196)" fill="#ffffff" width="1.8" height="0.2"/>
				
					<rect x="30.9" y="28.1" transform="matrix(0.5497 -0.8353 0.8353 0.5497 -9.2269 39.2621)" fill="#ffffff" width="1.8" height="0.2"/>
				
					<rect x="30.7" y="27.9" transform="matrix(0.5514 -0.8342 0.8342 0.5514 -9.2259 38.9058)" fill="#ffffff" width="1.8" height="0.2"/>
			</g>
		</g>
		<g>
			<g>
				
					<rect x="28.7" y="26.6" transform="matrix(0.565 -0.8251 0.8251 0.565 -9.1693 36.0823)" fill="#ffffff" width="1.8" height="0.2"/>
				
					<rect x="28.5" y="26.5" transform="matrix(0.5667 -0.8239 0.8239 0.5667 -9.1557 35.7335)" fill="#ffffff" width="1.8" height="0.2"/>
				
					<rect x="28.3" y="26.3" transform="matrix(0.5685 -0.8227 0.8227 0.5685 -9.1416 35.3855)" fill="#ffffff" width="1.8" height="0.2"/>
				
					<rect x="28" y="26.1" transform="matrix(0.5702 -0.8215 0.8215 0.5702 -9.1268 35.0387)" fill="#ffffff" width="1.8" height="0.2"/>
				
					<rect x="27.8" y="26" transform="matrix(0.5719 -0.8203 0.8203 0.5719 -9.1114 34.6931)" fill="#ffffff" width="1.8" height="0.2"/>
				
					<rect x="27.6" y="25.8" transform="matrix(0.5736 -0.8192 0.8192 0.5736 -9.0955 34.3484)" fill="#ffffff" width="1.8" height="0.2"/>
				
					<rect x="27.3" y="25.6" transform="matrix(0.5753 -0.818 0.818 0.5753 -9.079 34.0049)" fill="#ffffff" width="1.8" height="0.2"/>
			</g>
		</g>
		<g>
			<g>
				
					<rect x="25.4" y="24.3" transform="matrix(0.5891 -0.8081 0.8081 0.5891 -8.8992 31.2901)" fill="#ffffff" width="1.8" height="0.2"/>
				
					<rect x="25.2" y="24.1" transform="matrix(0.5908 -0.8068 0.8068 0.5908 -8.8704 30.9553)" fill="#ffffff" width="1.8" height="0.2"/>
				
					<rect x="25" y="24" transform="matrix(0.5925 -0.8055 0.8055 0.5925 -8.8411 30.6221)" fill="#ffffff" width="1.8" height="0.2"/>
				
					<rect x="24.7" y="23.8" transform="matrix(0.5943 -0.8043 0.8043 0.5943 -8.8113 30.2893)" fill="#ffffff" width="1.8" height="0.2"/>
				
					<rect x="24.5" y="23.6" transform="matrix(0.596 -0.803 0.803 0.596 -8.7809 29.9581)" fill="#ffffff" width="1.8" height="0.2"/>
				
					<rect x="24.3" y="23.4" transform="matrix(0.5977 -0.8017 0.8017 0.5977 -8.75 29.6278)" fill="#ffffff" width="1.8" height="0.2"/>
				
					<rect x="24" y="23.3" transform="matrix(0.5995 -0.8004 0.8004 0.5995 -8.7186 29.299)" fill="#ffffff" width="1.8" height="0.2"/>
			</g>
		</g>
		<g>
			<g>
				
					<rect x="22.2" y="21.9" transform="matrix(0.6134 -0.7898 0.7898 0.6134 -8.4211 26.7059)" fill="#ffffff" width="1.8" height="0.2"/>
				
					<rect x="22" y="21.7" transform="matrix(0.6151 -0.7884 0.7884 0.6151 -8.3779 26.3869)" fill="#ffffff" width="1.8" height="0.2"/>
				
					<rect x="21.7" y="21.5" transform="matrix(0.6169 -0.7871 0.7871 0.6169 -8.3342 26.0693)" fill="#ffffff" width="1.8" height="0.2"/>
				
					<rect x="21.5" y="21.3" transform="matrix(0.6186 -0.7857 0.7857 0.6186 -8.2901 25.7528)" fill="#ffffff" width="1.8" height="0.2"/>
				
					<rect x="21.3" y="21.1" transform="matrix(0.6204 -0.7843 0.7843 0.6204 -8.2455 25.4376)" fill="#ffffff" width="1.8" height="0.2"/>
				
					<rect x="21" y="21" transform="matrix(0.6221 -0.7829 0.7829 0.6221 -8.2004 25.1236)" fill="#ffffff" width="1.8" height="0.2"/>
				
					<rect x="20.8" y="20.8" transform="matrix(0.6239 -0.7815 0.7815 0.6239 -8.1549 24.8108)" fill="#ffffff" width="1.8" height="0.2"/>
			</g>
		</g>
		<g>
			<g>
				
					<rect x="19" y="19.3" transform="matrix(0.6379 -0.7701 0.7701 0.6379 -7.7473 22.3523)" fill="#ffffff" width="1.8" height="0.2"/>
				
					<rect x="18.8" y="19.1" transform="matrix(0.6396 -0.7687 0.7687 0.6396 -7.6906 22.051)" fill="#ffffff" width="1.8" height="0.2"/>
				
					<rect x="18.6" y="18.9" transform="matrix(0.6414 -0.7672 0.7672 0.6414 -7.6336 21.7508)" fill="#ffffff" width="1.8" height="0.2"/>
				
					<rect x="18.3" y="18.8" transform="matrix(0.6431 -0.7657 0.7657 0.6431 -7.5762 21.4518)" fill="#ffffff" width="1.8" height="0.2"/>
				
					<rect x="18.1" y="18.6" transform="matrix(0.6449 -0.7643 0.7643 0.6449 -7.5184 21.1543)" fill="#ffffff" width="1.8" height="0.2"/>
				
					<rect x="17.9" y="18.4" transform="matrix(0.6466 -0.7628 0.7628 0.6466 -7.4603 20.8579)" fill="#ffffff" width="1.8" height="0.2"/>
				
					<rect x="17.7" y="18.2" transform="matrix(0.6484 -0.7613 0.7613 0.6484 -7.4018 20.563)" fill="#ffffff" width="1.8" height="0.2"/>
			</g>
		</g>
		<g>
			<g>
				
					<rect x="15.9" y="16.7" transform="matrix(0.6624 -0.7491 0.7491 0.6624 -6.8933 18.2518)" fill="#ffffff" width="1.8" height="0.2"/>
				
					<rect x="15.7" y="16.5" transform="matrix(0.6642 -0.7476 0.7476 0.6642 -6.8244 17.9693)" fill="#ffffff" width="1.8" height="0.2"/>
				
					<rect x="15.5" y="16.3" transform="matrix(0.6659 -0.746 0.746 0.6659 -6.7553 17.6882)" fill="#ffffff" width="1.8" height="0.2"/>
				
					<rect x="15.3" y="16.1" transform="matrix(0.6677 -0.7444 0.7444 0.6677 -6.6859 17.4085)" fill="#ffffff" width="1.8" height="0.2"/>
				
					<rect x="15.1" y="15.9" transform="matrix(0.6694 -0.7429 0.7429 0.6694 -6.6163 17.1302)" fill="#ffffff" width="1.8" height="0.2"/>
				
					<rect x="14.8" y="15.7" transform="matrix(0.6712 -0.7413 0.7413 0.6712 -6.5463 16.8531)" fill="#ffffff" width="1.8" height="0.2"/>
				
					<rect x="14.6" y="15.5" transform="matrix(0.6729 -0.7397 0.7397 0.6729 -6.4762 16.5774)" fill="#ffffff" width="1.8" height="0.2"/>
			</g>
		</g>
		<g>
			<g>
				
					<rect x="12.9" y="13.9" transform="matrix(0.6869 -0.7267 0.7267 0.6869 -5.878 14.4251)" fill="#ffffff" width="1.8" height="0.2"/>
				
					<rect x="12.7" y="13.7" transform="matrix(0.6887 -0.7251 0.7251 0.6887 -5.7985 14.1632)" fill="#ffffff" width="1.8" height="0.2"/>
				
					<rect x="12.5" y="13.5" transform="matrix(0.6904 -0.7234 0.7234 0.6904 -5.7189 13.9026)" fill="#ffffff" width="1.8" height="0.2"/>
				
					<rect x="12.3" y="13.3" transform="matrix(0.6922 -0.7217 0.7217 0.6922 -5.639 13.6434)" fill="#ffffff" width="1.8" height="0.2"/>
				
					<rect x="12.1" y="13.1" transform="matrix(0.6939 -0.7201 0.7201 0.6939 -5.559 13.3856)" fill="#ffffff" width="1.8" height="0.2"/>
				
					<rect x="11.9" y="12.9" transform="matrix(0.6956 -0.7184 0.7184 0.6956 -5.4788 13.129)" fill="#ffffff" width="1.8" height="0.2"/>
				
					<rect x="11.7" y="12.7" transform="matrix(0.6974 -0.7167 0.7167 0.6974 -5.3985 12.8742)" fill="#ffffff" width="1.8" height="0.2"/>
			</g>
		</g>
		<g>
			<g>
				
					<rect x="10" y="11.1" transform="matrix(0.7112 -0.7029 0.7029 0.7112 -4.724 10.8916)" fill="#ffffff" width="1.8" height="0.2"/>
				
					<rect x="9.8" y="10.9" transform="matrix(0.713 -0.7012 0.7012 0.713 -4.6356 10.6513)" fill="#ffffff" width="1.8" height="0.2"/>
				
					<rect x="9.6" y="10.7" transform="matrix(0.7147 -0.6994 0.6994 0.7147 -4.5471 10.4124)" fill="#ffffff" width="1.8" height="0.2"/>
				
					<rect x="9.4" y="10.5" transform="matrix(0.7164 -0.6977 0.6977 0.7164 -4.4585 10.175)" fill="#ffffff" width="1.8" height="0.2"/>
				
					<rect x="9.2" y="10.3" transform="matrix(0.7181 -0.6959 0.6959 0.7181 -4.37 9.9389)" fill="#ffffff" width="1.8" height="0.2"/>
				
					<rect x="9" y="10.1" transform="matrix(0.7199 -0.6941 0.6941 0.7199 -4.2813 9.7044)" fill="#ffffff" width="1.8" height="0.2"/>
				
					<rect x="8.8" y="9.9" transform="matrix(0.7216 -0.6923 0.6923 0.7216 -4.1927 9.4714)" fill="#ffffff" width="1.8" height="0.2"/>
			</g>
		</g>
		<g>
			<g>
				
					<rect x="7.2" y="8.2" transform="matrix(0.7352 -0.6778 0.6778 0.7352 -3.4568 7.6676)" fill="#ffffff" width="1.8" height="0.2"/>
				<rect x="7" y="7.9" transform="matrix(0.7369 -0.676 0.676 0.7369 -3.3616 7.4505)" fill="#ffffff" width="1.8" height="0.2"/>
				
					<rect x="6.8" y="7.7" transform="matrix(0.7386 -0.6741 0.6741 0.7386 -3.2664 7.2348)" fill="#ffffff" width="1.8" height="0.2"/>
				
					<rect x="6.6" y="7.5" transform="matrix(0.7403 -0.6723 0.6723 0.7403 -3.1714 7.0205)" fill="#ffffff" width="1.8" height="0.2"/>
				
					<rect x="6.4" y="7.3" transform="matrix(0.742 -0.6704 0.6704 0.742 -3.0764 6.8078)" fill="#ffffff" width="1.8" height="0.2"/>
				
					<rect x="6.2" y="7.1" transform="matrix(0.7437 -0.6685 0.6685 0.7437 -2.9814 6.5965)" fill="#ffffff" width="1.8" height="0.2"/>
				
					<rect x="6" y="6.9" transform="matrix(0.7454 -0.6667 0.6667 0.7454 -2.8866 6.3866)" fill="#ffffff" width="1.8" height="0.2"/>
			</g>
		</g>
		<g>
			<g>
				
					<rect x="4.5" y="5.1" transform="matrix(0.7588 -0.6514 0.6514 0.7588 -2.0867 4.7323)" fill="#ffffff" width="1.8" height="0.1"/>
				
					<rect x="4.4" y="5" transform="matrix(0.7596 -0.6504 0.6504 0.7596 -2.0377 4.6366)" fill="#ffffff" width="1.8" height="0.1"/>
				
					<rect x="4.3" y="4.9" transform="matrix(0.7604 -0.6495 0.6495 0.7604 -1.9887 4.5413)" fill="#ffffff" width="1.8" height="0.1"/>
				
					<rect x="4.2" y="4.8" transform="matrix(0.7612 -0.6485 0.6485 0.7612 -1.9398 4.4462)" fill="#ffffff" width="1.8" height="0.1"/>
				
					<rect x="4.1" y="4.7" transform="matrix(0.762 -0.6475 0.6475 0.762 -1.8909 4.3515)" fill="#ffffff" width="1.8" height="0.1"/>
				
					<rect x="4" y="4.6" transform="matrix(0.7628 -0.6466 0.6466 0.7628 -1.8421 4.2572)" fill="#ffffff" width="1.8" height="0.1"/>
				
					<rect x="3.9" y="4.5" transform="matrix(0.7637 -0.6456 0.6456 0.7637 -1.7933 4.1633)" fill="#ffffff" width="1.8" height="0.1"/>
			</g>
		</g>
	</g>
</g>
<polygon fill="#ffffff" points="7.8,2.4 0,0 3,7.7 "/>
</svg>
