<?xml version="1.0" encoding="utf-8"?>
<!-- Generator: Adobe Illustrator 18.1.1, SVG Export Plug-In . SVG Version: 6.00 Build 0)  -->
<svg version="1.1" id="Layer_1" xmlns="http://www.w3.org/2000/svg" xmlns:xlink="http://www.w3.org/1999/xlink" x="0px" y="0px"
	 viewBox="0 0 114.8 52.4" enable-background="new 0 0 114.8 52.4" xml:space="preserve">
<g>
	<g>
		<g>
			<g>
				
					<rect x="-0.7" y="51.4" transform="matrix(0.1241 0.9923 -0.9923 0.1241 51.2106 44.9278)" fill="#ffffff" width="1.8" height="0.1"/>
				
					<rect x="-0.6" y="51.4" transform="matrix(0.1241 0.9923 -0.9923 0.1241 51.3169 44.7719)" fill="#ffffff" width="1.8" height="0.1"/>
				
					<rect x="-0.4" y="51.4" transform="matrix(0.1241 0.9923 -0.9923 0.1241 51.4233 44.6163)" fill="#ffffff" width="1.8" height="0.1"/>
				
					<rect x="-0.3" y="51.4" transform="matrix(0.1241 0.9923 -0.9923 0.1241 51.5296 44.4603)" fill="#ffffff" width="1.8" height="0.1"/>
				
					<rect x="-0.2" y="51.4" transform="matrix(0.1241 0.9923 -0.9923 0.1241 51.636 44.3047)" fill="#ffffff" width="1.8" height="0.1"/>
				
					<rect x="0" y="51.3" transform="matrix(0.1241 0.9923 -0.9923 0.1241 51.7423 44.1486)" fill="#ffffff" width="1.8" height="0.1"/>
				
					<rect x="0.1" y="51.3" transform="matrix(0.1241 0.9923 -0.9923 0.1241 51.8487 43.9928)" fill="#ffffff" width="1.8" height="0.1"/>
			</g>
		</g>
		<g>
			<g>
				
					<rect x="2.3" y="51" transform="matrix(0.1319 0.9913 -0.9913 0.1319 53.3934 41.1946)" fill="#ffffff" width="1.8" height="0.2"/>
				
					<rect x="2.6" y="50.9" transform="matrix(0.1328 0.9911 -0.9911 0.1328 53.5953 40.8321)" fill="#ffffff" width="1.8" height="0.2"/>
				
					<rect x="2.9" y="50.9" transform="matrix(0.1337 0.991 -0.991 0.1337 53.7967 40.4696)" fill="#ffffff" width="1.8" height="0.2"/>
				
					<rect x="3.1" y="50.9" transform="matrix(0.1345 0.9909 -0.9909 0.1345 53.9976 40.1073)" fill="#ffffff" width="1.8" height="0.2"/>
				
					<rect x="3.4" y="50.8" transform="matrix(0.1354 0.9908 -0.9908 0.1354 54.1979 39.7455)" fill="#ffffff" width="1.8" height="0.2"/>
				
					<rect x="3.7" y="50.8" transform="matrix(0.1363 0.9907 -0.9907 0.1363 54.3977 39.3832)" fill="#ffffff" width="1.8" height="0.2"/>
				
					<rect x="4" y="50.8" transform="matrix(0.1371 0.9906 -0.9906 0.1371 54.597 39.0215)" fill="#ffffff" width="1.8" height="0.2"/>
			</g>
		</g>
		<g>
			<g>
				
					<rect x="6.3" y="50.4" transform="matrix(0.1443 0.9895 -0.9895 0.1443 56.1544 36.1104)" fill="#ffffff" width="1.8" height="0.2"/>
				
					<rect x="6.6" y="50.4" transform="matrix(0.1452 0.9894 -0.9894 0.1452 56.3442 35.7446)" fill="#ffffff" width="1.8" height="0.2"/>
				
					<rect x="6.9" y="50.3" transform="matrix(0.1461 0.9893 -0.9893 0.1461 56.5334 35.3791)" fill="#ffffff" width="1.8" height="0.2"/>
				
					<rect x="7.2" y="50.3" transform="matrix(0.147 0.9891 -0.9891 0.147 56.7221 35.0135)" fill="#ffffff" width="1.8" height="0.2"/>
				
					<rect x="7.5" y="50.3" transform="matrix(0.148 0.989 -0.989 0.148 56.9102 34.6482)" fill="#ffffff" width="1.8" height="0.2"/>
				
					<rect x="7.7" y="50.2" transform="matrix(0.1489 0.9889 -0.9889 0.1489 57.0978 34.2831)" fill="#ffffff" width="1.8" height="0.2"/>
				
					<rect x="8" y="50.2" transform="matrix(0.1498 0.9887 -0.9887 0.1498 57.2848 33.9184)" fill="#ffffff" width="1.8" height="0.2"/>
			</g>
		</g>
		<g>
			<g>
				
					<rect x="10.3" y="49.8" transform="matrix(0.1573 0.9875 -0.9875 0.1573 58.7411 30.9846)" fill="#ffffff" width="1.8" height="0.2"/>
				
					<rect x="10.6" y="49.8" transform="matrix(0.1583 0.9874 -0.9874 0.1583 58.9179 30.6164)" fill="#ffffff" width="1.8" height="0.2"/>
				
					<rect x="10.9" y="49.7" transform="matrix(0.1593 0.9872 -0.9872 0.1593 59.0941 30.2481)" fill="#ffffff" width="1.8" height="0.2"/>
				
					<rect x="11.2" y="49.7" transform="matrix(0.1602 0.9871 -0.9871 0.1602 59.2698 29.8802)" fill="#ffffff" width="1.8" height="0.2"/>
				
					<rect x="11.5" y="49.6" transform="matrix(0.1612 0.9869 -0.9869 0.1612 59.4447 29.5122)" fill="#ffffff" width="1.8" height="0.2"/>
				
					<rect x="11.8" y="49.6" transform="matrix(0.1621 0.9868 -0.9868 0.1621 59.6193 29.1447)" fill="#ffffff" width="1.8" height="0.2"/>
				
					<rect x="12" y="49.5" transform="matrix(0.1631 0.9866 -0.9866 0.1631 59.7932 28.7775)" fill="#ffffff" width="1.8" height="0.2"/>
			</g>
		</g>
		<g>
			<g>
				
					<rect x="14.3" y="49.1" transform="matrix(0.171 0.9853 -0.9853 0.171 61.1418 25.8263)" fill="#ffffff" width="1.8" height="0.2"/>
				
					<rect x="14.6" y="49.1" transform="matrix(0.172 0.9851 -0.9851 0.172 61.3045 25.4568)" fill="#ffffff" width="1.8" height="0.2"/>
				
					<rect x="14.9" y="49" transform="matrix(0.173 0.9849 -0.9849 0.173 61.4666 25.0875)" fill="#ffffff" width="1.8" height="0.2"/>
				
					<rect x="15.2" y="49" transform="matrix(0.174 0.9847 -0.9847 0.174 61.628 24.7181)" fill="#ffffff" width="1.8" height="0.2"/>
				
					<rect x="15.5" y="48.9" transform="matrix(0.175 0.9846 -0.9846 0.175 61.7889 24.3493)" fill="#ffffff" width="1.8" height="0.2"/>
				
					<rect x="15.8" y="48.9" transform="matrix(0.176 0.9844 -0.9844 0.176 61.9492 23.9805)" fill="#ffffff" width="1.8" height="0.2"/>
				
					<rect x="16" y="48.8" transform="matrix(0.177 0.9842 -0.9842 0.177 62.1088 23.6121)" fill="#ffffff" width="1.8" height="0.2"/>
			</g>
		</g>
		<g>
			<g>
				
					<rect x="18.3" y="48.4" transform="matrix(0.1853 0.9827 -0.9827 0.1853 63.3418 20.653)" fill="#ffffff" width="1.8" height="0.2"/>
				
					<rect x="18.6" y="48.4" transform="matrix(0.1863 0.9825 -0.9825 0.1863 63.4901 20.2818)" fill="#ffffff" width="1.8" height="0.2"/>
				
					<rect x="18.9" y="48.3" transform="matrix(0.1873 0.9823 -0.9823 0.1873 63.6378 19.9109)" fill="#ffffff" width="1.8" height="0.2"/>
				
					<rect x="19.2" y="48.3" transform="matrix(0.1884 0.9821 -0.9821 0.1884 63.7849 19.5402)" fill="#ffffff" width="1.8" height="0.2"/>
				
					<rect x="19.5" y="48.2" transform="matrix(0.1894 0.9819 -0.9819 0.1894 63.9312 19.1696)" fill="#ffffff" width="1.8" height="0.2"/>
				
					<rect x="19.8" y="48.2" transform="matrix(0.1905 0.9817 -0.9817 0.1905 64.0771 18.7993)" fill="#ffffff" width="1.8" height="0.2"/>
				
					<rect x="20" y="48.1" transform="matrix(0.1915 0.9815 -0.9815 0.1915 64.2223 18.4295)" fill="#ffffff" width="1.8" height="0.2"/>
			</g>
		</g>
		<g>
			<g>
				
					<rect x="22.3" y="47.6" transform="matrix(0.2001 0.9798 -0.9798 0.2001 65.3368 15.4609)" fill="#ffffff" width="1.8" height="0.2"/>
				
					<rect x="22.6" y="47.6" transform="matrix(0.2012 0.9796 -0.9796 0.2012 65.4698 15.0884)" fill="#ffffff" width="1.8" height="0.2"/>
				
					<rect x="22.9" y="47.5" transform="matrix(0.2023 0.9793 -0.9793 0.2023 65.6023 14.7166)" fill="#ffffff" width="1.8" height="0.2"/>
				
					<rect x="23.2" y="47.5" transform="matrix(0.2034 0.9791 -0.9791 0.2034 65.7342 14.3449)" fill="#ffffff" width="1.8" height="0.2"/>
				
					<rect x="23.4" y="47.4" transform="matrix(0.2045 0.9789 -0.9789 0.2045 65.8653 13.9735)" fill="#ffffff" width="1.8" height="0.2"/>
				
					<rect x="23.7" y="47.4" transform="matrix(0.2056 0.9786 -0.9786 0.2056 65.996 13.6026)" fill="#ffffff" width="1.8" height="0.2"/>
				
					<rect x="24" y="47.3" transform="matrix(0.2066 0.9784 -0.9784 0.2066 66.1259 13.2319)" fill="#ffffff" width="1.8" height="0.2"/>
			</g>
		</g>
		<g>
			<g>
				
					<rect x="26.3" y="46.8" transform="matrix(0.2156 0.9765 -0.9765 0.2156 67.1154 10.2585)" fill="#ffffff" width="1.8" height="0.2"/>
				
					<rect x="26.6" y="46.7" transform="matrix(0.2167 0.9762 -0.9762 0.2167 67.2329 9.8862)" fill="#ffffff" width="1.8" height="0.2"/>
				
					<rect x="26.9" y="46.7" transform="matrix(0.2178 0.976 -0.976 0.2178 67.3492 9.5138)" fill="#ffffff" width="1.8" height="0.2"/>
				
					<rect x="27.1" y="46.6" transform="matrix(0.219 0.9757 -0.9757 0.219 67.4652 9.142)" fill="#ffffff" width="1.8" height="0.2"/>
				
					<rect x="27.4" y="46.6" transform="matrix(0.2201 0.9755 -0.9755 0.2201 67.5806 8.7707)" fill="#ffffff" width="1.8" height="0.2"/>
				
					<rect x="27.7" y="46.5" transform="matrix(0.2212 0.9752 -0.9752 0.2212 67.6951 8.3994)" fill="#ffffff" width="1.8" height="0.2"/>
				
					<rect x="28" y="46.4" transform="matrix(0.2224 0.975 -0.975 0.2224 67.8088 8.0284)" fill="#ffffff" width="1.8" height="0.2"/>
			</g>
		</g>
		<g>
			<g>
				
					<rect x="30.2" y="45.9" transform="matrix(0.2316 0.9728 -0.9728 0.2316 68.668 5.0567)" fill="#ffffff" width="1.8" height="0.2"/>
				
					<rect x="30.5" y="45.8" transform="matrix(0.2328 0.9725 -0.9725 0.2328 68.7686 4.6846)" fill="#ffffff" width="1.8" height="0.2"/>
				
					<rect x="30.8" y="45.8" transform="matrix(0.234 0.9722 -0.9722 0.234 68.8683 4.3128)" fill="#ffffff" width="1.8" height="0.2"/>
				
					<rect x="31.1" y="45.7" transform="matrix(0.2351 0.972 -0.972 0.2351 68.9677 3.9416)" fill="#ffffff" width="1.8" height="0.2"/>
				
					<rect x="31.4" y="45.6" transform="matrix(0.2363 0.9717 -0.9717 0.2363 69.0662 3.5707)" fill="#ffffff" width="1.8" height="0.2"/>
				
					<rect x="31.7" y="45.6" transform="matrix(0.2375 0.9714 -0.9714 0.2375 69.1638 3.1998)" fill="#ffffff" width="1.8" height="0.2"/>
				
					<rect x="31.9" y="45.5" transform="matrix(0.2387 0.9711 -0.9711 0.2387 69.2612 2.8298)" fill="#ffffff" width="1.8" height="0.2"/>
			</g>
		</g>
		<g>
			<g>
				
					<rect x="34.2" y="44.9" transform="matrix(0.2483 0.9687 -0.9687 0.2483 69.9837 -0.1346)" fill="#ffffff" width="1.8" height="0.2"/>
				
					<rect x="34.5" y="44.9" transform="matrix(0.2495 0.9684 -0.9684 0.2495 70.0666 -0.5056)" fill="#ffffff" width="1.8" height="0.2"/>
				
					<rect x="34.8" y="44.8" transform="matrix(0.2507 0.9681 -0.9681 0.2507 70.1491 -0.876)" fill="#ffffff" width="1.8" height="0.2"/>
				
					<rect x="35" y="44.7" transform="matrix(0.2519 0.9677 -0.9677 0.2519 70.2309 -1.2461)" fill="#ffffff" width="1.8" height="0.2"/>
				
					<rect x="35.3" y="44.6" transform="matrix(0.2531 0.9674 -0.9674 0.2531 70.3121 -1.6155)" fill="#ffffff" width="1.8" height="0.2"/>
				
					<rect x="35.6" y="44.6" transform="matrix(0.2544 0.9671 -0.9671 0.2544 70.3926 -1.9847)" fill="#ffffff" width="1.8" height="0.2"/>
				
					<rect x="35.9" y="44.5" transform="matrix(0.2556 0.9668 -0.9668 0.2556 70.4723 -2.3533)" fill="#ffffff" width="1.8" height="0.2"/>
			</g>
		</g>
		<g>
			<g>
				
					<rect x="38.1" y="43.9" transform="matrix(0.2655 0.9641 -0.9641 0.2655 71.0524 -5.3037)" fill="#ffffff" width="1.8" height="0.2"/>
				
					<rect x="38.4" y="43.8" transform="matrix(0.2668 0.9638 -0.9638 0.2668 71.1176 -5.6723)" fill="#ffffff" width="1.8" height="0.2"/>
				
					<rect x="38.7" y="43.7" transform="matrix(0.268 0.9634 -0.9634 0.268 71.1816 -6.0408)" fill="#ffffff" width="1.8" height="0.2"/>
				
					<rect x="39" y="43.6" transform="matrix(0.2693 0.9631 -0.9631 0.2693 71.2452 -6.4087)" fill="#ffffff" width="1.8" height="0.2"/>
				
					<rect x="39.2" y="43.6" transform="matrix(0.2706 0.9627 -0.9627 0.2706 71.3083 -6.7759)" fill="#ffffff" width="1.8" height="0.2"/>
				
					<rect x="39.5" y="43.5" transform="matrix(0.2718 0.9623 -0.9623 0.2718 71.3704 -7.1429)" fill="#ffffff" width="1.8" height="0.2"/>
				
					<rect x="39.8" y="43.4" transform="matrix(0.2731 0.962 -0.962 0.2731 71.432 -7.5092)" fill="#ffffff" width="1.8" height="0.2"/>
			</g>
		</g>
		<g>
			<g>
				
					<rect x="42" y="42.8" transform="matrix(0.2834 0.959 -0.959 0.2834 71.8636 -10.4383)" fill="#ffffff" width="1.8" height="0.2"/>
				
					<rect x="42.3" y="42.7" transform="matrix(0.2847 0.9586 -0.9586 0.2847 71.91 -10.8039)" fill="#ffffff" width="1.8" height="0.2"/>
				
					<rect x="42.6" y="42.6" transform="matrix(0.286 0.9582 -0.9582 0.286 71.9556 -11.169)" fill="#ffffff" width="1.8" height="0.2"/>
				
					<rect x="42.9" y="42.5" transform="matrix(0.2873 0.9578 -0.9578 0.2873 72.0001 -11.5339)" fill="#ffffff" width="1.8" height="0.2"/>
				
					<rect x="43.1" y="42.4" transform="matrix(0.2886 0.9574 -0.9574 0.2886 72.0444 -11.8979)" fill="#ffffff" width="1.8" height="0.2"/>
				
					<rect x="43.4" y="42.4" transform="matrix(0.2899 0.957 -0.957 0.2899 72.0879 -12.2615)" fill="#ffffff" width="1.8" height="0.2"/>
				
					<rect x="43.7" y="42.3" transform="matrix(0.2912 0.9567 -0.9567 0.2912 72.1306 -12.6244)" fill="#ffffff" width="1.8" height="0.2"/>
			</g>
		</g>
		<g>
			<g>
				
					<rect x="45.9" y="41.6" transform="matrix(0.3019 0.9533 -0.9533 0.3019 72.4088 -15.5238)" fill="#ffffff" width="1.8" height="0.2"/>
				
					<rect x="46.2" y="41.5" transform="matrix(0.3033 0.9529 -0.9529 0.3033 72.4351 -15.8856)" fill="#ffffff" width="1.8" height="0.2"/>
				
					<rect x="46.5" y="41.4" transform="matrix(0.3046 0.9525 -0.9525 0.3046 72.4613 -16.2465)" fill="#ffffff" width="1.8" height="0.2"/>
				
					<rect x="46.7" y="41.3" transform="matrix(0.306 0.952 -0.952 0.306 72.4865 -16.6071)" fill="#ffffff" width="1.8" height="0.2"/>
				
					<rect x="47" y="41.2" transform="matrix(0.3073 0.9516 -0.9516 0.3073 72.5111 -16.9669)" fill="#ffffff" width="1.8" height="0.2"/>
				
					<rect x="47.3" y="41.1" transform="matrix(0.3087 0.9512 -0.9512 0.3087 72.5347 -17.3263)" fill="#ffffff" width="1.8" height="0.2"/>
				<rect x="47.6" y="41" transform="matrix(0.31 0.9507 -0.9507 0.31 72.558 -17.6848)" fill="#ffffff" width="1.8" height="0.2"/>
			</g>
		</g>
		<g>
			<g>
				
					<rect x="49.8" y="40.3" transform="matrix(0.321 0.9471 -0.9471 0.321 72.6772 -20.5398)" fill="#ffffff" width="1.8" height="0.2"/>
				
					<rect x="50" y="40.2" transform="matrix(0.3224 0.9466 -0.9466 0.3224 72.6841 -20.8954)" fill="#ffffff" width="1.8" height="0.2"/>
				
					<rect x="50.3" y="40.1" transform="matrix(0.3238 0.9461 -0.9461 0.3238 72.6896 -21.2505)" fill="#ffffff" width="1.8" height="0.2"/>
				
					<rect x="50.6" y="40" transform="matrix(0.3252 0.9456 -0.9456 0.3252 72.6947 -21.6049)" fill="#ffffff" width="1.8" height="0.2"/>
				
					<rect x="50.9" y="39.9" transform="matrix(0.3266 0.9452 -0.9452 0.3266 72.6993 -21.9585)" fill="#ffffff" width="1.8" height="0.2"/>
				
					<rect x="51.1" y="39.8" transform="matrix(0.328 0.9447 -0.9447 0.328 72.7033 -22.3115)" fill="#ffffff" width="1.8" height="0.2"/>
				
					<rect x="51.4" y="39.8" transform="matrix(0.3294 0.9442 -0.9442 0.3294 72.7058 -22.664)" fill="#ffffff" width="1.8" height="0.2"/>
			</g>
		</g>
		<g>
			<g>
				
					<rect x="53.6" y="39" transform="matrix(0.3408 0.9401 -0.9401 0.3408 72.6617 -25.4716)" fill="#ffffff" width="1.8" height="0.2"/>
				
					<rect x="53.9" y="38.9" transform="matrix(0.3422 0.9396 -0.9396 0.3422 72.6476 -25.8209)" fill="#ffffff" width="1.8" height="0.2"/>
				
					<rect x="54.1" y="38.8" transform="matrix(0.3436 0.9391 -0.9391 0.3436 72.6334 -26.1693)" fill="#ffffff" width="1.8" height="0.2"/>
				
					<rect x="54.4" y="38.7" transform="matrix(0.3451 0.9386 -0.9386 0.3451 72.6174 -26.5173)" fill="#ffffff" width="1.8" height="0.2"/>
				
					<rect x="54.7" y="38.6" transform="matrix(0.3465 0.938 -0.938 0.3465 72.6011 -26.8644)" fill="#ffffff" width="1.8" height="0.2"/>
				
					<rect x="55" y="38.5" transform="matrix(0.348 0.9375 -0.9375 0.348 72.5838 -27.211)" fill="#ffffff" width="1.8" height="0.2"/>
				
					<rect x="55.2" y="38.4" transform="matrix(0.3494 0.937 -0.937 0.3494 72.566 -27.5566)" fill="#ffffff" width="1.8" height="0.2"/>
			</g>
		</g>
		<g>
			<g>
				
					<rect x="57.4" y="37.6" transform="matrix(0.3611 0.9325 -0.9325 0.3611 72.3548 -30.3061)" fill="#ffffff" width="1.8" height="0.2"/>
				
					<rect x="57.7" y="37.5" transform="matrix(0.3626 0.9319 -0.9319 0.3626 72.3191 -30.6477)" fill="#ffffff" width="1.8" height="0.2"/>
				
					<rect x="57.9" y="37.3" transform="matrix(0.3641 0.9313 -0.9313 0.3641 72.2826 -30.9885)" fill="#ffffff" width="1.8" height="0.2"/>
				
					<rect x="58.2" y="37.2" transform="matrix(0.3656 0.9308 -0.9308 0.3656 72.2466 -31.3283)" fill="#ffffff" width="1.8" height="0.2"/>
				
					<rect x="58.5" y="37.1" transform="matrix(0.3671 0.9302 -0.9302 0.3671 72.2084 -31.6675)" fill="#ffffff" width="1.8" height="0.2"/>
				
					<rect x="58.8" y="37" transform="matrix(0.3686 0.9296 -0.9296 0.3686 72.1702 -32.0059)" fill="#ffffff" width="1.8" height="0.2"/>
				
					<rect x="59" y="36.9" transform="matrix(0.3701 0.929 -0.929 0.3701 72.131 -32.3434)" fill="#ffffff" width="1.8" height="0.2"/>
			</g>
		</g>
		<g>
			<g>
				
					<rect x="61.2" y="36" transform="matrix(0.3822 0.9241 -0.9241 0.3822 71.7476 -35.0229)" fill="#ffffff" width="1.8" height="0.2"/>
				
					<rect x="61.4" y="35.9" transform="matrix(0.3837 0.9234 -0.9234 0.3837 71.6911 -35.355)" fill="#ffffff" width="1.8" height="0.2"/>
				
					<rect x="61.7" y="35.8" transform="matrix(0.3853 0.9228 -0.9228 0.3853 71.6329 -35.6864)" fill="#ffffff" width="1.8" height="0.2"/>
				
					<rect x="62" y="35.7" transform="matrix(0.3868 0.9222 -0.9222 0.3868 71.5744 -36.0168)" fill="#ffffff" width="1.8" height="0.2"/>
				
					<rect x="62.2" y="35.6" transform="matrix(0.3883 0.9215 -0.9215 0.3883 71.5154 -36.3463)" fill="#ffffff" width="1.8" height="0.2"/>
				
					<rect x="62.5" y="35.5" transform="matrix(0.3899 0.9209 -0.9209 0.3899 71.4555 -36.6751)" fill="#ffffff" width="1.8" height="0.2"/>
				
					<rect x="62.8" y="35.4" transform="matrix(0.3914 0.9202 -0.9202 0.3914 71.3945 -37.0028)" fill="#ffffff" width="1.8" height="0.2"/>
			</g>
		</g>
		<g>
			<g>
				
					<rect x="64.9" y="34.5" transform="matrix(0.4039 0.9148 -0.9148 0.4039 70.8359 -39.5993)" fill="#ffffff" width="1.8" height="0.2"/>
				
					<rect x="65.2" y="34.3" transform="matrix(0.4055 0.9141 -0.9141 0.4055 70.7569 -39.9205)" fill="#ffffff" width="1.8" height="0.2"/>
				
					<rect x="65.4" y="34.2" transform="matrix(0.407 0.9134 -0.9134 0.407 70.6773 -40.2407)" fill="#ffffff" width="1.8" height="0.2"/>
				
					<rect x="65.7" y="34.1" transform="matrix(0.4086 0.9127 -0.9127 0.4086 70.5963 -40.56)" fill="#ffffff" width="1.8" height="0.2"/>
				
					<rect x="66" y="34" transform="matrix(0.4102 0.912 -0.912 0.4102 70.5154 -40.8782)" fill="#ffffff" width="1.8" height="0.2"/>
				
					<rect x="66.2" y="33.9" transform="matrix(0.4118 0.9113 -0.9113 0.4118 70.4333 -41.1956)" fill="#ffffff" width="1.8" height="0.2"/>
				
					<rect x="66.5" y="33.7" transform="matrix(0.4133 0.9106 -0.9106 0.4133 70.3511 -41.5118)" fill="#ffffff" width="1.8" height="0.2"/>
			</g>
		</g>
		<g>
			<g>
				
					<rect x="68.6" y="32.8" transform="matrix(0.4262 0.9046 -0.9046 0.4262 69.6153 -44.0113)" fill="#ffffff" width="1.8" height="0.2"/>
				
					<rect x="68.9" y="32.6" transform="matrix(0.4278 0.9039 -0.9039 0.4278 69.5146 -44.3197)" fill="#ffffff" width="1.8" height="0.2"/>
				
					<rect x="69.1" y="32.5" transform="matrix(0.4294 0.9031 -0.9031 0.4294 69.4126 -44.6269)" fill="#ffffff" width="1.8" height="0.2"/>
				
					<rect x="69.4" y="32.4" transform="matrix(0.431 0.9023 -0.9023 0.431 69.309 -44.9332)" fill="#ffffff" width="1.8" height="0.2"/>
				
					<rect x="69.7" y="32.3" transform="matrix(0.4327 0.9016 -0.9016 0.4327 69.2055 -45.2383)" fill="#ffffff" width="1.8" height="0.2"/>
				
					<rect x="69.9" y="32.1" transform="matrix(0.4343 0.9008 -0.9008 0.4343 69.1015 -45.5425)" fill="#ffffff" width="1.8" height="0.2"/>
				<rect x="70.2" y="32" transform="matrix(0.4359 0.9 -0.9 0.4359 68.9969 -45.8455)" fill="#ffffff" width="1.8" height="0.2"/>
			</g>
		</g>
		<g>
			<g>
				
					<rect x="72.3" y="31" transform="matrix(0.4491 0.8935 -0.8935 0.4491 68.084 -48.233)" fill="#ffffff" width="1.8" height="0.2"/>
				
					<rect x="72.5" y="30.9" transform="matrix(0.4507 0.8927 -0.8927 0.4507 67.9605 -48.5267)" fill="#ffffff" width="1.8" height="0.2"/>
				
					<rect x="72.8" y="30.7" transform="matrix(0.4524 0.8918 -0.8918 0.4524 67.8357 -48.8191)" fill="#ffffff" width="1.8" height="0.2"/>
				
					<rect x="73" y="30.6" transform="matrix(0.4541 0.891 -0.891 0.4541 67.7112 -49.1104)" fill="#ffffff" width="1.8" height="0.2"/>
				
					<rect x="73.3" y="30.5" transform="matrix(0.4557 0.8901 -0.8901 0.4557 67.5855 -49.4006)" fill="#ffffff" width="1.8" height="0.2"/>
				
					<rect x="73.6" y="30.3" transform="matrix(0.4574 0.8893 -0.8893 0.4574 67.4585 -49.6896)" fill="#ffffff" width="1.8" height="0.2"/>
				
					<rect x="73.8" y="30.2" transform="matrix(0.4591 0.8884 -0.8884 0.4591 67.3319 -49.9774)" fill="#ffffff" width="1.8" height="0.2"/>
			</g>
		</g>
		<g>
			<g>
				
					<rect x="75.9" y="29.1" transform="matrix(0.4726 0.8813 -0.8813 0.4726 66.2415 -52.237)" fill="#ffffff" width="1.8" height="0.2"/>
				
					<rect x="76.1" y="29" transform="matrix(0.4743 0.8804 -0.8804 0.4743 66.0962 -52.514)" fill="#ffffff" width="1.8" height="0.2"/>
				
					<rect x="76.4" y="28.8" transform="matrix(0.476 0.8795 -0.8795 0.476 65.9497 -52.7896)" fill="#ffffff" width="1.8" height="0.2"/>
				
					<rect x="76.6" y="28.7" transform="matrix(0.4777 0.8785 -0.8785 0.4777 65.8029 -53.064)" fill="#ffffff" width="1.8" height="0.2"/>
				
					<rect x="76.9" y="28.6" transform="matrix(0.4794 0.8776 -0.8776 0.4794 65.6552 -53.3371)" fill="#ffffff" width="1.8" height="0.2"/>
				
					<rect x="77.1" y="28.4" transform="matrix(0.4811 0.8767 -0.8767 0.4811 65.506 -53.6088)" fill="#ffffff" width="1.8" height="0.2"/>
				
					<rect x="77.4" y="28.3" transform="matrix(0.4828 0.8757 -0.8757 0.4828 65.3581 -53.8795)" fill="#ffffff" width="1.8" height="0.2"/>
			</g>
		</g>
		<g>
			<g>
				
					<rect x="79.4" y="27.2" transform="matrix(0.4966 0.868 -0.868 0.4966 64.0932 -55.9949)" fill="#ffffff" width="1.8" height="0.2"/>
				
					<rect x="79.7" y="27" transform="matrix(0.4983 0.867 -0.867 0.4983 63.9255 -56.2529)" fill="#ffffff" width="1.8" height="0.2"/>
				
					<rect x="79.9" y="26.9" transform="matrix(0.5001 0.866 -0.866 0.5001 63.7574 -56.5095)" fill="#ffffff" width="1.8" height="0.2"/>
				
					<rect x="80.2" y="26.7" transform="matrix(0.5018 0.865 -0.865 0.5018 63.5886 -56.7648)" fill="#ffffff" width="1.8" height="0.2"/>
				
					<rect x="80.4" y="26.6" transform="matrix(0.5035 0.864 -0.864 0.5035 63.4197 -57.0188)" fill="#ffffff" width="1.8" height="0.2"/>
				
					<rect x="80.7" y="26.4" transform="matrix(0.5053 0.863 -0.863 0.5053 63.2502 -57.2715)" fill="#ffffff" width="1.8" height="0.2"/>
				
					<rect x="80.9" y="26.3" transform="matrix(0.507 0.8619 -0.8619 0.507 63.0796 -57.5226)" fill="#ffffff" width="1.8" height="0.2"/>
			</g>
		</g>
		<g>
			<g>
				
					<rect x="82.9" y="25.1" transform="matrix(0.5211 0.8535 -0.8535 0.5211 61.6453 -59.4767)" fill="#ffffff" width="1.8" height="0.2"/>
				
					<rect x="83.2" y="24.9" transform="matrix(0.5228 0.8524 -0.8524 0.5228 61.4561 -59.7136)" fill="#ffffff" width="1.8" height="0.2"/>
				
					<rect x="83.4" y="24.8" transform="matrix(0.5246 0.8513 -0.8513 0.5246 61.2674 -59.9492)" fill="#ffffff" width="1.8" height="0.2"/>
				
					<rect x="83.7" y="24.6" transform="matrix(0.5264 0.8503 -0.8503 0.5264 61.0782 -60.1835)" fill="#ffffff" width="1.8" height="0.2"/>
				
					<rect x="83.9" y="24.5" transform="matrix(0.5282 0.8491 -0.8491 0.5282 60.8872 -60.4158)" fill="#ffffff" width="1.8" height="0.2"/>
				
					<rect x="84.2" y="24.3" transform="matrix(0.5299 0.8481 -0.8481 0.5299 60.6974 -60.6472)" fill="#ffffff" width="1.8" height="0.2"/>
				
					<rect x="84.4" y="24.2" transform="matrix(0.5317 0.8469 -0.8469 0.5317 60.5062 -60.8768)" fill="#ffffff" width="1.8" height="0.2"/>
			</g>
		</g>
		<g>
			<g>
				
					<rect x="86.4" y="22.9" transform="matrix(0.546 0.8378 -0.8378 0.546 58.9082 -62.6521)" fill="#ffffff" width="1.8" height="0.2"/>
				
					<rect x="86.6" y="22.8" transform="matrix(0.5478 0.8366 -0.8366 0.5478 58.6995 -62.8659)" fill="#ffffff" width="1.8" height="0.2"/>
				
					<rect x="86.9" y="22.6" transform="matrix(0.5496 0.8354 -0.8354 0.5496 58.49 -63.0781)" fill="#ffffff" width="1.8" height="0.2"/>
				
					<rect x="87.1" y="22.4" transform="matrix(0.5514 0.8343 -0.8343 0.5514 58.2813 -63.289)" fill="#ffffff" width="1.8" height="0.2"/>
				
					<rect x="87.3" y="22.3" transform="matrix(0.5532 0.8331 -0.8331 0.5532 58.0713 -63.4981)" fill="#ffffff" width="1.8" height="0.2"/>
				
					<rect x="87.6" y="22.1" transform="matrix(0.5549 0.8319 -0.8319 0.5549 57.8616 -63.706)" fill="#ffffff" width="1.8" height="0.2"/>
				
					<rect x="87.8" y="22" transform="matrix(0.5567 0.8307 -0.8307 0.5567 57.6509 -63.912)" fill="#ffffff" width="1.8" height="0.2"/>
			</g>
		</g>
		<g>
			<g>
				
					<rect x="89.7" y="20.7" transform="matrix(0.5712 0.8208 -0.8208 0.5712 55.8991 -65.4913)" fill="#ffffff" width="1.8" height="0.2"/>
				
					<rect x="90" y="20.5" transform="matrix(0.573 0.8195 -0.8195 0.573 55.6713 -65.6796)" fill="#ffffff" width="1.8" height="0.2"/>
				
					<rect x="90.2" y="20.3" transform="matrix(0.5749 0.8183 -0.8183 0.5749 55.4438 -65.8666)" fill="#ffffff" width="1.8" height="0.2"/>
				
					<rect x="90.5" y="20.2" transform="matrix(0.5767 0.817 -0.817 0.5767 55.2156 -66.0518)" fill="#ffffff" width="1.8" height="0.2"/>
				
					<rect x="90.7" y="20" transform="matrix(0.5785 0.8157 -0.8157 0.5785 54.9877 -66.2355)" fill="#ffffff" width="1.8" height="0.2"/>
				
					<rect x="90.9" y="19.8" transform="matrix(0.5803 0.8144 -0.8144 0.5803 54.7594 -66.4176)" fill="#ffffff" width="1.8" height="0.2"/>
				
					<rect x="91.2" y="19.7" transform="matrix(0.5821 0.8131 -0.8131 0.5821 54.5306 -66.5978)" fill="#ffffff" width="1.8" height="0.2"/>
			</g>
		</g>
		<g>
			<g>
				
					<rect x="93" y="18.3" transform="matrix(0.5967 0.8025 -0.8025 0.5967 52.6372 -67.9645)" fill="#ffffff" width="1.8" height="0.2"/>
				
					<rect x="93.3" y="18.1" transform="matrix(0.5985 0.8011 -0.8011 0.5985 52.3929 -68.1257)" fill="#ffffff" width="1.8" height="0.2"/>
				
					<rect x="93.5" y="17.9" transform="matrix(0.6004 0.7997 -0.7997 0.6004 52.1478 -68.2849)" fill="#ffffff" width="1.8" height="0.2"/>
				
					<rect x="93.7" y="17.8" transform="matrix(0.6022 0.7984 -0.7984 0.6022 51.9031 -68.4428)" fill="#ffffff" width="1.8" height="0.2"/>
				
					<rect x="94" y="17.6" transform="matrix(0.604 0.797 -0.797 0.604 51.6585 -68.5989)" fill="#ffffff" width="1.8" height="0.2"/>
				
					<rect x="94.2" y="17.4" transform="matrix(0.6058 0.7956 -0.7956 0.6058 51.4137 -68.7533)" fill="#ffffff" width="1.8" height="0.2"/>
				
					<rect x="94.4" y="17.2" transform="matrix(0.6077 0.7942 -0.7942 0.6077 51.1684 -68.9057)" fill="#ffffff" width="1.8" height="0.2"/>
			</g>
		</g>
		<g>
			<g>
				
					<rect x="96.3" y="15.8" transform="matrix(0.6223 0.7828 -0.7828 0.6223 49.1491 -70.0444)" fill="#ffffff" width="1.8" height="0.2"/>
				
					<rect x="96.5" y="15.6" transform="matrix(0.6242 0.7813 -0.7813 0.6242 48.8892 -70.1762)" fill="#ffffff" width="1.8" height="0.2"/>
				
					<rect x="96.7" y="15.4" transform="matrix(0.626 0.7798 -0.7798 0.626 48.6297 -70.3063)" fill="#ffffff" width="1.8" height="0.2"/>
				
					<rect x="96.9" y="15.3" transform="matrix(0.6278 0.7784 -0.7784 0.6278 48.3702 -70.4347)" fill="#ffffff" width="1.8" height="0.2"/>
				
					<rect x="97.2" y="15.1" transform="matrix(0.6296 0.7769 -0.7769 0.6296 48.1109 -70.5614)" fill="#ffffff" width="1.8" height="0.2"/>
				
					<rect x="97.4" y="14.9" transform="matrix(0.6315 0.7754 -0.7754 0.6315 47.8505 -70.6856)" fill="#ffffff" width="1.8" height="0.2"/>
				
					<rect x="97.6" y="14.7" transform="matrix(0.6333 0.7739 -0.7739 0.6333 47.5912 -70.8087)" fill="#ffffff" width="1.8" height="0.2"/>
			</g>
		</g>
		<g>
			<g>
				
					<rect x="99.4" y="13.2" transform="matrix(0.6479 0.7617 -0.7617 0.6479 45.4639 -71.7054)" fill="#ffffff" width="1.8" height="0.2"/>
				
					<rect x="99.6" y="13" transform="matrix(0.6498 0.7601 -0.7601 0.6498 45.1913 -71.8062)" fill="#ffffff" width="1.8" height="0.2"/>
				
					<rect x="99.9" y="12.9" transform="matrix(0.6516 0.7585 -0.7585 0.6516 44.9188 -71.905)" fill="#ffffff" width="1.8" height="0.2"/>
				
					<rect x="100.1" y="12.7" transform="matrix(0.6534 0.757 -0.757 0.6534 44.6475 -72.0027)" fill="#ffffff" width="1.8" height="0.2"/>
				
					<rect x="100.3" y="12.5" transform="matrix(0.6553 0.7554 -0.7554 0.6553 44.3758 -72.0982)" fill="#ffffff" width="1.8" height="0.2"/>
				
					<rect x="100.5" y="12.3" transform="matrix(0.6571 0.7538 -0.7538 0.6571 44.1034 -72.1913)" fill="#ffffff" width="1.8" height="0.2"/>
				
					<rect x="100.7" y="12.1" transform="matrix(0.6589 0.7522 -0.7522 0.6589 43.832 -72.283)" fill="#ffffff" width="1.8" height="0.2"/>
			</g>
		</g>
		<g>
			<g>
				
					<rect x="102.5" y="10.5" transform="matrix(0.6735 0.7392 -0.7392 0.6735 41.6165 -72.925)" fill="#ffffff" width="1.8" height="0.2"/>
				
					<rect x="102.7" y="10.4" transform="matrix(0.6753 0.7375 -0.7375 0.6753 41.3349 -72.9941)" fill="#ffffff" width="1.8" height="0.2"/>
				
					<rect x="102.9" y="10.2" transform="matrix(0.6771 0.7359 -0.7359 0.6771 41.053 -73.0609)" fill="#ffffff" width="1.8" height="0.2"/>
				
					<rect x="103.1" y="10" transform="matrix(0.6789 0.7342 -0.7342 0.6789 40.7719 -73.1262)" fill="#ffffff" width="1.8" height="0.2"/>
				
					<rect x="103.3" y="9.8" transform="matrix(0.6807 0.7325 -0.7325 0.6807 40.4906 -73.1891)" fill="#ffffff" width="1.8" height="0.2"/>
				
					<rect x="103.5" y="9.6" transform="matrix(0.6825 0.7308 -0.7308 0.6825 40.2091 -73.2498)" fill="#ffffff" width="1.8" height="0.2"/>
				
					<rect x="103.7" y="9.4" transform="matrix(0.6843 0.7292 -0.7292 0.6843 39.929 -73.3093)" fill="#ffffff" width="1.8" height="0.2"/>
			</g>
		</g>
		<g>
			<g>
				
					<rect x="105.4" y="7.8" transform="matrix(0.6987 0.7154 -0.7154 0.6987 37.6495 -73.688)" fill="#ffffff" width="1.8" height="0.2"/>
				
					<rect x="105.6" y="7.6" transform="matrix(0.7005 0.7136 -0.7136 0.7005 37.3608 -73.7232)" fill="#ffffff" width="1.8" height="0.2"/>
				
					<rect x="105.8" y="7.4" transform="matrix(0.7023 0.7119 -0.7119 0.7023 37.073 -73.7568)" fill="#ffffff" width="1.8" height="0.2"/>
				
					<rect x="106" y="7.1" transform="matrix(0.7041 0.7101 -0.7101 0.7041 36.7856 -73.7886)" fill="#ffffff" width="1.8" height="0.2"/>
				
					<rect x="106.3" y="6.9" transform="matrix(0.7059 0.7083 -0.7083 0.7059 36.4977 -73.8174)" fill="#ffffff" width="1.8" height="0.2"/>
				
					<rect x="106.5" y="6.7" transform="matrix(0.7077 0.7065 -0.7065 0.7077 36.2116 -73.8456)" fill="#ffffff" width="1.8" height="0.2"/>
				
					<rect x="106.7" y="6.5" transform="matrix(0.7094 0.7048 -0.7048 0.7094 35.9251 -73.8709)" fill="#ffffff" width="1.8" height="0.2"/>
			</g>
		</g>
		<g>
			<g>
				
					<rect x="108.3" y="4.9" transform="matrix(0.7236 0.6902 -0.6902 0.7236 33.5843 -74.0144)" fill="#ffffff" width="1.8" height="0.1"/>
				
					<rect x="108.4" y="4.8" transform="matrix(0.7245 0.6893 -0.6893 0.7245 33.4411 -74.016)" fill="#ffffff" width="1.8" height="0.1"/>
				
					<rect x="108.5" y="4.7" transform="matrix(0.7254 0.6884 -0.6884 0.7254 33.2981 -74.0171)" fill="#ffffff" width="1.8" height="0.1"/>
				
					<rect x="108.6" y="4.6" transform="matrix(0.7262 0.6874 -0.6874 0.7262 33.1542 -74.0169)" fill="#ffffff" width="1.8" height="0.1"/>
				
					<rect x="108.7" y="4.5" transform="matrix(0.7271 0.6865 -0.6865 0.7271 33.0115 -74.017)" fill="#ffffff" width="1.8" height="0.1"/>
				
					<rect x="108.8" y="4.4" transform="matrix(0.728 0.6856 -0.6856 0.728 32.8683 -74.0162)" fill="#ffffff" width="1.8" height="0.1"/>
				
					<rect x="108.9" y="4.3" transform="matrix(0.7288 0.6847 -0.6847 0.7288 32.7264 -74.0159)" fill="#ffffff" width="1.8" height="0.1"/>
			</g>
		</g>
	</g>
</g>
<polygon fill="#ffffff" points="106.9,2 114.8,0 111.3,7.5 "/>
</svg>
