<?xml version="1.0" encoding="utf-8"?>
<!-- Generator: Adobe Illustrator 18.1.1, SVG Export Plug-In . SVG Version: 6.00 Build 0)  -->
<svg version="1.1" id="Layer_1" xmlns="http://www.w3.org/2000/svg" xmlns:xlink="http://www.w3.org/1999/xlink" x="0px" y="0px"
	 viewBox="0 0 125.6 19.4" enable-background="new 0 0 125.6 19.4" xml:space="preserve">
<g>
	<g>
		<g>
			<g>
				
					<rect x="124.3" y="18.5" transform="matrix(0.3726 -0.928 0.928 0.3726 61.3166 127.858)" fill="#ffffff" width="1.8" height="0.1"/>
				
					<rect x="124.2" y="18.5" transform="matrix(0.3726 -0.928 0.928 0.3726 61.2829 127.7019)" fill="#ffffff" width="1.8" height="0.1"/>
				
					<rect x="124.1" y="18.4" transform="matrix(0.3726 -0.928 0.928 0.3726 61.2492 127.5459)" fill="#ffffff" width="1.8" height="0.1"/>
				
					<rect x="123.9" y="18.4" transform="matrix(0.3726 -0.928 0.928 0.3726 61.2155 127.3898)" fill="#ffffff" width="1.8" height="0.1"/>
				
					<rect x="123.8" y="18.3" transform="matrix(0.3726 -0.928 0.928 0.3726 61.1818 127.2337)" fill="#ffffff" width="1.8" height="0.1"/>
				
					<rect x="123.7" y="18.3" transform="matrix(0.3726 -0.928 0.928 0.3726 61.1477 127.0774)" fill="#ffffff" width="1.8" height="0.1"/>
				
					<rect x="123.5" y="18.2" transform="matrix(0.3726 -0.928 0.928 0.3726 61.1143 126.9216)" fill="#ffffff" width="1.8" height="0.1"/>
			</g>
		</g>
		<g>
			<g>
				
					<rect x="121.5" y="17.4" transform="matrix(0.3652 -0.9309 0.9309 0.3652 61.4372 125.015)" fill="#ffffff" width="1.8" height="0.2"/>
				
					<rect x="121.2" y="17.3" transform="matrix(0.3644 -0.9313 0.9313 0.3644 61.458 124.7499)" fill="#ffffff" width="1.8" height="0.2"/>
				
					<rect x="121" y="17.2" transform="matrix(0.3635 -0.9316 0.9316 0.3635 61.4781 124.4843)" fill="#ffffff" width="1.8" height="0.2"/>
				
					<rect x="120.7" y="17" transform="matrix(0.3627 -0.9319 0.9319 0.3627 61.4978 124.2181)" fill="#ffffff" width="1.8" height="0.2"/>
				
					<rect x="120.4" y="16.9" transform="matrix(0.3619 -0.9322 0.9322 0.3619 61.5164 123.9512)" fill="#ffffff" width="1.8" height="0.2"/>
				
					<rect x="120.1" y="16.8" transform="matrix(0.3611 -0.9325 0.9325 0.3611 61.5352 123.684)" fill="#ffffff" width="1.8" height="0.2"/>
				
					<rect x="119.9" y="16.7" transform="matrix(0.3603 -0.9328 0.9328 0.3603 61.554 123.4167)" fill="#ffffff" width="1.8" height="0.2"/>
			</g>
		</g>
		<g>
			<g>
				
					<rect x="117.7" y="15.9" transform="matrix(0.3535 -0.9354 0.9354 0.3535 61.7 121.278)" fill="#ffffff" width="1.8" height="0.2"/>
				
					<rect x="117.4" y="15.8" transform="matrix(0.3527 -0.9357 0.9357 0.3527 61.7174 121.0107)" fill="#ffffff" width="1.8" height="0.2"/>
				
					<rect x="117.2" y="15.7" transform="matrix(0.3518 -0.9361 0.9361 0.3518 61.7341 120.7427)" fill="#ffffff" width="1.8" height="0.2"/>
				
					<rect x="116.9" y="15.6" transform="matrix(0.3509 -0.9364 0.9364 0.3509 61.7504 120.4743)" fill="#ffffff" width="1.8" height="0.2"/>
				
					<rect x="116.6" y="15.5" transform="matrix(0.3501 -0.9367 0.9367 0.3501 61.7669 120.2058)" fill="#ffffff" width="1.8" height="0.2"/>
				
					<rect x="116.3" y="15.4" transform="matrix(0.3492 -0.937 0.937 0.3492 61.7816 119.936)" fill="#ffffff" width="1.8" height="0.2"/>
				
					<rect x="116.1" y="15.3" transform="matrix(0.3483 -0.9374 0.9374 0.3483 61.7969 119.6663)" fill="#ffffff" width="1.8" height="0.2"/>
			</g>
		</g>
		<g>
			<g>
				
					<rect x="113.9" y="14.5" transform="matrix(0.3412 -0.94 0.94 0.3412 61.9117 117.5078)" fill="#ffffff" width="1.8" height="0.2"/>
				
					<rect x="113.6" y="14.4" transform="matrix(0.3403 -0.9403 0.9403 0.3403 61.9246 117.2378)" fill="#ffffff" width="1.8" height="0.2"/>
				
					<rect x="113.4" y="14.3" transform="matrix(0.3393 -0.9407 0.9407 0.3393 61.9369 116.9672)" fill="#ffffff" width="1.8" height="0.2"/>
				
					<rect x="113.1" y="14.2" transform="matrix(0.3384 -0.941 0.941 0.3384 61.949 116.6963)" fill="#ffffff" width="1.8" height="0.2"/>
				
					<rect x="112.8" y="14.1" transform="matrix(0.3375 -0.9413 0.9413 0.3375 61.9608 116.4249)" fill="#ffffff" width="1.8" height="0.2"/>
				
					<rect x="112.5" y="14" transform="matrix(0.3366 -0.9417 0.9417 0.3366 61.9715 116.1527)" fill="#ffffff" width="1.8" height="0.2"/>
				
					<rect x="112.3" y="13.9" transform="matrix(0.3357 -0.942 0.942 0.3357 61.9825 115.8805)" fill="#ffffff" width="1.8" height="0.2"/>
			</g>
		</g>
		<g>
			<g>
				
					<rect x="110.1" y="13.1" transform="matrix(0.3281 -0.9446 0.9446 0.3281 62.0567 113.6991)" fill="#ffffff" width="1.8" height="0.2"/>
				
					<rect x="109.8" y="13" transform="matrix(0.3272 -0.945 0.945 0.3272 62.0639 113.4266)" fill="#ffffff" width="1.8" height="0.2"/>
				
					<rect x="109.5" y="12.9" transform="matrix(0.3262 -0.9453 0.9453 0.3262 62.0714 113.154)" fill="#ffffff" width="1.8" height="0.2"/>
				
					<rect x="109.2" y="12.8" transform="matrix(0.3252 -0.9456 0.9456 0.3252 62.0776 112.8805)" fill="#ffffff" width="1.8" height="0.2"/>
				
					<rect x="109" y="12.8" transform="matrix(0.3242 -0.946 0.946 0.3242 62.084 112.6068)" fill="#ffffff" width="1.8" height="0.2"/>
				
					<rect x="108.7" y="12.7" transform="matrix(0.3233 -0.9463 0.9463 0.3233 62.0892 112.3322)" fill="#ffffff" width="1.8" height="0.2"/>
				
					<rect x="108.4" y="12.6" transform="matrix(0.3223 -0.9466 0.9466 0.3223 62.0943 112.0574)" fill="#ffffff" width="1.8" height="0.2"/>
			</g>
		</g>
		<g>
			<g>
				
					<rect x="106.2" y="11.8" transform="matrix(0.3144 -0.9493 0.9493 0.3144 62.122 109.8557)" fill="#ffffff" width="1.8" height="0.2"/>
				
					<rect x="106" y="11.7" transform="matrix(0.3134 -0.9496 0.9496 0.3134 62.124 109.5804)" fill="#ffffff" width="1.8" height="0.2"/>
				
					<rect x="105.7" y="11.6" transform="matrix(0.3124 -0.95 0.95 0.3124 62.1247 109.3043)" fill="#ffffff" width="1.8" height="0.2"/>
				
					<rect x="105.4" y="11.6" transform="matrix(0.3114 -0.9503 0.9503 0.3114 62.1239 109.0272)" fill="#ffffff" width="1.8" height="0.2"/>
				
					<rect x="105.1" y="11.5" transform="matrix(0.3103 -0.9506 0.9506 0.3103 62.1245 108.7504)" fill="#ffffff" width="1.8" height="0.2"/>
				
					<rect x="104.8" y="11.4" transform="matrix(0.3093 -0.951 0.951 0.3093 62.1239 108.4728)" fill="#ffffff" width="1.8" height="0.2"/>
				
					<rect x="104.6" y="11.3" transform="matrix(0.3083 -0.9513 0.9513 0.3083 62.1226 108.1947)" fill="#ffffff" width="1.8" height="0.2"/>
			</g>
		</g>
		<g>
			<g>
				
					<rect x="102.4" y="10.6" transform="matrix(0.3 -0.9539 0.9539 0.3 62.0972 105.9667)" fill="#ffffff" width="1.8" height="0.2"/>
				
					<rect x="102.1" y="10.5" transform="matrix(0.2989 -0.9543 0.9543 0.2989 62.0918 105.688)" fill="#ffffff" width="1.8" height="0.2"/>
				
					<rect x="101.8" y="10.4" transform="matrix(0.2979 -0.9546 0.9546 0.2979 62.0855 105.4086)" fill="#ffffff" width="1.8" height="0.2"/>
				
					<rect x="101.5" y="10.3" transform="matrix(0.2968 -0.9549 0.9549 0.2968 62.0782 105.1284)" fill="#ffffff" width="1.8" height="0.2"/>
				
					<rect x="101.3" y="10.2" transform="matrix(0.2957 -0.9553 0.9553 0.2957 62.0709 104.8481)" fill="#ffffff" width="1.8" height="0.2"/>
				
					<rect x="101" y="10.1" transform="matrix(0.2947 -0.9556 0.9556 0.2947 62.0634 104.5672)" fill="#ffffff" width="1.8" height="0.2"/>
				
					<rect x="100.7" y="10.1" transform="matrix(0.2936 -0.9559 0.9559 0.2936 62.0557 104.2862)" fill="#ffffff" width="1.8" height="0.2"/>
			</g>
		</g>
		<g>
			<g>
				
					<rect x="98.5" y="9.4" transform="matrix(0.2849 -0.9586 0.9586 0.2849 61.9708 102.0319)" fill="#ffffff" width="1.8" height="0.2"/>
				
					<rect x="98.2" y="9.3" transform="matrix(0.2838 -0.9589 0.9589 0.2838 61.9575 101.7499)" fill="#ffffff" width="1.8" height="0.2"/>
				
					<rect x="97.9" y="9.2" transform="matrix(0.2827 -0.9592 0.9592 0.2827 61.9431 101.4671)" fill="#ffffff" width="1.8" height="0.2"/>
				
					<rect x="97.6" y="9.1" transform="matrix(0.2815 -0.9595 0.9595 0.2815 61.9284 101.1839)" fill="#ffffff" width="1.8" height="0.2"/>
				
					<rect x="97.4" y="9.1" transform="matrix(0.2804 -0.9599 0.9599 0.2804 61.9138 100.9004)" fill="#ffffff" width="1.8" height="0.2"/>
				
					<rect x="97.1" y="9" transform="matrix(0.2793 -0.9602 0.9602 0.2793 61.8981 100.6162)" fill="#ffffff" width="1.8" height="0.2"/>
				
					<rect x="96.8" y="8.9" transform="matrix(0.2782 -0.9605 0.9605 0.2782 61.8822 100.3317)" fill="#ffffff" width="1.8" height="0.2"/>
			</g>
		</g>
		<g>
			<g>
				
					<rect x="94.6" y="8.3" transform="matrix(0.2691 -0.9631 0.9631 0.2691 61.7318 98.0518)" fill="#ffffff" width="1.8" height="0.2"/>
				
					<rect x="94.3" y="8.2" transform="matrix(0.2679 -0.9634 0.9634 0.2679 61.7106 97.7668)" fill="#ffffff" width="1.8" height="0.2"/>
				
					<rect x="94" y="8.1" transform="matrix(0.2667 -0.9638 0.9638 0.2667 61.6883 97.4811)" fill="#ffffff" width="1.8" height="0.2"/>
				
					<rect x="93.7" y="8" transform="matrix(0.2656 -0.9641 0.9641 0.2656 61.6647 97.1946)" fill="#ffffff" width="1.8" height="0.2"/>
				
					<rect x="93.5" y="7.9" transform="matrix(0.2644 -0.9644 0.9644 0.2644 61.6412 96.9079)" fill="#ffffff" width="1.8" height="0.2"/>
				
					<rect x="93.2" y="7.9" transform="matrix(0.2632 -0.9647 0.9647 0.2632 61.617 96.6206)" fill="#ffffff" width="1.8" height="0.2"/>
				
					<rect x="92.9" y="7.8" transform="matrix(0.2621 -0.9651 0.9651 0.2621 61.5925 96.3329)" fill="#ffffff" width="1.8" height="0.2"/>
			</g>
		</g>
		<g>
			<g>
				
					<rect x="90.7" y="7.2" transform="matrix(0.2525 -0.9676 0.9676 0.2525 61.37 94.028)" fill="#ffffff" width="1.8" height="0.2"/>
				
					<rect x="90.4" y="7.1" transform="matrix(0.2513 -0.9679 0.9679 0.2513 61.3395 93.74)" fill="#ffffff" width="1.8" height="0.2"/>
				
					<rect x="90.1" y="7.1" transform="matrix(0.2501 -0.9682 0.9682 0.2501 61.3079 93.4512)" fill="#ffffff" width="1.8" height="0.2"/>
				
					<rect x="89.8" y="7" transform="matrix(0.2488 -0.9685 0.9685 0.2488 61.2753 93.1618)" fill="#ffffff" width="1.8" height="0.2"/>
				
					<rect x="89.5" y="6.9" transform="matrix(0.2476 -0.9689 0.9689 0.2476 61.2421 92.872)" fill="#ffffff" width="1.8" height="0.2"/>
				
					<rect x="89.2" y="6.8" transform="matrix(0.2464 -0.9692 0.9692 0.2464 61.2093 92.5819)" fill="#ffffff" width="1.8" height="0.2"/>
				
					<rect x="89" y="6.8" transform="matrix(0.2452 -0.9695 0.9695 0.2452 61.174 92.2909)" fill="#ffffff" width="1.8" height="0.2"/>
			</g>
		</g>
		<g>
			<g>
				
					<rect x="86.7" y="6.2" transform="matrix(0.2352 -0.972 0.972 0.2352 60.8755 89.9632)" fill="#ffffff" width="1.8" height="0.2"/>
				
					<rect x="86.4" y="6.1" transform="matrix(0.2339 -0.9723 0.9723 0.2339 60.8338 89.6719)" fill="#ffffff" width="1.8" height="0.2"/>
				
					<rect x="86.1" y="6.1" transform="matrix(0.2326 -0.9726 0.9726 0.2326 60.7924 89.3804)" fill="#ffffff" width="1.8" height="0.2"/>
				
					<rect x="85.9" y="6" transform="matrix(0.2314 -0.9729 0.9729 0.2314 60.7502 89.0884)" fill="#ffffff" width="1.8" height="0.2"/>
				
					<rect x="85.6" y="5.9" transform="matrix(0.2301 -0.9732 0.9732 0.2301 60.7066 88.7957)" fill="#ffffff" width="1.8" height="0.2"/>
				
					<rect x="85.3" y="5.9" transform="matrix(0.2288 -0.9735 0.9735 0.2288 60.6623 88.5024)" fill="#ffffff" width="1.8" height="0.2"/>
				
					<rect x="85" y="5.8" transform="matrix(0.2275 -0.9738 0.9738 0.2275 60.6188 88.2092)" fill="#ffffff" width="1.8" height="0.2"/>
			</g>
		</g>
		<g>
			<g>
				
					<rect x="82.8" y="5.3" transform="matrix(0.2171 -0.9762 0.9762 0.2171 60.2344 85.8594)" fill="#ffffff" width="1.8" height="0.2"/>
				
					<rect x="82.5" y="5.2" transform="matrix(0.2157 -0.9765 0.9765 0.2157 60.1829 85.5659)" fill="#ffffff" width="1.8" height="0.2"/>
				
					<rect x="82.2" y="5.2" transform="matrix(0.2144 -0.9767 0.9767 0.2144 60.13 85.2717)" fill="#ffffff" width="1.8" height="0.2"/>
				
					<rect x="81.9" y="5.1" transform="matrix(0.2131 -0.977 0.977 0.2131 60.0763 84.977)" fill="#ffffff" width="1.8" height="0.2"/>
				
					<rect x="81.6" y="5" transform="matrix(0.2117 -0.9773 0.9773 0.2117 60.0225 84.6819)" fill="#ffffff" width="1.8" height="0.2"/>
				
					<rect x="81.3" y="5" transform="matrix(0.2104 -0.9776 0.9776 0.2104 59.9681 84.3864)" fill="#ffffff" width="1.8" height="0.2"/>
				
					<rect x="81.1" y="4.9" transform="matrix(0.2091 -0.9779 0.9779 0.2091 59.9117 84.0901)" fill="#ffffff" width="1.8" height="0.2"/>
			</g>
		</g>
		<g>
			<g>
				
					<rect x="78.8" y="4.4" transform="matrix(0.1981 -0.9802 0.9802 0.1981 59.4376 81.7217)" fill="#ffffff" width="1.8" height="0.2"/>
				
					<rect x="78.5" y="4.4" transform="matrix(0.1968 -0.9805 0.9805 0.1968 59.3735 81.4257)" fill="#ffffff" width="1.8" height="0.2"/>
				
					<rect x="78.2" y="4.3" transform="matrix(0.1954 -0.9807 0.9807 0.1954 59.3096 81.1295)" fill="#ffffff" width="1.8" height="0.2"/>
				
					<rect x="77.9" y="4.3" transform="matrix(0.194 -0.981 0.981 0.194 59.2442 80.8326)" fill="#ffffff" width="1.8" height="0.2"/>
				
					<rect x="77.6" y="4.2" transform="matrix(0.1926 -0.9813 0.9813 0.1926 59.178 80.5352)" fill="#ffffff" width="1.8" height="0.2"/>
				
					<rect x="77.4" y="4.2" transform="matrix(0.1912 -0.9816 0.9816 0.1912 59.1116 80.2374)" fill="#ffffff" width="1.8" height="0.2"/>
				
					<rect x="77.1" y="4.1" transform="matrix(0.1898 -0.9818 0.9818 0.1898 59.044 79.9392)" fill="#ffffff" width="1.8" height="0.2"/>
			</g>
		</g>
		<g>
			<g>
				
					<rect x="74.8" y="3.7" transform="matrix(0.1784 -0.984 0.984 0.1784 58.4727 77.5594)" fill="#ffffff" width="1.8" height="0.2"/>
				
					<rect x="74.5" y="3.6" transform="matrix(0.1769 -0.9842 0.9842 0.1769 58.3963 77.2623)" fill="#ffffff" width="1.8" height="0.2"/>
				
					<rect x="74.2" y="3.6" transform="matrix(0.1755 -0.9845 0.9845 0.1755 58.3199 76.9649)" fill="#ffffff" width="1.8" height="0.2"/>
				
					<rect x="73.9" y="3.5" transform="matrix(0.174 -0.9847 0.9847 0.174 58.242 76.6667)" fill="#ffffff" width="1.8" height="0.2"/>
				
					<rect x="73.6" y="3.5" transform="matrix(0.1726 -0.985 0.985 0.1726 58.1633 76.3682)" fill="#ffffff" width="1.8" height="0.2"/>
				
					<rect x="73.4" y="3.4" transform="matrix(0.1711 -0.9853 0.9853 0.1711 58.0844 76.0693)" fill="#ffffff" width="1.8" height="0.2"/>
				
					<rect x="73.1" y="3.4" transform="matrix(0.1697 -0.9855 0.9855 0.1697 58.0041 75.7699)" fill="#ffffff" width="1.8" height="0.2"/>
			</g>
		</g>
		<g>
			<g>
				
					<rect x="70.8" y="3" transform="matrix(0.1578 -0.9875 0.9875 0.1578 57.3275 73.3772)" fill="#ffffff" width="1.8" height="0.2"/>
				
					<rect x="70.5" y="2.9" transform="matrix(0.1562 -0.9877 0.9877 0.1562 57.2373 73.0786)" fill="#ffffff" width="1.8" height="0.2"/>
				
					<rect x="70.2" y="2.9" transform="matrix(0.1547 -0.988 0.988 0.1547 57.1469 72.7796)" fill="#ffffff" width="1.8" height="0.2"/>
				
					<rect x="69.9" y="2.9" transform="matrix(0.1532 -0.9882 0.9882 0.1532 57.0556 72.4802)" fill="#ffffff" width="1.8" height="0.2"/>
				
					<rect x="69.6" y="2.8" transform="matrix(0.1517 -0.9884 0.9884 0.1517 56.9635 72.1803)" fill="#ffffff" width="1.8" height="0.2"/>
				
					<rect x="69.4" y="2.8" transform="matrix(0.1502 -0.9887 0.9887 0.1502 56.8705 71.88)" fill="#ffffff" width="1.8" height="0.2"/>
				
					<rect x="69.1" y="2.7" transform="matrix(0.1486 -0.9889 0.9889 0.1486 56.7767 71.5793)" fill="#ffffff" width="1.8" height="0.2"/>
			</g>
		</g>
		<g>
			<g>
				
					<rect x="66.8" y="2.4" transform="matrix(0.1362 -0.9907 0.9907 0.1362 55.9868 69.1778)" fill="#ffffff" width="1.8" height="0.2"/>
				
					<rect x="66.5" y="2.3" transform="matrix(0.1346 -0.9909 0.9909 0.1346 55.8828 68.8785)" fill="#ffffff" width="1.8" height="0.2"/>
				
					<rect x="66.2" y="2.3" transform="matrix(0.133 -0.9911 0.9911 0.133 55.778 68.5788)" fill="#ffffff" width="1.8" height="0.2"/>
				
					<rect x="65.9" y="2.3" transform="matrix(0.1315 -0.9913 0.9913 0.1315 55.6716 68.2785)" fill="#ffffff" width="1.8" height="0.2"/>
				
					<rect x="65.6" y="2.2" transform="matrix(0.1299 -0.9915 0.9915 0.1299 55.5644 67.9779)" fill="#ffffff" width="1.8" height="0.2"/>
				
					<rect x="65.3" y="2.2" transform="matrix(0.1283 -0.9917 0.9917 0.1283 55.4574 67.6769)" fill="#ffffff" width="1.8" height="0.2"/>
				
					<rect x="65.1" y="2.2" transform="matrix(0.1267 -0.9919 0.9919 0.1267 55.3484 67.3755)" fill="#ffffff" width="1.8" height="0.2"/>
			</g>
		</g>
		<g>
			<g>
				
					<rect x="62.7" y="1.9" transform="matrix(0.1137 -0.9935 0.9935 0.1137 54.4372 64.9708)" fill="#ffffff" width="1.8" height="0.2"/>
				
					<rect x="62.5" y="1.8" transform="matrix(0.1121 -0.9937 0.9937 0.1121 54.3178 64.6714)" fill="#ffffff" width="1.8" height="0.2"/>
				
					<rect x="62.2" y="1.8" transform="matrix(0.1104 -0.9939 0.9939 0.1104 54.1973 64.3716)" fill="#ffffff" width="1.8" height="0.2"/>
				
					<rect x="61.9" y="1.8" transform="matrix(0.1088 -0.9941 0.9941 0.1088 54.0753 64.0713)" fill="#ffffff" width="1.8" height="0.2"/>
				
					<rect x="61.6" y="1.7" transform="matrix(0.1071 -0.9942 0.9942 0.1071 53.953 63.7707)" fill="#ffffff" width="1.8" height="0.2"/>
				
					<rect x="61.3" y="1.7" transform="matrix(0.1055 -0.9944 0.9944 0.1055 53.8296 63.4698)" fill="#ffffff" width="1.8" height="0.2"/>
				
					<rect x="61" y="1.7" transform="matrix(0.1038 -0.9946 0.9946 0.1038 53.705 63.1684)" fill="#ffffff" width="1.8" height="0.2"/>
			</g>
		</g>
		<g>
			<g>
				
					<rect x="58.7" y="1.5" transform="matrix(9.027864e-002 -0.9959 0.9959 9.027864e-002 52.6651 60.767)" fill="#ffffff" width="1.8" height="0.2"/>
				
					<rect x="58.4" y="1.4" transform="matrix(8.856118e-002 -0.9961 0.9961 8.856118e-002 52.5284 60.4683)" fill="#ffffff" width="1.8" height="0.2"/>
				
					<rect x="58.1" y="1.4" transform="matrix(8.683491e-002 -0.9962 0.9962 8.683491e-002 52.3912 60.1693)" fill="#ffffff" width="1.8" height="0.2"/>
				
					<rect x="57.8" y="1.4" transform="matrix(8.510910e-002 -0.9964 0.9964 8.510910e-002 52.253 59.8699)" fill="#ffffff" width="1.8" height="0.2"/>
				
					<rect x="57.5" y="1.4" transform="matrix(8.339158e-002 -0.9965 0.9965 8.339158e-002 52.1134 59.5702)" fill="#ffffff" width="1.8" height="0.2"/>
				
					<rect x="57.3" y="1.3" transform="matrix(8.165742e-002 -0.9967 0.9967 8.165742e-002 51.9736 59.2701)" fill="#ffffff" width="1.8" height="0.2"/>
				
					<rect x="57" y="1.3" transform="matrix(7.993941e-002 -0.9968 0.9968 7.993941e-002 51.8321 58.9698)" fill="#ffffff" width="1.8" height="0.2"/>
			</g>
		</g>
		<g>
			<g>
				
					<rect x="54.7" y="1.1" transform="matrix(6.584760e-002 -0.9978 0.9978 6.584760e-002 50.6539 56.579)" fill="#ffffff" width="1.8" height="0.2"/>
				
					<rect x="54.4" y="1.1" transform="matrix(6.405265e-002 -0.9979 0.9979 6.405265e-002 50.5 56.2821)" fill="#ffffff" width="1.8" height="0.2"/>
				
					<rect x="54.1" y="1.1" transform="matrix(6.224940e-002 -0.9981 0.9981 6.224940e-002 50.3454 55.985)" fill="#ffffff" width="1.8" height="0.2"/>
				
					<rect x="53.8" y="1.1" transform="matrix(6.045511e-002 -0.9982 0.9982 6.045511e-002 50.1893 55.6874)" fill="#ffffff" width="1.8" height="0.2"/>
				
					<rect x="53.5" y="1.1" transform="matrix(5.865955e-002 -0.9983 0.9983 5.865955e-002 50.0323 55.3897)" fill="#ffffff" width="1.8" height="0.2"/>
				
					<rect x="53.2" y="1.1" transform="matrix(5.686535e-002 -0.9984 0.9984 5.686535e-002 49.8741 55.0915)" fill="#ffffff" width="1.8" height="0.2"/>
				
					<rect x="52.9" y="1" transform="matrix(5.507050e-002 -0.9985 0.9985 5.507050e-002 49.715 54.7931)" fill="#ffffff" width="1.8" height="0.2"/>
			</g>
		</g>
		<g>
			<g>
				
					<rect x="50.6" y="0.9" transform="matrix(4.040317e-002 -0.9992 0.9992 4.040317e-002 48.3907 52.4218)" fill="#ffffff" width="1.8" height="0.2"/>
				
					<rect x="50.3" y="0.9" transform="matrix(3.853995e-002 -0.9993 0.9993 3.853995e-002 48.2178 52.1278)" fill="#ffffff" width="1.8" height="0.2"/>
				
					<rect x="50" y="0.9" transform="matrix(3.666766e-002 -0.9993 0.9993 3.666766e-002 48.0444 51.8336)" fill="#ffffff" width="1.8" height="0.2"/>
				
					<rect x="49.7" y="0.9" transform="matrix(3.479584e-002 -0.9994 0.9994 3.479584e-002 47.8698 51.5391)" fill="#ffffff" width="1.8" height="0.2"/>
				
					<rect x="49.4" y="0.9" transform="matrix(3.293260e-002 -0.9995 0.9995 3.293260e-002 47.6937 51.2444)" fill="#ffffff" width="1.8" height="0.2"/>
				
					<rect x="49.1" y="0.9" transform="matrix(3.106054e-002 -0.9995 0.9995 3.106054e-002 47.5169 50.9494)" fill="#ffffff" width="1.8" height="0.2"/>
				
					<rect x="48.9" y="0.9" transform="matrix(2.919696e-002 -0.9996 0.9996 2.919696e-002 47.3388 50.6542)" fill="#ffffff" width="1.8" height="0.2"/>
			</g>
		</g>
		<g>
			<g>
				
					<rect x="46.5" y="0.8" transform="matrix(1.395450e-002 -0.9999 0.9999 1.395450e-002 45.8596 48.3122)" fill="#ffffff" width="1.8" height="0.2"/>
				
					<rect x="46.2" y="0.8" transform="matrix(1.201370e-002 -0.9999 0.9999 1.201370e-002 45.6673 48.0225)" fill="#ffffff" width="1.8" height="0.2"/>
				
					<rect x="46" y="0.8" transform="matrix(1.007297e-002 -0.9999 0.9999 1.007297e-002 45.4739 47.7325)" fill="#ffffff" width="1.8" height="0.2"/>
				
					<rect x="45.7" y="0.8" transform="matrix(8.132205e-003 -1 1 8.132205e-003 45.2793 47.4423)" fill="#ffffff" width="1.8" height="0.2"/>
				
					<rect x="45.4" y="0.8" transform="matrix(6.199992e-003 -1 1 6.199992e-003 45.0832 47.1521)" fill="#ffffff" width="1.8" height="0.2"/>
				
					<rect x="45.1" y="0.8" transform="matrix(4.259291e-003 -1 1 4.259291e-003 44.8864 46.8615)" fill="#ffffff" width="1.8" height="0.2"/>
				<rect x="45.6" y="0" fill="#ffffff" width="0.2" height="1.8"/>
			</g>
		</g>
		<g>
			<g>
				
					<rect x="42.5" y="0.8" transform="matrix(-1.349925e-002 -0.9999 0.9999 -1.349925e-002 43.0466 44.2696)" fill="#ffffff" width="1.8" height="0.2"/>
				
					<rect x="42.2" y="0.8" transform="matrix(-1.550867e-002 -0.9999 0.9999 -1.550867e-002 42.8334 43.9855)" fill="#ffffff" width="1.8" height="0.2"/>
				
					<rect x="41.9" y="0.8" transform="matrix(-1.751814e-002 -0.9998 0.9998 -1.751814e-002 42.6191 43.7014)" fill="#ffffff" width="1.8" height="0.2"/>
				
					<rect x="41.6" y="0.8" transform="matrix(-1.952755e-002 -0.9998 0.9998 -1.952755e-002 42.4036 43.417)" fill="#ffffff" width="1.8" height="0.2"/>
				
					<rect x="41.3" y="0.8" transform="matrix(-2.153699e-002 -0.9998 0.9998 -2.153699e-002 42.1869 43.1326)" fill="#ffffff" width="1.8" height="0.2"/>
				
					<rect x="41" y="0.8" transform="matrix(-2.354647e-002 -0.9997 0.9997 -2.354647e-002 41.969 42.8481)" fill="#ffffff" width="1.8" height="0.2"/>
				
					<rect x="40.7" y="0.8" transform="matrix(-2.555585e-002 -0.9997 0.9997 -2.555585e-002 41.7501 42.5634)" fill="#ffffff" width="1.8" height="0.2"/>
			</g>
		</g>
		<g>
			<g>
				
					<rect x="38.4" y="0.9" transform="matrix(-4.193630e-002 -0.9991 0.9991 -4.193630e-002 39.9375 40.3157)" fill="#ffffff" width="1.8" height="0.2"/>
				
					<rect x="38.1" y="0.9" transform="matrix(-4.401387e-002 -0.999 0.999 -4.401387e-002 39.7026 40.039)" fill="#ffffff" width="1.8" height="0.2"/>
				
					<rect x="37.8" y="0.9" transform="matrix(-4.609672e-002 -0.9989 0.9989 -4.609672e-002 39.4667 39.7623)" fill="#ffffff" width="1.8" height="0.2"/>
				
					<rect x="37.5" y="1" transform="matrix(-4.817508e-002 -0.9988 0.9988 -4.817508e-002 39.2294 39.4855)" fill="#ffffff" width="1.8" height="0.2"/>
				
					<rect x="37.2" y="1" transform="matrix(-5.025717e-002 -0.9987 0.9987 -5.025717e-002 38.9911 39.2087)" fill="#ffffff" width="1.8" height="0.2"/>
				
					<rect x="37" y="1" transform="matrix(-5.233547e-002 -0.9986 0.9986 -5.233547e-002 38.7514 38.9318)" fill="#ffffff" width="1.8" height="0.2"/>
				
					<rect x="36.7" y="1" transform="matrix(-5.441365e-002 -0.9985 0.9985 -5.441365e-002 38.5106 38.655)" fill="#ffffff" width="1.8" height="0.2"/>
			</g>
		</g>
		<g>
			<g>
				
					<rect x="34.4" y="1.1" transform="matrix(-7.133432e-002 -0.9975 0.9975 -7.133432e-002 36.5201 36.4749)" fill="#ffffff" width="1.8" height="0.2"/>
				
					<rect x="34.1" y="1.2" transform="matrix(-7.348172e-002 -0.9973 0.9973 -7.348172e-002 36.2628 36.2075)" fill="#ffffff" width="1.8" height="0.2"/>
				
					<rect x="33.8" y="1.2" transform="matrix(-7.562864e-002 -0.9971 0.9971 -7.562864e-002 36.0043 35.9402)" fill="#ffffff" width="1.8" height="0.2"/>
				
					<rect x="33.5" y="1.2" transform="matrix(-7.777534e-002 -0.997 0.997 -7.777534e-002 35.7444 35.6727)" fill="#ffffff" width="1.8" height="0.2"/>
				
					<rect x="33.2" y="1.2" transform="matrix(-7.992239e-002 -0.9968 0.9968 -7.992239e-002 35.4834 35.4054)" fill="#ffffff" width="1.8" height="0.2"/>
				
					<rect x="32.9" y="1.3" transform="matrix(-8.206894e-002 -0.9966 0.9966 -8.206894e-002 35.2211 35.1381)" fill="#ffffff" width="1.8" height="0.2"/>
				
					<rect x="32.6" y="1.3" transform="matrix(-8.421524e-002 -0.9964 0.9964 -8.421524e-002 34.9577 34.8709)" fill="#ffffff" width="1.8" height="0.2"/>
			</g>
		</g>
		<g>
			<g>
				
					<rect x="30.3" y="1.5" transform="matrix(-0.1017 -0.9948 0.9948 -0.1017 32.7835 32.7743)" fill="#ffffff" width="1.8" height="0.2"/>
				
					<rect x="30" y="1.5" transform="matrix(-0.1039 -0.9946 0.9946 -0.1039 32.5029 32.5182)" fill="#ffffff" width="1.8" height="0.2"/>
				
					<rect x="29.7" y="1.6" transform="matrix(-0.1061 -0.9944 0.9944 -0.1061 32.2212 32.2621)" fill="#ffffff" width="1.8" height="0.2"/>
				
					<rect x="29.4" y="1.6" transform="matrix(-0.1083 -0.9941 0.9941 -0.1083 31.9381 32.0062)" fill="#ffffff" width="1.8" height="0.2"/>
				
					<rect x="29.1" y="1.6" transform="matrix(-0.1105 -0.9939 0.9939 -0.1105 31.6538 31.7504)" fill="#ffffff" width="1.8" height="0.2"/>
				
					<rect x="28.9" y="1.6" transform="matrix(-0.1127 -0.9936 0.9936 -0.1127 31.3682 31.4947)" fill="#ffffff" width="1.8" height="0.2"/>
				
					<rect x="28.6" y="1.7" transform="matrix(-0.1149 -0.9934 0.9934 -0.1149 31.0814 31.2393)" fill="#ffffff" width="1.8" height="0.2"/>
			</g>
		</g>
		<g>
			<g>
				
					<rect x="26.3" y="2" transform="matrix(-0.1328 -0.9911 0.9911 -0.1328 28.7187 29.2433)" fill="#ffffff" width="1.8" height="0.2"/>
				
					<rect x="26" y="2" transform="matrix(-0.1351 -0.9908 0.9908 -0.1351 28.4143 29.0006)" fill="#ffffff" width="1.8" height="0.2"/>
				
					<rect x="25.7" y="2" transform="matrix(-0.1374 -0.9905 0.9905 -0.1374 28.1088 28.7581)" fill="#ffffff" width="1.8" height="0.2"/>
				
					<rect x="25.4" y="2.1" transform="matrix(-0.1396 -0.9902 0.9902 -0.1396 27.802 28.5159)" fill="#ffffff" width="1.8" height="0.2"/>
				
					<rect x="25.1" y="2.1" transform="matrix(-0.1419 -0.9899 0.9899 -0.1419 27.4939 28.2739)" fill="#ffffff" width="1.8" height="0.2"/>
				
					<rect x="24.8" y="2.2" transform="matrix(-0.1442 -0.9896 0.9896 -0.1442 27.1846 28.032)" fill="#ffffff" width="1.8" height="0.2"/>
				
					<rect x="24.5" y="2.2" transform="matrix(-0.1464 -0.9892 0.9892 -0.1464 26.8739 27.7905)" fill="#ffffff" width="1.8" height="0.2"/>
			</g>
		</g>
		<g>
			<g>
				
					<rect x="22.2" y="2.6" transform="matrix(-0.1648 -0.9863 0.9863 -0.1648 24.3195 25.9135)" fill="#ffffff" width="1.8" height="0.2"/>
				
					<rect x="22" y="2.6" transform="matrix(-0.1671 -0.9859 0.9859 -0.1671 23.9913 25.6866)" fill="#ffffff" width="1.8" height="0.2"/>
				
					<rect x="21.7" y="2.7" transform="matrix(-0.1694 -0.9855 0.9855 -0.1694 23.6617 25.4601)" fill="#ffffff" width="1.8" height="0.2"/>
				
					<rect x="21.4" y="2.7" transform="matrix(-0.1718 -0.9851 0.9851 -0.1718 23.3308 25.2338)" fill="#ffffff" width="1.8" height="0.2"/>
				
					<rect x="21.1" y="2.8" transform="matrix(-0.1741 -0.9847 0.9847 -0.1741 22.9987 25.008)" fill="#ffffff" width="1.8" height="0.2"/>
				
					<rect x="20.8" y="2.8" transform="matrix(-0.1764 -0.9843 0.9843 -0.1764 22.6652 24.7824)" fill="#ffffff" width="1.8" height="0.2"/>
				
					<rect x="20.5" y="2.9" transform="matrix(-0.1787 -0.9839 0.9839 -0.1787 22.3305 24.5573)" fill="#ffffff" width="1.8" height="0.2"/>
			</g>
		</g>
		<g>
			<g>
				
					<rect x="18.2" y="3.3" transform="matrix(-0.1974 -0.9803 0.9803 -0.1974 19.5835 22.8186)" fill="#ffffff" width="1.8" height="0.2"/>
				
					<rect x="18" y="3.4" transform="matrix(-0.1998 -0.9798 0.9798 -0.1998 19.231 22.61)" fill="#ffffff" width="1.8" height="0.2"/>
				
					<rect x="17.7" y="3.4" transform="matrix(-0.2022 -0.9794 0.9794 -0.2022 18.8776 22.4019)" fill="#ffffff" width="1.8" height="0.2"/>
				
					<rect x="17.4" y="3.5" transform="matrix(-0.2045 -0.9789 0.9789 -0.2045 18.5226 22.1941)" fill="#ffffff" width="1.8" height="0.2"/>
				
					<rect x="17.1" y="3.5" transform="matrix(-0.2069 -0.9784 0.9784 -0.2069 18.1664 21.9869)" fill="#ffffff" width="1.8" height="0.2"/>
				
					<rect x="16.8" y="3.6" transform="matrix(-0.2093 -0.9779 0.9779 -0.2093 17.8088 21.7801)" fill="#ffffff" width="1.8" height="0.2"/>
				
					<rect x="16.5" y="3.7" transform="matrix(-0.2116 -0.9774 0.9774 -0.2116 17.4502 21.5737)" fill="#ffffff" width="1.8" height="0.2"/>
			</g>
		</g>
		<g>
			<g>
				
					<rect x="14.3" y="4.2" transform="matrix(-0.2307 -0.973 0.973 -0.2307 14.5115 19.9936)" fill="#ffffff" width="1.8" height="0.2"/>
				
					<rect x="14" y="4.2" transform="matrix(-0.2331 -0.9725 0.9725 -0.2331 14.1353 19.8058)" fill="#ffffff" width="1.8" height="0.2"/>
				
					<rect x="13.7" y="4.3" transform="matrix(-0.2355 -0.9719 0.9719 -0.2355 13.7579 19.6187)" fill="#ffffff" width="1.8" height="0.2"/>
				
					<rect x="13.4" y="4.4" transform="matrix(-0.2379 -0.9713 0.9713 -0.2379 13.3793 19.432)" fill="#ffffff" width="1.8" height="0.2"/>
				
					<rect x="13.1" y="4.4" transform="matrix(-0.2403 -0.9707 0.9707 -0.2403 12.9994 19.2459)" fill="#ffffff" width="1.8" height="0.2"/>
				
					<rect x="12.9" y="4.5" transform="matrix(-0.2426 -0.9701 0.9701 -0.2426 12.6181 19.0604)" fill="#ffffff" width="1.8" height="0.2"/>
				
					<rect x="12.6" y="4.6" transform="matrix(-0.245 -0.9695 0.9695 -0.245 12.2357 18.8755)" fill="#ffffff" width="1.8" height="0.2"/>
			</g>
		</g>
		<g>
			<g>
				
					<rect x="10.3" y="5.2" transform="matrix(-0.2643 -0.9644 0.9644 -0.2643 9.1093 17.4745)" fill="#ffffff" width="1.8" height="0.2"/>
				
					<rect x="10.1" y="5.2" transform="matrix(-0.2667 -0.9638 0.9638 -0.2667 8.7108 17.3104)" fill="#ffffff" width="1.8" height="0.2"/>
				
					<rect x="9.8" y="5.3" transform="matrix(-0.2692 -0.9631 0.9631 -0.2692 8.311 17.147)" fill="#ffffff" width="1.8" height="0.2"/>
				
					<rect x="9.5" y="5.4" transform="matrix(-0.2716 -0.9624 0.9624 -0.2716 7.9099 16.9843)" fill="#ffffff" width="1.8" height="0.2"/>
				
					<rect x="9.2" y="5.5" transform="matrix(-0.274 -0.9617 0.9617 -0.274 7.5076 16.8222)" fill="#ffffff" width="1.8" height="0.2"/>
				
					<rect x="8.9" y="5.6" transform="matrix(-0.2764 -0.961 0.961 -0.2764 7.1041 16.6608)" fill="#ffffff" width="1.8" height="0.2"/>
				
					<rect x="8.7" y="5.6" transform="matrix(-0.2788 -0.9603 0.9603 -0.2788 6.6995 16.5002)" fill="#ffffff" width="1.8" height="0.2"/>
			</g>
		</g>
		<g>
			<g>
				
					<rect x="6.4" y="6.4" transform="matrix(-0.2983 -0.9545 0.9545 -0.2983 3.3055 15.2678)" fill="#ffffff" width="1.8" height="0.1"/>
				
					<rect x="6.2" y="6.4" transform="matrix(-0.2995 -0.9541 0.9541 -0.2995 3.0985 15.1988)" fill="#ffffff" width="1.8" height="0.1"/>
				
					<rect x="6.1" y="6.5" transform="matrix(-0.3007 -0.9537 0.9537 -0.3007 2.8911 15.13)" fill="#ffffff" width="1.8" height="0.1"/>
				
					<rect x="6" y="6.5" transform="matrix(-0.3019 -0.9533 0.9533 -0.3019 2.6834 15.0613)" fill="#ffffff" width="1.8" height="0.1"/>
				
					<rect x="5.8" y="6.5" transform="matrix(-0.3031 -0.953 0.953 -0.3031 2.4755 14.9929)" fill="#ffffff" width="1.8" height="0.1"/>
				
					<rect x="5.7" y="6.6" transform="matrix(-0.3043 -0.9526 0.9526 -0.3043 2.2673 14.9247)" fill="#ffffff" width="1.8" height="0.1"/>
				
					<rect x="5.6" y="6.6" transform="matrix(-0.3055 -0.9522 0.9522 -0.3055 2.0588 14.8567)" fill="#ffffff" width="1.8" height="0.1"/>
			</g>
		</g>
	</g>
</g>
<polygon fill="#ffffff" points="7.9,10.1 0,8 6.6,3.2 "/>
</svg>
