<?xml version="1.0" encoding="utf-8"?>
<!-- Generator: Adobe Illustrator 18.1.1, SVG Export Plug-In . SVG Version: 6.00 Build 0)  -->
<svg version="1.1" id="Layer_1" xmlns="http://www.w3.org/2000/svg" xmlns:xlink="http://www.w3.org/1999/xlink" x="0px" y="0px"
	 viewBox="0 0 242 53.4" enable-background="new 0 0 242 53.4" xml:space="preserve">
<g>
	<g>
		<g>
			<g>
				
					<rect x="-0.7" y="4.8" transform="matrix(0.1521 0.9884 -0.9884 0.1521 4.9318 3.9177)" fill="#ffffff" width="1.8" height="0.1"/>
				
					<rect x="-0.6" y="4.8" transform="matrix(0.1521 0.9884 -0.9884 0.1521 5.03 3.7597)" fill="#ffffff" width="1.8" height="0.1"/>
				
					<rect x="-0.4" y="4.7" transform="matrix(0.1521 0.9884 -0.9884 0.1521 5.1283 3.6018)" fill="#ffffff" width="1.8" height="0.1"/>
				
					<rect x="-0.3" y="4.7" transform="matrix(0.1521 0.9884 -0.9884 0.1521 5.2265 3.4438)" fill="#ffffff" width="1.8" height="0.1"/>
				
					<rect x="-0.1" y="4.7" transform="matrix(0.1521 0.9884 -0.9884 0.1521 5.3247 3.2859)" fill="#ffffff" width="1.8" height="0.1"/>
				<rect x="0" y="4.7" transform="matrix(0.1521 0.9884 -0.9884 0.1521 5.423 3.1279)" fill="#ffffff" width="1.8" height="0.1"/>
				
					<rect x="0.1" y="4.7" transform="matrix(0.1521 0.9884 -0.9884 0.1521 5.5212 2.9699)" fill="#ffffff" width="1.8" height="0.1"/>
			</g>
		</g>
		<g>
			<g>
				
					<rect x="2.3" y="4.3" transform="matrix(0.1431 0.9897 -0.9897 0.1431 7.0957 0.5568)" fill="#ffffff" width="1.8" height="0.2"/>
				
					<rect x="2.6" y="4.2" transform="matrix(0.1422 0.9898 -0.9898 0.1422 7.3012 0.2476)" fill="#ffffff" width="1.8" height="0.2"/>
				
					<rect x="2.9" y="4.2" transform="matrix(0.1412 0.99 -0.99 0.1412 7.5072 -6.167907e-002)" fill="#ffffff" width="1.8" height="0.2"/>
				
					<rect x="3.2" y="4.2" transform="matrix(0.1403 0.9901 -0.9901 0.1403 7.7138 -0.3712)" fill="#ffffff" width="1.8" height="0.2"/>
				
					<rect x="3.5" y="4.1" transform="matrix(0.1394 0.9902 -0.9902 0.1394 7.9209 -0.6809)" fill="#ffffff" width="1.8" height="0.2"/>
				
					<rect x="3.7" y="4.1" transform="matrix(0.1384 0.9904 -0.9904 0.1384 8.1285 -0.9907)" fill="#ffffff" width="1.8" height="0.2"/>
				<rect x="4" y="4" transform="matrix(0.1375 0.9905 -0.9905 0.1375 8.3366 -1.3006)" fill="#ffffff" width="1.8" height="0.2"/>
			</g>
		</g>
		<g>
			<g>
				
					<rect x="6.3" y="3.7" transform="matrix(0.1301 0.9915 -0.9915 0.1301 10.0347 -3.7753)" fill="#ffffff" width="1.8" height="0.2"/>
				
					<rect x="6.6" y="3.7" transform="matrix(0.1292 0.9916 -0.9916 0.1292 10.2513 -4.0838)" fill="#ffffff" width="1.8" height="0.2"/>
				
					<rect x="6.8" y="3.7" transform="matrix(0.1283 0.9917 -0.9917 0.1283 10.4683 -4.3925)" fill="#ffffff" width="1.8" height="0.2"/>
				
					<rect x="7.1" y="3.6" transform="matrix(0.1274 0.9918 -0.9918 0.1274 10.6858 -4.7013)" fill="#ffffff" width="1.8" height="0.2"/>
				
					<rect x="7.4" y="3.6" transform="matrix(0.1265 0.992 -0.992 0.1265 10.9038 -5.0103)" fill="#ffffff" width="1.8" height="0.2"/>
				
					<rect x="7.7" y="3.6" transform="matrix(0.1256 0.9921 -0.9921 0.1256 11.1224 -5.3194)" fill="#ffffff" width="1.8" height="0.2"/>
				
					<rect x="8" y="3.5" transform="matrix(0.1247 0.9922 -0.9922 0.1247 11.3414 -5.6285)" fill="#ffffff" width="1.8" height="0.2"/>
			</g>
		</g>
		<g>
			<g>
				
					<rect x="10.2" y="3.2" transform="matrix(0.1176 0.9931 -0.9931 0.1176 13.1255 -8.0963)" fill="#ffffff" width="1.8" height="0.2"/>
				
					<rect x="10.5" y="3.2" transform="matrix(0.1167 0.9932 -0.9932 0.1167 13.3527 -8.4039)" fill="#ffffff" width="1.8" height="0.2"/>
				
					<rect x="10.8" y="3.2" transform="matrix(0.1158 0.9933 -0.9933 0.1158 13.5802 -8.7115)" fill="#ffffff" width="1.8" height="0.2"/>
				
					<rect x="11.1" y="3.1" transform="matrix(0.1149 0.9934 -0.9934 0.1149 13.8083 -9.0194)" fill="#ffffff" width="1.8" height="0.2"/>
				
					<rect x="11.4" y="3.1" transform="matrix(0.114 0.9935 -0.9935 0.114 14.0369 -9.3272)" fill="#ffffff" width="1.8" height="0.2"/>
				
					<rect x="11.6" y="3.1" transform="matrix(0.1132 0.9936 -0.9936 0.1132 14.266 -9.6353)" fill="#ffffff" width="1.8" height="0.2"/>
				
					<rect x="11.9" y="3" transform="matrix(0.1123 0.9937 -0.9937 0.1123 14.4955 -9.9434)" fill="#ffffff" width="1.8" height="0.2"/>
			</g>
		</g>
		<g>
			<g>
				
					<rect x="14.2" y="2.8" transform="matrix(0.1053 0.9944 -0.9944 0.1053 16.3624 -12.4018)" fill="#ffffff" width="1.8" height="0.2"/>
				
					<rect x="14.5" y="2.8" transform="matrix(0.1045 0.9945 -0.9945 0.1045 16.5997 -12.7081)" fill="#ffffff" width="1.8" height="0.2"/>
				
					<rect x="14.8" y="2.7" transform="matrix(0.1036 0.9946 -0.9946 0.1036 16.8374 -13.0145)" fill="#ffffff" width="1.8" height="0.2"/>
				
					<rect x="15" y="2.7" transform="matrix(0.1028 0.9947 -0.9947 0.1028 17.0757 -13.3211)" fill="#ffffff" width="1.8" height="0.2"/>
				
					<rect x="15.3" y="2.7" transform="matrix(0.1019 0.9948 -0.9948 0.1019 17.3144 -13.6276)" fill="#ffffff" width="1.8" height="0.2"/>
				
					<rect x="15.6" y="2.7" transform="matrix(0.1011 0.9949 -0.9949 0.1011 17.5536 -13.9344)" fill="#ffffff" width="1.8" height="0.2"/>
				
					<rect x="15.9" y="2.6" transform="matrix(0.1002 0.995 -0.995 0.1002 17.7932 -14.2411)" fill="#ffffff" width="1.8" height="0.2"/>
			</g>
		</g>
		<g>
			<g>
				
					<rect x="18.1" y="2.4" transform="matrix(9.347714e-002 0.9956 -0.9956 9.347714e-002 19.7399 -16.688)" fill="#ffffff" width="1.8" height="0.2"/>
				
					<rect x="18.4" y="2.4" transform="matrix(9.264642e-002 0.9957 -0.9957 9.264642e-002 19.987 -16.9928)" fill="#ffffff" width="1.8" height="0.2"/>
				
					<rect x="18.7" y="2.3" transform="matrix(9.181552e-002 0.9958 -0.9958 9.181552e-002 20.2345 -17.2977)" fill="#ffffff" width="1.8" height="0.2"/>
				
					<rect x="19" y="2.3" transform="matrix(9.098466e-002 0.9959 -0.9959 9.098466e-002 20.4826 -17.6027)" fill="#ffffff" width="1.8" height="0.2"/>
				
					<rect x="19.3" y="2.3" transform="matrix(9.015363e-002 0.9959 -0.9959 9.015363e-002 20.7311 -17.9077)" fill="#ffffff" width="1.8" height="0.2"/>
				
					<rect x="19.6" y="2.3" transform="matrix(8.932336e-002 0.996 -0.996 8.932336e-002 20.9801 -18.2128)" fill="#ffffff" width="1.8" height="0.2"/>
				
					<rect x="19.8" y="2.2" transform="matrix(8.849338e-002 0.9961 -0.9961 8.849338e-002 21.2294 -18.5179)" fill="#ffffff" width="1.8" height="0.2"/>
			</g>
		</g>
		<g>
			<g>
				
					<rect x="22.1" y="2.1" transform="matrix(8.194031e-002 0.9966 -0.9966 8.194031e-002 23.253 -20.9514)" fill="#ffffff" width="1.8" height="0.2"/>
				
					<rect x="22.4" y="2" transform="matrix(8.113286e-002 0.9967 -0.9967 8.113286e-002 23.5096 -21.2545)" fill="#ffffff" width="1.8" height="0.2"/>
				
					<rect x="22.7" y="2" transform="matrix(8.032334e-002 0.9968 -0.9968 8.032334e-002 23.7666 -21.5576)" fill="#ffffff" width="1.8" height="0.2"/>
				
					<rect x="23" y="2" transform="matrix(7.951649e-002 0.9968 -0.9968 7.951649e-002 24.0241 -21.8608)" fill="#ffffff" width="1.8" height="0.2"/>
				
					<rect x="23.2" y="2" transform="matrix(7.870746e-002 0.9969 -0.9969 7.870746e-002 24.282 -22.164)" fill="#ffffff" width="1.8" height="0.2"/>
				
					<rect x="23.5" y="1.9" transform="matrix(7.789766e-002 0.997 -0.997 7.789766e-002 24.5405 -22.4673)" fill="#ffffff" width="1.8" height="0.2"/>
				
					<rect x="23.8" y="1.9" transform="matrix(7.708781e-002 0.997 -0.997 7.708781e-002 24.7993 -22.7706)" fill="#ffffff" width="1.8" height="0.2"/>
			</g>
		</g>
		<g>
			<g>
				
					<rect x="26.1" y="1.7" transform="matrix(7.070819e-002 0.9975 -0.9975 7.070819e-002 26.8972 -25.189)" fill="#ffffff" width="1.8" height="0.2"/>
				
					<rect x="26.4" y="1.7" transform="matrix(6.992276e-002 0.9976 -0.9976 6.992276e-002 27.1628 -25.4901)" fill="#ffffff" width="1.8" height="0.2"/>
				
					<rect x="26.6" y="1.7" transform="matrix(6.913229e-002 0.9976 -0.9976 6.913229e-002 27.4291 -25.7912)" fill="#ffffff" width="1.8" height="0.2"/>
				
					<rect x="26.9" y="1.7" transform="matrix(6.834464e-002 0.9977 -0.9977 6.834464e-002 27.6957 -26.0924)" fill="#ffffff" width="1.8" height="0.2"/>
				
					<rect x="27.2" y="1.7" transform="matrix(6.755634e-002 0.9977 -0.9977 6.755634e-002 27.9628 -26.3936)" fill="#ffffff" width="1.8" height="0.2"/>
				
					<rect x="27.5" y="1.6" transform="matrix(6.676848e-002 0.9978 -0.9978 6.676848e-002 28.2303 -26.695)" fill="#ffffff" width="1.8" height="0.2"/>
				
					<rect x="27.8" y="1.6" transform="matrix(6.598070e-002 0.9978 -0.9978 6.598070e-002 28.4982 -26.9962)" fill="#ffffff" width="1.8" height="0.2"/>
			</g>
		</g>
		<g>
			<g>
				
					<rect x="30.1" y="1.5" transform="matrix(5.975899e-002 0.9982 -0.9982 5.975899e-002 30.668 -29.3978)" fill="#ffffff" width="1.8" height="0.2"/>
				
					<rect x="30.3" y="1.5" transform="matrix(5.899062e-002 0.9983 -0.9983 5.899062e-002 30.9426 -29.6968)" fill="#ffffff" width="1.8" height="0.2"/>
				
					<rect x="30.6" y="1.5" transform="matrix(5.822209e-002 0.9983 -0.9983 5.822209e-002 31.2177 -29.9957)" fill="#ffffff" width="1.8" height="0.2"/>
				
					<rect x="30.9" y="1.4" transform="matrix(5.745317e-002 0.9983 -0.9983 5.745317e-002 31.4932 -30.2948)" fill="#ffffff" width="1.8" height="0.2"/>
				
					<rect x="31.2" y="1.4" transform="matrix(5.668302e-002 0.9984 -0.9984 5.668302e-002 31.7691 -30.5938)" fill="#ffffff" width="1.8" height="0.2"/>
				
					<rect x="31.5" y="1.4" transform="matrix(5.591403e-002 0.9984 -0.9984 5.591403e-002 32.0455 -30.8929)" fill="#ffffff" width="1.8" height="0.2"/>
				
					<rect x="31.8" y="1.4" transform="matrix(5.514536e-002 0.9985 -0.9985 5.514536e-002 32.3222 -31.192)" fill="#ffffff" width="1.8" height="0.2"/>
			</g>
		</g>
		<g>
			<g>
				
					<rect x="34" y="1.3" transform="matrix(4.907027e-002 0.9988 -0.9988 4.907027e-002 34.5618 -33.5754)" fill="#ffffff" width="1.8" height="0.2"/>
				
					<rect x="34.3" y="1.3" transform="matrix(4.832074e-002 0.9988 -0.9988 4.832074e-002 34.845 -33.872)" fill="#ffffff" width="1.8" height="0.2"/>
				
					<rect x="34.6" y="1.2" transform="matrix(4.756725e-002 0.9989 -0.9989 4.756725e-002 35.1287 -34.1687)" fill="#ffffff" width="1.8" height="0.2"/>
				
					<rect x="34.9" y="1.2" transform="matrix(4.681814e-002 0.9989 -0.9989 4.681814e-002 35.4127 -34.4654)" fill="#ffffff" width="1.8" height="0.2"/>
				
					<rect x="35.2" y="1.2" transform="matrix(4.606674e-002 0.9989 -0.9989 4.606674e-002 35.6972 -34.762)" fill="#ffffff" width="1.8" height="0.2"/>
				
					<rect x="35.4" y="1.2" transform="matrix(4.531531e-002 0.999 -0.999 4.531531e-002 35.9821 -35.0588)" fill="#ffffff" width="1.8" height="0.2"/>
				
					<rect x="35.7" y="1.2" transform="matrix(4.456398e-002 0.999 -0.999 4.456398e-002 36.2674 -35.3554)" fill="#ffffff" width="1.8" height="0.2"/>
			</g>
		</g>
		<g>
			<g>
				
					<rect x="38" y="1.1" transform="matrix(3.862572e-002 0.9993 -0.9993 3.862572e-002 38.5747 -37.7194)" fill="#ffffff" width="1.8" height="0.2"/>
				
					<rect x="38.3" y="1.1" transform="matrix(3.789121e-002 0.9993 -0.9993 3.789121e-002 38.8663 -38.0136)" fill="#ffffff" width="1.8" height="0.2"/>
				
					<rect x="38.6" y="1.1" transform="matrix(3.715740e-002 0.9993 -0.9993 3.715740e-002 39.1582 -38.3077)" fill="#ffffff" width="1.8" height="0.2"/>
				
					<rect x="38.9" y="1.1" transform="matrix(3.642297e-002 0.9993 -0.9993 3.642297e-002 39.4506 -38.6019)" fill="#ffffff" width="1.8" height="0.2"/>
				
					<rect x="39.1" y="1.1" transform="matrix(3.568876e-002 0.9994 -0.9994 3.568876e-002 39.7434 -38.896)" fill="#ffffff" width="1.8" height="0.2"/>
				
					<rect x="39.4" y="1" transform="matrix(3.495453e-002 0.9994 -0.9994 3.495453e-002 40.0367 -39.1903)" fill="#ffffff" width="1.8" height="0.2"/>
				
					<rect x="39.7" y="1" transform="matrix(3.422029e-002 0.9994 -0.9994 3.422029e-002 40.3303 -39.4844)" fill="#ffffff" width="1.8" height="0.2"/>
			</g>
		</g>
		<g>
			<g>
				
					<rect x="42" y="1" transform="matrix(2.840895e-002 0.9996 -0.9996 2.840895e-002 42.7033 -41.8277)" fill="#ffffff" width="1.8" height="0.2"/>
				
					<rect x="42.3" y="1" transform="matrix(2.768766e-002 0.9996 -0.9996 2.768766e-002 43.0031 -42.1192)" fill="#ffffff" width="1.8" height="0.2"/>
				
					<rect x="42.5" y="0.9" transform="matrix(2.696838e-002 0.9996 -0.9996 2.696838e-002 43.3032 -42.4107)" fill="#ffffff" width="1.8" height="0.2"/>
				
					<rect x="42.8" y="0.9" transform="matrix(2.625136e-002 0.9997 -0.9997 2.625136e-002 43.6037 -42.7022)" fill="#ffffff" width="1.8" height="0.2"/>
				
					<rect x="43.1" y="0.9" transform="matrix(2.553002e-002 0.9997 -0.9997 2.553002e-002 43.9047 -42.9937)" fill="#ffffff" width="1.8" height="0.2"/>
				
					<rect x="43.4" y="0.9" transform="matrix(2.481309e-002 0.9997 -0.9997 2.481309e-002 44.206 -43.2853)" fill="#ffffff" width="1.8" height="0.2"/>
				
					<rect x="43.7" y="0.9" transform="matrix(2.409388e-002 0.9997 -0.9997 2.409388e-002 44.5077 -43.5767)" fill="#ffffff" width="1.8" height="0.2"/>
			</g>
		</g>
		<g>
			<g>
				
					<rect x="45.9" y="0.9" transform="matrix(1.639968e-002 0.9999 -0.9999 1.639968e-002 46.9821 -45.8385)" fill="#ffffff" width="1.8" height="0.2"/>
				
					<rect x="46.2" y="0.9" transform="matrix(1.639753e-002 0.9999 -0.9999 1.639753e-002 47.2572 -46.1274)" fill="#ffffff" width="1.8" height="0.2"/>
				
					<rect x="46.5" y="0.9" transform="matrix(1.639753e-002 0.9999 -0.9999 1.639753e-002 47.5321 -46.4162)" fill="#ffffff" width="1.8" height="0.2"/>
				
					<rect x="46.8" y="0.9" transform="matrix(1.639753e-002 0.9999 -0.9999 1.639753e-002 47.8071 -46.7051)" fill="#ffffff" width="1.8" height="0.2"/>
				
					<rect x="47" y="0.8" transform="matrix(1.639956e-002 0.9999 -0.9999 1.639956e-002 48.082 -46.9939)" fill="#ffffff" width="1.8" height="0.2"/>
				
					<rect x="47.3" y="0.8" transform="matrix(1.639753e-002 0.9999 -0.9999 1.639753e-002 48.3571 -47.2828)" fill="#ffffff" width="1.8" height="0.2"/>
				
					<rect x="47.6" y="0.8" transform="matrix(1.639753e-002 0.9999 -0.9999 1.639753e-002 48.632 -47.5716)" fill="#ffffff" width="1.8" height="0.2"/>
			</g>
		</g>
		<g>
			<g>
				
					<rect x="49.9" y="0.8" transform="matrix(6.618646e-003 1 -1 6.618646e-003 51.3396 -49.8704)" fill="#ffffff" width="1.8" height="0.2"/>
				
					<rect x="50.2" y="0.8" transform="matrix(6.618646e-003 1 -1 6.618646e-003 51.6202 -50.1565)" fill="#ffffff" width="1.8" height="0.2"/>
				
					<rect x="50.5" y="0.8" transform="matrix(6.618646e-003 1 -1 6.618646e-003 51.9007 -50.4427)" fill="#ffffff" width="1.8" height="0.2"/>
				
					<rect x="50.7" y="0.8" transform="matrix(6.618646e-003 1 -1 6.618646e-003 52.1814 -50.729)" fill="#ffffff" width="1.8" height="0.2"/>
				
					<rect x="51" y="0.8" transform="matrix(6.618646e-003 1 -1 6.618646e-003 52.4619 -51.0151)" fill="#ffffff" width="1.8" height="0.2"/>
				
					<rect x="51.3" y="0.8" transform="matrix(6.618646e-003 1 -1 6.618646e-003 52.7425 -51.3014)" fill="#ffffff" width="1.8" height="0.2"/>
				
					<rect x="51.6" y="0.8" transform="matrix(6.618646e-003 1 -1 6.618646e-003 53.0231 -51.5875)" fill="#ffffff" width="1.8" height="0.2"/>
			</g>
		</g>
		<g>
			<g>
				
					<rect x="53.9" y="0.8" transform="matrix(-2.988378e-003 1 -1 -2.988378e-003 55.8045 -53.8605)" fill="#ffffff" width="1.8" height="0.2"/>
				
					<rect x="54.1" y="0.8" transform="matrix(-2.988378e-003 1 -1 -2.988378e-003 56.0905 -54.144)" fill="#ffffff" width="1.8" height="0.2"/>
				
					<rect x="54.4" y="0.8" transform="matrix(-2.992669e-003 1 -1 -2.992669e-003 56.3768 -54.4275)" fill="#ffffff" width="1.8" height="0.2"/>
				
					<rect x="54.7" y="0.8" transform="matrix(-2.988378e-003 1 -1 -2.988378e-003 56.6627 -54.711)" fill="#ffffff" width="1.8" height="0.2"/>
				
					<rect x="55" y="0.8" transform="matrix(-2.988378e-003 1 -1 -2.988378e-003 56.9487 -54.9945)" fill="#ffffff" width="1.8" height="0.2"/>
				
					<rect x="55.3" y="0.8" transform="matrix(-2.988378e-003 1 -1 -2.988378e-003 57.2348 -55.278)" fill="#ffffff" width="1.8" height="0.2"/>
				
					<rect x="55.6" y="0.8" transform="matrix(-2.988378e-003 1 -1 -2.988378e-003 57.5208 -55.5615)" fill="#ffffff" width="1.8" height="0.2"/>
			</g>
		</g>
		<g>
			<g>
				
					<rect x="57.8" y="0.8" transform="matrix(-1.243873e-002 0.9999 -0.9999 -1.243873e-002 60.3746 -57.8074)" fill="#ffffff" width="1.8" height="0.2"/>
				
					<rect x="58.1" y="0.8" transform="matrix(-1.243885e-002 0.9999 -0.9999 -1.243885e-002 60.666 -58.0881)" fill="#ffffff" width="1.8" height="0.2"/>
				
					<rect x="58.4" y="0.8" transform="matrix(-1.243873e-002 0.9999 -0.9999 -1.243873e-002 60.9574 -58.3688)" fill="#ffffff" width="1.8" height="0.2"/>
				
					<rect x="58.7" y="0.8" transform="matrix(-1.244303e-002 0.9999 -0.9999 -1.244303e-002 61.2491 -58.6496)" fill="#ffffff" width="1.8" height="0.2"/>
				
					<rect x="59" y="0.8" transform="matrix(-1.243873e-002 0.9999 -0.9999 -1.243873e-002 61.5402 -58.9303)" fill="#ffffff" width="1.8" height="0.2"/>
				
					<rect x="59.3" y="0.8" transform="matrix(-1.243873e-002 0.9999 -0.9999 -1.243873e-002 61.8317 -59.211)" fill="#ffffff" width="1.8" height="0.2"/>
				
					<rect x="59.6" y="0.8" transform="matrix(-1.243885e-002 0.9999 -0.9999 -1.243885e-002 62.1231 -59.4917)" fill="#ffffff" width="1.8" height="0.2"/>
			</g>
		</g>
		<g>
			<g>
				
					<rect x="61.8" y="0.9" transform="matrix(-2.174747e-002 0.9998 -0.9998 -2.174747e-002 65.0481 -61.7093)" fill="#ffffff" width="1.8" height="0.2"/>
				
					<rect x="62.1" y="0.9" transform="matrix(-2.174318e-002 0.9998 -0.9998 -2.174318e-002 65.3445 -61.9872)" fill="#ffffff" width="1.8" height="0.2"/>
				
					<rect x="62.4" y="0.9" transform="matrix(-2.174294e-002 0.9998 -0.9998 -2.174294e-002 65.6411 -62.2651)" fill="#ffffff" width="1.8" height="0.2"/>
				
					<rect x="62.7" y="0.9" transform="matrix(-2.174318e-002 0.9998 -0.9998 -2.174318e-002 65.9378 -62.543)" fill="#ffffff" width="1.8" height="0.2"/>
				
					<rect x="63" y="0.9" transform="matrix(-2.174318e-002 0.9998 -0.9998 -2.174318e-002 66.2345 -62.8209)" fill="#ffffff" width="1.8" height="0.2"/>
				
					<rect x="63.2" y="0.9" transform="matrix(-2.174318e-002 0.9998 -0.9998 -2.174318e-002 66.5312 -63.0988)" fill="#ffffff" width="1.8" height="0.2"/>
				
					<rect x="63.5" y="0.9" transform="matrix(-2.174294e-002 0.9998 -0.9998 -2.174294e-002 66.8277 -63.3767)" fill="#ffffff" width="1.8" height="0.2"/>
			</g>
		</g>
		<g>
			<g>
				
					<rect x="65.8" y="1" transform="matrix(-3.092265e-002 0.9995 -0.9995 -3.092265e-002 69.8229 -65.5646)" fill="#ffffff" width="1.8" height="0.2"/>
				
					<rect x="66.1" y="1" transform="matrix(-3.092301e-002 0.9995 -0.9995 -3.092301e-002 70.1247 -65.8396)" fill="#ffffff" width="1.8" height="0.2"/>
				
					<rect x="66.4" y="1" transform="matrix(-3.091872e-002 0.9995 -0.9995 -3.091872e-002 70.4262 -66.1147)" fill="#ffffff" width="1.8" height="0.2"/>
				
					<rect x="66.7" y="1" transform="matrix(-3.091872e-002 0.9995 -0.9995 -3.091872e-002 70.728 -66.3897)" fill="#ffffff" width="1.8" height="0.2"/>
				
					<rect x="66.9" y="1" transform="matrix(-3.092265e-002 0.9995 -0.9995 -3.092265e-002 71.0301 -66.6647)" fill="#ffffff" width="1.8" height="0.2"/>
				
					<rect x="67.2" y="1" transform="matrix(-3.091872e-002 0.9995 -0.9995 -3.091872e-002 71.3317 -66.9398)" fill="#ffffff" width="1.8" height="0.2"/>
				
					<rect x="67.5" y="1" transform="matrix(-3.091872e-002 0.9995 -0.9995 -3.091872e-002 71.6334 -67.2148)" fill="#ffffff" width="1.8" height="0.2"/>
			</g>
		</g>
		<g>
			<g>
				
					<rect x="69.8" y="1.1" transform="matrix(-3.997850e-002 0.9992 -0.9992 -3.997850e-002 74.6974 -69.3719)" fill="#ffffff" width="1.8" height="0.2"/>
				
					<rect x="70.1" y="1.1" transform="matrix(-3.997850e-002 0.9992 -0.9992 -3.997850e-002 75.0042 -69.644)" fill="#ffffff" width="1.8" height="0.2"/>
				
					<rect x="70.4" y="1.1" transform="matrix(-3.998279e-002 0.9992 -0.9992 -3.998279e-002 75.3114 -69.916)" fill="#ffffff" width="1.8" height="0.2"/>
				
					<rect x="70.6" y="1.1" transform="matrix(-3.997814e-002 0.9992 -0.9992 -3.997814e-002 75.6179 -70.1881)" fill="#ffffff" width="1.8" height="0.2"/>
				
					<rect x="70.9" y="1.1" transform="matrix(-3.997814e-002 0.9992 -0.9992 -3.997814e-002 75.9248 -70.4602)" fill="#ffffff" width="1.8" height="0.2"/>
				
					<rect x="71.2" y="1.2" transform="matrix(-3.997814e-002 0.9992 -0.9992 -3.997814e-002 76.2317 -70.7324)" fill="#ffffff" width="1.8" height="0.2"/>
				
					<rect x="71.5" y="1.2" transform="matrix(-3.997814e-002 0.9992 -0.9992 -3.997814e-002 76.5385 -71.0044)" fill="#ffffff" width="1.8" height="0.2"/>
			</g>
		</g>
		<g>
			<g>
				
					<rect x="73.8" y="1.3" transform="matrix(-4.893879e-002 0.9988 -0.9988 -4.893879e-002 79.6711 -73.1294)" fill="#ffffff" width="1.8" height="0.2"/>
				
					<rect x="74" y="1.3" transform="matrix(-4.893450e-002 0.9988 -0.9988 -4.893450e-002 79.9826 -73.3986)" fill="#ffffff" width="1.8" height="0.2"/>
				
					<rect x="74.3" y="1.3" transform="matrix(-4.893450e-002 0.9988 -0.9988 -4.893450e-002 80.2944 -73.6676)" fill="#ffffff" width="1.8" height="0.2"/>
				
					<rect x="74.6" y="1.3" transform="matrix(-4.893450e-002 0.9988 -0.9988 -4.893450e-002 80.6063 -73.9368)" fill="#ffffff" width="1.8" height="0.2"/>
				
					<rect x="74.9" y="1.3" transform="matrix(-4.893879e-002 0.9988 -0.9988 -4.893879e-002 80.9184 -74.2058)" fill="#ffffff" width="1.8" height="0.2"/>
				
					<rect x="75.2" y="1.3" transform="matrix(-4.893498e-002 0.9988 -0.9988 -4.893498e-002 81.23 -74.475)" fill="#ffffff" width="1.8" height="0.2"/>
				
					<rect x="75.5" y="1.4" transform="matrix(-4.893450e-002 0.9988 -0.9988 -4.893450e-002 81.5418 -74.744)" fill="#ffffff" width="1.8" height="0.2"/>
			</g>
		</g>
		<g>
			<g>
				
					<rect x="77.7" y="1.5" transform="matrix(-5.780124e-002 0.9983 -0.9983 -5.780124e-002 84.742 -76.8358)" fill="#ffffff" width="1.8" height="0.2"/>
				
					<rect x="78" y="1.5" transform="matrix(-5.780077e-002 0.9983 -0.9983 -5.780077e-002 85.0587 -77.1018)" fill="#ffffff" width="1.8" height="0.2"/>
				
					<rect x="78.3" y="1.5" transform="matrix(-5.780124e-002 0.9983 -0.9983 -5.780124e-002 85.3754 -77.3678)" fill="#ffffff" width="1.8" height="0.2"/>
				
					<rect x="78.6" y="1.5" transform="matrix(-5.780124e-002 0.9983 -0.9983 -5.780124e-002 85.6922 -77.6339)" fill="#ffffff" width="1.8" height="0.2"/>
				
					<rect x="78.9" y="1.5" transform="matrix(-5.780124e-002 0.9983 -0.9983 -5.780124e-002 86.0089 -77.9)" fill="#ffffff" width="1.8" height="0.2"/>
				
					<rect x="79.2" y="1.6" transform="matrix(-5.780124e-002 0.9983 -0.9983 -5.780124e-002 86.3256 -78.166)" fill="#ffffff" width="1.8" height="0.2"/>
				
					<rect x="79.4" y="1.6" transform="matrix(-5.780124e-002 0.9983 -0.9983 -5.780124e-002 86.6423 -78.432)" fill="#ffffff" width="1.8" height="0.2"/>
			</g>
		</g>
		<g>
			<g>
				
					<rect x="81.7" y="1.7" transform="matrix(-6.658991e-002 0.9978 -0.9978 -6.658991e-002 89.9099 -80.4892)" fill="#ffffff" width="1.8" height="0.2"/>
				
					<rect x="82" y="1.7" transform="matrix(-6.658991e-002 0.9978 -0.9978 -6.658991e-002 90.2315 -80.7522)" fill="#ffffff" width="1.8" height="0.2"/>
				
					<rect x="82.3" y="1.8" transform="matrix(-6.658991e-002 0.9978 -0.9978 -6.658991e-002 90.553 -81.0151)" fill="#ffffff" width="1.8" height="0.2"/>
				
					<rect x="82.6" y="1.8" transform="matrix(-6.658991e-002 0.9978 -0.9978 -6.658991e-002 90.8746 -81.278)" fill="#ffffff" width="1.8" height="0.2"/>
				
					<rect x="82.8" y="1.8" transform="matrix(-6.658991e-002 0.9978 -0.9978 -6.658991e-002 91.1961 -81.5409)" fill="#ffffff" width="1.8" height="0.2"/>
				
					<rect x="83.1" y="1.8" transform="matrix(-6.659051e-002 0.9978 -0.9978 -6.659051e-002 91.5178 -81.8039)" fill="#ffffff" width="1.8" height="0.2"/>
				
					<rect x="83.4" y="1.8" transform="matrix(-6.658991e-002 0.9978 -0.9978 -6.658991e-002 91.8392 -82.0668)" fill="#ffffff" width="1.8" height="0.2"/>
			</g>
		</g>
		<g>
			<g>
				
					<rect x="85.7" y="2" transform="matrix(-7.531507e-002 0.9972 -0.9972 -7.531507e-002 95.1743 -84.0882)" fill="#ffffff" width="1.8" height="0.2"/>
				
					<rect x="86" y="2" transform="matrix(-7.531507e-002 0.9972 -0.9972 -7.531507e-002 95.5006 -84.3479)" fill="#ffffff" width="1.8" height="0.2"/>
				
					<rect x="86.3" y="2" transform="matrix(-7.531507e-002 0.9972 -0.9972 -7.531507e-002 95.8269 -84.6077)" fill="#ffffff" width="1.8" height="0.2"/>
				
					<rect x="86.5" y="2.1" transform="matrix(-7.531507e-002 0.9972 -0.9972 -7.531507e-002 96.1532 -84.8674)" fill="#ffffff" width="1.8" height="0.2"/>
				
					<rect x="86.8" y="2.1" transform="matrix(-7.531934e-002 0.9972 -0.9972 -7.531934e-002 96.4799 -85.1271)" fill="#ffffff" width="1.8" height="0.2"/>
				
					<rect x="87.1" y="2.1" transform="matrix(-7.531507e-002 0.9972 -0.9972 -7.531507e-002 96.8058 -85.3869)" fill="#ffffff" width="1.8" height="0.2"/>
				
					<rect x="87.4" y="2.1" transform="matrix(-7.531507e-002 0.9972 -0.9972 -7.531507e-002 97.1321 -85.6466)" fill="#ffffff" width="1.8" height="0.2"/>
			</g>
		</g>
		<g>
			<g>
				
					<rect x="89.7" y="2.3" transform="matrix(-8.398848e-002 0.9965 -0.9965 -8.398848e-002 100.5346 -87.6308)" fill="#ffffff" width="1.8" height="0.2"/>
				
					<rect x="89.9" y="2.3" transform="matrix(-8.399204e-002 0.9965 -0.9965 -8.399204e-002 100.8659 -87.8873)" fill="#ffffff" width="1.8" height="0.2"/>
				
					<rect x="90.2" y="2.3" transform="matrix(-8.399275e-002 0.9965 -0.9965 -8.399275e-002 101.1969 -88.1438)" fill="#ffffff" width="1.8" height="0.2"/>
				
					<rect x="90.5" y="2.4" transform="matrix(-8.399204e-002 0.9965 -0.9965 -8.399204e-002 101.5279 -88.4003)" fill="#ffffff" width="1.8" height="0.2"/>
				
					<rect x="90.8" y="2.4" transform="matrix(-8.398848e-002 0.9965 -0.9965 -8.398848e-002 101.8585 -88.6568)" fill="#ffffff" width="1.8" height="0.2"/>
				
					<rect x="91.1" y="2.4" transform="matrix(-8.398777e-002 0.9965 -0.9965 -8.398777e-002 102.1895 -88.9134)" fill="#ffffff" width="1.8" height="0.2"/>
				
					<rect x="91.4" y="2.4" transform="matrix(-8.398777e-002 0.9965 -0.9965 -8.398777e-002 102.5205 -89.1698)" fill="#ffffff" width="1.8" height="0.2"/>
			</g>
		</g>
		<g>
			<g>
				
					<rect x="93.6" y="2.6" transform="matrix(-9.262728e-002 0.9957 -0.9957 -9.262728e-002 105.9911 -91.1153)" fill="#ffffff" width="1.8" height="0.2"/>
				
					<rect x="93.9" y="2.7" transform="matrix(-9.262301e-002 0.9957 -0.9957 -9.262301e-002 106.3263 -91.3686)" fill="#ffffff" width="1.8" height="0.2"/>
				
					<rect x="94.2" y="2.7" transform="matrix(-9.262645e-002 0.9957 -0.9957 -9.262645e-002 106.6623 -91.6217)" fill="#ffffff" width="1.8" height="0.2"/>
				
					<rect x="94.5" y="2.7" transform="matrix(-9.262301e-002 0.9957 -0.9957 -9.262301e-002 106.9976 -91.8749)" fill="#ffffff" width="1.8" height="0.2"/>
				
					<rect x="94.8" y="2.7" transform="matrix(-9.262301e-002 0.9957 -0.9957 -9.262301e-002 107.3333 -92.1281)" fill="#ffffff" width="1.8" height="0.2"/>
				
					<rect x="95" y="2.8" transform="matrix(-9.262301e-002 0.9957 -0.9957 -9.262301e-002 107.6689 -92.3813)" fill="#ffffff" width="1.8" height="0.2"/>
				
					<rect x="95.3" y="2.8" transform="matrix(-9.262728e-002 0.9957 -0.9957 -9.262728e-002 108.0049 -92.6344)" fill="#ffffff" width="1.8" height="0.2"/>
			</g>
		</g>
		<g>
			<g>
				
					<rect x="97.6" y="3" transform="matrix(-0.1012 0.9949 -0.9949 -0.1012 111.5432 -94.5399)" fill="#ffffff" width="1.8" height="0.2"/>
				
					<rect x="97.9" y="3" transform="matrix(-0.1012 0.9949 -0.9949 -0.1012 111.8831 -94.7897)" fill="#ffffff" width="1.8" height="0.2"/>
				
					<rect x="98.2" y="3.1" transform="matrix(-0.1012 0.9949 -0.9949 -0.1012 112.2232 -95.0395)" fill="#ffffff" width="1.8" height="0.2"/>
				
					<rect x="98.4" y="3.1" transform="matrix(-0.1012 0.9949 -0.9949 -0.1012 112.5635 -95.2893)" fill="#ffffff" width="1.8" height="0.2"/>
				
					<rect x="98.7" y="3.1" transform="matrix(-0.1012 0.9949 -0.9949 -0.1012 112.9037 -95.5391)" fill="#ffffff" width="1.8" height="0.2"/>
				
					<rect x="99" y="3.2" transform="matrix(-0.1012 0.9949 -0.9949 -0.1012 113.244 -95.7889)" fill="#ffffff" width="1.8" height="0.2"/>
				
					<rect x="99.3" y="3.2" transform="matrix(-0.1012 0.9949 -0.9949 -0.1012 113.5842 -96.0387)" fill="#ffffff" width="1.8" height="0.2"/>
			</g>
		</g>
		<g>
			<g>
				
					<rect x="101.5" y="3.4" transform="matrix(-0.1098 0.994 -0.994 -0.1098 117.1911 -97.9024)" fill="#ffffff" width="1.8" height="0.2"/>
				
					<rect x="101.8" y="3.5" transform="matrix(-0.1098 0.994 -0.994 -0.1098 117.5365 -98.1487)" fill="#ffffff" width="1.8" height="0.2"/>
				
					<rect x="102.1" y="3.5" transform="matrix(-0.1098 0.994 -0.994 -0.1098 117.8812 -98.395)" fill="#ffffff" width="1.8" height="0.2"/>
				
					<rect x="102.4" y="3.5" transform="matrix(-0.1098 0.994 -0.994 -0.1098 118.2256 -98.6414)" fill="#ffffff" width="1.8" height="0.2"/>
				
					<rect x="102.7" y="3.6" transform="matrix(-0.1098 0.994 -0.994 -0.1098 118.5703 -98.8877)" fill="#ffffff" width="1.8" height="0.2"/>
				
					<rect x="103" y="3.6" transform="matrix(-0.1098 0.994 -0.994 -0.1098 118.9157 -99.134)" fill="#ffffff" width="1.8" height="0.2"/>
				
					<rect x="103.2" y="3.6" transform="matrix(-0.1098 0.994 -0.994 -0.1098 119.26 -99.3803)" fill="#ffffff" width="1.8" height="0.2"/>
			</g>
		</g>
		<g>
			<g>
				
					<rect x="105.5" y="3.9" transform="matrix(-0.1184 0.993 -0.993 -0.1184 122.9366 -101.2006)" fill="#ffffff" width="1.8" height="0.2"/>
				
					<rect x="105.8" y="3.9" transform="matrix(-0.1184 0.993 -0.993 -0.1184 123.2858 -101.4434)" fill="#ffffff" width="1.8" height="0.2"/>
				
					<rect x="106.1" y="3.9" transform="matrix(-0.1184 0.993 -0.993 -0.1184 123.6356 -101.6861)" fill="#ffffff" width="1.8" height="0.2"/>
				
					<rect x="106.4" y="4" transform="matrix(-0.1184 0.993 -0.993 -0.1184 123.9849 -101.9289)" fill="#ffffff" width="1.8" height="0.2"/>
				
					<rect x="106.6" y="4" transform="matrix(-0.1184 0.993 -0.993 -0.1184 124.3339 -102.1717)" fill="#ffffff" width="1.8" height="0.2"/>
				
					<rect x="106.9" y="4" transform="matrix(-0.1184 0.993 -0.993 -0.1184 124.6832 -102.4145)" fill="#ffffff" width="1.8" height="0.2"/>
				
					<rect x="107.2" y="4.1" transform="matrix(-0.1184 0.993 -0.993 -0.1184 125.0329 -102.6572)" fill="#ffffff" width="1.8" height="0.2"/>
			</g>
		</g>
		<g>
			<g>
				
					<rect x="109.5" y="4.4" transform="matrix(-0.127 0.9919 -0.9919 -0.127 128.78 -104.4322)" fill="#ffffff" width="1.8" height="0.2"/>
				
					<rect x="109.7" y="4.4" transform="matrix(-0.127 0.9919 -0.9919 -0.127 129.1342 -104.6712)" fill="#ffffff" width="1.8" height="0.2"/>
				
					<rect x="110" y="4.4" transform="matrix(-0.127 0.9919 -0.9919 -0.127 129.4877 -104.9104)" fill="#ffffff" width="1.8" height="0.2"/>
				
					<rect x="110.3" y="4.5" transform="matrix(-0.127 0.9919 -0.9919 -0.127 129.8414 -105.1496)" fill="#ffffff" width="1.8" height="0.2"/>
				
					<rect x="110.6" y="4.5" transform="matrix(-0.127 0.9919 -0.9919 -0.127 130.1952 -105.3887)" fill="#ffffff" width="1.8" height="0.2"/>
				
					<rect x="110.9" y="4.5" transform="matrix(-0.127 0.9919 -0.9919 -0.127 130.5492 -105.6278)" fill="#ffffff" width="1.8" height="0.2"/>
				
					<rect x="111.1" y="4.6" transform="matrix(-0.127 0.9919 -0.9919 -0.127 130.9029 -105.8669)" fill="#ffffff" width="1.8" height="0.2"/>
			</g>
		</g>
		<g>
			<g>
				
					<rect x="113.4" y="4.9" transform="matrix(-0.1357 0.9908 -0.9908 -0.1357 134.7223 -107.5946)" fill="#ffffff" width="1.8" height="0.2"/>
				
					<rect x="113.7" y="4.9" transform="matrix(-0.1357 0.9908 -0.9908 -0.1357 135.0811 -107.8299)" fill="#ffffff" width="1.8" height="0.2"/>
				
					<rect x="114" y="4.9" transform="matrix(-0.1357 0.9908 -0.9908 -0.1357 135.4388 -108.0654)" fill="#ffffff" width="1.8" height="0.2"/>
				
					<rect x="114.3" y="5" transform="matrix(-0.1357 0.9908 -0.9908 -0.1357 135.7972 -108.3008)" fill="#ffffff" width="1.8" height="0.2"/>
				
					<rect x="114.5" y="5" transform="matrix(-0.1357 0.9908 -0.9908 -0.1357 136.1559 -108.536)" fill="#ffffff" width="1.8" height="0.2"/>
				
					<rect x="114.8" y="5.1" transform="matrix(-0.1357 0.9908 -0.9908 -0.1357 136.5143 -108.7715)" fill="#ffffff" width="1.8" height="0.2"/>
				
					<rect x="115.1" y="5.1" transform="matrix(-0.1357 0.9908 -0.9908 -0.1357 136.872 -109.0069)" fill="#ffffff" width="1.8" height="0.2"/>
			</g>
		</g>
		<g>
			<g>
				
					<rect x="117.3" y="5.4" transform="matrix(-0.1444 0.9895 -0.9895 -0.1444 140.7653 -110.685)" fill="#ffffff" width="1.8" height="0.2"/>
				
					<rect x="117.6" y="5.5" transform="matrix(-0.1444 0.9895 -0.9895 -0.1444 141.1282 -110.9165)" fill="#ffffff" width="1.8" height="0.2"/>
				
					<rect x="117.9" y="5.5" transform="matrix(-0.1444 0.9895 -0.9895 -0.1444 141.49 -111.1482)" fill="#ffffff" width="1.8" height="0.2"/>
				
					<rect x="118.2" y="5.5" transform="matrix(-0.1444 0.9895 -0.9895 -0.1444 141.8538 -111.3796)" fill="#ffffff" width="1.8" height="0.2"/>
				
					<rect x="118.5" y="5.6" transform="matrix(-0.1444 0.9895 -0.9895 -0.1444 142.2165 -111.6111)" fill="#ffffff" width="1.8" height="0.2"/>
				
					<rect x="118.8" y="5.6" transform="matrix(-0.1444 0.9895 -0.9895 -0.1444 142.5793 -111.8427)" fill="#ffffff" width="1.8" height="0.2"/>
				
					<rect x="119" y="5.7" transform="matrix(-0.1444 0.9895 -0.9895 -0.1444 142.942 -112.0742)" fill="#ffffff" width="1.8" height="0.2"/>
			</g>
		</g>
		<g>
			<g>
				
					<rect x="121.3" y="6" transform="matrix(-0.1531 0.9882 -0.9882 -0.1531 146.9107 -113.7003)" fill="#ffffff" width="1.8" height="0.2"/>
				
					<rect x="121.6" y="6" transform="matrix(-0.1531 0.9882 -0.9882 -0.1531 147.2779 -113.9279)" fill="#ffffff" width="1.8" height="0.2"/>
				
					<rect x="121.8" y="6.1" transform="matrix(-0.1531 0.9882 -0.9882 -0.1531 147.645 -114.1555)" fill="#ffffff" width="1.8" height="0.2"/>
				
					<rect x="122.1" y="6.1" transform="matrix(-0.1531 0.9882 -0.9882 -0.1531 148.0123 -114.3831)" fill="#ffffff" width="1.8" height="0.2"/>
				
					<rect x="122.4" y="6.2" transform="matrix(-0.1531 0.9882 -0.9882 -0.1531 148.3794 -114.6107)" fill="#ffffff" width="1.8" height="0.2"/>
				
					<rect x="122.7" y="6.2" transform="matrix(-0.1531 0.9882 -0.9882 -0.1531 148.7457 -114.8385)" fill="#ffffff" width="1.8" height="0.2"/>
				
					<rect x="123" y="6.3" transform="matrix(-0.1531 0.9882 -0.9882 -0.1531 149.1128 -115.066)" fill="#ffffff" width="1.8" height="0.2"/>
			</g>
		</g>
		<g>
			<g>
				
					<rect x="125.2" y="6.6" transform="matrix(-0.1619 0.9868 -0.9868 -0.1619 153.1596 -116.6375)" fill="#ffffff" width="1.8" height="0.2"/>
				
					<rect x="125.5" y="6.7" transform="matrix(-0.1619 0.9868 -0.9868 -0.1619 153.5321 -116.8608)" fill="#ffffff" width="1.8" height="0.2"/>
				
					<rect x="125.8" y="6.7" transform="matrix(-0.1619 0.9868 -0.9868 -0.1619 153.9038 -117.0843)" fill="#ffffff" width="1.8" height="0.2"/>
				
					<rect x="126.1" y="6.8" transform="matrix(-0.1619 0.9868 -0.9868 -0.1619 154.2755 -117.3078)" fill="#ffffff" width="1.8" height="0.2"/>
				
					<rect x="126.3" y="6.8" transform="matrix(-0.1619 0.9868 -0.9868 -0.1619 154.6469 -117.5313)" fill="#ffffff" width="1.8" height="0.2"/>
				
					<rect x="126.6" y="6.9" transform="matrix(-0.1619 0.9868 -0.9868 -0.1619 155.0178 -117.755)" fill="#ffffff" width="1.8" height="0.2"/>
				
					<rect x="126.9" y="6.9" transform="matrix(-0.1619 0.9868 -0.9868 -0.1619 155.3904 -117.9783)" fill="#ffffff" width="1.8" height="0.2"/>
			</g>
		</g>
		<g>
			<g>
				
					<rect x="129.1" y="7.3" transform="matrix(-0.1708 0.9853 -0.9853 -0.1708 159.5167 -119.4924)" fill="#ffffff" width="1.8" height="0.2"/>
				
					<rect x="129.4" y="7.3" transform="matrix(-0.1708 0.9853 -0.9853 -0.1708 159.8927 -119.7117)" fill="#ffffff" width="1.8" height="0.2"/>
				
					<rect x="129.7" y="7.4" transform="matrix(-0.1708 0.9853 -0.9853 -0.1708 160.2688 -119.9309)" fill="#ffffff" width="1.8" height="0.2"/>
				
					<rect x="130" y="7.4" transform="matrix(-0.1708 0.9853 -0.9853 -0.1708 160.6449 -120.1502)" fill="#ffffff" width="1.8" height="0.2"/>
				
					<rect x="130.3" y="7.5" transform="matrix(-0.1708 0.9853 -0.9853 -0.1708 161.021 -120.3695)" fill="#ffffff" width="1.8" height="0.2"/>
				
					<rect x="130.6" y="7.5" transform="matrix(-0.1708 0.9853 -0.9853 -0.1708 161.3969 -120.5889)" fill="#ffffff" width="1.8" height="0.2"/>
				
					<rect x="130.8" y="7.6" transform="matrix(-0.1708 0.9853 -0.9853 -0.1708 161.7731 -120.8081)" fill="#ffffff" width="1.8" height="0.2"/>
			</g>
		</g>
		<g>
			<g>
				
					<rect x="133.1" y="8" transform="matrix(-0.1799 0.9837 -0.9837 -0.1799 165.9838 -122.261)" fill="#ffffff" width="1.8" height="0.2"/>
				
					<rect x="133.4" y="8" transform="matrix(-0.1799 0.9837 -0.9837 -0.1799 166.3643 -122.4759)" fill="#ffffff" width="1.8" height="0.2"/>
				
					<rect x="133.6" y="8.1" transform="matrix(-0.1799 0.9837 -0.9837 -0.1799 166.7448 -122.6909)" fill="#ffffff" width="1.8" height="0.2"/>
				
					<rect x="133.9" y="8.1" transform="matrix(-0.1798 0.9837 -0.9837 -0.1798 167.1243 -122.9061)" fill="#ffffff" width="1.8" height="0.2"/>
				
					<rect x="134.2" y="8.2" transform="matrix(-0.1799 0.9837 -0.9837 -0.1799 167.5059 -123.1207)" fill="#ffffff" width="1.8" height="0.2"/>
				
					<rect x="134.5" y="8.2" transform="matrix(-0.1799 0.9837 -0.9837 -0.1799 167.8865 -123.3357)" fill="#ffffff" width="1.8" height="0.2"/>
				
					<rect x="134.7" y="8.3" transform="matrix(-0.1798 0.9837 -0.9837 -0.1798 168.2658 -123.5508)" fill="#ffffff" width="1.8" height="0.2"/>
			</g>
		</g>
		<g>
			<g>
				
					<rect x="137" y="8.7" transform="matrix(-0.189 0.982 -0.982 -0.189 172.5637 -124.9391)" fill="#ffffff" width="1.8" height="0.2"/>
				
					<rect x="137.3" y="8.7" transform="matrix(-0.189 0.982 -0.982 -0.189 172.9478 -125.1497)" fill="#ffffff" width="1.8" height="0.2"/>
				
					<rect x="137.5" y="8.8" transform="matrix(-0.189 0.982 -0.982 -0.189 173.3328 -125.3601)" fill="#ffffff" width="1.8" height="0.2"/>
				
					<rect x="137.8" y="8.9" transform="matrix(-0.189 0.982 -0.982 -0.189 173.7178 -125.5706)" fill="#ffffff" width="1.8" height="0.2"/>
				
					<rect x="138.1" y="8.9" transform="matrix(-0.189 0.982 -0.982 -0.189 174.1039 -125.7807)" fill="#ffffff" width="1.8" height="0.2"/>
				
					<rect x="138.4" y="9" transform="matrix(-0.189 0.982 -0.982 -0.189 174.489 -125.9911)" fill="#ffffff" width="1.8" height="0.2"/>
				
					<rect x="138.7" y="9" transform="matrix(-0.189 0.982 -0.982 -0.189 174.8728 -126.2018)" fill="#ffffff" width="1.8" height="0.2"/>
			</g>
		</g>
		<g>
			<g>
				
					<rect x="140.9" y="9.5" transform="matrix(-0.1983 0.9801 -0.9801 -0.1983 179.2605 -127.5215)" fill="#ffffff" width="1.8" height="0.2"/>
				
					<rect x="141.2" y="9.5" transform="matrix(-0.1983 0.9801 -0.9801 -0.1983 179.65 -127.7272)" fill="#ffffff" width="1.8" height="0.2"/>
				
					<rect x="141.5" y="9.6" transform="matrix(-0.1983 0.9801 -0.9801 -0.1983 180.0394 -127.933)" fill="#ffffff" width="1.8" height="0.2"/>
				
					<rect x="141.7" y="9.6" transform="matrix(-0.1983 0.9801 -0.9801 -0.1983 180.429 -128.1387)" fill="#ffffff" width="1.8" height="0.2"/>
				
					<rect x="142" y="9.7" transform="matrix(-0.1983 0.9801 -0.9801 -0.1983 180.8184 -128.3444)" fill="#ffffff" width="1.8" height="0.2"/>
				
					<rect x="142.3" y="9.7" transform="matrix(-0.1983 0.9801 -0.9801 -0.1983 181.2079 -128.5502)" fill="#ffffff" width="1.8" height="0.2"/>
				
					<rect x="142.6" y="9.8" transform="matrix(-0.1983 0.9801 -0.9801 -0.1983 181.5973 -128.7558)" fill="#ffffff" width="1.8" height="0.2"/>
			</g>
		</g>
		<g>
			<g>
				
					<rect x="144.8" y="10.3" transform="matrix(-0.2078 0.9782 -0.9782 -0.2078 186.0792 -130.0024)" fill="#ffffff" width="1.8" height="0.2"/>
				
					<rect x="145.1" y="10.3" transform="matrix(-0.2078 0.9782 -0.9782 -0.2078 186.4732 -130.2033)" fill="#ffffff" width="1.8" height="0.2"/>
				
					<rect x="145.4" y="10.4" transform="matrix(-0.2078 0.9782 -0.9782 -0.2078 186.8672 -130.4041)" fill="#ffffff" width="1.8" height="0.2"/>
				
					<rect x="145.6" y="10.4" transform="matrix(-0.2078 0.9782 -0.9782 -0.2078 187.2612 -130.605)" fill="#ffffff" width="1.8" height="0.2"/>
				
					<rect x="145.9" y="10.5" transform="matrix(-0.2078 0.9782 -0.9782 -0.2078 187.6549 -130.8059)" fill="#ffffff" width="1.8" height="0.2"/>
				
					<rect x="146.2" y="10.6" transform="matrix(-0.2078 0.9782 -0.9782 -0.2078 188.0492 -131.0067)" fill="#ffffff" width="1.8" height="0.2"/>
				
					<rect x="146.5" y="10.6" transform="matrix(-0.2078 0.9782 -0.9782 -0.2078 188.4429 -131.2076)" fill="#ffffff" width="1.8" height="0.2"/>
			</g>
		</g>
		<g>
			<g>
				
					<rect x="148.7" y="11.1" transform="matrix(-0.2155 0.9765 -0.9765 -0.2155 192.8161 -132.5042)" fill="#ffffff" width="1.8" height="0.2"/>
				
					<rect x="149" y="11.2" transform="matrix(-0.2162 0.9764 -0.9764 -0.2162 193.3179 -132.6689)" fill="#ffffff" width="1.8" height="0.2"/>
				
					<rect x="149.3" y="11.2" transform="matrix(-0.2169 0.9762 -0.9762 -0.2169 193.819 -132.8337)" fill="#ffffff" width="1.8" height="0.2"/>
				
					<rect x="149.6" y="11.3" transform="matrix(-0.2176 0.976 -0.976 -0.2176 194.3213 -132.998)" fill="#ffffff" width="1.8" height="0.2"/>
				
					<rect x="149.9" y="11.4" transform="matrix(-0.2183 0.9759 -0.9759 -0.2183 194.824 -133.162)" fill="#ffffff" width="1.8" height="0.2"/>
				
					<rect x="150.1" y="11.4" transform="matrix(-0.219 0.9757 -0.9757 -0.219 195.3251 -133.3264)" fill="#ffffff" width="1.8" height="0.2"/>
				
					<rect x="150.4" y="11.5" transform="matrix(-0.2197 0.9756 -0.9756 -0.2197 195.8286 -133.4899)" fill="#ffffff" width="1.8" height="0.2"/>
			</g>
		</g>
		<g>
			<g>
				
					<rect x="152.6" y="12" transform="matrix(-0.2253 0.9743 -0.9743 -0.2253 199.8823 -134.7715)" fill="#ffffff" width="1.8" height="0.2"/>
				
					<rect x="152.9" y="12" transform="matrix(-0.2261 0.9741 -0.9741 -0.2261 200.3936 -134.9277)" fill="#ffffff" width="1.8" height="0.2"/>
				
					<rect x="153.2" y="12.1" transform="matrix(-0.2268 0.9739 -0.9739 -0.2268 200.9053 -135.0837)" fill="#ffffff" width="1.8" height="0.2"/>
				
					<rect x="153.5" y="12.2" transform="matrix(-0.2275 0.9738 -0.9738 -0.2275 201.4177 -135.2394)" fill="#ffffff" width="1.8" height="0.2"/>
				
					<rect x="153.7" y="12.2" transform="matrix(-0.2282 0.9736 -0.9736 -0.2282 201.9279 -135.3955)" fill="#ffffff" width="1.8" height="0.2"/>
				
					<rect x="154" y="12.3" transform="matrix(-0.2289 0.9734 -0.9734 -0.2289 202.4407 -135.5508)" fill="#ffffff" width="1.8" height="0.2"/>
				
					<rect x="154.3" y="12.4" transform="matrix(-0.2297 0.9733 -0.9733 -0.2297 202.9537 -135.7057)" fill="#ffffff" width="1.8" height="0.2"/>
			</g>
		</g>
		<g>
			<g>
				
					<rect x="156.5" y="12.9" transform="matrix(-0.2355 0.9719 -0.9719 -0.2355 207.0879 -136.9163)" fill="#ffffff" width="1.8" height="0.2"/>
				
					<rect x="156.8" y="13" transform="matrix(-0.2362 0.9717 -0.9717 -0.2362 207.6083 -137.0638)" fill="#ffffff" width="1.8" height="0.2"/>
				
					<rect x="157.1" y="13" transform="matrix(-0.2369 0.9715 -0.9715 -0.2369 208.1296 -137.2108)" fill="#ffffff" width="1.8" height="0.2"/>
				
					<rect x="157.3" y="13.1" transform="matrix(-0.2377 0.9713 -0.9713 -0.2377 208.6517 -137.3575)" fill="#ffffff" width="1.8" height="0.2"/>
				
					<rect x="157.6" y="13.2" transform="matrix(-0.2384 0.9712 -0.9712 -0.2384 209.1741 -137.5038)" fill="#ffffff" width="1.8" height="0.2"/>
				
					<rect x="157.9" y="13.2" transform="matrix(-0.2391 0.971 -0.971 -0.2391 209.6959 -137.6502)" fill="#ffffff" width="1.8" height="0.2"/>
				
					<rect x="158.2" y="13.3" transform="matrix(-0.2399 0.9708 -0.9708 -0.2399 210.2199 -137.7956)" fill="#ffffff" width="1.8" height="0.2"/>
			</g>
		</g>
		<g>
			<g>
				
					<rect x="160.4" y="13.9" transform="matrix(-0.2459 0.9693 -0.9693 -0.2459 214.4375 -138.9303)" fill="#ffffff" width="1.8" height="0.2"/>
				
					<rect x="160.7" y="13.9" transform="matrix(-0.2466 0.9691 -0.9691 -0.2466 214.9699 -139.0676)" fill="#ffffff" width="1.8" height="0.2"/>
				
					<rect x="160.9" y="14" transform="matrix(-0.2474 0.9689 -0.9689 -0.2474 215.5016 -139.2048)" fill="#ffffff" width="1.8" height="0.2"/>
				
					<rect x="161.2" y="14.1" transform="matrix(-0.2482 0.9687 -0.9687 -0.2482 216.0348 -139.3415)" fill="#ffffff" width="1.8" height="0.2"/>
				
					<rect x="161.5" y="14.1" transform="matrix(-0.2489 0.9685 -0.9685 -0.2489 216.5676 -139.4781)" fill="#ffffff" width="1.8" height="0.2"/>
				
					<rect x="161.8" y="14.2" transform="matrix(-0.2497 0.9683 -0.9683 -0.2497 217.1015 -139.6141)" fill="#ffffff" width="1.8" height="0.2"/>
				
					<rect x="162" y="14.3" transform="matrix(-0.2504 0.9681 -0.9681 -0.2504 217.6334 -139.7506)" fill="#ffffff" width="1.8" height="0.2"/>
			</g>
		</g>
		<g>
			<g>
				
					<rect x="164.2" y="14.9" transform="matrix(-0.2566 0.9665 -0.9665 -0.2566 221.9409 -140.8026)" fill="#ffffff" width="1.8" height="0.2"/>
				
					<rect x="164.5" y="14.9" transform="matrix(-0.2574 0.9663 -0.9663 -0.2574 222.4848 -140.9292)" fill="#ffffff" width="1.8" height="0.2"/>
				
					<rect x="164.8" y="15" transform="matrix(-0.2582 0.9661 -0.9661 -0.2582 223.0278 -141.0559)" fill="#ffffff" width="1.8" height="0.2"/>
				
					<rect x="165.1" y="15.1" transform="matrix(-0.259 0.9659 -0.9659 -0.259 223.5729 -141.1817)" fill="#ffffff" width="1.8" height="0.2"/>
				
					<rect x="165.3" y="15.2" transform="matrix(-0.2597 0.9657 -0.9657 -0.2597 224.1166 -141.3077)" fill="#ffffff" width="1.8" height="0.2"/>
				
					<rect x="165.6" y="15.2" transform="matrix(-0.2605 0.9655 -0.9655 -0.2605 224.6624 -141.4328)" fill="#ffffff" width="1.8" height="0.2"/>
				
					<rect x="165.9" y="15.3" transform="matrix(-0.2613 0.9653 -0.9653 -0.2613 225.2068 -141.5582)" fill="#ffffff" width="1.8" height="0.2"/>
			</g>
		</g>
		<g>
			<g>
				
					<rect x="168.1" y="15.9" transform="matrix(-0.2677 0.9635 -0.9635 -0.2677 229.6084 -142.521)" fill="#ffffff" width="1.8" height="0.2"/>
				
					<rect x="168.4" y="16" transform="matrix(-0.2685 0.9633 -0.9633 -0.2685 230.1631 -142.6365)" fill="#ffffff" width="1.8" height="0.2"/>
				
					<rect x="168.6" y="16.1" transform="matrix(-0.2693 0.963 -0.963 -0.2693 230.7191 -142.7513)" fill="#ffffff" width="1.8" height="0.2"/>
				
					<rect x="168.9" y="16.1" transform="matrix(-0.2701 0.9628 -0.9628 -0.2701 231.2759 -142.8655)" fill="#ffffff" width="1.8" height="0.2"/>
				
					<rect x="169.2" y="16.2" transform="matrix(-0.2709 0.9626 -0.9626 -0.2709 231.8313 -142.9801)" fill="#ffffff" width="1.8" height="0.2"/>
				
					<rect x="169.4" y="16.3" transform="matrix(-0.2718 0.9624 -0.9624 -0.2718 232.3903 -143.0932)" fill="#ffffff" width="1.8" height="0.2"/>
				
					<rect x="169.7" y="16.4" transform="matrix(-0.2726 0.9621 -0.9621 -0.2726 232.9467 -143.2068)" fill="#ffffff" width="1.8" height="0.2"/>
			</g>
		</g>
		<g>
			<g>
				
					<rect x="171.9" y="17" transform="matrix(-0.2792 0.9602 -0.9602 -0.2792 237.4483 -144.0724)" fill="#ffffff" width="1.8" height="0.2"/>
				
					<rect x="172.2" y="17.1" transform="matrix(-0.2801 0.96 -0.96 -0.2801 238.0193 -144.174)" fill="#ffffff" width="1.8" height="0.2"/>
				
					<rect x="172.5" y="17.1" transform="matrix(-0.2809 0.9597 -0.9597 -0.2809 238.5872 -144.2765)" fill="#ffffff" width="1.8" height="0.2"/>
				
					<rect x="172.7" y="17.2" transform="matrix(-0.2818 0.9595 -0.9595 -0.2818 239.1572 -144.3779)" fill="#ffffff" width="1.8" height="0.2"/>
				
					<rect x="173" y="17.3" transform="matrix(-0.2826 0.9592 -0.9592 -0.2826 239.7245 -144.4802)" fill="#ffffff" width="1.8" height="0.2"/>
				
					<rect x="173.3" y="17.4" transform="matrix(-0.2834 0.959 -0.959 -0.2834 240.2957 -144.5807)" fill="#ffffff" width="1.8" height="0.2"/>
				
					<rect x="173.5" y="17.5" transform="matrix(-0.2843 0.9587 -0.9587 -0.2843 240.8654 -144.6815)" fill="#ffffff" width="1.8" height="0.2"/>
			</g>
		</g>
		<g>
			<g>
				
					<rect x="175.7" y="18.1" transform="matrix(-0.2912 0.9567 -0.9567 -0.2912 245.478 -145.4388)" fill="#ffffff" width="1.8" height="0.2"/>
				
					<rect x="176" y="18.2" transform="matrix(-0.2921 0.9564 -0.9564 -0.2921 246.0596 -145.5277)" fill="#ffffff" width="1.8" height="0.2"/>
				
					<rect x="176.3" y="18.3" transform="matrix(-0.293 0.9561 -0.9561 -0.293 246.6426 -145.6158)" fill="#ffffff" width="1.8" height="0.2"/>
				
					<rect x="176.5" y="18.4" transform="matrix(-0.2938 0.9559 -0.9559 -0.2938 247.226 -145.7035)" fill="#ffffff" width="1.8" height="0.2"/>
				
					<rect x="176.8" y="18.5" transform="matrix(-0.2947 0.9556 -0.9556 -0.2947 247.8101 -145.7905)" fill="#ffffff" width="1.8" height="0.2"/>
				
					<rect x="177.1" y="18.5" transform="matrix(-0.2956 0.9553 -0.9553 -0.2956 248.3943 -145.8773)" fill="#ffffff" width="1.8" height="0.2"/>
				
					<rect x="177.4" y="18.6" transform="matrix(-0.2965 0.955 -0.955 -0.2965 248.9782 -145.9639)" fill="#ffffff" width="1.8" height="0.2"/>
			</g>
		</g>
		<g>
			<g>
				
					<rect x="179.5" y="19.3" transform="matrix(-0.3037 0.9528 -0.9528 -0.3037 253.705 -146.6039)" fill="#ffffff" width="1.8" height="0.2"/>
				
					<rect x="179.8" y="19.4" transform="matrix(-0.3046 0.9525 -0.9525 -0.3046 254.3029 -146.6769)" fill="#ffffff" width="1.8" height="0.2"/>
				
					<rect x="180.1" y="19.5" transform="matrix(-0.3056 0.9522 -0.9522 -0.3056 254.9016 -146.7492)" fill="#ffffff" width="1.8" height="0.2"/>
				
					<rect x="180.3" y="19.6" transform="matrix(-0.3065 0.9519 -0.9519 -0.3065 255.4989 -146.8219)" fill="#ffffff" width="1.8" height="0.2"/>
				
					<rect x="180.6" y="19.7" transform="matrix(-0.3074 0.9516 -0.9516 -0.3074 256.0988 -146.893)" fill="#ffffff" width="1.8" height="0.2"/>
				
					<rect x="180.9" y="19.7" transform="matrix(-0.3083 0.9513 -0.9513 -0.3083 256.6983 -146.9641)" fill="#ffffff" width="1.8" height="0.2"/>
				
					<rect x="181.2" y="19.8" transform="matrix(-0.3093 0.951 -0.951 -0.3093 257.2971 -147.0351)" fill="#ffffff" width="1.8" height="0.2"/>
			</g>
		</g>
		<g>
			<g>
				
					<rect x="183.3" y="20.5" transform="matrix(-0.3169 0.9485 -0.9485 -0.3169 262.1525 -147.5425)" fill="#ffffff" width="1.8" height="0.2"/>
				
					<rect x="183.6" y="20.6" transform="matrix(-0.3178 0.9482 -0.9482 -0.3178 262.765 -147.5992)" fill="#ffffff" width="1.8" height="0.2"/>
				
					<rect x="183.9" y="20.7" transform="matrix(-0.3188 0.9478 -0.9478 -0.3188 263.3792 -147.6546)" fill="#ffffff" width="1.8" height="0.2"/>
				
					<rect x="184.1" y="20.8" transform="matrix(-0.3198 0.9475 -0.9475 -0.3198 263.9951 -147.7088)" fill="#ffffff" width="1.8" height="0.2"/>
				
					<rect x="184.4" y="20.9" transform="matrix(-0.3207 0.9472 -0.9472 -0.3207 264.6101 -147.7632)" fill="#ffffff" width="1.8" height="0.2"/>
				
					<rect x="184.7" y="21" transform="matrix(-0.3217 0.9468 -0.9468 -0.3217 265.226 -147.8169)" fill="#ffffff" width="1.8" height="0.2"/>
				
					<rect x="184.9" y="21.1" transform="matrix(-0.3227 0.9465 -0.9465 -0.3227 265.8416 -147.8702)" fill="#ffffff" width="1.8" height="0.2"/>
			</g>
		</g>
		<g>
			<g>
				
					<rect x="187.1" y="21.8" transform="matrix(-0.3307 0.9437 -0.9437 -0.3307 270.8344 -148.2304)" fill="#ffffff" width="1.8" height="0.2"/>
				
					<rect x="187.4" y="21.9" transform="matrix(-0.3317 0.9434 -0.9434 -0.3317 271.4656 -148.2672)" fill="#ffffff" width="1.8" height="0.2"/>
				
					<rect x="187.6" y="22" transform="matrix(-0.3327 0.943 -0.943 -0.3327 272.0986 -148.3028)" fill="#ffffff" width="1.8" height="0.2"/>
				
					<rect x="187.9" y="22.1" transform="matrix(-0.3337 0.9427 -0.9427 -0.3337 272.7312 -148.3382)" fill="#ffffff" width="1.8" height="0.2"/>
				
					<rect x="188.2" y="22.2" transform="matrix(-0.3348 0.9423 -0.9423 -0.3348 273.3631 -148.3735)" fill="#ffffff" width="1.8" height="0.2"/>
				
					<rect x="188.4" y="22.3" transform="matrix(-0.3358 0.9419 -0.9419 -0.3358 273.9979 -148.4071)" fill="#ffffff" width="1.8" height="0.2"/>
				
					<rect x="188.7" y="22.4" transform="matrix(-0.3368 0.9416 -0.9416 -0.3368 274.6328 -148.44)" fill="#ffffff" width="1.8" height="0.2"/>
			</g>
		</g>
		<g>
			<g>
				
					<rect x="190.8" y="23.2" transform="matrix(-0.3453 0.9385 -0.9385 -0.3453 279.7756 -148.6342)" fill="#ffffff" width="1.8" height="0.2"/>
				
					<rect x="191.1" y="23.3" transform="matrix(-0.3464 0.9381 -0.9381 -0.3464 280.4264 -148.6492)" fill="#ffffff" width="1.8" height="0.2"/>
				
					<rect x="191.4" y="23.4" transform="matrix(-0.3475 0.9377 -0.9377 -0.3475 281.0788 -148.6628)" fill="#ffffff" width="1.8" height="0.2"/>
				
					<rect x="191.6" y="23.5" transform="matrix(-0.3486 0.9373 -0.9373 -0.3486 281.7318 -148.6758)" fill="#ffffff" width="1.8" height="0.2"/>
				
					<rect x="191.9" y="23.6" transform="matrix(-0.3496 0.9369 -0.9369 -0.3496 282.385 -148.6881)" fill="#ffffff" width="1.8" height="0.2"/>
				
					<rect x="192.2" y="23.7" transform="matrix(-0.3507 0.9365 -0.9365 -0.3507 283.0374 -148.7005)" fill="#ffffff" width="1.8" height="0.2"/>
				
					<rect x="192.4" y="23.8" transform="matrix(-0.3518 0.9361 -0.9361 -0.3518 283.6904 -148.712)" fill="#ffffff" width="1.8" height="0.2"/>
			</g>
		</g>
		<g>
			<g>
				
					<rect x="194.6" y="24.6" transform="matrix(-0.3608 0.9326 -0.9326 -0.3608 289 -148.7163)" fill="#ffffff" width="1.8" height="0.2"/>
				
					<rect x="194.8" y="24.7" transform="matrix(-0.362 0.9322 -0.9322 -0.362 289.6745 -148.7052)" fill="#ffffff" width="1.8" height="0.2"/>
				
					<rect x="195.1" y="24.8" transform="matrix(-0.3631 0.9317 -0.9317 -0.3631 290.3484 -148.6938)" fill="#ffffff" width="1.8" height="0.2"/>
				
					<rect x="195.4" y="24.9" transform="matrix(-0.3643 0.9313 -0.9313 -0.3643 291.0228 -148.6818)" fill="#ffffff" width="1.8" height="0.2"/>
				
					<rect x="195.6" y="25" transform="matrix(-0.3655 0.9308 -0.9308 -0.3655 291.6975 -148.6689)" fill="#ffffff" width="1.8" height="0.2"/>
				
					<rect x="195.9" y="25.1" transform="matrix(-0.3666 0.9304 -0.9304 -0.3666 292.3727 -148.6553)" fill="#ffffff" width="1.8" height="0.2"/>
				
					<rect x="196.2" y="25.2" transform="matrix(-0.3678 0.9299 -0.9299 -0.3678 293.0486 -148.6406)" fill="#ffffff" width="1.8" height="0.2"/>
			</g>
		</g>
		<g>
			<g>
				
					<rect x="198.3" y="26" transform="matrix(-0.3774 0.9261 -0.9261 -0.3774 298.5402 -148.4284)" fill="#ffffff" width="1.8" height="0.2"/>
				
					<rect x="198.5" y="26.2" transform="matrix(-0.3786 0.9256 -0.9256 -0.3786 299.2386 -148.3885)" fill="#ffffff" width="1.8" height="0.2"/>
				
					<rect x="198.8" y="26.3" transform="matrix(-0.3799 0.925 -0.925 -0.3799 299.9367 -148.348)" fill="#ffffff" width="1.8" height="0.2"/>
				
					<rect x="199.1" y="26.4" transform="matrix(-0.3811 0.9245 -0.9245 -0.3811 300.6346 -148.3073)" fill="#ffffff" width="1.8" height="0.2"/>
				
					<rect x="199.3" y="26.5" transform="matrix(-0.3823 0.924 -0.924 -0.3823 301.3334 -148.2651)" fill="#ffffff" width="1.8" height="0.2"/>
				
					<rect x="199.6" y="26.6" transform="matrix(-0.3836 0.9235 -0.9235 -0.3836 302.0334 -148.2217)" fill="#ffffff" width="1.8" height="0.2"/>
				
					<rect x="199.9" y="26.7" transform="matrix(-0.3848 0.923 -0.923 -0.3848 302.7335 -148.1775)" fill="#ffffff" width="1.8" height="0.2"/>
			</g>
		</g>
		<g>
			<g>
				
					<rect x="202" y="27.6" transform="matrix(-0.3952 0.9186 -0.9186 -0.3952 308.4317 -147.7119)" fill="#ffffff" width="1.8" height="0.2"/>
				
					<rect x="202.2" y="27.7" transform="matrix(-0.3965 0.918 -0.918 -0.3965 309.1567 -147.6385)" fill="#ffffff" width="1.8" height="0.2"/>
				
					<rect x="202.5" y="27.8" transform="matrix(-0.3978 0.9175 -0.9175 -0.3978 309.8814 -147.5644)" fill="#ffffff" width="1.8" height="0.2"/>
				
					<rect x="202.7" y="27.9" transform="matrix(-0.3992 0.9169 -0.9169 -0.3992 310.6072 -147.4891)" fill="#ffffff" width="1.8" height="0.2"/>
				
					<rect x="203" y="28" transform="matrix(-0.4005 0.9163 -0.9163 -0.4005 311.3332 -147.4127)" fill="#ffffff" width="1.8" height="0.2"/>
				
					<rect x="203.3" y="28.2" transform="matrix(-0.4019 0.9157 -0.9157 -0.4019 312.0597 -147.3353)" fill="#ffffff" width="1.8" height="0.2"/>
				
					<rect x="203.5" y="28.3" transform="matrix(-0.4032 0.9151 -0.9151 -0.4032 312.7869 -147.2566)" fill="#ffffff" width="1.8" height="0.2"/>
			</g>
		</g>
		<g>
			<g>
				
					<rect x="205.6" y="29.2" transform="matrix(-0.4144 0.9101 -0.9101 -0.4144 318.715 -146.4947)" fill="#ffffff" width="1.8" height="0.2"/>
				
					<rect x="205.9" y="29.3" transform="matrix(-0.4158 0.9094 -0.9094 -0.4158 319.4702 -146.3816)" fill="#ffffff" width="1.8" height="0.2"/>
				
					<rect x="206.1" y="29.4" transform="matrix(-0.4173 0.9088 -0.9088 -0.4173 320.2265 -146.2669)" fill="#ffffff" width="1.8" height="0.2"/>
				
					<rect x="206.4" y="29.6" transform="matrix(-0.4187 0.9081 -0.9081 -0.4187 320.9824 -146.1515)" fill="#ffffff" width="1.8" height="0.2"/>
				
					<rect x="206.6" y="29.7" transform="matrix(-0.4202 0.9074 -0.9074 -0.4202 321.7386 -146.0349)" fill="#ffffff" width="1.8" height="0.2"/>
				
					<rect x="206.9" y="29.8" transform="matrix(-0.4216 0.9068 -0.9068 -0.4216 322.4944 -145.9177)" fill="#ffffff" width="1.8" height="0.2"/>
				
					<rect x="207.2" y="29.9" transform="matrix(-0.4231 0.9061 -0.9061 -0.4231 323.2511 -145.7989)" fill="#ffffff" width="1.8" height="0.2"/>
			</g>
		</g>
		<g>
			<g>
				
					<rect x="209.2" y="30.9" transform="matrix(-0.4353 0.9003 -0.9003 -0.4353 329.4409 -144.6833)" fill="#ffffff" width="1.8" height="0.2"/>
				
					<rect x="209.5" y="31" transform="matrix(-0.4368 0.8995 -0.8995 -0.4368 330.2311 -144.5223)" fill="#ffffff" width="1.8" height="0.2"/>
				
					<rect x="209.7" y="31.1" transform="matrix(-0.4384 0.8988 -0.8988 -0.4384 331.0208 -144.3605)" fill="#ffffff" width="1.8" height="0.2"/>
				
					<rect x="210" y="31.3" transform="matrix(-0.44 0.898 -0.898 -0.44 331.8122 -144.1964)" fill="#ffffff" width="1.8" height="0.2"/>
				
					<rect x="210.2" y="31.4" transform="matrix(-0.4416 0.8972 -0.8972 -0.4416 332.6024 -144.0318)" fill="#ffffff" width="1.8" height="0.2"/>
				
					<rect x="210.5" y="31.5" transform="matrix(-0.4432 0.8964 -0.8964 -0.4432 333.3942 -143.8651)" fill="#ffffff" width="1.8" height="0.2"/>
				
					<rect x="210.7" y="31.6" transform="matrix(-0.4448 0.8956 -0.8956 -0.4448 334.1834 -143.6988)" fill="#ffffff" width="1.8" height="0.2"/>
			</g>
		</g>
		<g>
			<g>
				
					<rect x="212.8" y="32.7" transform="matrix(-0.4581 0.8889 -0.8889 -0.4581 340.6687 -142.1584)" fill="#ffffff" width="1.8" height="0.2"/>
				
					<rect x="213" y="32.8" transform="matrix(-0.4598 0.888 -0.888 -0.4598 341.4964 -141.9409)" fill="#ffffff" width="1.8" height="0.2"/>
				
					<rect x="213.3" y="32.9" transform="matrix(-0.4616 0.8871 -0.8871 -0.4616 342.3271 -141.7199)" fill="#ffffff" width="1.8" height="0.2"/>
				
					<rect x="213.5" y="33.1" transform="matrix(-0.4633 0.8862 -0.8862 -0.4633 343.1573 -141.4978)" fill="#ffffff" width="1.8" height="0.2"/>
				
					<rect x="213.8" y="33.2" transform="matrix(-0.4651 0.8853 -0.8853 -0.4651 343.9861 -141.2751)" fill="#ffffff" width="1.8" height="0.2"/>
				
					<rect x="214" y="33.3" transform="matrix(-0.4668 0.8843 -0.8843 -0.4668 344.8173 -141.0493)" fill="#ffffff" width="1.8" height="0.2"/>
				
					<rect x="214.3" y="33.5" transform="matrix(-0.4686 0.8834 -0.8834 -0.4686 345.6458 -140.8238)" fill="#ffffff" width="1.8" height="0.2"/>
			</g>
		</g>
		<g>
			<g>
				
					<rect x="216.3" y="34.5" transform="matrix(-0.4833 0.8755 -0.8755 -0.4833 352.4656 -138.7657)" fill="#ffffff" width="1.8" height="0.2"/>
				
					<rect x="216.5" y="34.7" transform="matrix(-0.4852 0.8744 -0.8744 -0.4852 353.3404 -138.4758)" fill="#ffffff" width="1.8" height="0.2"/>
				
					<rect x="216.8" y="34.8" transform="matrix(-0.4872 0.8733 -0.8733 -0.4872 354.2145 -138.1844)" fill="#ffffff" width="1.8" height="0.2"/>
				
					<rect x="217" y="35" transform="matrix(-0.4891 0.8722 -0.8722 -0.4891 355.09 -137.8901)" fill="#ffffff" width="1.8" height="0.2"/>
				
					<rect x="217.3" y="35.1" transform="matrix(-0.491 0.8711 -0.8711 -0.491 355.9661 -137.5933)" fill="#ffffff" width="1.8" height="0.2"/>
				
					<rect x="217.5" y="35.2" transform="matrix(-0.493 0.8701 -0.8701 -0.493 356.8398 -137.2966)" fill="#ffffff" width="1.8" height="0.2"/>
				
					<rect x="217.8" y="35.4" transform="matrix(-0.4949 0.869 -0.869 -0.4949 357.7132 -136.9979)" fill="#ffffff" width="1.8" height="0.2"/>
			</g>
		</g>
		<g>
			<g>
				
					<rect x="219.8" y="36.5" transform="matrix(-0.5113 0.8594 -0.8594 -0.5113 364.9194 -134.2934)" fill="#ffffff" width="1.8" height="0.2"/>
				
					<rect x="220" y="36.7" transform="matrix(-0.5134 0.8581 -0.8581 -0.5134 365.8451 -133.9151)" fill="#ffffff" width="1.8" height="0.2"/>
				
					<rect x="220.2" y="36.8" transform="matrix(-0.5156 0.8568 -0.8568 -0.5156 366.7713 -133.5338)" fill="#ffffff" width="1.8" height="0.2"/>
				
					<rect x="220.5" y="37" transform="matrix(-0.5178 0.8555 -0.8555 -0.5178 367.6973 -133.1501)" fill="#ffffff" width="1.8" height="0.2"/>
				
					<rect x="220.7" y="37.1" transform="matrix(-0.5199 0.8542 -0.8542 -0.5199 368.623 -132.764)" fill="#ffffff" width="1.8" height="0.2"/>
				
					<rect x="221" y="37.3" transform="matrix(-0.5221 0.8529 -0.8529 -0.5221 369.548 -132.376)" fill="#ffffff" width="1.8" height="0.2"/>
				
					<rect x="221.2" y="37.4" transform="matrix(-0.5242 0.8516 -0.8516 -0.5242 370.4733 -131.985)" fill="#ffffff" width="1.8" height="0.2"/>
			</g>
		</g>
		<g>
			<g>
				
					<rect x="223.1" y="38.6" transform="matrix(-0.5427 0.84 -0.84 -0.5427 378.1191 -128.4642)" fill="#ffffff" width="1.8" height="0.2"/>
				
					<rect x="223.4" y="38.8" transform="matrix(-0.5451 0.8384 -0.8384 -0.5451 379.104 -127.9724)" fill="#ffffff" width="1.8" height="0.2"/>
				
					<rect x="223.6" y="38.9" transform="matrix(-0.5476 0.8368 -0.8368 -0.5476 380.0916 -127.4743)" fill="#ffffff" width="1.8" height="0.2"/>
				
					<rect x="223.9" y="39.1" transform="matrix(-0.55 0.8352 -0.8352 -0.55 381.0744 -126.9774)" fill="#ffffff" width="1.8" height="0.2"/>
				
					<rect x="224.1" y="39.2" transform="matrix(-0.5524 0.8336 -0.8336 -0.5524 382.0584 -126.4756)" fill="#ffffff" width="1.8" height="0.2"/>
				
					<rect x="224.3" y="39.4" transform="matrix(-0.5549 0.8319 -0.8319 -0.5549 383.0433 -125.9695)" fill="#ffffff" width="1.8" height="0.2"/>
				
					<rect x="224.6" y="39.5" transform="matrix(-0.5573 0.8303 -0.8303 -0.5573 384.0251 -125.4626)" fill="#ffffff" width="1.8" height="0.2"/>
			</g>
		</g>
		<g>
			<g>
				
					<rect x="226.4" y="40.8" transform="matrix(-0.5782 0.8159 -0.8159 -0.5782 392.1711 -120.887)" fill="#ffffff" width="1.8" height="0.2"/>
				
					<rect x="226.7" y="41" transform="matrix(-0.5809 0.8139 -0.8139 -0.5809 393.2253 -120.2449)" fill="#ffffff" width="1.8" height="0.2"/>
				
					<rect x="226.9" y="41.2" transform="matrix(-0.5837 0.8119 -0.8119 -0.5837 394.2769 -119.6003)" fill="#ffffff" width="1.8" height="0.2"/>
				
					<rect x="227.1" y="41.3" transform="matrix(-0.5865 0.8099 -0.8099 -0.5865 395.3278 -118.9514)" fill="#ffffff" width="1.8" height="0.2"/>
				
					<rect x="227.4" y="41.5" transform="matrix(-0.5893 0.8079 -0.8079 -0.5893 396.3773 -118.2989)" fill="#ffffff" width="1.8" height="0.2"/>
				
					<rect x="227.6" y="41.7" transform="matrix(-0.5921 0.8059 -0.8059 -0.5921 397.4272 -117.6407)" fill="#ffffff" width="1.8" height="0.2"/>
				
					<rect x="227.8" y="41.8" transform="matrix(-0.5948 0.8039 -0.8039 -0.5948 398.4721 -116.9825)" fill="#ffffff" width="1.8" height="0.2"/>
			</g>
		</g>
		<g>
			<g>
				
					<rect x="229.6" y="43.2" transform="matrix(-0.6186 0.7857 -0.7857 -0.6186 407.1774 -111.0125)" fill="#ffffff" width="1.8" height="0.2"/>
				
					<rect x="229.9" y="43.4" transform="matrix(-0.6219 0.7831 -0.7831 -0.6219 408.3069 -110.1717)" fill="#ffffff" width="1.8" height="0.2"/>
				
					<rect x="230.1" y="43.6" transform="matrix(-0.6251 0.7806 -0.7806 -0.6251 409.4319 -109.3284)" fill="#ffffff" width="1.8" height="0.2"/>
				
					<rect x="230.3" y="43.8" transform="matrix(-0.6282 0.778 -0.778 -0.6282 410.5542 -108.4807)" fill="#ffffff" width="1.8" height="0.2"/>
				
					<rect x="230.5" y="43.9" transform="matrix(-0.6314 0.7754 -0.7754 -0.6314 411.6765 -107.6252)" fill="#ffffff" width="1.8" height="0.2"/>
				
					<rect x="230.7" y="44.1" transform="matrix(-0.6346 0.7729 -0.7729 -0.6346 412.7942 -106.7674)" fill="#ffffff" width="1.8" height="0.2"/>
				
					<rect x="231" y="44.3" transform="matrix(-0.6377 0.7703 -0.7703 -0.6377 413.9105 -105.9031)" fill="#ffffff" width="1.8" height="0.2"/>
			</g>
		</g>
		<g>
			<g>
				<polygon fill="#ffffff" points="233.1,46.6 234.3,45.3 234.1,45.1 232.9,46.5 				"/>
				
					<rect x="232.9" y="46" transform="matrix(-0.6689 0.7434 -0.7434 -0.6689 424.4118 -96.9467)" fill="#ffffff" width="1.8" height="0.2"/>
				
					<rect x="233.1" y="46.1" transform="matrix(-0.6725 0.7401 -0.7401 -0.6725 425.6135 -95.831)" fill="#ffffff" width="1.8" height="0.2"/>
				
					<rect x="233.3" y="46.3" transform="matrix(-0.6762 0.7367 -0.7367 -0.6762 426.8098 -94.7103)" fill="#ffffff" width="1.8" height="0.2"/>
				
					<rect x="233.5" y="46.5" transform="matrix(-0.6799 0.7333 -0.7333 -0.6799 428.0031 -93.5811)" fill="#ffffff" width="1.8" height="0.2"/>
				
					<rect x="233.7" y="46.7" transform="matrix(-0.6835 0.7299 -0.7299 -0.6835 429.1918 -92.4458)" fill="#ffffff" width="1.8" height="0.2"/>
				<polygon fill="#ffffff" points="234.3,47.7 235.5,46.4 235.4,46.3 234.2,47.6 				"/>
			</g>
		</g>
		<g>
			<g>
				
					<rect x="235.5" y="48.5" transform="matrix(-0.716 0.6981 -0.6981 -0.716 439.5006 -81.7557)" fill="#ffffff" width="1.8" height="0.1"/>
				
					<rect x="235.6" y="48.6" transform="matrix(-0.7181 0.6959 -0.6959 -0.7181 440.1297 -81.0402)" fill="#ffffff" width="1.8" height="0.1"/>
				
					<rect x="235.7" y="48.7" transform="matrix(-0.7202 0.6938 -0.6938 -0.7202 440.7561 -80.3241)" fill="#ffffff" width="1.8" height="0.1"/>
				
					<rect x="235.8" y="48.8" transform="matrix(-0.7223 0.6916 -0.6916 -0.7223 441.3816 -79.6046)" fill="#ffffff" width="1.8" height="0.1"/>
				
					<rect x="235.9" y="48.9" transform="matrix(-0.7243 0.6895 -0.6895 -0.7243 442.0051 -78.883)" fill="#ffffff" width="1.8" height="0.1"/>
				
					<rect x="236" y="49" transform="matrix(-0.7264 0.6873 -0.6873 -0.7264 442.6261 -78.1606)" fill="#ffffff" width="1.8" height="0.1"/>
				
					<rect x="236.1" y="49.1" transform="matrix(-0.7284 0.6851 -0.6851 -0.7284 443.2451 -77.4363)" fill="#ffffff" width="1.8" height="0.1"/>
			</g>
		</g>
	</g>
</g>
<polygon fill="#ffffff" points="234.1,51.4 242,53.4 238.5,45.9 "/>
</svg>
