<?xml version="1.0" encoding="utf-8"?>
<!-- Generator: Adobe Illustrator 18.1.1, SVG Export Plug-In . SVG Version: 6.00 Build 0)  -->
<svg version="1.1" id="Layer_1" xmlns="http://www.w3.org/2000/svg" xmlns:xlink="http://www.w3.org/1999/xlink" x="0px" y="0px"
	 viewBox="0 0 118.8 42.2" enable-background="new 0 0 118.8 42.2" xml:space="preserve">
<g>
	<g>
		<g>
			<g>
				
					<rect x="117.8" y="0.8" transform="matrix(-3.711424e-002 -0.9993 0.9993 -3.711424e-002 122.1953 119.5205)" fill="#ffffff" width="1.8" height="0.1"/>
				
					<rect x="117.6" y="0.8" transform="matrix(-3.711460e-002 -0.9993 0.9993 -3.711460e-002 122.0424 119.3837)" fill="#ffffff" width="1.8" height="0.1"/>
				
					<rect x="117.5" y="0.9" transform="matrix(-3.711424e-002 -0.9993 0.9993 -3.711424e-002 121.8893 119.2468)" fill="#ffffff" width="1.8" height="0.1"/>
				
					<rect x="117.4" y="0.9" transform="matrix(-3.711424e-002 -0.9993 0.9993 -3.711424e-002 121.7363 119.1099)" fill="#ffffff" width="1.8" height="0.1"/>
				
					<rect x="117.2" y="0.9" transform="matrix(-3.711460e-002 -0.9993 0.9993 -3.711460e-002 121.5833 118.9731)" fill="#ffffff" width="1.8" height="0.1"/>
				
					<rect x="117.1" y="0.9" transform="matrix(-3.711424e-002 -0.9993 0.9993 -3.711424e-002 121.4303 118.8362)" fill="#ffffff" width="1.8" height="0.1"/>
				
					<rect x="116.9" y="0.9" transform="matrix(-3.711424e-002 -0.9993 0.9993 -3.711424e-002 121.2773 118.6994)" fill="#ffffff" width="1.8" height="0.1"/>
			</g>
		</g>
		<g>
			<g>
				
					<rect x="114.8" y="0.9" transform="matrix(-4.504031e-002 -0.999 0.999 -4.504031e-002 119.8358 116.5795)" fill="#ffffff" width="1.8" height="0.2"/>
				
					<rect x="114.5" y="0.9" transform="matrix(-4.590785e-002 -0.9989 0.9989 -4.590785e-002 119.6194 116.3009)" fill="#ffffff" width="1.8" height="0.2"/>
				
					<rect x="114.2" y="0.9" transform="matrix(-4.679203e-002 -0.9989 0.9989 -4.679203e-002 119.4045 116.0221)" fill="#ffffff" width="1.8" height="0.2"/>
				
					<rect x="113.9" y="1" transform="matrix(-4.766795e-002 -0.9989 0.9989 -4.766795e-002 119.188 115.7433)" fill="#ffffff" width="1.8" height="0.2"/>
				
					<rect x="113.6" y="1" transform="matrix(-4.854432e-002 -0.9988 0.9988 -4.854432e-002 118.9712 115.4645)" fill="#ffffff" width="1.8" height="0.2"/>
				
					<rect x="113.3" y="1" transform="matrix(-4.941124e-002 -0.9988 0.9988 -4.941124e-002 118.7527 115.1857)" fill="#ffffff" width="1.8" height="0.2"/>
				
					<rect x="113" y="1" transform="matrix(-5.028705e-002 -0.9987 0.9987 -5.028705e-002 118.5348 114.9068)" fill="#ffffff" width="1.8" height="0.2"/>
			</g>
		</g>
		<g>
			<g>
				
					<rect x="110.7" y="1.1" transform="matrix(-5.749169e-002 -0.9983 0.9983 -5.749169e-002 116.7813 112.688)" fill="#ffffff" width="1.8" height="0.2"/>
				
					<rect x="110.4" y="1.1" transform="matrix(-5.841949e-002 -0.9983 0.9983 -5.841949e-002 116.5609 112.4125)" fill="#ffffff" width="1.8" height="0.2"/>
				
					<rect x="110.1" y="1.2" transform="matrix(-5.934675e-002 -0.9982 0.9982 -5.934675e-002 116.34 112.1369)" fill="#ffffff" width="1.8" height="0.2"/>
				
					<rect x="109.8" y="1.2" transform="matrix(-6.027445e-002 -0.9982 0.9982 -6.027445e-002 116.1184 111.8612)" fill="#ffffff" width="1.8" height="0.2"/>
				
					<rect x="109.5" y="1.2" transform="matrix(-6.120149e-002 -0.9981 0.9981 -6.120149e-002 115.8964 111.5856)" fill="#ffffff" width="1.8" height="0.2"/>
				
					<rect x="109.2" y="1.2" transform="matrix(-6.212063e-002 -0.9981 0.9981 -6.212063e-002 115.6729 111.3099)" fill="#ffffff" width="1.8" height="0.2"/>
				
					<rect x="109" y="1.2" transform="matrix(-6.304817e-002 -0.998 0.998 -6.304817e-002 115.4499 111.0342)" fill="#ffffff" width="1.8" height="0.2"/>
			</g>
		</g>
		<g>
			<g>
				
					<rect x="106.6" y="1.4" transform="matrix(-7.065631e-002 -0.9975 0.9975 -7.065631e-002 113.6521 108.8425)" fill="#ffffff" width="1.8" height="0.2"/>
				
					<rect x="106.4" y="1.4" transform="matrix(-7.163516e-002 -0.9974 0.9974 -7.163516e-002 113.426 108.5705)" fill="#ffffff" width="1.8" height="0.2"/>
				
					<rect x="106.1" y="1.4" transform="matrix(-7.260549e-002 -0.9974 0.9974 -7.260549e-002 113.1985 108.2986)" fill="#ffffff" width="1.8" height="0.2"/>
				
					<rect x="105.8" y="1.4" transform="matrix(-7.357623e-002 -0.9973 0.9973 -7.357623e-002 112.9704 108.0266)" fill="#ffffff" width="1.8" height="0.2"/>
				
					<rect x="105.5" y="1.5" transform="matrix(-7.454631e-002 -0.9972 0.9972 -7.454631e-002 112.7417 107.7547)" fill="#ffffff" width="1.8" height="0.2"/>
				
					<rect x="105.2" y="1.5" transform="matrix(-7.551643e-002 -0.9971 0.9971 -7.551643e-002 112.5123 107.4827)" fill="#ffffff" width="1.8" height="0.2"/>
				
					<rect x="104.9" y="1.5" transform="matrix(-7.649623e-002 -0.9971 0.9971 -7.649623e-002 112.2836 107.2106)" fill="#ffffff" width="1.8" height="0.2"/>
			</g>
		</g>
		<g>
			<g>
				
					<rect x="102.6" y="1.7" transform="matrix(-8.447313e-002 -0.9964 0.9964 -8.447313e-002 110.4331 105.0503)" fill="#ffffff" width="1.8" height="0.2"/>
				
					<rect x="102.3" y="1.7" transform="matrix(-8.548642e-002 -0.9963 0.9963 -8.548642e-002 110.1997 104.7832)" fill="#ffffff" width="1.8" height="0.2"/>
				
					<rect x="102" y="1.7" transform="matrix(-8.649950e-002 -0.9963 0.9963 -8.649950e-002 109.9656 104.516)" fill="#ffffff" width="1.8" height="0.2"/>
				
					<rect x="101.7" y="1.8" transform="matrix(-8.752189e-002 -0.9962 0.9962 -8.752189e-002 109.7319 104.2487)" fill="#ffffff" width="1.8" height="0.2"/>
				
					<rect x="101.4" y="1.8" transform="matrix(-8.854334e-002 -0.9961 0.9961 -8.854334e-002 109.4975 103.9814)" fill="#ffffff" width="1.8" height="0.2"/>
				
					<rect x="101.1" y="1.8" transform="matrix(-8.955699e-002 -0.996 0.996 -8.955699e-002 109.2617 103.7141)" fill="#ffffff" width="1.8" height="0.2"/>
				
					<rect x="100.9" y="1.8" transform="matrix(-9.057909e-002 -0.9959 0.9959 -9.057909e-002 109.0263 103.4469)" fill="#ffffff" width="1.8" height="0.2"/>
			</g>
		</g>
		<g>
			<g>
				
					<rect x="98.5" y="2.1" transform="matrix(-9.889153e-002 -0.9951 0.9951 -9.889153e-002 107.1196 101.3257)" fill="#ffffff" width="1.8" height="0.2"/>
				
					<rect x="98.3" y="2.1" transform="matrix(-9.995601e-002 -0.995 0.995 -9.995601e-002 106.8791 101.063)" fill="#ffffff" width="1.8" height="0.2"/>
				
					<rect x="98" y="2.1" transform="matrix(-0.101 -0.9949 0.9949 -0.101 106.638 100.8002)" fill="#ffffff" width="1.8" height="0.2"/>
				
					<rect x="97.7" y="2.2" transform="matrix(-0.1021 -0.9948 0.9948 -0.1021 106.3962 100.5375)" fill="#ffffff" width="1.8" height="0.2"/>
				
					<rect x="97.4" y="2.2" transform="matrix(-0.1031 -0.9947 0.9947 -0.1031 106.153 100.2748)" fill="#ffffff" width="1.8" height="0.2"/>
				
					<rect x="97.1" y="2.2" transform="matrix(-0.1042 -0.9946 0.9946 -0.1042 105.91 100.0121)" fill="#ffffff" width="1.8" height="0.2"/>
				
					<rect x="96.8" y="2.2" transform="matrix(-0.1053 -0.9944 0.9944 -0.1053 105.6666 99.7495)" fill="#ffffff" width="1.8" height="0.2"/>
			</g>
		</g>
		<g>
			<g>
				
					<rect x="94.5" y="2.5" transform="matrix(-0.114 -0.9935 0.9935 -0.114 103.6966 97.667)" fill="#ffffff" width="1.8" height="0.2"/>
				
					<rect x="94.2" y="2.5" transform="matrix(-0.1151 -0.9934 0.9934 -0.1151 103.4468 97.4095)" fill="#ffffff" width="1.8" height="0.2"/>
				
					<rect x="93.9" y="2.6" transform="matrix(-0.1162 -0.9932 0.9932 -0.1162 103.1974 97.1519)" fill="#ffffff" width="1.8" height="0.2"/>
				
					<rect x="93.6" y="2.6" transform="matrix(-0.1173 -0.9931 0.9931 -0.1173 102.9479 96.8943)" fill="#ffffff" width="1.8" height="0.2"/>
				
					<rect x="93.4" y="2.6" transform="matrix(-0.1184 -0.993 0.993 -0.1184 102.6963 96.6368)" fill="#ffffff" width="1.8" height="0.2"/>
				
					<rect x="93.1" y="2.7" transform="matrix(-0.1195 -0.9928 0.9928 -0.1195 102.4449 96.3793)" fill="#ffffff" width="1.8" height="0.2"/>
				
					<rect x="92.8" y="2.7" transform="matrix(-0.1206 -0.9927 0.9927 -0.1206 102.1928 96.1219)" fill="#ffffff" width="1.8" height="0.2"/>
			</g>
		</g>
		<g>
			<g>
				
					<rect x="90.5" y="3" transform="matrix(-0.1296 -0.9916 0.9916 -0.1296 100.1548 94.0835)" fill="#ffffff" width="1.8" height="0.2"/>
				
					<rect x="90.2" y="3" transform="matrix(-0.1308 -0.9914 0.9914 -0.1308 99.8961 93.8318)" fill="#ffffff" width="1.8" height="0.2"/>
				
					<rect x="89.9" y="3.1" transform="matrix(-0.1319 -0.9913 0.9913 -0.1319 99.6385 93.58)" fill="#ffffff" width="1.8" height="0.2"/>
				
					<rect x="89.6" y="3.1" transform="matrix(-0.1331 -0.9911 0.9911 -0.1331 99.3793 93.3283)" fill="#ffffff" width="1.8" height="0.2"/>
				
					<rect x="89.3" y="3.1" transform="matrix(-0.1342 -0.9909 0.9909 -0.1342 99.1195 93.0766)" fill="#ffffff" width="1.8" height="0.2"/>
				
					<rect x="89" y="3.2" transform="matrix(-0.1354 -0.9908 0.9908 -0.1354 98.859 92.825)" fill="#ffffff" width="1.8" height="0.2"/>
				
					<rect x="88.8" y="3.2" transform="matrix(-0.1365 -0.9906 0.9906 -0.1365 98.5981 92.5736)" fill="#ffffff" width="1.8" height="0.2"/>
			</g>
		</g>
		<g>
			<g>
				
					<rect x="86.5" y="3.5" transform="matrix(-0.1459 -0.9893 0.9893 -0.1459 96.4874 90.5848)" fill="#ffffff" width="1.8" height="0.2"/>
				
					<rect x="86.2" y="3.6" transform="matrix(-0.1471 -0.9891 0.9891 -0.1471 96.221 90.3395)" fill="#ffffff" width="1.8" height="0.2"/>
				
					<rect x="85.9" y="3.6" transform="matrix(-0.1483 -0.9889 0.9889 -0.1483 95.9538 90.0942)" fill="#ffffff" width="1.8" height="0.2"/>
				
					<rect x="85.6" y="3.7" transform="matrix(-0.1495 -0.9888 0.9888 -0.1495 95.6845 89.8492)" fill="#ffffff" width="1.8" height="0.2"/>
				
					<rect x="85.3" y="3.7" transform="matrix(-0.1507 -0.9886 0.9886 -0.1507 95.4162 89.6041)" fill="#ffffff" width="1.8" height="0.2"/>
				
					<rect x="85" y="3.8" transform="matrix(-0.1519 -0.9884 0.9884 -0.1519 95.1463 89.3591)" fill="#ffffff" width="1.8" height="0.2"/>
				
					<rect x="84.7" y="3.8" transform="matrix(-0.1531 -0.9882 0.9882 -0.1531 94.8758 89.1143)" fill="#ffffff" width="1.8" height="0.2"/>
			</g>
		</g>
		<g>
			<g>
				
					<rect x="82.4" y="4.2" transform="matrix(-0.1629 -0.9866 0.9866 -0.1629 92.6912 87.181)" fill="#ffffff" width="1.8" height="0.2"/>
				
					<rect x="82.2" y="4.2" transform="matrix(-0.1641 -0.9864 0.9864 -0.1641 92.4141 86.9431)" fill="#ffffff" width="1.8" height="0.2"/>
				
					<rect x="81.9" y="4.3" transform="matrix(-0.1654 -0.9862 0.9862 -0.1654 92.1379 86.7051)" fill="#ffffff" width="1.8" height="0.2"/>
				
					<rect x="81.6" y="4.3" transform="matrix(-0.1666 -0.986 0.986 -0.1666 91.8603 86.4672)" fill="#ffffff" width="1.8" height="0.2"/>
				
					<rect x="81.3" y="4.4" transform="matrix(-0.1679 -0.9858 0.9858 -0.1679 91.5812 86.2296)" fill="#ffffff" width="1.8" height="0.2"/>
				
					<rect x="81" y="4.4" transform="matrix(-0.1691 -0.9856 0.9856 -0.1691 91.3022 85.992)" fill="#ffffff" width="1.8" height="0.2"/>
				
					<rect x="80.7" y="4.5" transform="matrix(-0.1703 -0.9854 0.9854 -0.1703 91.0219 85.7546)" fill="#ffffff" width="1.8" height="0.2"/>
			</g>
		</g>
		<g>
			<g>
				
					<rect x="78.4" y="4.9" transform="matrix(-0.1805 -0.9836 0.9836 -0.1805 88.7589 83.8834)" fill="#ffffff" width="1.8" height="0.2"/>
				
					<rect x="78.2" y="4.9" transform="matrix(-0.1818 -0.9833 0.9833 -0.1818 88.4725 83.6535)" fill="#ffffff" width="1.8" height="0.2"/>
				
					<rect x="77.9" y="5" transform="matrix(-0.1831 -0.9831 0.9831 -0.1831 88.1853 83.4238)" fill="#ffffff" width="1.8" height="0.2"/>
				
					<rect x="77.6" y="5" transform="matrix(-0.1844 -0.9829 0.9829 -0.1844 87.8981 83.1941)" fill="#ffffff" width="1.8" height="0.2"/>
				
					<rect x="77.3" y="5.1" transform="matrix(-0.1856 -0.9826 0.9826 -0.1856 87.6095 82.9647)" fill="#ffffff" width="1.8" height="0.2"/>
				
					<rect x="77" y="5.1" transform="matrix(-0.1869 -0.9824 0.9824 -0.1869 87.3203 82.7353)" fill="#ffffff" width="1.8" height="0.2"/>
				
					<rect x="76.7" y="5.2" transform="matrix(-0.1882 -0.9821 0.9821 -0.1882 87.0304 82.5061)" fill="#ffffff" width="1.8" height="0.2"/>
			</g>
		</g>
		<g>
			<g>
				
					<rect x="74.4" y="5.6" transform="matrix(-0.1987 -0.9801 0.9801 -0.1987 84.6865 80.7039)" fill="#ffffff" width="1.8" height="0.2"/>
				
					<rect x="74.2" y="5.7" transform="matrix(-0.2001 -0.9798 0.9798 -0.2001 84.3902 80.4831)" fill="#ffffff" width="1.8" height="0.2"/>
				
					<rect x="73.9" y="5.8" transform="matrix(-0.2014 -0.9795 0.9795 -0.2014 84.0924 80.2625)" fill="#ffffff" width="1.8" height="0.2"/>
				
					<rect x="73.6" y="5.8" transform="matrix(-0.2027 -0.9792 0.9792 -0.2027 83.7946 80.0419)" fill="#ffffff" width="1.8" height="0.2"/>
				
					<rect x="73.3" y="5.9" transform="matrix(-0.2041 -0.979 0.979 -0.2041 83.4955 79.8216)" fill="#ffffff" width="1.8" height="0.2"/>
				
					<rect x="73" y="5.9" transform="matrix(-0.2054 -0.9787 0.9787 -0.2054 83.1962 79.6014)" fill="#ffffff" width="1.8" height="0.2"/>
				
					<rect x="72.7" y="6" transform="matrix(-0.2068 -0.9784 0.9784 -0.2068 82.8963 79.3814)" fill="#ffffff" width="1.8" height="0.2"/>
			</g>
		</g>
		<g>
			<g>
				
					<rect x="70.5" y="6.5" transform="matrix(-0.2177 -0.976 0.976 -0.2177 80.4687 77.6559)" fill="#ffffff" width="1.8" height="0.2"/>
				
					<rect x="70.2" y="6.5" transform="matrix(-0.2191 -0.9757 0.9757 -0.2191 80.1626 77.4449)" fill="#ffffff" width="1.8" height="0.2"/>
				
					<rect x="69.9" y="6.6" transform="matrix(-0.2204 -0.9754 0.9754 -0.2204 79.8546 77.2343)" fill="#ffffff" width="1.8" height="0.2"/>
				
					<rect x="69.6" y="6.7" transform="matrix(-0.2218 -0.9751 0.9751 -0.2218 79.5464 77.0238)" fill="#ffffff" width="1.8" height="0.2"/>
				
					<rect x="69.3" y="6.7" transform="matrix(-0.2232 -0.9748 0.9748 -0.2232 79.2365 76.8137)" fill="#ffffff" width="1.8" height="0.2"/>
				
					<rect x="69.1" y="6.8" transform="matrix(-0.2246 -0.9745 0.9745 -0.2246 78.9268 76.6036)" fill="#ffffff" width="1.8" height="0.2"/>
				
					<rect x="68.8" y="6.9" transform="matrix(-0.226 -0.9741 0.9741 -0.226 78.6159 76.3938)" fill="#ffffff" width="1.8" height="0.2"/>
			</g>
		</g>
		<g>
			<g>
				
					<rect x="66.5" y="7.4" transform="matrix(-0.2373 -0.9714 0.9714 -0.2373 76.109 74.7565)" fill="#ffffff" width="1.8" height="0.2"/>
				
					<rect x="66.2" y="7.5" transform="matrix(-0.2387 -0.9711 0.9711 -0.2387 75.792 74.557)" fill="#ffffff" width="1.8" height="0.2"/>
				
					<rect x="66" y="7.5" transform="matrix(-0.2401 -0.9707 0.9707 -0.2401 75.4743 74.3579)" fill="#ffffff" width="1.8" height="0.2"/>
				
					<rect x="65.7" y="7.6" transform="matrix(-0.2415 -0.9704 0.9704 -0.2415 75.1552 74.159)" fill="#ffffff" width="1.8" height="0.2"/>
				
					<rect x="65.4" y="7.7" transform="matrix(-0.243 -0.97 0.97 -0.243 74.8362 73.9603)" fill="#ffffff" width="1.8" height="0.2"/>
				
					<rect x="65.1" y="7.8" transform="matrix(-0.2444 -0.9697 0.9697 -0.2444 74.516 73.7619)" fill="#ffffff" width="1.8" height="0.2"/>
				
					<rect x="64.8" y="7.8" transform="matrix(-0.2458 -0.9693 0.9693 -0.2458 74.1954 73.5637)" fill="#ffffff" width="1.8" height="0.2"/>
			</g>
		</g>
		<g>
			<g>
				
					<rect x="62.6" y="8.4" transform="matrix(-0.2575 -0.9663 0.9663 -0.2575 71.6014 72.0195)" fill="#ffffff" width="1.8" height="0.2"/>
				
					<rect x="62.3" y="8.5" transform="matrix(-0.259 -0.9659 0.9659 -0.259 71.273 71.8322)" fill="#ffffff" width="1.8" height="0.2"/>
				
					<rect x="62" y="8.6" transform="matrix(-0.2605 -0.9655 0.9655 -0.2605 70.9445 71.6452)" fill="#ffffff" width="1.8" height="0.2"/>
				
					<rect x="61.7" y="8.6" transform="matrix(-0.262 -0.9651 0.9651 -0.262 70.6149 71.4585)" fill="#ffffff" width="1.8" height="0.2"/>
				
					<rect x="61.5" y="8.7" transform="matrix(-0.2635 -0.9647 0.9647 -0.2635 70.2847 71.272)" fill="#ffffff" width="1.8" height="0.2"/>
				
					<rect x="61.2" y="8.8" transform="matrix(-0.2649 -0.9643 0.9643 -0.2649 69.9532 71.0859)" fill="#ffffff" width="1.8" height="0.2"/>
				
					<rect x="60.9" y="8.9" transform="matrix(-0.2664 -0.9639 0.9639 -0.2664 69.6216 70.9001)" fill="#ffffff" width="1.8" height="0.2"/>
			</g>
		</g>
		<g>
			<g>
				
					<rect x="58.7" y="9.5" transform="matrix(-0.2785 -0.9604 0.9604 -0.2785 66.9388 69.4586)" fill="#ffffff" width="1.8" height="0.2"/>
				<rect x="58.4" y="9.6" transform="matrix(-0.28 -0.96 0.96 -0.28 66.5997 69.2847)" fill="#ffffff" width="1.8" height="0.2"/>
				
					<rect x="58.1" y="9.7" transform="matrix(-0.2816 -0.9595 0.9595 -0.2816 66.2596 69.1111)" fill="#ffffff" width="1.8" height="0.2"/>
				
					<rect x="57.8" y="9.7" transform="matrix(-0.2831 -0.9591 0.9591 -0.2831 65.9194 68.9378)" fill="#ffffff" width="1.8" height="0.2"/>
				
					<rect x="57.6" y="9.8" transform="matrix(-0.2846 -0.9586 0.9586 -0.2846 65.5774 68.765)" fill="#ffffff" width="1.8" height="0.2"/>
				
					<rect x="57.3" y="9.9" transform="matrix(-0.2862 -0.9582 0.9582 -0.2862 65.2351 68.5925)" fill="#ffffff" width="1.8" height="0.2"/>
				
					<rect x="57" y="10" transform="matrix(-0.2877 -0.9577 0.9577 -0.2877 64.8923 68.4203)" fill="#ffffff" width="1.8" height="0.2"/>
			</g>
		</g>
		<g>
			<g>
				
					<rect x="54.8" y="10.7" transform="matrix(-0.3002 -0.9539 0.9539 -0.3002 62.1201 67.0922)" fill="#ffffff" width="1.8" height="0.2"/>
				
					<rect x="54.5" y="10.8" transform="matrix(-0.3018 -0.9534 0.9534 -0.3018 61.7701 66.933)" fill="#ffffff" width="1.8" height="0.2"/>
				
					<rect x="54.2" y="10.8" transform="matrix(-0.3034 -0.9529 0.9529 -0.3034 61.4191 66.7742)" fill="#ffffff" width="1.8" height="0.2"/>
				
					<rect x="54" y="10.9" transform="matrix(-0.305 -0.9524 0.9524 -0.305 61.067 66.6159)" fill="#ffffff" width="1.8" height="0.2"/>
				
					<rect x="53.7" y="11" transform="matrix(-0.3065 -0.9519 0.9519 -0.3065 60.7145 66.4579)" fill="#ffffff" width="1.8" height="0.2"/>
				
					<rect x="53.4" y="11.1" transform="matrix(-0.3081 -0.9513 0.9513 -0.3081 60.3609 66.3003)" fill="#ffffff" width="1.8" height="0.2"/>
				
					<rect x="53.1" y="11.2" transform="matrix(-0.3097 -0.9508 0.9508 -0.3097 60.0066 66.1432)" fill="#ffffff" width="1.8" height="0.2"/>
			</g>
		</g>
		<g>
			<g>
				
					<rect x="50.9" y="11.9" transform="matrix(-0.3226 -0.9465 0.9465 -0.3226 57.1454 64.94)" fill="#ffffff" width="1.8" height="0.2"/>
				
					<rect x="50.6" y="12" transform="matrix(-0.3242 -0.946 0.946 -0.3242 56.7843 64.797)" fill="#ffffff" width="1.8" height="0.2"/>
				
					<rect x="50.4" y="12.1" transform="matrix(-0.3259 -0.9454 0.9454 -0.3259 56.4217 64.6545)" fill="#ffffff" width="1.8" height="0.2"/>
				
					<rect x="50.1" y="12.2" transform="matrix(-0.3275 -0.9448 0.9448 -0.3275 56.0589 64.5125)" fill="#ffffff" width="1.8" height="0.2"/>
				
					<rect x="49.8" y="12.3" transform="matrix(-0.3291 -0.9443 0.9443 -0.3291 55.695 64.3709)" fill="#ffffff" width="1.8" height="0.2"/>
				
					<rect x="49.6" y="12.4" transform="matrix(-0.3308 -0.9437 0.9437 -0.3308 55.3303 64.2298)" fill="#ffffff" width="1.8" height="0.2"/>
				
					<rect x="49.3" y="12.5" transform="matrix(-0.3324 -0.9431 0.9431 -0.3324 54.965 64.0892)" fill="#ffffff" width="1.8" height="0.2"/>
			</g>
		</g>
		<g>
			<g>
				
					<rect x="47.1" y="13.3" transform="matrix(-0.3457 -0.9383 0.9383 -0.3457 52.0152 63.023)" fill="#ffffff" width="1.8" height="0.2"/>
				
					<rect x="46.8" y="13.4" transform="matrix(-0.3474 -0.9377 0.9377 -0.3474 51.643 62.8979)" fill="#ffffff" width="1.8" height="0.2"/>
				
					<rect x="46.5" y="13.5" transform="matrix(-0.3491 -0.9371 0.9371 -0.3491 51.27 62.7732)" fill="#ffffff" width="1.8" height="0.2"/>
				
					<rect x="46.3" y="13.6" transform="matrix(-0.3508 -0.9365 0.9365 -0.3508 50.8957 62.6491)" fill="#ffffff" width="1.8" height="0.2"/>
				
					<rect x="46" y="13.7" transform="matrix(-0.3525 -0.9358 0.9358 -0.3525 50.5216 62.5254)" fill="#ffffff" width="1.8" height="0.2"/>
				
					<rect x="45.7" y="13.8" transform="matrix(-0.3541 -0.9352 0.9352 -0.3541 50.1458 62.4023)" fill="#ffffff" width="1.8" height="0.2"/>
				
					<rect x="45.5" y="13.9" transform="matrix(-0.3558 -0.9346 0.9346 -0.3558 49.7697 62.2798)" fill="#ffffff" width="1.8" height="0.2"/>
			</g>
		</g>
		<g>
			<g>
				
					<rect x="43.3" y="14.7" transform="matrix(-0.3695 -0.9292 0.9292 -0.3695 46.733 61.3637)" fill="#ffffff" width="1.8" height="0.2"/>
				
					<rect x="43" y="14.8" transform="matrix(-0.3712 -0.9285 0.9285 -0.3712 46.35 61.2579)" fill="#ffffff" width="1.8" height="0.2"/>
				
					<rect x="42.8" y="14.9" transform="matrix(-0.373 -0.9278 0.9278 -0.373 45.9661 61.1528)" fill="#ffffff" width="1.8" height="0.2"/>
				
					<rect x="42.5" y="15.1" transform="matrix(-0.3747 -0.9271 0.9271 -0.3747 45.5817 61.0482)" fill="#ffffff" width="1.8" height="0.2"/>
				
					<rect x="42.2" y="15.2" transform="matrix(-0.3764 -0.9264 0.9264 -0.3764 45.1963 60.9442)" fill="#ffffff" width="1.8" height="0.2"/>
				
					<rect x="42" y="15.3" transform="matrix(-0.3782 -0.9257 0.9257 -0.3782 44.81 60.8408)" fill="#ffffff" width="1.8" height="0.2"/>
				
					<rect x="41.7" y="15.4" transform="matrix(-0.3799 -0.925 0.925 -0.3799 44.4234 60.738)" fill="#ffffff" width="1.8" height="0.2"/>
			</g>
		</g>
		<g>
			<g>
				
					<rect x="39.5" y="16.3" transform="matrix(-0.3939 -0.9191 0.9191 -0.3939 41.3025 59.9855)" fill="#ffffff" width="1.8" height="0.2"/>
				
					<rect x="39.3" y="16.4" transform="matrix(-0.3957 -0.9184 0.9184 -0.3957 40.9095 59.9009)" fill="#ffffff" width="1.8" height="0.2"/>
				
					<rect x="39" y="16.5" transform="matrix(-0.3975 -0.9176 0.9176 -0.3975 40.5155 59.8169)" fill="#ffffff" width="1.8" height="0.2"/>
				
					<rect x="38.7" y="16.6" transform="matrix(-0.3993 -0.9168 0.9168 -0.3993 40.1203 59.7337)" fill="#ffffff" width="1.8" height="0.2"/>
				
					<rect x="38.5" y="16.7" transform="matrix(-0.4011 -0.916 0.916 -0.4011 39.7249 59.6511)" fill="#ffffff" width="1.8" height="0.2"/>
				
					<rect x="38.2" y="16.9" transform="matrix(-0.4028 -0.9153 0.9153 -0.4028 39.3282 59.5691)" fill="#ffffff" width="1.8" height="0.2"/>
				
					<rect x="37.9" y="17" transform="matrix(-0.4046 -0.9145 0.9145 -0.4046 38.9314 59.4878)" fill="#ffffff" width="1.8" height="0.2"/>
			</g>
		</g>
		<g>
			<g>
				
					<rect x="35.8" y="17.9" transform="matrix(-0.419 -0.908 0.908 -0.419 35.7311 58.913)" fill="#ffffff" width="1.8" height="0.2"/>
				
					<rect x="35.6" y="18.1" transform="matrix(-0.4209 -0.9071 0.9071 -0.4209 35.3278 58.8514)" fill="#ffffff" width="1.8" height="0.2"/>
				
					<rect x="35.3" y="18.2" transform="matrix(-0.4227 -0.9063 0.9063 -0.4227 34.9242 58.7905)" fill="#ffffff" width="1.8" height="0.2"/>
				
					<rect x="35" y="18.3" transform="matrix(-0.4245 -0.9054 0.9054 -0.4245 34.5195 58.7304)" fill="#ffffff" width="1.8" height="0.2"/>
				
					<rect x="34.8" y="18.4" transform="matrix(-0.4263 -0.9046 0.9046 -0.4263 34.1144 58.6709)" fill="#ffffff" width="1.8" height="0.2"/>
				
					<rect x="34.5" y="18.5" transform="matrix(-0.4281 -0.9037 0.9037 -0.4281 33.7082 58.6122)" fill="#ffffff" width="1.8" height="0.2"/>
				
					<rect x="34.2" y="18.7" transform="matrix(-0.4299 -0.9029 0.9029 -0.4299 33.3015 58.5543)" fill="#ffffff" width="1.8" height="0.2"/>
			</g>
		</g>
		<g>
			<g>
				
					<rect x="32.2" y="19.7" transform="matrix(-0.4447 -0.8957 0.8957 -0.4447 30.0267 58.1718)" fill="#ffffff" width="1.8" height="0.2"/>
				
					<rect x="31.9" y="19.8" transform="matrix(-0.4466 -0.8948 0.8948 -0.4466 29.6147 58.135)" fill="#ffffff" width="1.8" height="0.2"/>
				
					<rect x="31.6" y="19.9" transform="matrix(-0.4484 -0.8938 0.8938 -0.4484 29.2019 58.099)" fill="#ffffff" width="1.8" height="0.2"/>
				
					<rect x="31.4" y="20.1" transform="matrix(-0.4503 -0.8929 0.8929 -0.4503 28.7887 58.0638)" fill="#ffffff" width="1.8" height="0.2"/>
				
					<rect x="31.1" y="20.2" transform="matrix(-0.4521 -0.892 0.892 -0.4521 28.3745 58.0293)" fill="#ffffff" width="1.8" height="0.2"/>
				
					<rect x="30.9" y="20.3" transform="matrix(-0.454 -0.891 0.891 -0.454 27.9595 57.9957)" fill="#ffffff" width="1.8" height="0.2"/>
				
					<rect x="30.6" y="20.5" transform="matrix(-0.4558 -0.8901 0.8901 -0.4558 27.544 57.9629)" fill="#ffffff" width="1.8" height="0.2"/>
			</g>
		</g>
		<g>
			<g>
				
					<rect x="28.5" y="21.5" transform="matrix(-0.4709 -0.8822 0.8822 -0.4709 24.2017 57.7877)" fill="#ffffff" width="1.8" height="0.2"/>
				
					<rect x="28.3" y="21.7" transform="matrix(-0.4728 -0.8812 0.8812 -0.4728 23.7819 57.7776)" fill="#ffffff" width="1.8" height="0.2"/>
				
					<rect x="28" y="21.8" transform="matrix(-0.4747 -0.8802 0.8802 -0.4747 23.3612 57.7683)" fill="#ffffff" width="1.8" height="0.2"/>
				
					<rect x="27.8" y="22" transform="matrix(-0.4766 -0.8791 0.8791 -0.4766 22.9397 57.7599)" fill="#ffffff" width="1.8" height="0.2"/>
				
					<rect x="27.5" y="22.1" transform="matrix(-0.4784 -0.8781 0.8781 -0.4784 22.5177 57.7524)" fill="#ffffff" width="1.8" height="0.2"/>
				
					<rect x="27.3" y="22.2" transform="matrix(-0.4803 -0.8771 0.8771 -0.4803 22.0951 57.7457)" fill="#ffffff" width="1.8" height="0.2"/>
				
					<rect x="27" y="22.4" transform="matrix(-0.4822 -0.876 0.876 -0.4822 21.6718 57.74)" fill="#ffffff" width="1.8" height="0.2"/>
			</g>
		</g>
		<g>
			<g>
				
					<rect x="25" y="23.5" transform="matrix(-0.4975 -0.8675 0.8675 -0.4975 18.2706 57.7869)" fill="#ffffff" width="1.8" height="0.2"/>
				
					<rect x="24.7" y="23.7" transform="matrix(-0.4994 -0.8664 0.8664 -0.4994 17.8439 57.8053)" fill="#ffffff" width="1.8" height="0.2"/>
				
					<rect x="24.5" y="23.8" transform="matrix(-0.5013 -0.8652 0.8652 -0.5013 17.4164 57.8245)" fill="#ffffff" width="1.8" height="0.2"/>
				
					<rect x="24.2" y="23.9" transform="matrix(-0.5033 -0.8641 0.8641 -0.5033 16.9883 57.8448)" fill="#ffffff" width="1.8" height="0.2"/>
				
					<rect x="24" y="24.1" transform="matrix(-0.5052 -0.863 0.863 -0.5052 16.5596 57.866)" fill="#ffffff" width="1.8" height="0.2"/>
				
					<rect x="23.7" y="24.2" transform="matrix(-0.5071 -0.8619 0.8619 -0.5071 16.1304 57.8882)" fill="#ffffff" width="1.8" height="0.2"/>
				
					<rect x="23.5" y="24.4" transform="matrix(-0.509 -0.8608 0.8608 -0.509 15.7006 57.9112)" fill="#ffffff" width="1.8" height="0.2"/>
			</g>
		</g>
		<g>
			<g>
				
					<rect x="21.5" y="25.6" transform="matrix(-0.5245 -0.8514 0.8514 -0.5245 12.2515 58.1948)" fill="#ffffff" width="1.8" height="0.2"/>
				
					<rect x="21.2" y="25.7" transform="matrix(-0.5264 -0.8502 0.8502 -0.5264 11.8192 58.2435)" fill="#ffffff" width="1.8" height="0.2"/>
				
					<rect x="21" y="25.9" transform="matrix(-0.5284 -0.849 0.849 -0.5284 11.3865 58.2932)" fill="#ffffff" width="1.8" height="0.2"/>
				
					<rect x="20.7" y="26" transform="matrix(-0.5303 -0.8478 0.8478 -0.5303 10.9531 58.3438)" fill="#ffffff" width="1.8" height="0.2"/>
				
					<rect x="20.5" y="26.2" transform="matrix(-0.5323 -0.8466 0.8466 -0.5323 10.5194 58.3956)" fill="#ffffff" width="1.8" height="0.2"/>
				
					<rect x="20.3" y="26.3" transform="matrix(-0.5342 -0.8454 0.8454 -0.5342 10.0849 58.4484)" fill="#ffffff" width="1.8" height="0.2"/>
				
					<rect x="20" y="26.5" transform="matrix(-0.5361 -0.8441 0.8441 -0.5361 9.65 58.5021)" fill="#ffffff" width="1.8" height="0.2"/>
			</g>
		</g>
		<g>
			<g>
				
					<rect x="18.1" y="27.8" transform="matrix(-0.5517 -0.834 0.834 -0.5517 6.1655 59.0363)" fill="#ffffff" width="1.8" height="0.2"/>
				
					<rect x="17.8" y="27.9" transform="matrix(-0.5537 -0.8327 0.8327 -0.5537 5.7294 59.1169)" fill="#ffffff" width="1.8" height="0.2"/>
				
					<rect x="17.6" y="28.1" transform="matrix(-0.5556 -0.8314 0.8314 -0.5556 5.293 59.1986)" fill="#ffffff" width="1.8" height="0.2"/>
				
					<rect x="17.3" y="28.2" transform="matrix(-0.5576 -0.8301 0.8301 -0.5576 4.856 59.2814)" fill="#ffffff" width="1.8" height="0.2"/>
				
					<rect x="17.1" y="28.4" transform="matrix(-0.5595 -0.8288 0.8288 -0.5595 4.4187 59.3653)" fill="#ffffff" width="1.8" height="0.2"/>
				
					<rect x="16.9" y="28.6" transform="matrix(-0.5615 -0.8275 0.8275 -0.5615 3.9808 59.4503)" fill="#ffffff" width="1.8" height="0.2"/>
				
					<rect x="16.6" y="28.7" transform="matrix(-0.5634 -0.8262 0.8262 -0.5634 3.5426 59.5364)" fill="#ffffff" width="1.8" height="0.2"/>
			</g>
		</g>
		<g>
			<g>
				
					<rect x="14.7" y="30.1" transform="matrix(-0.5791 -0.8153 0.8153 -0.5791 3.705889e-002 60.334)" fill="#ffffff" width="1.8" height="0.2"/>
				
					<rect x="14.5" y="30.2" transform="matrix(-0.5811 -0.8139 0.8139 -0.5811 -0.401 60.448)" fill="#ffffff" width="1.8" height="0.2"/>
				
					<rect x="14.2" y="30.4" transform="matrix(-0.583 -0.8125 0.8125 -0.583 -0.8391 60.5634)" fill="#ffffff" width="1.8" height="0.2"/>
				
					<rect x="14" y="30.6" transform="matrix(-0.585 -0.811 0.811 -0.585 -1.2777 60.6798)" fill="#ffffff" width="1.8" height="0.2"/>
				
					<rect x="13.8" y="30.7" transform="matrix(-0.5869 -0.8096 0.8096 -0.5869 -1.7167 60.7974)" fill="#ffffff" width="1.8" height="0.2"/>
				
					<rect x="13.5" y="30.9" transform="matrix(-0.5889 -0.8082 0.8082 -0.5889 -2.1559 60.9163)" fill="#ffffff" width="1.8" height="0.2"/>
				
					<rect x="13.3" y="31.1" transform="matrix(-0.5908 -0.8068 0.8068 -0.5908 -2.5955 61.0361)" fill="#ffffff" width="1.8" height="0.2"/>
			</g>
		</g>
		<g>
			<g>
				
					<rect x="11.4" y="32.5" transform="matrix(-0.6065 -0.7951 0.7951 -0.6065 -6.1058 62.1084)" fill="#ffffff" width="1.8" height="0.2"/>
				
					<rect x="11.2" y="32.6" transform="matrix(-0.6085 -0.7936 0.7936 -0.6085 -6.5431 62.2575)" fill="#ffffff" width="1.8" height="0.2"/>
				
					<rect x="11" y="32.8" transform="matrix(-0.6104 -0.7921 0.7921 -0.6104 -6.9811 62.4076)" fill="#ffffff" width="1.8" height="0.2"/>
				
					<rect x="10.7" y="33" transform="matrix(-0.6124 -0.7906 0.7906 -0.6124 -7.4193 62.559)" fill="#ffffff" width="1.8" height="0.2"/>
				
					<rect x="10.5" y="33.2" transform="matrix(-0.6143 -0.7891 0.7891 -0.6143 -7.8576 62.7116)" fill="#ffffff" width="1.8" height="0.2"/>
				
					<rect x="10.3" y="33.4" transform="matrix(-0.6162 -0.7876 0.7876 -0.6162 -8.2961 62.8654)" fill="#ffffff" width="1.8" height="0.2"/>
				
					<rect x="10.1" y="33.5" transform="matrix(-0.6182 -0.786 0.786 -0.6182 -8.7349 63.0204)" fill="#ffffff" width="1.8" height="0.2"/>
			</g>
		</g>
		<g>
			<g>
				
					<rect x="8.2" y="35" transform="matrix(-0.6337 -0.7736 0.7736 -0.6337 -12.2314 64.3766)" fill="#ffffff" width="1.8" height="0.2"/>
				
					<rect x="8" y="35.2" transform="matrix(-0.6357 -0.772 0.772 -0.6357 -12.6654 64.5612)" fill="#ffffff" width="1.8" height="0.2"/>
				
					<rect x="7.8" y="35.4" transform="matrix(-0.6376 -0.7704 0.7704 -0.6376 -13.0998 64.7468)" fill="#ffffff" width="1.8" height="0.2"/>
				
					<rect x="7.6" y="35.5" transform="matrix(-0.6395 -0.7688 0.7688 -0.6395 -13.5342 64.9339)" fill="#ffffff" width="1.8" height="0.2"/>
				
					<rect x="7.3" y="35.7" transform="matrix(-0.6415 -0.7671 0.7671 -0.6415 -13.9686 65.1222)" fill="#ffffff" width="1.8" height="0.2"/>
				
					<rect x="7.1" y="35.9" transform="matrix(-0.6434 -0.7655 0.7655 -0.6434 -14.4035 65.3116)" fill="#ffffff" width="1.8" height="0.2"/>
				
					<rect x="6.9" y="36.1" transform="matrix(-0.6453 -0.7639 0.7639 -0.6453 -14.8381 65.5024)" fill="#ffffff" width="1.8" height="0.2"/>
			</g>
		</g>
		<g>
			<g>
				
					<rect x="5.1" y="37.7" transform="matrix(-0.6607 -0.7506 0.7506 -0.6607 -18.3996 67.1807)" fill="#ffffff" width="1.8" height="0.1"/>
				
					<rect x="5" y="37.8" transform="matrix(-0.6617 -0.7498 0.7498 -0.6617 -18.6115 67.2885)" fill="#ffffff" width="1.8" height="0.1"/>
				
					<rect x="4.9" y="37.9" transform="matrix(-0.6626 -0.749 0.749 -0.6626 -18.8233 67.3967)" fill="#ffffff" width="1.8" height="0.1"/>
				
					<rect x="4.8" y="38" transform="matrix(-0.6636 -0.7481 0.7481 -0.6636 -19.035 67.5054)" fill="#ffffff" width="1.8" height="0.1"/>
				
					<rect x="4.7" y="38.1" transform="matrix(-0.6645 -0.7473 0.7473 -0.6645 -19.2469 67.6142)" fill="#ffffff" width="1.8" height="0.1"/>
				
					<rect x="4.6" y="38.2" transform="matrix(-0.6654 -0.7465 0.7465 -0.6654 -19.4586 67.7234)" fill="#ffffff" width="1.8" height="0.1"/>
				
					<rect x="4.5" y="38.3" transform="matrix(-0.6664 -0.7456 0.7456 -0.6664 -19.6703 67.833)" fill="#ffffff" width="1.8" height="0.1"/>
			</g>
		</g>
	</g>
</g>
<polygon fill="#ffffff" points="8,40.8 0,42.2 4.1,35 "/>
</svg>
