<?xml version="1.0" encoding="utf-8"?>
<!-- Generator: Adobe Illustrator 18.1.1, SVG Export Plug-In . SVG Version: 6.00 Build 0)  -->
<svg version="1.1" id="Layer_1" xmlns="http://www.w3.org/2000/svg" xmlns:xlink="http://www.w3.org/1999/xlink" x="0px" y="0px"
	 viewBox="0 0 113 56.3" enable-background="new 0 0 113 56.3" xml:space="preserve">
<g>
	<g>
		<g>
			<g>
				
					<rect x="-0.7" y="55.4" transform="matrix(0.1586 0.9873 -0.9873 0.1586 54.8957 46.4595)" fill="#ffffff" width="1.8" height="0.1"/>
				
					<rect x="-0.6" y="55.4" transform="matrix(0.1586 0.9873 -0.9873 0.1586 54.9918 46.3015)" fill="#ffffff" width="1.8" height="0.1"/>
				
					<rect x="-0.4" y="55.3" transform="matrix(0.1586 0.9873 -0.9873 0.1586 55.0879 46.1435)" fill="#ffffff" width="1.8" height="0.1"/>
				
					<rect x="-0.3" y="55.3" transform="matrix(0.1586 0.9873 -0.9873 0.1586 55.184 45.9856)" fill="#ffffff" width="1.8" height="0.1"/>
				
					<rect x="-0.1" y="55.3" transform="matrix(0.1586 0.9873 -0.9873 0.1586 55.2801 45.8279)" fill="#ffffff" width="1.8" height="0.1"/>
				
					<rect x="0" y="55.3" transform="matrix(0.1586 0.9873 -0.9873 0.1586 55.3762 45.6699)" fill="#ffffff" width="1.8" height="0.1"/>
				
					<rect x="0.1" y="55.3" transform="matrix(0.1586 0.9873 -0.9873 0.1586 55.4722 45.5117)" fill="#ffffff" width="1.8" height="0.1"/>
			</g>
		</g>
		<g>
			<g>
				
					<rect x="2.3" y="54.8" transform="matrix(0.1665 0.986 -0.986 0.1665 56.8404 42.6539)" fill="#ffffff" width="1.8" height="0.2"/>
				
					<rect x="2.6" y="54.8" transform="matrix(0.1673 0.9859 -0.9859 0.1673 57.0194 42.2846)" fill="#ffffff" width="1.8" height="0.2"/>
				
					<rect x="2.9" y="54.8" transform="matrix(0.1682 0.9858 -0.9858 0.1682 57.1978 41.9151)" fill="#ffffff" width="1.8" height="0.2"/>
				
					<rect x="3.2" y="54.7" transform="matrix(0.169 0.9856 -0.9856 0.169 57.3757 41.5458)" fill="#ffffff" width="1.8" height="0.2"/>
				
					<rect x="3.4" y="54.7" transform="matrix(0.1699 0.9855 -0.9855 0.1699 57.5532 41.1771)" fill="#ffffff" width="1.8" height="0.2"/>
				
					<rect x="3.7" y="54.6" transform="matrix(0.1708 0.9853 -0.9853 0.1708 57.73 40.8081)" fill="#ffffff" width="1.8" height="0.2"/>
				
					<rect x="4" y="54.6" transform="matrix(0.1716 0.9852 -0.9852 0.1716 57.9064 40.4397)" fill="#ffffff" width="1.8" height="0.2"/>
			</g>
		</g>
		<g>
			<g>
				
					<rect x="6.3" y="54.2" transform="matrix(0.1787 0.9839 -0.9839 0.1787 59.28 37.4759)" fill="#ffffff" width="1.8" height="0.2"/>
				
					<rect x="6.6" y="54.1" transform="matrix(0.1796 0.9837 -0.9837 0.1796 59.4467 37.1037)" fill="#ffffff" width="1.8" height="0.2"/>
				
					<rect x="6.9" y="54" transform="matrix(0.1806 0.9836 -0.9836 0.1806 59.613 36.7319)" fill="#ffffff" width="1.8" height="0.2"/>
				
					<rect x="7.2" y="54" transform="matrix(0.1815 0.9834 -0.9834 0.1815 59.7786 36.3599)" fill="#ffffff" width="1.8" height="0.2"/>
				
					<rect x="7.4" y="53.9" transform="matrix(0.1824 0.9832 -0.9832 0.1824 59.9438 35.9886)" fill="#ffffff" width="1.8" height="0.2"/>
				
					<rect x="7.7" y="53.9" transform="matrix(0.1833 0.9831 -0.9831 0.1833 60.1084 35.6172)" fill="#ffffff" width="1.8" height="0.2"/>
				
					<rect x="8" y="53.8" transform="matrix(0.1842 0.9829 -0.9829 0.1842 60.2723 35.246)" fill="#ffffff" width="1.8" height="0.2"/>
			</g>
		</g>
		<g>
			<g>
				
					<rect x="10.3" y="53.4" transform="matrix(0.1917 0.9815 -0.9815 0.1917 61.5445 32.2647)" fill="#ffffff" width="1.8" height="0.2"/>
				
					<rect x="10.6" y="53.3" transform="matrix(0.1927 0.9813 -0.9813 0.1927 61.6983 31.8906)" fill="#ffffff" width="1.8" height="0.2"/>
				
					<rect x="10.9" y="53.3" transform="matrix(0.1936 0.9811 -0.9811 0.1936 61.8514 31.5168)" fill="#ffffff" width="1.8" height="0.2"/>
				
					<rect x="11.1" y="53.2" transform="matrix(0.1946 0.9809 -0.9809 0.1946 62.0041 31.1431)" fill="#ffffff" width="1.8" height="0.2"/>
				
					<rect x="11.4" y="53.2" transform="matrix(0.1955 0.9807 -0.9807 0.1955 62.1561 30.7698)" fill="#ffffff" width="1.8" height="0.2"/>
				
					<rect x="11.7" y="53.1" transform="matrix(0.1965 0.9805 -0.9805 0.1965 62.3076 30.3966)" fill="#ffffff" width="1.8" height="0.2"/>
				
					<rect x="12" y="53.1" transform="matrix(0.1974 0.9803 -0.9803 0.1974 62.4586 30.024)" fill="#ffffff" width="1.8" height="0.2"/>
			</g>
		</g>
		<g>
			<g>
				
					<rect x="14.3" y="52.6" transform="matrix(0.2053 0.9787 -0.9787 0.2053 63.623 27.0306)" fill="#ffffff" width="1.8" height="0.2"/>
				
					<rect x="14.6" y="52.5" transform="matrix(0.2063 0.9785 -0.9785 0.2063 63.7628 26.6562)" fill="#ffffff" width="1.8" height="0.2"/>
				
					<rect x="14.8" y="52.5" transform="matrix(0.2073 0.9783 -0.9783 0.2073 63.9018 26.2818)" fill="#ffffff" width="1.8" height="0.2"/>
				
					<rect x="15.1" y="52.4" transform="matrix(0.2083 0.9781 -0.9781 0.2083 64.0405 25.9079)" fill="#ffffff" width="1.8" height="0.2"/>
				
					<rect x="15.4" y="52.4" transform="matrix(0.2093 0.9779 -0.9779 0.2093 64.1783 25.534)" fill="#ffffff" width="1.8" height="0.2"/>
				
					<rect x="15.7" y="52.3" transform="matrix(0.2103 0.9776 -0.9776 0.2103 64.3157 25.1606)" fill="#ffffff" width="1.8" height="0.2"/>
				
					<rect x="16" y="52.2" transform="matrix(0.2113 0.9774 -0.9774 0.2113 64.4525 24.7875)" fill="#ffffff" width="1.8" height="0.2"/>
			</g>
		</g>
		<g>
			<g>
				
					<rect x="18.2" y="51.7" transform="matrix(0.2194 0.9756 -0.9756 0.2194 65.5019 21.7923)" fill="#ffffff" width="1.8" height="0.2"/>
				
					<rect x="18.5" y="51.7" transform="matrix(0.2205 0.9754 -0.9754 0.2205 65.6273 21.4169)" fill="#ffffff" width="1.8" height="0.2"/>
				
					<rect x="18.8" y="51.6" transform="matrix(0.2215 0.9752 -0.9752 0.2215 65.7521 21.0418)" fill="#ffffff" width="1.8" height="0.2"/>
				
					<rect x="19.1" y="51.5" transform="matrix(0.2226 0.9749 -0.9749 0.2226 65.8763 20.667)" fill="#ffffff" width="1.8" height="0.2"/>
				
					<rect x="19.4" y="51.5" transform="matrix(0.2236 0.9747 -0.9747 0.2236 65.9998 20.2924)" fill="#ffffff" width="1.8" height="0.2"/>
				
					<rect x="19.7" y="51.4" transform="matrix(0.2246 0.9744 -0.9744 0.2246 66.1228 19.9182)" fill="#ffffff" width="1.8" height="0.2"/>
				
					<rect x="19.9" y="51.3" transform="matrix(0.2257 0.9742 -0.9742 0.2257 66.2451 19.5444)" fill="#ffffff" width="1.8" height="0.2"/>
			</g>
		</g>
		<g>
			<g>
				
					<rect x="22.2" y="50.8" transform="matrix(0.2342 0.9722 -0.9722 0.2342 67.1766 16.5458)" fill="#ffffff" width="1.8" height="0.2"/>
				
					<rect x="22.5" y="50.7" transform="matrix(0.2353 0.9719 -0.9719 0.2353 67.2867 16.17)" fill="#ffffff" width="1.8" height="0.2"/>
				
					<rect x="22.8" y="50.7" transform="matrix(0.2363 0.9717 -0.9717 0.2363 67.3965 15.795)" fill="#ffffff" width="1.8" height="0.2"/>
				
					<rect x="23" y="50.6" transform="matrix(0.2374 0.9714 -0.9714 0.2374 67.5055 15.4199)" fill="#ffffff" width="1.8" height="0.2"/>
				
					<rect x="23.3" y="50.5" transform="matrix(0.2385 0.9711 -0.9711 0.2385 67.6139 15.0453)" fill="#ffffff" width="1.8" height="0.2"/>
				
					<rect x="23.6" y="50.5" transform="matrix(0.2396 0.9709 -0.9709 0.2396 67.7217 14.671)" fill="#ffffff" width="1.8" height="0.2"/>
				
					<rect x="23.9" y="50.4" transform="matrix(0.2407 0.9706 -0.9706 0.2407 67.829 14.2974)" fill="#ffffff" width="1.8" height="0.2"/>
			</g>
		</g>
		<g>
			<g>
				
					<rect x="26.1" y="49.8" transform="matrix(0.2495 0.9684 -0.9684 0.2495 68.6366 11.3011)" fill="#ffffff" width="1.8" height="0.2"/>
				
					<rect x="26.4" y="49.8" transform="matrix(0.2506 0.9681 -0.9681 0.2506 68.7311 10.926)" fill="#ffffff" width="1.8" height="0.2"/>
				
					<rect x="26.7" y="49.7" transform="matrix(0.2518 0.9678 -0.9678 0.2518 68.8249 10.5513)" fill="#ffffff" width="1.8" height="0.2"/>
				
					<rect x="27" y="49.6" transform="matrix(0.2529 0.9675 -0.9675 0.2529 68.9183 10.1771)" fill="#ffffff" width="1.8" height="0.2"/>
				
					<rect x="27.3" y="49.5" transform="matrix(0.254 0.9672 -0.9672 0.254 69.0107 9.8031)" fill="#ffffff" width="1.8" height="0.2"/>
				
					<rect x="27.5" y="49.5" transform="matrix(0.2551 0.9669 -0.9669 0.2551 69.1027 9.4296)" fill="#ffffff" width="1.8" height="0.2"/>
				
					<rect x="27.8" y="49.4" transform="matrix(0.2562 0.9666 -0.9666 0.2562 69.1939 9.0565)" fill="#ffffff" width="1.8" height="0.2"/>
			</g>
		</g>
		<g>
			<g>
				
					<rect x="30.1" y="48.8" transform="matrix(0.2654 0.9641 -0.9641 0.2654 69.8723 6.0686)" fill="#ffffff" width="1.8" height="0.2"/>
				
					<rect x="30.3" y="48.7" transform="matrix(0.2666 0.9638 -0.9638 0.2666 69.9504 5.695)" fill="#ffffff" width="1.8" height="0.2"/>
				
					<rect x="30.6" y="48.6" transform="matrix(0.2677 0.9635 -0.9635 0.2677 70.0276 5.3216)" fill="#ffffff" width="1.8" height="0.2"/>
				
					<rect x="30.9" y="48.6" transform="matrix(0.2689 0.9632 -0.9632 0.2689 70.1044 4.9487)" fill="#ffffff" width="1.8" height="0.2"/>
				
					<rect x="31.2" y="48.5" transform="matrix(0.2701 0.9628 -0.9628 0.2701 70.1805 4.5764)" fill="#ffffff" width="1.8" height="0.2"/>
				
					<rect x="31.5" y="48.4" transform="matrix(0.2712 0.9625 -0.9625 0.2712 70.2559 4.2042)" fill="#ffffff" width="1.8" height="0.2"/>
				
					<rect x="31.7" y="48.3" transform="matrix(0.2724 0.9622 -0.9622 0.2724 70.3305 3.8326)" fill="#ffffff" width="1.8" height="0.2"/>
			</g>
		</g>
		<g>
			<g>
				
					<rect x="34" y="47.7" transform="matrix(0.2819 0.9594 -0.9594 0.2819 70.874 0.8596)" fill="#ffffff" width="1.8" height="0.2"/>
				
					<rect x="34.3" y="47.6" transform="matrix(0.2831 0.9591 -0.9591 0.2831 70.9349 0.488)" fill="#ffffff" width="1.8" height="0.2"/>
				
					<rect x="34.5" y="47.5" transform="matrix(0.2843 0.9587 -0.9587 0.2843 70.9951 0.117)" fill="#ffffff" width="1.8" height="0.2"/>
				
					<rect x="34.8" y="47.4" transform="matrix(0.2855 0.9584 -0.9584 0.2855 71.0546 -0.2537)" fill="#ffffff" width="1.8" height="0.2"/>
				
					<rect x="35.1" y="47.3" transform="matrix(0.2867 0.958 -0.958 0.2867 71.1135 -0.6238)" fill="#ffffff" width="1.8" height="0.2"/>
				
					<rect x="35.4" y="47.3" transform="matrix(0.288 0.9576 -0.9576 0.288 71.1716 -0.9936)" fill="#ffffff" width="1.8" height="0.2"/>
				
					<rect x="35.6" y="47.2" transform="matrix(0.2892 0.9573 -0.9573 0.2892 71.2291 -1.3627)" fill="#ffffff" width="1.8" height="0.2"/>
			</g>
		</g>
		<g>
			<g>
				
					<rect x="37.9" y="46.5" transform="matrix(0.299 0.9543 -0.9543 0.299 71.6322 -4.3141)" fill="#ffffff" width="1.8" height="0.2"/>
				
					<rect x="38.1" y="46.4" transform="matrix(0.3002 0.9539 -0.9539 0.3002 71.6757 -4.6824)" fill="#ffffff" width="1.8" height="0.2"/>
				
					<rect x="38.4" y="46.3" transform="matrix(0.3015 0.9535 -0.9535 0.3015 71.7177 -5.0505)" fill="#ffffff" width="1.8" height="0.2"/>
				
					<rect x="38.7" y="46.2" transform="matrix(0.3028 0.9531 -0.9531 0.3028 71.7594 -5.418)" fill="#ffffff" width="1.8" height="0.2"/>
				
					<rect x="39" y="46.2" transform="matrix(0.304 0.9527 -0.9527 0.304 71.8002 -5.7851)" fill="#ffffff" width="1.8" height="0.2"/>
				
					<rect x="39.2" y="46.1" transform="matrix(0.3053 0.9523 -0.9523 0.3053 71.8408 -6.1514)" fill="#ffffff" width="1.8" height="0.2"/>
				
					<rect x="39.5" y="46" transform="matrix(0.3065 0.9519 -0.9519 0.3065 71.8803 -6.5173)" fill="#ffffff" width="1.8" height="0.2"/>
			</g>
		</g>
		<g>
			<g>
				
					<rect x="41.7" y="45.3" transform="matrix(0.3167 0.9485 -0.9485 0.3167 72.138 -9.4393)" fill="#ffffff" width="1.8" height="0.2"/>
				
					<rect x="42" y="45.2" transform="matrix(0.318 0.9481 -0.9481 0.318 72.1625 -9.8038)" fill="#ffffff" width="1.8" height="0.2"/>
				
					<rect x="42.3" y="45.1" transform="matrix(0.3193 0.9477 -0.9477 0.3193 72.1867 -10.1675)" fill="#ffffff" width="1.8" height="0.2"/>
				
					<rect x="42.6" y="45" transform="matrix(0.3206 0.9472 -0.9472 0.3206 72.2097 -10.5309)" fill="#ffffff" width="1.8" height="0.2"/>
				
					<rect x="42.8" y="44.9" transform="matrix(0.3219 0.9468 -0.9468 0.3219 72.232 -10.8937)" fill="#ffffff" width="1.8" height="0.2"/>
				
					<rect x="43.1" y="44.8" transform="matrix(0.3232 0.9463 -0.9463 0.3232 72.254 -11.2559)" fill="#ffffff" width="1.8" height="0.2"/>
				
					<rect x="43.4" y="44.7" transform="matrix(0.3245 0.9459 -0.9459 0.3245 72.275 -11.6174)" fill="#ffffff" width="1.8" height="0.2"/>
			</g>
		</g>
		<g>
			<g>
				
					<rect x="45.6" y="43.9" transform="matrix(0.335 0.9422 -0.9422 0.335 72.3827 -14.5015)" fill="#ffffff" width="1.8" height="0.2"/>
				
					<rect x="45.8" y="43.8" transform="matrix(0.3363 0.9417 -0.9417 0.3363 72.388 -14.8609)" fill="#ffffff" width="1.8" height="0.2"/>
				
					<rect x="46.1" y="43.7" transform="matrix(0.3377 0.9413 -0.9413 0.3377 72.3927 -15.2197)" fill="#ffffff" width="1.8" height="0.2"/>
				
					<rect x="46.4" y="43.6" transform="matrix(0.339 0.9408 -0.9408 0.339 72.3967 -15.5779)" fill="#ffffff" width="1.8" height="0.2"/>
				
					<rect x="46.7" y="43.5" transform="matrix(0.3403 0.9403 -0.9403 0.3403 72.4 -15.9353)" fill="#ffffff" width="1.8" height="0.2"/>
				
					<rect x="46.9" y="43.4" transform="matrix(0.3417 0.9398 -0.9398 0.3417 72.4031 -16.292)" fill="#ffffff" width="1.8" height="0.2"/>
				
					<rect x="47.2" y="43.3" transform="matrix(0.343 0.9393 -0.9393 0.343 72.4053 -16.648)" fill="#ffffff" width="1.8" height="0.2"/>
			</g>
		</g>
		<g>
			<g>
				
					<rect x="49.4" y="42.5" transform="matrix(0.3539 0.9353 -0.9353 0.3539 72.3572 -19.4798)" fill="#ffffff" width="1.8" height="0.2"/>
				
					<rect x="49.7" y="42.4" transform="matrix(0.3552 0.9348 -0.9348 0.3552 72.3434 -19.832)" fill="#ffffff" width="1.8" height="0.2"/>
				
					<rect x="49.9" y="42.3" transform="matrix(0.3566 0.9342 -0.9342 0.3566 72.3282 -20.1837)" fill="#ffffff" width="1.8" height="0.2"/>
				
					<rect x="50.2" y="42.2" transform="matrix(0.358 0.9337 -0.9337 0.358 72.3126 -20.5348)" fill="#ffffff" width="1.8" height="0.2"/>
				
					<rect x="50.5" y="42.1" transform="matrix(0.3594 0.9332 -0.9332 0.3594 72.2962 -20.885)" fill="#ffffff" width="1.8" height="0.2"/>
				
					<rect x="50.7" y="42" transform="matrix(0.3608 0.9327 -0.9327 0.3608 72.28 -21.2344)" fill="#ffffff" width="1.8" height="0.2"/>
				
					<rect x="51" y="41.9" transform="matrix(0.3621 0.9321 -0.9321 0.3621 72.2619 -21.5833)" fill="#ffffff" width="1.8" height="0.2"/>
			</g>
		</g>
		<g>
			<g>
				
					<rect x="53.2" y="41.1" transform="matrix(0.3734 0.9277 -0.9277 0.3734 72.0556 -24.3588)" fill="#ffffff" width="1.8" height="0.2"/>
				
					<rect x="53.4" y="41" transform="matrix(0.3748 0.9271 -0.9271 0.3748 72.0213 -24.7038)" fill="#ffffff" width="1.8" height="0.2"/>
				
					<rect x="53.7" y="40.8" transform="matrix(0.3762 0.9265 -0.9265 0.3762 71.9861 -25.0479)" fill="#ffffff" width="1.8" height="0.2"/>
				
					<rect x="54" y="40.7" transform="matrix(0.3776 0.926 -0.926 0.3776 71.9507 -25.3913)" fill="#ffffff" width="1.8" height="0.2"/>
				
					<rect x="54.2" y="40.6" transform="matrix(0.3791 0.9254 -0.9254 0.3791 71.9139 -25.734)" fill="#ffffff" width="1.8" height="0.2"/>
				
					<rect x="54.5" y="40.5" transform="matrix(0.3805 0.9248 -0.9248 0.3805 71.8774 -26.0757)" fill="#ffffff" width="1.8" height="0.2"/>
				
					<rect x="54.8" y="40.4" transform="matrix(0.3819 0.9242 -0.9242 0.3819 71.8393 -26.4168)" fill="#ffffff" width="1.8" height="0.2"/>
			</g>
		</g>
		<g>
			<g>
				
					<rect x="56.9" y="39.5" transform="matrix(0.3935 0.9193 -0.9193 0.3935 71.4697 -29.1257)" fill="#ffffff" width="1.8" height="0.2"/>
				
					<rect x="57.2" y="39.4" transform="matrix(0.3949 0.9187 -0.9187 0.3949 71.415 -29.4617)" fill="#ffffff" width="1.8" height="0.2"/>
				
					<rect x="57.5" y="39.3" transform="matrix(0.3964 0.9181 -0.9181 0.3964 71.3597 -29.7969)" fill="#ffffff" width="1.8" height="0.2"/>
				
					<rect x="57.7" y="39.2" transform="matrix(0.3979 0.9174 -0.9174 0.3979 71.3034 -30.1312)" fill="#ffffff" width="1.8" height="0.2"/>
				
					<rect x="58" y="39" transform="matrix(0.3994 0.9168 -0.9168 0.3994 71.2463 -30.4647)" fill="#ffffff" width="1.8" height="0.2"/>
				
					<rect x="58.3" y="38.9" transform="matrix(0.4008 0.9162 -0.9162 0.4008 71.1893 -30.7973)" fill="#ffffff" width="1.8" height="0.2"/>
				
					<rect x="58.5" y="38.8" transform="matrix(0.4023 0.9155 -0.9155 0.4023 71.1313 -31.1289)" fill="#ffffff" width="1.8" height="0.2"/>
			</g>
		</g>
		<g>
			<g>
				
					<rect x="60.6" y="37.9" transform="matrix(0.4142 0.9102 -0.9102 0.4142 70.5958 -33.7591)" fill="#ffffff" width="1.8" height="0.2"/>
				
					<rect x="60.9" y="37.7" transform="matrix(0.4157 0.9095 -0.9095 0.4157 70.5203 -34.0846)" fill="#ffffff" width="1.8" height="0.2"/>
				
					<rect x="61.2" y="37.6" transform="matrix(0.4172 0.9088 -0.9088 0.4172 70.4432 -34.4093)" fill="#ffffff" width="1.8" height="0.2"/>
				
					<rect x="61.4" y="37.5" transform="matrix(0.4187 0.9081 -0.9081 0.4187 70.3658 -34.7331)" fill="#ffffff" width="1.8" height="0.2"/>
				
					<rect x="61.7" y="37.4" transform="matrix(0.4203 0.9074 -0.9074 0.4203 70.2884 -35.0558)" fill="#ffffff" width="1.8" height="0.2"/>
				
					<rect x="62" y="37.3" transform="matrix(0.4218 0.9067 -0.9067 0.4218 70.2094 -35.3777)" fill="#ffffff" width="1.8" height="0.2"/>
				
					<rect x="62.2" y="37.1" transform="matrix(0.4233 0.906 -0.906 0.4233 70.1309 -35.6985)" fill="#ffffff" width="1.8" height="0.2"/>
			</g>
		</g>
		<g>
			<g>
				
					<rect x="64.3" y="36.1" transform="matrix(0.4355 0.9002 -0.9002 0.4355 69.4265 -38.2367)" fill="#ffffff" width="1.8" height="0.2"/>
				
					<rect x="64.6" y="36" transform="matrix(0.4371 0.8994 -0.8994 0.4371 69.3291 -38.5501)" fill="#ffffff" width="1.8" height="0.2"/>
				
					<rect x="64.8" y="35.9" transform="matrix(0.4387 0.8987 -0.8987 0.4387 69.2322 -38.8625)" fill="#ffffff" width="1.8" height="0.2"/>
				
					<rect x="65.1" y="35.8" transform="matrix(0.4402 0.8979 -0.8979 0.4402 69.1335 -39.174)" fill="#ffffff" width="1.8" height="0.2"/>
				
					<rect x="65.4" y="35.6" transform="matrix(0.4418 0.8971 -0.8971 0.4418 69.0348 -39.4843)" fill="#ffffff" width="1.8" height="0.2"/>
				
					<rect x="65.6" y="35.5" transform="matrix(0.4433 0.8964 -0.8964 0.4433 68.9351 -39.7937)" fill="#ffffff" width="1.8" height="0.2"/>
				
					<rect x="65.9" y="35.4" transform="matrix(0.4449 0.8956 -0.8956 0.4449 68.8346 -40.102)" fill="#ffffff" width="1.8" height="0.2"/>
			</g>
		</g>
		<g>
			<g>
				
					<rect x="68" y="34.3" transform="matrix(0.4575 0.8892 -0.8892 0.4575 67.9614 -42.5342)" fill="#ffffff" width="1.8" height="0.2"/>
				
					<rect x="68.2" y="34.2" transform="matrix(0.4591 0.8884 -0.8884 0.4591 67.8429 -42.8337)" fill="#ffffff" width="1.8" height="0.2"/>
				
					<rect x="68.5" y="34.1" transform="matrix(0.4607 0.8876 -0.8876 0.4607 67.7238 -43.132)" fill="#ffffff" width="1.8" height="0.2"/>
				
					<rect x="68.7" y="33.9" transform="matrix(0.4623 0.8867 -0.8867 0.4623 67.605 -43.4293)" fill="#ffffff" width="1.8" height="0.2"/>
				
					<rect x="69" y="33.8" transform="matrix(0.4639 0.8859 -0.8859 0.4639 67.4844 -43.7255)" fill="#ffffff" width="1.8" height="0.2"/>
				
					<rect x="69.2" y="33.7" transform="matrix(0.4655 0.8851 -0.8851 0.4655 67.3641 -44.0206)" fill="#ffffff" width="1.8" height="0.2"/>
				
					<rect x="69.5" y="33.5" transform="matrix(0.467 0.8842 -0.8842 0.467 67.2432 -44.3145)" fill="#ffffff" width="1.8" height="0.2"/>
			</g>
		</g>
		<g>
			<g>
				<rect x="71.5" y="32.4" transform="matrix(0.48 0.8773 -0.8773 0.48 66.2 -46.6259)" fill="#ffffff" width="1.8" height="0.2"/>
				
					<rect x="71.8" y="32.3" transform="matrix(0.4816 0.8764 -0.8764 0.4816 66.0605 -46.9095)" fill="#ffffff" width="1.8" height="0.2"/>
				
					<rect x="72" y="32.1" transform="matrix(0.4833 0.8755 -0.8755 0.4833 65.9199 -47.1919)" fill="#ffffff" width="1.8" height="0.2"/>
				
					<rect x="72.3" y="32" transform="matrix(0.4849 0.8746 -0.8746 0.4849 65.779 -47.4732)" fill="#ffffff" width="1.8" height="0.2"/>
				
					<rect x="72.6" y="31.9" transform="matrix(0.4865 0.8737 -0.8737 0.4865 65.6378 -47.7532)" fill="#ffffff" width="1.8" height="0.2"/>
				
					<rect x="72.8" y="31.7" transform="matrix(0.4882 0.8728 -0.8728 0.4882 65.4961 -48.0321)" fill="#ffffff" width="1.8" height="0.2"/>
				
					<rect x="73.1" y="31.6" transform="matrix(0.4898 0.8718 -0.8718 0.4898 65.3534 -48.3097)" fill="#ffffff" width="1.8" height="0.2"/>
			</g>
		</g>
		<g>
			<g>
				
					<rect x="75.1" y="30.4" transform="matrix(0.503 0.8643 -0.8643 0.503 64.1427 -50.4846)" fill="#ffffff" width="1.8" height="0.2"/>
				
					<rect x="75.3" y="30.3" transform="matrix(0.5047 0.8633 -0.8633 0.5047 63.9822 -50.7504)" fill="#ffffff" width="1.8" height="0.2"/>
				
					<rect x="75.6" y="30.1" transform="matrix(0.5064 0.8623 -0.8623 0.5064 63.8212 -51.0149)" fill="#ffffff" width="1.8" height="0.2"/>
				
					<rect x="75.8" y="30" transform="matrix(0.508 0.8613 -0.8613 0.508 63.6603 -51.2782)" fill="#ffffff" width="1.8" height="0.2"/>
				
					<rect x="76.1" y="29.8" transform="matrix(0.5097 0.8603 -0.8603 0.5097 63.4979 -51.5401)" fill="#ffffff" width="1.8" height="0.2"/>
				
					<rect x="76.3" y="29.7" transform="matrix(0.5114 0.8594 -0.8594 0.5114 63.3353 -51.8008)" fill="#ffffff" width="1.8" height="0.2"/>
				
					<rect x="76.6" y="29.6" transform="matrix(0.513 0.8584 -0.8584 0.513 63.1726 -52.0601)" fill="#ffffff" width="1.8" height="0.2"/>
			</g>
		</g>
		<g>
			<g>
				
					<rect x="78.6" y="28.3" transform="matrix(0.5266 0.8501 -0.8501 0.5266 61.7966 -54.082)" fill="#ffffff" width="1.8" height="0.2"/>
				
					<rect x="78.8" y="28.2" transform="matrix(0.5283 0.8491 -0.8491 0.5283 61.6162 -54.328)" fill="#ffffff" width="1.8" height="0.2"/>
				<rect x="79.1" y="28" transform="matrix(0.53 0.848 -0.848 0.53 61.435 -54.5726)" fill="#ffffff" width="1.8" height="0.2"/>
				
					<rect x="79.3" y="27.9" transform="matrix(0.5317 0.8469 -0.8469 0.5317 61.2536 -54.8158)" fill="#ffffff" width="1.8" height="0.2"/>
				
					<rect x="79.6" y="27.7" transform="matrix(0.5334 0.8459 -0.8459 0.5334 61.0709 -55.0574)" fill="#ffffff" width="1.8" height="0.2"/>
				
					<rect x="79.8" y="27.6" transform="matrix(0.5351 0.8448 -0.8448 0.5351 60.8889 -55.298)" fill="#ffffff" width="1.8" height="0.2"/>
				
					<rect x="80" y="27.4" transform="matrix(0.5368 0.8437 -0.8437 0.5368 60.7055 -55.5369)" fill="#ffffff" width="1.8" height="0.2"/>
			</g>
		</g>
		<g>
			<g>
				
					<rect x="82" y="26.2" transform="matrix(0.5505 0.8348 -0.8348 0.5505 59.1713 -57.3894)" fill="#ffffff" width="1.8" height="0.2"/>
				
					<rect x="82.2" y="26" transform="matrix(0.5523 0.8337 -0.8337 0.5523 58.9713 -57.6135)" fill="#ffffff" width="1.8" height="0.2"/>
				
					<rect x="82.5" y="25.8" transform="matrix(0.554 0.8325 -0.8325 0.554 58.7701 -57.8358)" fill="#ffffff" width="1.8" height="0.2"/>
				
					<rect x="82.7" y="25.7" transform="matrix(0.5557 0.8314 -0.8314 0.5557 58.5696 -58.057)" fill="#ffffff" width="1.8" height="0.2"/>
				
					<rect x="83" y="25.5" transform="matrix(0.5575 0.8302 -0.8302 0.5575 58.3673 -58.2763)" fill="#ffffff" width="1.8" height="0.2"/>
				
					<rect x="83.2" y="25.4" transform="matrix(0.5592 0.829 -0.829 0.5592 58.1655 -58.4944)" fill="#ffffff" width="1.8" height="0.2"/>
				
					<rect x="83.4" y="25.2" transform="matrix(0.5609 0.8279 -0.8279 0.5609 57.9637 -58.711)" fill="#ffffff" width="1.8" height="0.2"/>
			</g>
		</g>
		<g>
			<g>
				
					<rect x="85.4" y="23.9" transform="matrix(0.5749 0.8182 -0.8182 0.5749 56.2785 -60.3772)" fill="#ffffff" width="1.8" height="0.2"/>
				
					<rect x="85.6" y="23.7" transform="matrix(0.5766 0.817 -0.817 0.5766 56.0592 -60.577)" fill="#ffffff" width="1.8" height="0.2"/>
				
					<rect x="85.8" y="23.5" transform="matrix(0.5784 0.8158 -0.8158 0.5784 55.8404 -60.7753)" fill="#ffffff" width="1.8" height="0.2"/>
				
					<rect x="86.1" y="23.4" transform="matrix(0.5801 0.8145 -0.8145 0.5801 55.6212 -60.9722)" fill="#ffffff" width="1.8" height="0.2"/>
				
					<rect x="86.3" y="23.2" transform="matrix(0.5819 0.8133 -0.8133 0.5819 55.4008 -61.167)" fill="#ffffff" width="1.8" height="0.2"/>
				
					<rect x="86.5" y="23" transform="matrix(0.5837 0.812 -0.812 0.5837 55.1807 -61.3606)" fill="#ffffff" width="1.8" height="0.2"/>
				
					<rect x="86.8" y="22.9" transform="matrix(0.5854 0.8108 -0.8108 0.5854 54.9611 -61.5528)" fill="#ffffff" width="1.8" height="0.2"/>
			</g>
		</g>
		<g>
			<g>
				
					<rect x="88.6" y="21.5" transform="matrix(0.5995 0.8004 -0.8004 0.5995 53.1362 -63.0166)" fill="#ffffff" width="1.8" height="0.2"/>
				
					<rect x="88.9" y="21.3" transform="matrix(0.6013 0.799 -0.799 0.6013 52.8993 -63.1899)" fill="#ffffff" width="1.8" height="0.2"/>
				
					<rect x="89.1" y="21.1" transform="matrix(0.6031 0.7977 -0.7977 0.6031 52.6629 -63.3618)" fill="#ffffff" width="1.8" height="0.2"/>
				
					<rect x="89.3" y="21" transform="matrix(0.6048 0.7964 -0.7964 0.6048 52.4279 -63.5328)" fill="#ffffff" width="1.8" height="0.2"/>
				
					<rect x="89.6" y="20.8" transform="matrix(0.6066 0.795 -0.795 0.6066 52.1909 -63.7013)" fill="#ffffff" width="1.8" height="0.2"/>
				
					<rect x="89.8" y="20.6" transform="matrix(0.6084 0.7937 -0.7937 0.6084 51.9541 -63.8683)" fill="#ffffff" width="1.8" height="0.2"/>
				
					<rect x="90" y="20.4" transform="matrix(0.6101 0.7923 -0.7923 0.6101 51.7172 -64.0336)" fill="#ffffff" width="1.8" height="0.2"/>
			</g>
		</g>
		<g>
			<g>
				
					<rect x="91.9" y="19" transform="matrix(0.6243 0.7812 -0.7812 0.6243 49.7649 -65.2787)" fill="#ffffff" width="1.8" height="0.2"/>
				
					<rect x="92.1" y="18.8" transform="matrix(0.6261 0.7797 -0.7797 0.6261 49.514 -65.4245)" fill="#ffffff" width="1.8" height="0.2"/>
				
					<rect x="92.3" y="18.6" transform="matrix(0.6279 0.7783 -0.7783 0.6279 49.2627 -65.5683)" fill="#ffffff" width="1.8" height="0.2"/>
				
					<rect x="92.5" y="18.5" transform="matrix(0.6297 0.7769 -0.7769 0.6297 49.0114 -65.7106)" fill="#ffffff" width="1.8" height="0.2"/>
				
					<rect x="92.8" y="18.3" transform="matrix(0.6315 0.7754 -0.7754 0.6315 48.7595 -65.8507)" fill="#ffffff" width="1.8" height="0.2"/>
				
					<rect x="93" y="18.1" transform="matrix(0.6332 0.774 -0.774 0.6332 48.5092 -65.99)" fill="#ffffff" width="1.8" height="0.2"/>
				
					<rect x="93.2" y="17.9" transform="matrix(0.635 0.7725 -0.7725 0.635 48.2569 -66.1264)" fill="#ffffff" width="1.8" height="0.2"/>
			</g>
		</g>
		<g>
			<g>
				
					<rect x="95" y="16.4" transform="matrix(0.6492 0.7606 -0.7606 0.6492 46.1937 -67.1384)" fill="#ffffff" width="1.8" height="0.2"/>
				
					<rect x="95.2" y="16.2" transform="matrix(0.651 0.759 -0.759 0.651 45.9291 -67.2541)" fill="#ffffff" width="1.8" height="0.2"/>
				
					<rect x="95.4" y="16" transform="matrix(0.6528 0.7575 -0.7575 0.6528 45.6646 -67.3679)" fill="#ffffff" width="1.8" height="0.2"/>
				
					<rect x="95.7" y="15.8" transform="matrix(0.6546 0.756 -0.756 0.6546 45.4007 -67.4803)" fill="#ffffff" width="1.8" height="0.2"/>
				
					<rect x="95.9" y="15.7" transform="matrix(0.6564 0.7544 -0.7544 0.6564 45.137 -67.5909)" fill="#ffffff" width="1.8" height="0.2"/>
				
					<rect x="96.1" y="15.5" transform="matrix(0.6582 0.7529 -0.7529 0.6582 44.8723 -67.6991)" fill="#ffffff" width="1.8" height="0.2"/>
				
					<rect x="96.3" y="15.3" transform="matrix(0.6599 0.7513 -0.7513 0.6599 44.6088 -67.806)" fill="#ffffff" width="1.8" height="0.2"/>
			</g>
		</g>
		<g>
			<g>
				
					<rect x="98.1" y="13.7" transform="matrix(0.6741 0.7386 -0.7386 0.6741 42.4529 -68.5716)" fill="#ffffff" width="1.8" height="0.2"/>
				
					<rect x="98.3" y="13.5" transform="matrix(0.6759 0.737 -0.737 0.6759 42.1784 -68.6564)" fill="#ffffff" width="1.8" height="0.2"/>
				
					<rect x="98.5" y="13.3" transform="matrix(0.6777 0.7353 -0.7353 0.6777 41.9037 -68.739)" fill="#ffffff" width="1.8" height="0.2"/>
				
					<rect x="98.7" y="13.1" transform="matrix(0.6795 0.7337 -0.7337 0.6795 41.6287 -68.8195)" fill="#ffffff" width="1.8" height="0.2"/>
				
					<rect x="98.9" y="12.9" transform="matrix(0.6812 0.7321 -0.7321 0.6812 41.3545 -68.8984)" fill="#ffffff" width="1.8" height="0.2"/>
				
					<rect x="99.1" y="12.7" transform="matrix(0.683 0.7304 -0.7304 0.683 41.0806 -68.9754)" fill="#ffffff" width="1.8" height="0.2"/>
				
					<rect x="99.3" y="12.5" transform="matrix(0.6848 0.7288 -0.7288 0.6848 40.8069 -69.0506)" fill="#ffffff" width="1.8" height="0.2"/>
			</g>
		</g>
		<g>
			<g>
				
					<rect x="101" y="10.9" transform="matrix(0.6989 0.7153 -0.7153 0.6989 38.5799 -69.5594)" fill="#ffffff" width="1.8" height="0.2"/>
				
					<rect x="101.2" y="10.7" transform="matrix(0.7006 0.7135 -0.7135 0.7006 38.2973 -69.6114)" fill="#ffffff" width="1.8" height="0.2"/>
				
					<rect x="101.4" y="10.5" transform="matrix(0.7024 0.7118 -0.7118 0.7024 38.0146 -69.6611)" fill="#ffffff" width="1.8" height="0.2"/>
				
					<rect x="101.6" y="10.3" transform="matrix(0.7041 0.7101 -0.7101 0.7041 37.7332 -69.7098)" fill="#ffffff" width="1.8" height="0.2"/>
				
					<rect x="101.8" y="10.1" transform="matrix(0.7059 0.7083 -0.7083 0.7059 37.4513 -69.7557)" fill="#ffffff" width="1.8" height="0.2"/>
				
					<rect x="102" y="9.9" transform="matrix(0.7076 0.7066 -0.7066 0.7076 37.1702 -69.8001)" fill="#ffffff" width="1.8" height="0.2"/>
				
					<rect x="102.2" y="9.7" transform="matrix(0.7094 0.7048 -0.7048 0.7094 36.8886 -69.8417)" fill="#ffffff" width="1.8" height="0.2"/>
			</g>
		</g>
		<g>
			<g>
				
					<rect x="103.9" y="8.1" transform="matrix(0.7233 0.6905 -0.6905 0.7233 34.6153 -70.0865)" fill="#ffffff" width="1.8" height="0.2"/>
				
					<rect x="104.1" y="7.8" transform="matrix(0.725 0.6887 -0.6887 0.725 34.3281 -70.1047)" fill="#ffffff" width="1.8" height="0.2"/>
				
					<rect x="104.3" y="7.6" transform="matrix(0.7267 0.6869 -0.6869 0.7267 34.0423 -70.1219)" fill="#ffffff" width="1.8" height="0.2"/>
				
					<rect x="104.5" y="7.4" transform="matrix(0.7285 0.6851 -0.6851 0.7285 33.7565 -70.1367)" fill="#ffffff" width="1.8" height="0.2"/>
				
					<rect x="104.7" y="7.2" transform="matrix(0.7302 0.6833 -0.6833 0.7302 33.4713 -70.1495)" fill="#ffffff" width="1.8" height="0.2"/>
				
					<rect x="104.9" y="7" transform="matrix(0.7319 0.6814 -0.6814 0.7319 33.1861 -70.16)" fill="#ffffff" width="1.8" height="0.2"/>
				
					<rect x="105.1" y="6.8" transform="matrix(0.7336 0.6796 -0.6796 0.7336 32.902 -70.1689)" fill="#ffffff" width="1.8" height="0.2"/>
			</g>
		</g>
		<g>
			<g>
				
					<rect x="106.7" y="5.1" transform="matrix(0.7473 0.6645 -0.6645 0.7473 30.5836 -70.1759)" fill="#ffffff" width="1.8" height="0.1"/>
				
					<rect x="106.8" y="5" transform="matrix(0.7481 0.6636 -0.6636 0.7481 30.4416 -70.1687)" fill="#ffffff" width="1.8" height="0.1"/>
				
					<rect x="106.9" y="4.9" transform="matrix(0.749 0.6626 -0.6626 0.749 30.2998 -70.161)" fill="#ffffff" width="1.8" height="0.1"/>
				
					<rect x="106.9" y="4.8" transform="matrix(0.7498 0.6617 -0.6617 0.7498 30.1585 -70.1533)" fill="#ffffff" width="1.8" height="0.1"/>
				
					<rect x="107" y="4.6" transform="matrix(0.7506 0.6607 -0.6607 0.7506 30.0174 -70.145)" fill="#ffffff" width="1.8" height="0.1"/>
				
					<rect x="107.1" y="4.5" transform="matrix(0.7514 0.6598 -0.6598 0.7514 29.8766 -70.1364)" fill="#ffffff" width="1.8" height="0.1"/>
				
					<rect x="107.2" y="4.4" transform="matrix(0.7523 0.6589 -0.6589 0.7523 29.7358 -70.1272)" fill="#ffffff" width="1.8" height="0.1"/>
			</g>
		</g>
	</g>
</g>
<polygon fill="#ffffff" points="105.2,2.3 113,0 109.8,7.6 "/>
</svg>
