<?xml version="1.0" encoding="utf-8"?>
<!-- Generator: Adobe Illustrator 18.1.1, SVG Export Plug-In . SVG Version: 6.00 Build 0)  -->
<svg version="1.1" id="big_x5F_icon_x5F_travel_x5F_info_1_"
	 xmlns="http://www.w3.org/2000/svg" xmlns:xlink="http://www.w3.org/1999/xlink" x="0px" y="0px" viewBox="0 0 87 87"
	 enable-background="new 0 0 87 87" xml:space="preserve">
<g id="big_x5F_icon_x5F_travel_x5F_info">
	<g>
		<path fill="#CCD3D8" d="M43.5,10C25,10,10,25,10,43.5c0,18.5,15,33.5,33.5,33.5s33.5-15,33.5-33.5C77.1,25,62,10,43.5,10z
			 M51.4,65.8c-2.2,0.9-3.9,1.3-5.2,1.8c-1.3,0.4-2.8,0.7-4.5,0.7c-2.6,0-4.7-0.6-6.1-1.9c-1.5-1.3-2.2-2.7-2.2-4.7
			c0-0.8,0.1-1.5,0.2-2.3c0.1-0.8,0.3-1.7,0.5-2.7l2.7-9.6c0.2-0.9,0.4-1.8,0.6-2.6c0.2-0.8,0.2-1.6,0.2-2.2c0-1.2-0.3-2.1-0.8-2.6
			c-0.5-0.5-1.5-0.7-2.9-0.7c-0.7,0-1.4,0.1-2.1,0.3c-0.7,0.2-1.4,0.4-1.9,0.6l0.7-2.9c1.8-0.7,3.5-1.6,5.1-2.1
			c1.6-0.5,3.1-0.8,4.6-0.8c2.6,0,4.6,0.6,6,1.9c1.4,1.3,2.1,3.2,2.1,5.2c0,0.4,0,1.1-0.1,2.2c-0.1,1-0.3,2-0.5,2.9l-2.7,9.5
			c-0.2,0.8-0.4,1.6-0.6,2.6c-0.2,1-0.3,1.7-0.3,2.2c0,1.3,0.3,2.1,0.8,2.6c0.6,0.5,1.5,0.7,2.9,0.7c0.7,0,1.4-0.1,2.2-0.3
			c0.8-0.2,1.4-0.4,1.8-0.6L51.4,65.8z M50.9,27.2c-1.3,1.2-2.8,1.7-4.5,1.7s-3.3-0.6-4.5-1.7C40.6,26,40,24.6,40,22.9
			c0-1.7,0.6-3.1,1.9-4.3c1.3-1.2,2.8-1.8,4.5-1.8s3.3,0.6,4.5,1.8c1.3,1.2,1.9,2.6,1.9,4.3C52.8,24.6,52.2,26,50.9,27.2z M43.5,0
			C19.5,0,0,19.5,0,43.5C0,67.5,19.5,87,43.5,87C67.5,87,87,67.5,87,43.5C87,19.5,67.5,0,43.5,0z M43.5,80.4
			c-20.4,0-36.9-16.5-36.9-36.9c0-20.4,16.5-36.9,36.9-36.9c20.4,0,36.9,16.5,36.9,36.9C80.4,63.9,63.9,80.4,43.5,80.4z"/>
	</g>
</g>
</svg>
