<?xml version="1.0" encoding="utf-8"?>
<!-- Generator: Adobe Illustrator 18.1.1, SVG Export Plug-In . SVG Version: 6.00 Build 0)  -->
<svg version="1.1" id="big_x5F_icon_x5F_travel_x5F_perks_1_"
	 xmlns="http://www.w3.org/2000/svg" xmlns:xlink="http://www.w3.org/1999/xlink" x="0px" y="0px" viewBox="0 0 87 87"
	 enable-background="new 0 0 87 87" xml:space="preserve">
<g id="big_x5F_icon_x5F_travel_x5F_perks">
	<g>
		<path fill="#CCD3D8" d="M43.5,0C19.5,0,0,19.5,0,43.5C0,67.5,19.5,87,43.5,87C67.5,87,87,67.5,87,43.5C87,19.5,67.5,0,43.5,0z
			 M23.4,54.6l-5.2,15.7C11.1,63.6,6.6,54.1,6.6,43.5c0-2,0.2-3.9,0.5-5.8l14.4,11.1C23.3,50.2,24,52.5,23.4,54.6z M9.6,29
			C14.7,17.1,26,8.4,39.4,6.9l-7.8,18.4l0,0.1c-0.7,2.1-2.8,3.6-5,3.6L9.6,29z M43.5,80.4c-6,0-11.6-1.4-16.6-3.9l10.5-7.6
			c-0.2-0.8-0.3-1.7-0.3-3l0-0.2c-0.9-0.3-1.8-0.7-2.6-1.2c-1.9-1.1-3.3-2.6-4.2-4.5c-0.7-1.5-0.9-3-0.4-4.5
			c0.5-1.6,1.5-2.8,3.1-3.5c0.8-0.4,1.6-0.6,2.4-0.6c1.1,0,2.8,0.4,4.3,2.2c0.2,0.3,0.9,1,1.4,1c0.2,0,0.4-0.1,0.7-0.2
			c0.7-0.3,0.9-0.7,1-1c0.2-0.5,0.2-0.8-0.1-1.2c-0.2-0.4-0.7-1.1-1.8-1.9l-2.1-1.6c-1.7-1.2-3-2.4-4.1-3.5
			c-1.2-1.2-2.1-2.5-2.7-3.8c-1-2.1-1.4-4.3-1.2-6.5c0.2-2.2,1-4.2,2.4-6.1c1-1.3,2.2-2.4,3.6-3.3l0-1.4c0-1.7,0.1-3,0.5-3.9
			c0.5-1.3,1.5-2.4,2.9-3c0.8-0.4,1.7-0.6,2.5-0.6c0.6,0,1.1,0.1,1.7,0.3c1.4,0.5,2.5,1.4,3.2,2.8c0.4,0.9,0.6,2,0.6,3.8l0,0
			c0.7,0.2,1.4,0.5,2,0.8c1.9,1,3.2,2.3,4,3.9c0.7,1.4,0.8,2.8,0.4,4.2c-0.4,1.5-1.5,2.7-2.9,3.4c-0.7,0.4-1.5,0.5-2.3,0.5
			c-1.2,0-2.3-0.4-3.4-1.1l-1-0.7c-0.2-0.2-0.4-0.2-0.6-0.2l-0.1,0c-0.3,0-0.5,0.1-0.7,0.2c-0.5,0.2-0.7,0.5-0.8,0.8
			c-0.1,0.2-0.1,0.5,0.1,1.1c0,0,0.1,0.2,0.5,0.7c0.4,0.4,1,0.9,1.8,1.5c1.3,0.9,2.6,1.9,3.8,2.9c1.4,1.1,2.3,2,2.8,2.7
			c0.6,0.7,1.1,1.6,1.6,2.7c1,2.1,1.4,4.4,1.2,6.8c-0.2,2.4-1,4.5-2.4,6.5c-1,1.4-2.2,2.5-3.5,3.5l0,1.7c0,1.2-0.1,2.2-0.2,2.9
			l11.7,8.4C54.9,79,49.4,80.4,43.5,80.4z M55.1,25.4L55.1,25.4L47.2,6.9C60.8,8.2,72.2,17,77.4,29l-17.3,0
			C57.8,29,55.8,27.5,55.1,25.4z M68.5,70.6l-5.3-15.9c-0.6-2.1,0.1-4.5,1.9-5.9l14.7-11.3c0.3,2,0.5,4,0.5,6
			C80.4,54.2,75.8,63.9,68.5,70.6z M49.2,58.2c1-1.5,1.6-3.1,1.8-4.9c0.2-1.8-0.1-3.4-0.9-5c-0.4-0.8-0.8-1.5-1.2-2
			c-0.4-0.5-1.2-1.2-2.4-2.2c-1.2-1-2.4-1.9-3.6-2.8c-0.9-0.7-1.6-1.3-2.2-1.8c-0.5-0.6-0.9-1.1-1.2-1.5c-0.6-1.2-0.7-2.5-0.2-3.7
			c0.4-1.2,1.3-2.1,2.5-2.7c0.8-0.4,1.6-0.5,2.5-0.5c0.9,0,1.7,0.3,2.4,0.8l1,0.7c0.9,0.6,1.7,0.7,2.5,0.3c0.6-0.3,1-0.7,1.1-1.3
			c0.2-0.6,0.1-1.2-0.2-1.8c-0.5-1-1.3-1.7-2.5-2.4c-1.2-0.6-2.5-0.9-3.8-0.9l0-2.9c0-1.2-0.1-2-0.3-2.4c-0.3-0.5-0.6-0.9-1.2-1.1
			c-0.5-0.2-1.1-0.1-1.7,0.2c-0.6,0.3-1,0.7-1.2,1.2C40.1,22,40,22.9,40,24.2l0,3.5l-0.3,0.1c-1.6,0.8-3,1.9-4,3.2
			c-1,1.3-1.6,2.8-1.7,4.4c-0.1,1.6,0.2,3.2,0.9,4.7c0.5,1,1.2,2,2.1,2.9c0.9,1,2.1,2,3.7,3.1l2,1.5c1.4,1,2.4,2,2.9,3.2
			c0.6,1.2,0.7,2.5,0.2,3.8c-0.5,1.3-1.4,2.3-2.7,2.9c-2.3,1.1-4.3,0.5-6.2-1.7c-0.8-1-1.6-1.2-2.6-0.7c-0.7,0.3-1.1,0.8-1.3,1.5
			c-0.2,0.6-0.1,1.3,0.2,2.1c0.6,1.3,1.6,2.3,2.9,3c1.3,0.8,2.8,1.2,4.3,1.2l0,3.1c0,1.2,0.1,1.9,0.3,2.4c0.3,0.5,0.7,0.9,1.2,1.1
			c0.5,0.2,1.1,0.1,1.6-0.1c0.6-0.3,1-0.7,1.1-1.2c0.2-0.5,0.3-1.4,0.3-2.7l0-3.6l0.1,0C46.8,60.8,48.2,59.7,49.2,58.2z"/>
	</g>
</g>
</svg>
