<?xml version="1.0" encoding="utf-8"?>
<!-- Generator: Adobe Illustrator 18.1.1, SVG Export Plug-In . SVG Version: 6.00 Build 0)  -->
<svg version="1.1" id="big_x5F_icon_x5F_advice_1_" xmlns="http://www.w3.org/2000/svg" xmlns:xlink="http://www.w3.org/1999/xlink"
	 x="0px" y="0px" viewBox="0 0 89 90" enable-background="new 0 0 89 90" xml:space="preserve">
<g id="big_x5F_icon_x5F_advice">
	<g>
		<path fill="#CCD3D8" d="M12.1,46.1H32c3.4,0,6.2-2.7,6.2-6.1c0-3.4-2.8-6.2-6.2-6.2H12.1c-3.4,0-6.2,2.8-6.2,6.2
			C5.8,43.4,8.6,46.1,12.1,46.1z M32,63.8H12.1c-3.4,0-6.2,2.7-6.2,6.1c0,3.4,2.8,6.1,6.2,6.1H32c3.4,0,6.2-2.7,6.2-6.1
			C38.2,66.5,35.4,63.8,32,63.8z M33.9,61.1c3.5,0,6.1-2.7,6.1-6.1c0-3.5-2.7-6.2-6.1-6.2H6.3c-3.5,0-6.3,2.7-6.3,6.2
			c0,3.5,2.8,6.1,6.3,6.1H33.9z M73,35.8c-2.2,0-4.4,0.7-6.4,2c-2.4-4.3-4.7-9.6-8.7-12.5c-8.3-6.1-10.8-6.3-14.5-9
			c-7-5-1.3-15.7-7.4-16.2c-3.7-0.3-9.3,3.1-9.3,12c0,9.8,6.2,17.5,7.6,19c0.3,0.1,0.6,0.2,0.9,0.3c3.6,1.1,6.3,4.5,6.3,8.5
			c0,2.8-1.3,5.2-3.3,6.9c3.2,1.4,5.3,4.5,5.3,8.2c0,3.7-2.2,6.9-5.4,8.2c2,1.6,3.3,4.1,3.3,6.9c0,3.5-2,6.5-4.9,7.9
			c1.7,1.4,2.8,3.5,2.8,6c0,0.9-0.2,1.8-0.5,2.7c0,0,0,0,0,0c-0.4,1.5-0.5,2.5,0.8,2.6c0,0,0,0,0,0h1c11.8,0,15.3-3.7,21.5-6
			c3,3.7,6.8,6,10.7,6c9.2,0,16-11.9,16-26.7C89,47.7,82.1,35.8,73,35.8z M72.3,83.8c-1.5,0-3.1-0.7-4.5-1.9
			c0.5-0.1,1.1-0.1,1.7-0.2c0.4,0,1.9,0.1,2.3,0.1c4.2,0,9-8.5,9-18.9c0-9.9-3.2-16.8-7.2-18.5c0,0-1-0.3-1.3-0.4
			c-1-0.3-1.9-1-2.8-2c1-0.5,1.9-0.8,2.9-0.8c5.4,0,11.3,8.8,11.3,21.3C83.5,75.1,77.7,83.8,72.3,83.8z M31.2,78.7H15.8
			c-2.8,0-4.9,2.2-4.9,4.9c0,2.8,2.1,5.3,4.9,5.3h15.4c2.8,0,5.1-2.5,5.1-5.3C36.2,80.8,34,78.7,31.2,78.7z"/>
	</g>
</g>
</svg>
