<?xml version="1.0" standalone="no"?>
<!DOCTYPE svg PUBLIC "-//W3C//DTD SVG 1.1//EN" "http://www.w3.org/Graphics/SVG/1.1/DTD/svg11.dtd" >
<svg xmlns="http://www.w3.org/2000/svg" xmlns:xlink="http://www.w3.org/1999/xlink" version="1.1">
<metadata></metadata>
<defs>
<font id="deliusregular" horiz-adv-x="1150" >
<font-face units-per-em="2048" ascent="1638" descent="-410" />
<missing-glyph horiz-adv-x="487" />
<glyph horiz-adv-x="0" />
<glyph unicode="&#xd;" horiz-adv-x="681" />
<glyph unicode=" "  horiz-adv-x="487" />
<glyph unicode="&#x09;" horiz-adv-x="487" />
<glyph unicode="&#xa0;" horiz-adv-x="487" />
<glyph unicode="!" horiz-adv-x="495" d="M154 81q0 46 29.5 85t71.5 39t64.5 -31t22.5 -79t-29.5 -87t-71.5 -39t-64.5 33t-22.5 79zM166 1454q0 102 82 102t82 -102q0 -12 -7.5 -193.5t-7.5 -302.5l7 -434q0 -102 -74 -102t-74 102l6 434q0 121 -7 302.5t-7 193.5z" />
<glyph unicode="&#x22;" horiz-adv-x="700" d="M113 1400q0 30 21.5 57.5t60 27.5t60 -27.5t21.5 -56.5t-12 -119t-15 -152.5t-13.5 -94t-40 -31.5t-41 32.5t-14.5 94t-15 150.5t-12 119zM424 1400q0 30 21.5 57.5t60.5 27.5t60.5 -27.5t21.5 -56.5t-12.5 -119t-15.5 -152.5t-13 -94t-40 -31.5t-41 32.5t-14 94 t-15.5 150.5t-12.5 119z" />
<glyph unicode="#" horiz-adv-x="1644" d="M98.5 501.5q-0.5 67.5 94.5 67.5l286 -6l66 338l-264 -6q-94 0 -94.5 67.5t94.5 67.5l284 -6q23 104 42.5 217t23.5 135q16 84 84 84q27 0 43 -19.5t16 -45t-10 -71.5t-29.5 -133t-36.5 -169h355q23 104 43 219t24 137q16 84 84 84q27 0 43.5 -19.5t16.5 -45t-10.5 -71.5 t-30 -133t-35.5 -169l264 6q94 0 94 -67.5t-94 -67.5l-291 6l-65 -338l266 6q94 0 94 -67.5t-94 -67.5l-289 4q-27 -143 -67 -383q-16 -84 -84 -84q-27 0 -43.5 18.5t-16.5 46t10 75.5q41 195 66 331h-354q-23 -117 -43.5 -240.5t-24.5 -148.5q-16 -84 -84 -84 q-27 0 -43 18.5t-16 46t10 75t31.5 143.5t38.5 188l-260 -6q-94 0 -94.5 67.5zM606 561h361l65 342h-360z" />
<glyph unicode="$" horiz-adv-x="1134" d="M106 190q0 29 16.5 46.5t43.5 17.5t67 -33q133 -106 287 -117q4 287 4 629q-166 94 -261 188.5t-95 216.5t96 211t252 105v80q0 104 69.5 104t69.5 -104v-80q131 -12 219.5 -61.5t88.5 -108.5q0 -23 -15.5 -40t-45.5 -17t-106.5 46t-144.5 48q-4 -246 -4 -494 q166 -98 244 -169.5t108.5 -137t30.5 -139.5q0 -154 -102.5 -265.5t-274.5 -138.5q4 -51 4 -98q0 -104 -71.5 -104t-71.5 104l2 94q-158 10 -284 81t-126 136zM317 1137q0 -109 207 -240q0 279 -4 424q-88 -10 -145.5 -57t-57.5 -127zM647 662q0 -414 2 -551q96 16 162 90.5 t66 168t-59.5 159t-170.5 133.5z" />
<glyph unicode="%" horiz-adv-x="1646" d="M98 1107q0 153 86 255t207 102t229.5 -89t206 -89t140.5 37l16 57q37 133 76 162q18 14 52 14t60.5 -31.5t26.5 -78.5q0 -88 -115 -213q-406 -1161 -426 -1212.5t-73 -51.5q-27 0 -45.5 18.5t-18.5 50.5t51 157q207 506 365 987q-35 -16 -93.5 -16.5t-154.5 28.5 q10 -37 10 -84q0 -150 -83 -252t-217 -102t-217 99t-83 252zM227 1112q0 -102 46 -171t127 -69t127 67t46 169t-45 171t-127 69t-128 -67t-46 -169zM944 320.5q0 152.5 86 255t220 102.5t217 -99.5t83 -252t-86 -255t-220 -102.5t-217 99.5t-83 252zM1075 325.5 q0 -102.5 45 -171t126 -68.5t127 66.5t46 169t-45 171t-126 68.5t-127 -66.5t-46 -169z" />
<glyph unicode="&#x26;" horiz-adv-x="1566" d="M96 475q0 123 71 239.5t189 194.5q-61 55 -108 135t-47 164q0 131 94 224.5t258 93.5q106 0 196.5 -47t90.5 -103q0 -33 -19.5 -50t-44 -17t-86 42t-146.5 42t-142.5 -49.5t-57.5 -124t36 -141t87 -101.5q43 12 97 12t93 -25.5t39 -69.5t-41 -69.5t-98 -25.5t-102 22 q-100 -49 -155.5 -137t-55.5 -203q0 -160 103.5 -266t259 -106t250.5 86t95 202q0 178 -102 178q-27 0 -68 -18t-71.5 -18t-50 21.5t-19.5 51.5q0 51 58.5 82t140.5 31l256 -10q106 0 196 53t90 154q0 152 -155 204q-59 20 -85 39t-26 50.5t21.5 49t56.5 17.5 q113 0 220.5 -110.5t107.5 -236.5t-76 -206q-131 -143 -406 -143q55 -92 55.5 -223.5t-129.5 -262.5t-356.5 -131t-370 145.5t-143.5 360.5z" />
<glyph unicode="'" horiz-adv-x="389" d="M113 1400q0 30 21.5 57.5t60 27.5t60 -27.5t21.5 -56.5t-12 -119t-15 -152.5t-13.5 -94t-40 -31.5t-41 32.5t-14.5 94t-15 150.5t-12 119z" />
<glyph unicode="(" horiz-adv-x="618" d="M94 582q0 170 43 351t104.5 315t132 221t118 87t67 -22.5t19.5 -52t-19.5 -60t-62.5 -85t-76 -113.5q-172 -305 -172 -734q0 -334 114 -595q61 -145 162 -271q25 -31 25 -51q0 -43 -39 -43q-63 0 -147 111.5t-138 238.5q-131 307 -131 703z" />
<glyph unicode=")" horiz-adv-x="620" d="M41 1481.5q0 29.5 19.5 52t66.5 22.5t117.5 -87t132 -221t104.5 -315t43 -351q0 -395 -131 -703q-53 -127 -137 -238.5t-147 -111.5q-39 0 -39 43q0 20 24 51q276 346 277 866q0 428 -172 734q-33 59 -76 113.5t-62.5 85t-19.5 60z" />
<glyph unicode="*" horiz-adv-x="868" d="M129 1071q0 27 15.5 44.5t37 25.5t72.5 27.5t94 41.5q-43 23 -94 42.5t-72.5 27.5t-37 25.5t-15.5 44t19.5 44t43 17.5t46 -13.5t68.5 -51t83 -62.5l-22 189q0 37 18 60t49 23t49.5 -23.5t18.5 -49t-9.5 -90t-13.5 -109.5q37 25 83 62.5t68.5 51t46 13.5t43 -17.5 t19.5 -44t-15 -44t-36.5 -25.5t-73 -27.5t-94.5 -42.5q43 -23 94.5 -42t73 -27t36.5 -25.5t15 -44.5t-19.5 -44t-43 -17t-46 13t-68.5 51t-83 63l23 -185q0 -37 -18.5 -60.5t-49.5 -23.5t-49 23.5t-18 48.5t9 88.5t13 108.5q-37 -25 -83 -63t-68.5 -51t-46 -13t-43 17 t-19.5 44z" />
<glyph unicode="+" horiz-adv-x="1083" d="M96 534.5q0 30.5 23.5 49t60.5 18.5l303 -6q-8 287 -8 293q0 84 68 84q33 0 52 -22.5t19 -45t-8 -309.5l299 6q37 0 60.5 -18.5t23.5 -49t-23.5 -49t-60.5 -18.5q-102 0 -299 6l8 -321q0 -39 -19.5 -61.5t-51.5 -22.5q-68 0 -68 84q0 10 8 321q-209 -6 -274.5 -6 t-89 18.5t-23.5 49z" />
<glyph unicode="," horiz-adv-x="430" d="M57 -275.5q0 15.5 38 80t38 116.5t-8 90t-8 79t29.5 80t73.5 39t66.5 -32t22.5 -77q0 -139 -70.5 -276t-140.5 -137q-16 0 -28.5 11t-12.5 26.5z" />
<glyph unicode="-" horiz-adv-x="876" d="M135 534.5q0 30.5 23.5 49t60.5 18.5l219 -6l219 6q37 0 60.5 -18.5t23.5 -49t-23.5 -49t-60.5 -18.5l-219 6l-219 -6q-37 0 -60.5 18.5t-23.5 49z" />
<glyph unicode="." horiz-adv-x="423" d="M115 93q0 48 29.5 87t73.5 39t66.5 -31.5t22.5 -80t-29.5 -88t-72.5 -39.5t-66.5 32.5t-23.5 80.5z" />
<glyph unicode="/" horiz-adv-x="743" d="M115 -229q0 35 74.5 355t115.5 511.5t79 383t59.5 308.5t27.5 141q18 86 82 86q74 0 74 -86q0 -29 -25 -137q-193 -815 -303 -1417q-23 -117 -29 -141q-16 -86 -82 -86q-74 0 -73 82z" />
<glyph unicode="0" horiz-adv-x="1347" d="M127 717q0 305 151.5 526t395.5 221t395.5 -221t151.5 -526t-151.5 -526.5t-395.5 -221.5t-395.5 221.5t-151.5 526.5zM274 717q0 -246 114 -429.5t286 -183.5t285.5 183.5t113.5 429.5t-113.5 429t-285.5 183t-286 -183t-114 -429z" />
<glyph unicode="1" horiz-adv-x="813" d="M47 906.5q0 21.5 5 34.5t23.5 36.5t37 44t60.5 67t84 95.5t92 113.5t73 91.5q51 66 97 65.5t69.5 -29t23.5 -59.5t-2 -121q-8 -211 -8 -445.5t2 -380t5 -233.5t3 -118.5t-22.5 -59t-57 -28.5t-57 28.5t-22.5 59t2 118.5q8 205 8 533v514l-98 -123q-25 -31 -57 -73 t-48 -62.5t-37.5 -47t-33 -38.5t-25.5 -25q-27 -20 -53.5 -20t-45 20.5t-18.5 42z" />
<glyph unicode="2" horiz-adv-x="1122" d="M94 84q0 76 57.5 148.5t94.5 113.5t123 134t118.5 129t71.5 78t55.5 61.5t52 62.5t54 72.5t41.5 68.5q43 74 43 138q0 102 -74 170.5t-167 68.5t-151.5 -33.5t-84.5 -74.5q-68 -109 -121 -109q-29 0 -48.5 19.5t-19.5 48.5q0 80 119 182t299 102t287.5 -112.5 t107.5 -247.5t-80 -256q-63 -92 -146 -182.5t-121 -134.5t-128 -138t-143 -155.5t-72 -106.5h285l389 10q45 0 73.5 -22.5t28.5 -52.5q0 -76 -102 -76l-389 10l-350 -10q-102 0 -103 94z" />
<glyph unicode="3" horiz-adv-x="1163" d="M117 240q0 23 14 41t35.5 18t37 -11.5t35 -35t44 -46t51 -42t90 -40t141.5 -20.5q141 0 232.5 98.5t91.5 246t-104.5 240.5t-245.5 102q-63 -63 -104.5 -88t-84.5 -25t-66.5 23.5t-23.5 65.5t51 88t154 67q178 197 319 372l-237 9l-311 -11q-45 0 -72 20.5t-27 55.5 t26.5 55.5t72.5 20.5l311 -10l311 8q123 0 123 -94q0 -43 -39 -91.5t-139.5 -148.5t-181.5 -201q199 -41 307 -163.5t108 -303t-130 -326t-357 -145.5q-172 0 -302 94.5t-130 176.5z" />
<glyph unicode="4" horiz-adv-x="1183" d="M51 538.5q0 26.5 3 42t16.5 38t27 43t46 62.5t63.5 79q33 39 199 250l239 305q74 96 143 96q106 0 107 -123q0 -12 -2 -104q-8 -215 -8 -619l116 6q45 0 74 -20.5t29 -55t-28.5 -55t-56.5 -20.5t-134 4l10 -385q0 -47 -21.5 -74.5t-58.5 -27.5t-58.5 27.5t-21.5 74.5 l8 389l-151 2l-449 -8q-43 0 -67.5 23.5t-24.5 50zM236 604h509q4 150 5 367l-5 286q-90 -104 -264.5 -329.5t-244.5 -323.5z" />
<glyph unicode="5" horiz-adv-x="1177" d="M127 285q0 31 17.5 50t44 19t42 -13t34 -45t30.5 -46q123 -145 278.5 -145.5t252 114.5t96.5 260.5t-85 241.5t-229 96q-139 0 -286 -112q-49 -39 -76 -39q-80 0 -80 86q0 23 13.5 138.5t13.5 197t-11.5 157.5t-11.5 103q0 96 113 96l311 -10l291 10q45 0 71.5 -20.5 t26.5 -55.5t-26.5 -55.5t-71.5 -20.5l-291 11q-111 0 -180.5 -4.5t-94.5 -4.5q12 -104 13 -180q0 -125 -13 -235l-4 -37q145 111 301 110q217 0 335 -135t118 -341t-134 -356.5t-362 -150.5q-180 0 -313 109.5t-133 206.5z" />
<glyph unicode="6" horiz-adv-x="1181" d="M127 545q0 379 210 644t531 265q131 0 131 -72q0 -76 -112 -75q-236 0 -402 -168t-196 -400q51 76 145 132.5t209 56.5q201 0 315.5 -139.5t114.5 -332t-122 -340t-345 -147.5t-351 163t-128 413zM289 436q0 -139 95 -237.5t230.5 -98.5t223.5 100.5t88 248t-84 248 t-226.5 100.5t-234.5 -111t-92 -250z" />
<glyph unicode="7" horiz-adv-x="1003" d="M63.5 1368q-0.5 76 102.5 76l332 -10l331 10q123 0 123 -96q0 -41 -35.5 -120t-117.5 -242t-156 -331q-139 -322 -197 -524l-22 -82q-27 -70 -84 -69q-31 0 -50.5 23.5t-19.5 50t3 48t11.5 50t15.5 54t23.5 65.5t29 71t35 85t38.5 91t45 105.5t69 159.5t122.5 275.5 t103.5 235.5l-268 9l-332 -11q-102 0 -102.5 76z" />
<glyph unicode="8" horiz-adv-x="1179" d="M121 369.5q0 158.5 95 265t241 172.5q-123 70 -190.5 148.5t-67.5 199.5t110.5 215t279.5 94t280.5 -95t111.5 -214t-64.5 -197.5t-177.5 -150.5q138 -68 229 -173.5t91 -264t-131 -279.5t-338 -121t-338 121t-131 279.5zM268 385q0 -127 92.5 -204t229.5 -77t229 77 t92 204q0 205 -321 342q-322 -137 -322 -342zM342 1145q0 -78 65.5 -138.5t186.5 -125.5q117 63 180.5 124.5t63.5 139.5t-74 131t-172 53t-174 -53t-76 -131z" />
<glyph unicode="9" horiz-adv-x="1177" d="M104 987.5q0 190.5 128 333.5t345.5 143t345.5 -162.5t128 -412.5q0 -391 -208 -650t-534 -259q-131 0 -131 71q0 76 113 76q240 0 403.5 162t194.5 405q-51 -76 -145.5 -132t-208.5 -56q-201 0 -316 145.5t-115 336zM252 985.5q0 -147.5 84 -248t226.5 -100.5 t234.5 110.5t92 250t-92 237.5t-227.5 98t-226.5 -100t-91 -247.5z" />
<glyph unicode=":" horiz-adv-x="462" d="M135 93q0 48 30 87t74 39t66.5 -31.5t22.5 -80t-30 -88t-73 -39.5t-66.5 32.5t-23.5 80.5zM135 918.5q0 48.5 30 87t74 38.5t66.5 -31.5t22.5 -79.5t-30 -88t-73 -40t-66.5 32.5t-23.5 81z" />
<glyph unicode=";" horiz-adv-x="495" d="M96 -275.5q0 15.5 38 80t38 116.5t-8 90t-8 79t29.5 80t73.5 39t66.5 -32t22.5 -77q0 -139 -70.5 -276t-140.5 -137q-16 0 -28.5 11t-12.5 26.5zM158 918.5q0 48.5 29.5 87t73.5 38.5t66.5 -31.5t22.5 -79.5t-29.5 -88t-72.5 -40t-66.5 32.5t-23.5 81z" />
<glyph unicode="&#x3c;" horiz-adv-x="1112" d="M92 596q0 25 6 39t23.5 30.5t37 29t58.5 31.5t73 35.5t95 46.5t117.5 58.5t127 64.5t101.5 52t68 33q59 27 92 26.5t54.5 -19.5t21.5 -47t-14.5 -45.5t-51.5 -35.5t-78 -35q-152 -61 -212 -90t-91 -43t-49 -22.5t-46 -22.5t-45.5 -23.5t-35.5 -19.5q-35 -23 -35 -37 q0 -33 400 -209q78 -35 116.5 -51t75.5 -37q68 -37 68 -74.5t-21.5 -60.5t-46 -23t-50.5 8.5t-64.5 27t-73.5 38.5q-223 119 -330 169t-145.5 68.5t-77.5 43t-53.5 47t-14.5 47.5z" />
<glyph unicode="=" horiz-adv-x="1212" d="M160 387q0 31 23.5 49.5t60.5 18.5l362 -6l363 6q37 0 60.5 -18.5t23.5 -49.5t-23.5 -49.5t-60.5 -18.5l-363 7l-362 -7q-37 0 -60.5 18.5t-23.5 49.5zM160 682q0 31 23.5 49.5t60.5 18.5q0 -1 362 -7l363 7q37 0 60.5 -18.5t23.5 -49.5t-23.5 -49.5t-60.5 -18.5l-363 7 l-362 -7q-37 0 -60.5 18.5t-23.5 49.5z" />
<glyph unicode="&#x3e;" horiz-adv-x="1112" d="M143 221.5q0 28.5 14.5 46t52.5 38t77 36.5q100 43 308 138t208 122q0 20 -115 80q-29 14 -47 23q-72 31 -116 53t-119.5 54t-116.5 48.5t-78 34.5t-51.5 35.5t-14.5 45.5t21.5 47t44 19t44 -5t58.5 -21.5t68 -32.5t101.5 -52t127 -64.5t117.5 -58.5t95 -46.5t73 -35.5 t58.5 -31.5t37 -29t23.5 -30.5t6 -39t-14.5 -47.5t-53.5 -47t-77.5 -43t-117.5 -55t-136.5 -66.5t-121 -63.5t-99 -53t-74.5 -38.5q-74 -35 -107 -35t-54.5 23t-21.5 51.5z" />
<glyph unicode="?" horiz-adv-x="923" d="M100 1335q0 72 105.5 146.5t234.5 74.5q170 0 275.5 -105t105.5 -265t-127 -293q-53 -57 -106 -111q-127 -127 -127 -246.5t-72 -119.5q-76 0 -76 114q0 156 127 293q53 57 107 111q127 131 127 256q0 98 -71 166.5t-145.5 68.5t-123.5 -24.5t-72 -52.5q-57 -78 -92 -78 t-52.5 19.5t-17.5 45.5zM293 81q0 46 29.5 85t71.5 39t64.5 -31t22.5 -79t-29.5 -87t-71.5 -39t-64.5 33t-22.5 79z" />
<glyph unicode="@" horiz-adv-x="2054" d="M121 446q0 272 117.5 504t329.5 368t472 136q397 0 655.5 -243.5t258.5 -663.5q0 -244 -111.5 -404.5t-271.5 -160.5q-229 0 -268 258q-49 -111 -139.5 -184.5t-216.5 -73.5t-212 81q-152 143 -151 400q0 211 126 367.5t324 156.5q125 0 254 -92q16 92 86 92 q80 0 80 -141q0 -31 -41 -348v-90q0 -289 156 -289q90 0 160.5 104.5t70.5 337t-107.5 409.5t-278.5 263t-376 86q-315 0 -539.5 -256t-224.5 -609.5t195 -571.5t461 -218q111 0 204 25.5t142 55.5t92 55.5t64.5 25.5t38 -17.5t16.5 -44t-42 -65.5t-112.5 -77t-181.5 -65.5 t-231 -27.5q-338 0 -568.5 257t-230.5 660zM727 479.5q0 -153.5 59.5 -261t167 -107.5t196.5 96t140 235v306q-109 104 -244 104t-227 -109.5t-92 -263z" />
<glyph unicode="A" horiz-adv-x="1314" d="M80 50q0 30 18.5 92.5t56.5 173t60 184.5h-37q-98 0 -98 75.5t98 75.5q47 0 84 -2q6 16 268 785q43 122 118 122h1q51 0 79 -29.5t46.5 -75.5t61.5 -177q134 -412 208 -623l91 2q45 0 73.5 -22.5t28.5 -57.5q0 -77 -139 -77h-4q33 -100 48 -147.5t42 -119.5 q53 -147 53 -175.5t-18.5 -51t-51.5 -22.5q-59 0 -90 71q-29 78 -70.5 217.5t-72.5 235.5q-246 6 -342 6t-230 -6q-127 -426 -135 -449q-29 -75 -79 -75h-1q-31 0 -49 20t-18 50zM408 645q115 -6 244.5 -6t236.5 6q-211 678 -236 678q-29 0 -190 -508z" />
<glyph unicode="B" horiz-adv-x="1341" d="M115 127q0 25 15 41t41.5 16t53.5 -14l6 584q0 115 -2 328.5t-2 240.5q-25 -4 -32 -4q-61 0 -62 67q0 45 53.5 83t128.5 59q158 39 284 39t235.5 -37t173.5 -94q122 -114 122 -244q0 -240 -221 -356q145 -41 239.5 -157t94.5 -257q0 -217 -178 -335t-475 -118 q-207 0 -341 44t-134 114zM379 733q0 -451 8 -608q97 -19 197 -19q227 0 362 85t135 243q0 129 -107.5 212t-230.5 104q-178 -31 -242.5 -31t-121.5 14zM379 885q39 20 140.5 20t187.5 -16q43 2 103 31.5t115.5 101.5t55.5 165t-97 166.5t-300 73.5q-90 0 -199 -28 q-6 -109 -6 -514z" />
<glyph unicode="C" horiz-adv-x="1347" d="M117 769q0 335 190.5 566.5t476.5 231.5q170 0 305.5 -63.5t135.5 -143.5q0 -33 -19.5 -51.5t-53.5 -18.5t-80 33t-116.5 66.5t-171.5 33.5q-219 0 -360 -193.5t-141 -456.5t141 -461.5t358 -198.5q100 0 181 21.5t122 46t76 46t53 21.5q56 0 56 -53q0 -66 -146.5 -146 t-343.5 -80q-287 0 -475 232.5t-188 567.5z" />
<glyph unicode="D" horiz-adv-x="1452" d="M117 127q0 25 15 41t42 16t53 -14l6 584l-10 585q-98 0 -98 78q0 70 135 104.5t305 34.5t323.5 -69.5t250.5 -183.5q196 -237 196 -555q0 -310 -190 -535q-92 -111 -240.5 -177.5t-340 -66.5t-319.5 44t-128 114zM381 802q0 -431 12 -677q49 -10 172 -10q291 0 451 186 t160 451.5t-156 453.5q-76 92 -199 147.5t-276 55.5q-76 0 -154 -18q-10 -158 -10 -589z" />
<glyph unicode="E" horiz-adv-x="1204" d="M94 817q0 35 26.5 57.5t60.5 22.5t52 -2q-4 412 -14 498q-24 34 -24 72q0 81 108 81l395 -10l308 10q102 0 102 -77.5t-102 -77.5l-308 10q-233 0 -307 -8q-10 -268 -10 -502q90 -4 143 -4l369 10q47 0 74.5 -21.5t27.5 -58.5q0 -76 -102 -76l-369 11q-57 0 -143 -4v-203 q0 -305 10 -402q144 -8 283 -8l332 10q102 0 102 -77.5t-102 -77.5l-332 10l-359 -10q-92 0 -92 78q0 72 5 241.5t5 433.5q-18 -2 -40 -2q-98 0 -99 76z" />
<glyph unicode="F" horiz-adv-x="1159" d="M92 817q0 35 26.5 57.5t60.5 22.5t52 -2q-4 412 -14 498q-24 34 -24 72q0 81 114 81l389 -10l299 10q111 0 111 -77.5t-111 -77.5l-299 10q-233 0 -307 -8q-10 -268 -10 -502q90 -4 143 -4l346 10q47 0 76 -22.5t29 -57.5t-29 -55.5t-76 -20.5l-346 11q-57 0 -143 -4 l10 -650q0 -119 -83 -119l-1 1q-84 0 -84 118q0 80 5 281t5 364q-18 -2 -41 -2q-98 0 -98 76z" />
<glyph unicode="G" horiz-adv-x="1478" d="M117 769q0 335 195.5 566.5t492.5 231.5q184 0 332.5 -72t148.5 -156q0 -33 -19.5 -51t-52 -18t-72.5 23.5t-76 53t-105.5 53t-155.5 23.5q-227 0 -374.5 -193.5t-147.5 -456.5t141 -461.5t358 -198.5q184 0 306 142t126 400q-102 8 -196 9l-270 -11q-98 0 -99 76 q0 37 27 58.5t72 21.5l270 -10q70 0 162 6t102 6q104 0 104 -90q0 -346 -169.5 -550t-445 -204t-465 233.5t-189.5 568.5z" />
<glyph unicode="H" horiz-adv-x="1470" d="M90 811q0 37 26.5 58.5t71.5 21.5h37l-10 561q0 45 24.5 74.5t59.5 29.5t59.5 -29.5t24.5 -74.5l-10 -567q205 -4 389 -4t334 6l-11 565q0 45 25 74.5t59.5 29.5t59 -29.5t24.5 -74.5l-10 -559h33q45 0 74.5 -23.5t29.5 -58.5t-28.5 -56.5t-75.5 -21.5h-33l10 -649 q0 -45 -24.5 -74.5t-59 -29.5t-59.5 29.5t-25 74.5l11 655q-301 6 -435.5 6t-287.5 -6q0 -332 5 -485.5t5 -184t-24.5 -60t-59.5 -29.5t-59.5 29.5t-24.5 60t2 123.5q8 211 8 542h-37q-98 0 -98 76z" />
<glyph unicode="I" horiz-adv-x="892" d="M76 67.5q0 77.5 102 77.5q23 0 187 -10q10 461 10 632t-10 632q-180 -8 -187 -8q-98 0 -98 75q0 37 26.5 58.5t71.5 21.5l271 -10q70 0 161.5 6t119.5 6t57.5 -23.5t29.5 -58t-28.5 -56t-60.5 -21.5t-196 10q-10 -471 -10 -637t10 -627l181 10q47 0 74.5 -21.5t27.5 -56 t-28.5 -57t-73.5 -22.5l-264 12l-271 -10q-102 0 -102 77.5z" />
<glyph unicode="J" horiz-adv-x="1071" d="M63 186q0 33 19.5 52.5t46.5 19.5t53.5 -22.5t49 -49t69.5 -49t109 -22.5q117 0 199.5 107.5t82.5 342.5l2 201q0 459 -4 635q-23 2 -65 2l-277 -10q-98 0 -98 75q0 35 26.5 57.5t71.5 22.5l270 -10q70 0 162 6t120 6t57.5 -23.5t29.5 -58t-31.5 -56t-78.5 -21.5h-31 q-4 -189 -4 -625l2 -246q0 -279 -129 -409.5t-291 -130.5t-261.5 72.5t-99.5 133.5z" />
<glyph unicode="K" horiz-adv-x="1265" d="M201 84l10 678l-10 688q0 45 24.5 74.5t59 29.5t59.5 -29.5t25 -59t-2 -107.5q-8 -311 -9 -490q61 25 177 25q4 0 96 -6q100 86 183 254t114 325q20 90 84 90q29 0 49 -20t20 -55q0 -137 -110.5 -359.5t-220.5 -330.5q55 -127 159.5 -309.5t157.5 -256.5q49 -59 93 -78.5 t60.5 -18.5t16.5 -11q0 -59 -31.5 -98t-79.5 -39q-78 0 -178 140t-340 595q-100 -18 -149.5 -18t-100.5 10l11 -623q0 -45 -25 -74.5t-59.5 -29.5t-59 29.5t-24.5 74.5z" />
<glyph unicode="L" horiz-adv-x="1114" d="M201 94l10 668l-10 690q0 47 22.5 75.5t61.5 28.5t61.5 -28.5t22.5 -75.5l-11 -690q0 -207 9 -617q84 -10 216 -10t241.5 7.5t139 7.5t57.5 -22t28 -58.5t-28 -58t-75 -21.5l-309 10l-332 -10q-47 0 -75.5 26.5t-28.5 77.5z" />
<glyph unicode="M" horiz-adv-x="1662" d="M201 84l10 678l-10 680q0 53 23.5 78.5t68.5 25.5t76 -71q166 -375 210 -468.5t134 -287t121 -254.5q201 387 368 799q66 160 94.5 221t83.5 61q84 0 84 -104q0 -16 -3 -111.5t-5 -251t-2 -317.5t2 -316.5t5 -250t3 -126t-24.5 -60t-59 -29.5t-59.5 29.5t-25 60t2 127.5 q12 348 13 565v397l-396 -868q-29 -63 -79 -63l-1 -1q-49 0 -77 70q-248 553 -400 870v-405l11 -678q0 -45 -25 -74.5t-59.5 -29.5t-59 29.5t-24.5 74.5z" />
<glyph unicode="N" horiz-adv-x="1415" d="M201 84l10 678l-10 688q0 45 24.5 75.5t61.5 30.5q66 0 98 -55q18 -29 302 -537.5t374 -654.5v453q0 346 -5 510t-5 194.5t24.5 60t59 29.5t59.5 -29.5t25 -60t-2 -129.5q-8 -229 -9 -575l4 -678q0 -47 -25.5 -75.5t-70.5 -28.5t-78 55q-10 16 -75 133 q-199 365 -296.5 529.5t-185.5 325.5t-123 216v-477l11 -678q0 -45 -25 -74.5t-59.5 -29.5t-59 29.5t-24.5 74.5z" />
<glyph unicode="O" horiz-adv-x="1585" d="M117 769q0 333 194.5 565.5t483 232.5t481 -231.5t192.5 -565.5t-194.5 -567.5t-482 -233.5t-481 233.5t-193.5 566.5zM283 773q0 -261 146 -457.5t363.5 -196.5t364 196.5t146.5 457.5t-145.5 452.5t-365 191.5t-364.5 -191.5t-145 -452.5z" />
<glyph unicode="P" horiz-adv-x="1230" d="M117 1386q0 84 161.5 132.5t288.5 48.5q291 0 444.5 -146.5t153.5 -342t-152.5 -337t-389.5 -141.5q-143 0 -256 31l10 -547q0 -45 -24.5 -74.5t-59.5 -29.5t-59.5 29.5t-24.5 61t4 130.5q8 291 8 507t-2 337.5t-5 192.5t-3 85q-25 -4 -33 -4q-61 0 -61 67zM362 1080v-39 q0 -187 5 -271q115 -35 266 -35t266 98.5t115 229.5q0 162 -113.5 262t-320.5 100q-147 0 -211 -36q-7 -91 -7 -309z" />
<glyph unicode="Q" horiz-adv-x="1544" d="M117 769q0 333 189.5 565.5t468 232.5t465.5 -231.5t187 -565.5q0 -219 -83.5 -400.5t-233.5 -285.5q143 -236 156.5 -259.5t13.5 -53t-17.5 -52t-56.5 -22.5t-73 61q-12 20 -60.5 110.5t-81.5 147.5q-102 -47 -221 -47q-279 0 -466 233.5t-187 566.5zM283 773 q0 -261 140 -457.5t349 -196.5q88 0 146 24q-41 70 -85.5 137.5t-58.5 92t-14 53.5t24.5 51.5t61.5 22.5t69 -58l119 -225q109 88 168.5 234.5t59.5 318.5q0 264 -139.5 455.5t-350.5 191.5t-350 -191.5t-139 -452.5z" />
<glyph unicode="R" horiz-adv-x="1302" d="M117 1386q0 84 161.5 132.5t288.5 48.5q281 0 424.5 -132t143.5 -325q0 -131 -83 -251t-227 -179q193 -457 322 -528q37 -20 57 -17q43 6 43 -24q0 -57 -36.5 -94t-84.5 -37q-78 0 -163 114q-123 176 -285 539q-98 -18 -195 -19l-116 15l10 -545q0 -45 -24.5 -74.5 t-59.5 -29.5t-59.5 29.5t-24.5 61t4 130.5q8 291 8 507t-2 337.5t-5 192.5t-3 85q-25 -4 -33 -4q-61 0 -61 67zM362 1060v-61q0 -170 3 -211q92 25 188 25t176 -20q92 18 173 107t81 198q0 145 -104.5 236t-275.5 91t-234 -36q-7 -105 -7 -329z" />
<glyph unicode="S" horiz-adv-x="1138" d="M86 211q0 31 19.5 51.5t50 20.5t68.5 -27t72 -58.5t102.5 -58t152.5 -26.5q143 0 238.5 80.5t95.5 216.5q0 90 -77 168.5t-186.5 141t-219 128t-186.5 158t-77 202.5q0 145 126 252t294 107t287 -57.5t119 -129.5q0 -33 -19.5 -51t-50.5 -18t-61.5 17.5t-56 39t-79 38.5 t-142.5 17t-171 -60t-82 -145t77 -156t186.5 -133.5t219 -131t186.5 -168.5t77 -219q0 -186 -139.5 -313.5t-358.5 -127.5q-170 0 -317.5 81t-147.5 161z" />
<glyph unicode="T" horiz-adv-x="1071" d="M55 1469q0 77 99 77l393 -10l371 12q47 0 75.5 -21.5t28.5 -58t-28.5 -58t-75.5 -21.5l-287 10q-10 -461 -10 -637l10 -678q0 -47 -22.5 -75.5t-61.5 -28.5t-61.5 28.5t-22.5 75.5l10 678q0 178 -10 639l-309 -10q-99 0 -99 78z" />
<glyph unicode="U" horiz-adv-x="1398" d="M186.5 1471.5q-0.5 27.5 22 56t61.5 28.5t61.5 -28.5t22.5 -61t-2 -139.5q-8 -252 -8 -489.5t7 -313t28.5 -157.5t58.5 -134q87 -120 257 -120h3q215 0 291 170q66 147 66 389.5t-5.5 509t-5.5 270.5q0 47 23 75.5t61.5 28.5t61 -28.5t22.5 -75.5q0 -385 -12 -948 q-4 -223 -133 -379t-368.5 -156t-367.5 157t-132 380q-12 938 -12.5 965.5z" />
<glyph unicode="V" horiz-adv-x="1280" d="M51 1465q0 44 21.5 67.5t56.5 23.5q59 0 90 -75q2 -4 46 -139.5t104.5 -318.5t124.5 -368q152 -438 166 -438t103 274.5t196.5 628t107.5 355.5q25 81 85 81h1q37 0 56.5 -22.5t19.5 -53t-27.5 -118.5t-94.5 -285.5t-168 -511.5t-179 -504q-31 -82 -104 -82v1 q-74 0 -105 75q-98 256 -201.5 543t-149.5 413t-68.5 186t-45.5 122q-35 102 -35 146z" />
<glyph unicode="W" horiz-adv-x="1861" d="M55 1470q1 40 21 62q20 24 51 24q61 0 90 -73q2 -4 92 -328q262 -938 287 -938t172 547q59 221 68 250q29 104 103.5 104t102.5 -98q4 -12 68 -238q164 -565 182 -565q14 0 143.5 469t213.5 789q23 81 83 81h1q67 0 67 -79v-2q0 -49 -49 -216t-90 -307 q-205 -694 -266 -882q-33 -90 -108 -90t-107 83q-8 23 -67.5 226t-116 382t-64.5 179t-63.5 -180.5t-113 -382t-63.5 -217.5q-35 -90 -106.5 -90t-104.5 83q-35 109 -152.5 500t-176.5 567q-97 299 -97 340z" />
<glyph unicode="X" horiz-adv-x="1280" d="M68 1438q0 57 31.5 91t76.5 34t81 -25t89 -102q53 -90 285 -518q102 170 214.5 365.5t139.5 234t66 38.5t59 -22.5t20 -46t-19 -60t-73 -120.5q-176 -279 -321 -512q281 -469 370 -580q39 -49 75 -69.5t54.5 -18.5t28.5 -2t10 -25q0 -57 -32.5 -92t-77.5 -35 q-78 0 -170 129q-100 147 -348 555q-186 -297 -279.5 -455.5t-103.5 -172.5q-35 -49 -80 -49q-82 0 -82 71q0 33 18.5 62.5t86 132t171 259.5t183.5 281q-190 348 -305 539q-33 45 -67 64.5t-54 17.5h-9q-38 0 -38 31z" />
<glyph unicode="Y" horiz-adv-x="1134" d="M31 1486.5q0 24.5 18.5 47t49 22.5t51 -16t45 -57t47.5 -86q154 -315 333 -596q188 297 314 555q14 31 31.5 62.5t26.5 50t20.5 36t18.5 25.5t18 14q14 12 39.5 12t43 -18t17.5 -41.5t-6 -45t-26.5 -60.5t-40 -73t-65.5 -112t-83 -143l-240 -420q0 -285 5 -418t5 -143 q0 -102 -84 -102t-84 102q0 14 2 94q8 186 9 467l-226 395q-39 68 -82 140l-67 112q-68 115 -79 143.5t-11 53z" />
<glyph unicode="Z" horiz-adv-x="1163" d="M70 72q0 27 16 53.5t78 124.5q172 270 399.5 650t286.5 493l-277 8l-372 -10q-47 0 -76 21.5t-29 57.5q0 76 105 76l372 -10l388 12q43 0 73.5 -19.5t30.5 -58t-16.5 -66.5t-65.5 -106q-309 -489 -490.5 -801.5t-207.5 -355.5q123 -6 299 -6l409 12q47 0 75 -21.5 t28 -59.5q0 -78 -103 -78l-409 12l-414 -10q-100 0 -100 82z" />
<glyph unicode="[" horiz-adv-x="712" d="M156 -398.5q0 23.5 6 329t6 612.5t-6 612t-6 328.5t23.5 42t60.5 18.5l157 -8l178 6q37 0 60.5 -18.5t23.5 -49t-23.5 -49t-60.5 -18.5l-178 6h-90q-12 -700 -12 -870t12 -871h90l178 6q37 0 60.5 -18t23.5 -49t-23.5 -49.5t-60.5 -18.5l-178 6l-157 -8q-37 0 -60.5 18.5 t-23.5 42z" />
<glyph unicode="\" horiz-adv-x="743" d="M117 1470q0 86 73 86q63 0 82 -86q6 -25 27 -141q102 -545 191.5 -929t114 -491t24.5 -138q0 -82 -74 -82q-66 0 -82 86q-6 25 -27 141q-111 600 -194.5 954.5t-109 463t-25.5 136.5z" />
<glyph unicode="]" horiz-adv-x="712" d="M53 -389q0 31 23.5 49t60.5 18l178 -6h91q12 700 12 870.5t-12 870.5h-91l-178 -6q-37 0 -60.5 18.5t-23.5 49t23.5 49t60.5 18.5l178 -6l158 8q37 0 60.5 -18.5t23.5 -42t-6 -328.5t-6 -612t6 -612.5t6 -329t-23.5 -42t-60.5 -18.5l-158 8l-178 -6q-37 0 -60.5 18.5 t-23.5 49.5z" />
<glyph unicode="^" horiz-adv-x="1067" d="M86 813q0 25 25.5 74t86 150.5t91 154.5t67.5 123q96 178 105 194q27 47 75 47t74 -45q78 -156 217.5 -394t148.5 -263t9 -44t-19.5 -37.5t-54 -18.5t-61.5 49q0 6 -77 150.5t-122 229.5t-77.5 139t-41 54t-41 -54t-77.5 -139t-86 -163q-113 -211 -113 -217 q-27 -49 -61.5 -49t-51 17t-16.5 42z" />
<glyph unicode="_" horiz-adv-x="1179" d="M102 -389q0 31 24 49t60 18q1 0 404 -6l403 6q37 0 60.5 -18t23.5 -49t-23.5 -49.5t-60.5 -18.5l-403 6l-404 -6q-37 0 -60.5 18.5t-23.5 49.5z" />
<glyph unicode="`" horiz-adv-x="583" d="M143 1479q0 31 18.5 54t55.5 23t60.5 -28.5t45 -80.5t37 -71.5t37.5 -46.5q43 -47 43 -72q0 -43 -55 -43t-148.5 88.5t-93.5 176.5z" />
<glyph unicode="a" horiz-adv-x="1169" d="M98 489q0 223 129 389t332 166q154 0 266 -104q0 104 78 104q94 0 94 -144t-41 -404q0 -154 22.5 -251.5t53.5 -109.5q12 -6 29.5 -8t25 -6t7.5 -17q0 -55 -30 -89.5t-89.5 -34.5t-92 75.5t-32.5 194.5q-51 -115 -150.5 -192.5t-223.5 -77.5t-214 81q-164 150 -164 428z M244 501q0 -169 62.5 -278.5t177 -109.5t209 102t145.5 262l-11 316q-122 119 -256 119h-1q-134 0 -230 -121t-96 -290z" />
<glyph unicode="b" horiz-adv-x="1130" d="M135 124q0 144 41 404q0 139 -18.5 525.5t-18.5 417t21.5 58t58.5 27.5t58.5 -27.5t22.5 -74.5v-647q55 104 148 170.5t212.5 66.5t207.5 -81q166 -149 166 -428q0 -223 -129 -389t-332 -166q-154 0 -266 104q0 -104 -78 -104q-94 0 -94 144zM295 547l10 -316 q122 -119 256 -119h1q134 0 230.5 121t96.5 290t-62.5 278.5t-177 109.5t-209 -102t-145.5 -262z" />
<glyph unicode="c" horiz-adv-x="1042" d="M94 512q0 225 144.5 384t379.5 159q129 0 228.5 -58.5t99.5 -119.5q0 -33 -20.5 -54.5t-47 -21.5t-61.5 30q-106 90 -217 91q-141 0 -246.5 -119t-105.5 -289t106.5 -291t263.5 -121q121 0 236 82q39 27 59 27q52 0 52 -55q0 -54 -119 -120t-250 -67q-215 0 -358.5 159 t-143.5 384z" />
<glyph unicode="d" horiz-adv-x="1204" d="M96 489q0 223 135.5 389t346.5 166q154 0 290 -100q4 285 4 417t19.5 163.5t63.5 31.5t72 -35.5t28 -105t-8.5 -171t-24.5 -268.5t-27 -302q0 -250 18.5 -391.5t71.5 -151.5q53 0 54 -31q0 -39 -28 -79.5t-87 -40.5t-93 65.5t-48 208.5q-150 -274 -379 -274 q-133 0 -229.5 86t-137.5 198.5t-41 224.5zM248 507q0 -163 71.5 -278.5t194.5 -115.5q215 0 354 354v326q-122 118 -287 118h-3q-131 0 -230.5 -120.5t-99.5 -283.5z" />
<glyph unicode="e" horiz-adv-x="1103" d="M49 586q0 31 17.5 48t42 17t61.5 -18q45 184 171 303t291 119t268.5 -92.5t103.5 -240t-128 -224t-315 -76.5q-106 0 -260 31q12 -143 107.5 -247t212.5 -104q70 0 129 19.5t90 42.5q82 63 107.5 63t41 -15t15.5 -38q0 -57 -118 -131t-255 -74q-213 0 -338 149.5 t-135 360.5q-109 33 -109 107zM303 584q113 -33 251 -33t221 47t83 127t-54 138.5t-155 58.5q-135 0 -227 -101.5t-119 -236.5z" />
<glyph unicode="f" horiz-adv-x="669" d="M41 963q0 33 22.5 49t55.5 16l102 -4v174q0 190 75 274t173 84t162.5 -37.5t64.5 -80.5q0 -68 -57 -68q-27 0 -70 24.5t-84 24.5q-127 0 -127 -239v-156l199 4q33 0 55.5 -16.5t22.5 -48.5q0 -61 -78 -62l-199 4v-137q0 -283 6.5 -475.5t6.5 -224t-21.5 -60t-58.5 -28.5 t-58.5 28.5t-21.5 60t2 128.5q10 289 10 571v137l-104 -4q-78 0 -78 62z" />
<glyph unicode="g" horiz-adv-x="1142" d="M96 507.5q0 203.5 138.5 370t340.5 166.5q141 0 256 -96q4 96 78 96q95 0 95 -147q0 -144 -41 -401q24 -240 24 -363v-10q0 -268 -126 -431t-353 -163q-127 0 -239.5 52t-112.5 104.5t47 52.5q18 0 105 -38t200 -38q164 0 258 123t94 317q0 80 -10 148 q-45 -111 -146.5 -190.5t-209 -79.5t-183 47t-123.5 123q-92 154 -92 357.5zM248 501q0 -167 63.5 -277.5t175 -110.5t206 104t143.5 262v314q-113 119 -248 119h-1q-136 -1 -237.5 -122.5t-101.5 -288.5z" />
<glyph unicode="h" horiz-adv-x="1181" d="M135 124q0 144 41 404q0 139 -18.5 525.5t-18.5 417t21.5 58t58.5 27.5t58.5 -27.5t22.5 -74.5v-670q150 260 368 260q164 0 254 -116.5t90 -282.5l-11 -321q0 -57 1.5 -87t12.5 -62t27.5 -39t34 -9t24.5 -6t7 -17q0 -53 -34 -88.5t-79 -35.5q-78 0 -107.5 61t-29.5 180 l8 377q0 139 -59 225t-164.5 86t-204 -116.5t-137.5 -264.5l6 -444q0 -104 -78 -104q-94 0 -94 144z" />
<glyph unicode="i" horiz-adv-x="458" d="M137 1366q0 47 30 83t73 36t63.5 -27.5t20.5 -69.5t-29 -84t-72 -42t-64.5 28.5t-21.5 75.5zM152 82l10 430l-10 430q0 102 77.5 102t77.5 -102l-10 -430l10 -430q0 -102 -77.5 -102t-77.5 102z" />
<glyph unicode="j" horiz-adv-x="456" d="M-14 -348q0 29 88 115q35 33 62.5 105.5t27.5 168.5l-2 430l-10 471q0 102 77.5 102t77.5 -102l-10 -471l-2 -451q0 -176 -89 -291.5t-165 -115.5q-55 0 -55 39zM137 1366q0 47 30 83t73 36t63.5 -27.5t20.5 -69.5t-29 -84t-72 -42t-64.5 28.5t-21.5 75.5z" />
<glyph unicode="k" horiz-adv-x="1044" d="M135 124q0 144 41 404q0 139 -18.5 525.5t-18.5 417t21.5 58t58.5 27.5t58.5 -27.5t22.5 -74.5v-670q150 260 368 260q119 0 190.5 -69.5t71.5 -169.5q0 -168 -174 -287q-39 -27 -101 -65l152 -234q39 -59 82 -77.5t64.5 -18.5t21.5 -19q0 -49 -31 -86.5t-74 -37.5 t-66.5 13t-51 51t-52.5 79q-119 195 -182 285q-53 0 -88 29.5t-35 70.5t28 67.5t73 26.5t92 -51q78 35 138 106.5t60 129t-31.5 90t-95.5 32.5q-115 0 -217 -115.5t-141 -265.5l6 -444q0 -104 -78 -104q-94 0 -94 144z" />
<glyph unicode="l" horiz-adv-x="458" d="M152 82l10 686l-10 686q0 102 77.5 102t77.5 -102l-10 -686l10 -686q0 -102 -77.5 -102t-77.5 102z" />
<glyph unicode="m" horiz-adv-x="1796" d="M139 124q0 144 41 404q0 86 -17.5 238t-17.5 187.5t21.5 63t58.5 27.5t58.5 -27.5t21.5 -62t-1 -85t-1 -85.5q139 260 348 260q121 0 198 -70.5t105 -189.5q139 260 349 260q154 0 238.5 -116.5t84.5 -282.5l-10 -321q0 -57 1 -87t12 -62t27.5 -39t34 -9t24.5 -6t7 -17 q0 -53 -33.5 -88.5t-78.5 -35.5q-78 0 -107.5 61t-29.5 180l8 377q0 139 -54.5 225t-151.5 86t-189.5 -116.5t-129.5 -264.5l7 -444q0 -104 -78 -104q-94 0 -94 144t40 404q0 381 -208 381q-96 0 -188.5 -116.5t-129.5 -264.5l6 -444q0 -104 -78 -104q-94 0 -94 144z" />
<glyph unicode="n" horiz-adv-x="1185" d="M139 124q0 144 41 404q0 86 -17.5 238t-17.5 187.5t21.5 63t58.5 27.5t58.5 -27.5t21.5 -62t-1 -85t-1 -85.5q150 260 369 260q164 0 254 -116.5t90 -282.5l-10 -321q0 -57 1 -87t12 -62t27.5 -39t34 -9t24.5 -6t7 -17q0 -53 -34 -88.5t-79 -35.5q-78 0 -107.5 61 t-29.5 180l8 377q0 139 -59 225t-164.5 86t-204 -116.5t-137.5 -264.5l6 -444q0 -104 -78 -104q-94 0 -94 144z" />
<glyph unicode="o" d="M94 510q0 227 136.5 386t346 159t345 -157t135.5 -384t-137.5 -386t-346 -159t-344 157t-135.5 384zM240 510q0 -170 95 -289t236.5 -119t240.5 121t99 291t-95 289t-236.5 119t-240.5 -121t-99 -291z" />
<glyph unicode="p" horiz-adv-x="1167" d="M113 -331.5q0 67.5 8 160.5t24.5 245.5t26.5 275.5v39l2 78v33q0 86 -18.5 252t-18.5 201.5t21.5 63t58.5 27.5t58.5 -27.5t21.5 -62t-1 -87t-1 -87.5q68 125 151.5 194.5t217 69.5t229.5 -86t137 -198.5t41 -224.5q0 -223 -135 -389t-346 -166q-154 0 -291 100 q-4 -248 -4 -368t-20.5 -151.5t-63.5 -31.5t-70.5 36t-27.5 103.5zM299 231q122 -118 288 -118h3q131 0 230.5 120.5t99.5 283.5t-72 278.5t-195 115.5q-215 0 -354 -354v-326z" />
<glyph unicode="q" horiz-adv-x="1132" d="M98 489q0 223 129 389t332 166q154 0 266 -104q0 104 78 104q94 0 94 -144t-41 -404q0 -129 18.5 -489.5t18.5 -391.5t-21.5 -58.5t-58 -27.5t-58 27.5t-21.5 74.5v586q-55 -104 -148.5 -170.5t-213.5 -66.5t-210 81q-164 149 -164 428zM244 501q0 -169 62.5 -278.5 t177 -109.5t208.5 102t146 262l-11 316q-122 119 -256 119h-1q-134 -1 -230 -121.5t-96 -289.5z" />
<glyph unicode="r" horiz-adv-x="835" d="M139 124q0 144 41 404q0 86 -17.5 235.5t-17.5 186.5t21.5 65.5t58.5 28.5t58.5 -28.5t21.5 -62t-1 -86t-1 -87.5q41 104 128 184t179 80t142.5 -37.5t50.5 -80.5t-22.5 -67.5t-58.5 -24.5t-78 37.5t-66 37.5q-68 0 -158 -145t-115 -295l6 -385q0 -104 -78 -104 q-94 0 -94 144z" />
<glyph unicode="s" horiz-adv-x="931" d="M74 197q0 31 18.5 50t42 19t37.5 -9t39 -35.5t44 -45t79.5 -41t111.5 -22.5q113 0 186 46t73 134q0 106 -205 178q-84 29 -169 62.5t-144.5 93t-59.5 141.5q0 111 100.5 193.5t245.5 82.5t230 -50t85 -105q0 -68 -71 -68q-31 0 -62 23q-95 68 -183 68h-1 q-88 0 -143.5 -40.5t-55.5 -92.5t59.5 -89t144.5 -67.5t171 -68.5t145.5 -104.5t59.5 -154.5q0 -139 -113.5 -227t-272.5 -88t-275.5 72.5t-116.5 144.5z" />
<glyph unicode="t" horiz-adv-x="690" d="M41 960.5q0 67.5 102 67.5q8 0 90 -4l-4 229q0 103 78 103h1q77 0 77 -103l-6 -231l166 8q102 0 102 -69q0 -66 -102 -66q-18 0 -170 4l-4 -485q0 -186 15 -243.5t81 -57.5q31 0 75 21.5t58 21.5q43 0 43 -42t-75.5 -88t-149.5 -46q-178 0 -178 262l-2 657q-68 -6 -95 -6 q-102 0 -102 67.5z" />
<glyph unicode="u" horiz-adv-x="1196" d="M127 962.5q0 30.5 24.5 56t63.5 25.5h1q93 0 93 -167l-16 -451q0 -139 59.5 -226t165 -87t203.5 117.5t137 265.5l-6 444q0 104 78 104q94 0 94 -144t-41 -404q0 -154 22.5 -251.5t53.5 -109.5q12 -6 29.5 -8t24.5 -6t7 -17q0 -55 -33.5 -89.5t-85.5 -34.5 q-129 0 -129 262q-152 -262 -380 -262q-164 0 -254.5 121.5t-90.5 297.5l13 310q0 82 -16.5 152.5t-16.5 101z" />
<glyph unicode="v" horiz-adv-x="993" d="M47 972q0 34 20.5 53t51.5 19q55 0 84 -71q10 -25 60 -179.5t72.5 -215t47.5 -130t38 -108.5t31.5 -86t30 -68.5t17.5 -21.5t17 21.5t29.5 68.5t32 84t39.5 108l35 101q33 90 82 244.5t60 179.5q29 73 78 73h1q31 0 52.5 -19t21.5 -47t-17.5 -74t-63.5 -163.5 t-131 -355.5t-128 -321.5t-113.5 -83.5t-107.5 73q-14 29 -106.5 271.5t-123 320.5t-48 121t-31.5 86q-31 86 -31 120z" />
<glyph unicode="w" horiz-adv-x="1609" d="M51 971q0 33 21.5 53t52.5 20q59 0 82 -71q8 -25 54 -179.5t65.5 -217t40 -128t34 -106.5t29.5 -88q29 -90 39 -90q18 0 133 389t127 418q29 74 91 74v-1q62 0 87 -71q23 -70 62 -215.5t57 -208.5q113 -385 132.5 -385t133.5 383q27 88 68 239.5t49 178.5q25 79 75 79h1 q31 0 52.5 -18t21.5 -44t-5.5 -47.5t-18.5 -61t-27.5 -85t-42 -126t-95 -293.5t-106.5 -312q-31 -78 -112 -78l-1 1q-82 0 -119 106q-74 213 -141.5 449.5t-83.5 236.5q-14 0 -38 -81t-37 -127t-17 -62q-109 -377 -148 -451q-35 -72 -111 -72l-2 1q-78 0 -116 112 q-14 41 -58 176t-72 218t-55.5 161t-44 123t-30.5 88q-27 80 -27 113z" />
<glyph unicode="x" horiz-adv-x="1007" d="M57 934q0 51 28 86t77 35t94 -53.5t119 -165t82 -124t21.5 -33t25.5 -38.5q229 346 235 354q35 49 65 49t50 -21.5t20 -47t-24.5 -65.5t-114.5 -161.5t-155 -211.5l208 -314q53 -70 99.5 -94.5t66 -24.5t19.5 -10q0 -51 -30 -88t-61.5 -37t-50 7.5t-39 28t-39 42 t-48 64.5t-55 80.5t-70.5 105.5t-84 125q-86 -125 -175.5 -259t-111 -158.5t-47 -24.5t-47 19t-21.5 44t6 41t31 50t55 75q86 111 234 326l-176 262q-43 55 -82 83.5t-60 30.5q-45 4 -45 23z" />
<glyph unicode="y" horiz-adv-x="1163" d="M127 962.5q0 30.5 24.5 56t63.5 25.5q94 0 94 -167l-16 -451q0 -139 59.5 -226t165 -87t203.5 118t137 265l-6 444q0 104 78 104q94 0 94 -153q0 -121 -43 -395q25 -250 25 -373q0 -268 -131.5 -431t-368.5 -163q-127 0 -239.5 52t-112.5 104.5t47 52.5q20 0 113.5 -38 t191.5 -38q172 0 272.5 123t100.5 317q0 72 -7 140q-152 -262 -380 -262q-164 0 -254.5 121.5t-90.5 297.5l13 310q0 82 -16.5 152.5t-16.5 101z" />
<glyph unicode="z" horiz-adv-x="978" d="M72 61q0 53 71 136q125 145 220.5 275t144.5 194.5t74 97.5q66 92 86 131q-154 6 -174 6l-299 -10q-103 0 -103 72q0 71 103 71l299 -10l290 10q98 0 99 -71q0 -45 -38 -94.5t-73 -90.5q-92 -109 -243.5 -312.5t-243.5 -338.5q123 -4 217 -4l307 10q102 0 102 -71.5 t-102 -71.5l-307 10l-332 -10q-98 0 -98 71z" />
<glyph unicode="{" horiz-adv-x="628" d="M29 525q0 50 32.5 83t79.5 33t72 -12q25 31 45.5 121t20.5 173t-15.5 219t-15.5 189q0 106 66.5 165.5t154.5 59.5q35 0 55.5 -21.5t20.5 -53t-22.5 -53t-53.5 -21.5q-78 0 -78 -96q0 -31 15.5 -160t15.5 -233q0 -236 -100 -367q35 -45 51 -75t31.5 -109.5t15.5 -193.5 t-15.5 -243t-15.5 -159q0 -92 78 -93q31 0 53.5 -21.5t22.5 -53t-20.5 -53t-55.5 -21.5q-88 0 -154.5 57.5t-66.5 163.5q0 53 15 189.5t15 226.5t-15 174t-48 100q-41 -18 -81 -18t-71.5 26.5t-31.5 76.5z" />
<glyph unicode="|" horiz-adv-x="450" d="M154 -451q0 27 2 166q8 326 8 807l-8 1014q0 102 69.5 102t69.5 -102l-8 -1014q0 -481 5 -713.5t5 -259.5q0 -102 -71.5 -102t-71.5 102z" />
<glyph unicode="}" horiz-adv-x="628" d="M84 1481.5q0 31.5 20.5 53t55.5 21.5q88 0 154.5 -59t66.5 -166q0 -53 -15.5 -189t-15.5 -219t20.5 -173.5t45.5 -120.5q25 12 72 12t79.5 -33t32.5 -83t-31.5 -76.5t-71.5 -26.5t-81 18q-33 -16 -48.5 -100t-15.5 -174t15.5 -226.5t15.5 -189.5q0 -106 -66.5 -163.5 t-154.5 -57.5q-35 0 -55.5 21.5t-20.5 53t22.5 53t53.5 21.5q78 0 78 93q0 31 -15.5 159.5t-15.5 242.5t15.5 193.5t31.5 109.5t51 75q-100 131 -100 367q0 104 15.5 233t15.5 160q0 96 -78 96q-31 0 -53.5 21.5t-22.5 53z" />
<glyph unicode="~" horiz-adv-x="1130" d="M121 487q0 66 88 125.5t191.5 59.5t215 -59.5t159.5 -59.5t83 25.5t59.5 51t47.5 25.5q47 0 47 -53t-74 -114.5t-152.5 -61.5t-188.5 59.5t-170 59.5t-124.5 -62.5t-102.5 -62.5t-58.5 19.5t-20.5 47.5z" />
<glyph unicode="&#xa1;" horiz-adv-x="450" d="M131 990q0 48 29.5 87t71.5 39t64.5 -32.5t22.5 -79t-29.5 -85t-71.5 -38.5t-64.5 30.5t-22.5 78.5zM143 -369q0 12 7.5 193.5t7.5 302.5l-6 434q0 102 73.5 102t73.5 -102l-6 -434q0 -121 7 -302t7 -194q0 -102 -82 -102t-82 102z" />
<glyph unicode="&#xa2;" horiz-adv-x="1093" d="M117 510q0 199 111.5 348.5t301.5 185.5q-2 86 -2 181.5t70 95.5t70 -104l-4 -164q123 -6 214 -62.5t91 -113.5q0 -33 -20.5 -54.5t-47.5 -21.5t-95.5 54t-143.5 65q-2 -106 -2.5 -347t4.5 -471q88 6 172 57.5t100 51.5q51 0 51 -51t-100.5 -113.5t-220.5 -75.5l4 -143 q0 -104 -72 -104t-72 104q0 76 2 149q-182 33 -296.5 183.5t-114.5 349.5zM270 516q0 -139 72.5 -248.5t189.5 -148.5q4 225 4.5 357t-0.5 258t-1 173q-113 -35 -189 -143.5t-76 -247.5z" />
<glyph unicode="&#xa3;" horiz-adv-x="1097" d="M123 725q0 31 23.5 49.5t44 18.5t46 -1t46.5 -1q-6 29 -25 110q-35 152 -35 223q0 143 103.5 241.5t289.5 98.5q111 0 214.5 -57t105.5 -119q0 -23 -16.5 -43t-48 -20t-109.5 52t-172 52t-156.5 -53t-62.5 -143.5t51 -346.5l326 7q37 0 60 -18.5t23 -49.5t-23 -49.5 t-60 -18.5l-308 7q4 -82 3 -145.5t-22.5 -140.5t-43 -122t-64.5 -123q68 -2 206 -2t248 7t139.5 7t57 -20.5t27.5 -57t-27.5 -57t-74.5 -20.5l-309 10l-332 -10q-47 0 -76 26.5t-29 70.5t40 106.5t81 151.5t42 165t-3 149l-96 -2q-37 0 -60.5 18.5t-23.5 49.5z" />
<glyph unicode="&#xa4;" horiz-adv-x="1312" d="M127 165q0 34 41 71l125 120q-59 106 -59.5 239.5t61.5 244.5q-115 111 -127 125q-41 45 -41 74.5t22.5 52t56.5 22.5t70 -41l113 -117q115 98 267.5 98.5t269.5 -96.5l108 115q45 39 76 39t52.5 -21.5t21.5 -55.5t-41 -70q-60 -60 -123 -119q63 -111 63 -247t-63 -247 l123 -116q41 -37 41 -71t-22.5 -56.5t-52.5 -22.5t-62.5 29.5t-118.5 122.5q-115 -98 -272.5 -98.5t-270.5 100.5l-109 -113q-45 -39 -75.5 -39t-52 21.5t-21.5 55.5zM375 595q0 -134 81 -227.5t199.5 -93.5t203.5 96.5t85 230.5t-81 227.5t-199.5 93.5t-203.5 -96.5 t-85 -230.5z" />
<glyph unicode="&#xa5;" horiz-adv-x="1198" d="M108.5 1395.5q0.5 29.5 21 49t44 19.5t36.5 -5t26.5 -20.5t23.5 -29.5t26.5 -43t27 -51.5t32 -65.5t107.5 -216t147 -269q53 80 190.5 358.5t160 310t56 31.5t55 -19.5t21.5 -36.5t-1 -24.5t-3 -15.5t-9 -21.5t-14 -26.5t-22.5 -39t-31 -52.5t-42 -72.5t-53.5 -93 l-182 -322q166 6 222.5 6.5t80 -17t23.5 -48.5t-23.5 -48.5t-93.5 -17.5t-266 7v-162l299 6q37 0 60.5 -17.5t23.5 -48t-23.5 -48t-90.5 -17.5t-269 6l6 -260q0 -102 -80 -102t-80 102l8 260q-190 -6 -253.5 -6t-87 17.5t-23.5 48t23.5 48t60.5 17.5l280 -6v162 q-190 -6 -253.5 -6.5t-87 17t-23.5 48.5t23.5 48.5t49.5 17.5q78 0 232 -7l-168 297q-88 152 -118 202t-46 79q-23 47 -22.5 76.5z" />
<glyph unicode="&#xa6;" horiz-adv-x="475" d="M166 -377l10 303l-8 310q0 88 68 88q72 0 71 -88l-8 -310l10 -303q0 -43 -19.5 -68.5t-53.5 -25.5q-70 0 -70 94zM166 788l10 304l-8 309q0 88 68 88q72 0 71 -88l-8 -309l10 -304q0 -43 -19.5 -68.5t-53.5 -25.5q-70 0 -70 94z" />
<glyph unicode="&#xa7;" horiz-adv-x="1097" d="M111 -279q0 29 17 45.5t44 16.5t55.5 -20.5t54 -44t80 -44t121.5 -20.5q115 0 194 69.5t79 180.5q0 76 -64.5 147.5t-156 130t-182.5 118.5t-155.5 140t-64.5 183.5t76 187.5t203 113q-205 164 -205 307t107.5 239.5t253 96.5t243.5 -47t98 -111q0 -25 -16 -41t-41 -16 t-57 20q-98 59 -197.5 59.5t-163 -52t-63.5 -132.5t64.5 -149.5t155.5 -128t182 -120t155.5 -146.5t64.5 -188t-57 -193.5t-152 -141.5q135 -125 135.5 -278.5t-123.5 -268t-313 -114.5q-133 0 -252.5 67.5t-119.5 134.5zM285 618q0 -74 84 -145q59 -49 158.5 -114.5 t138.5 -92.5q79 29 127.5 97.5t48.5 160.5t-113 184.5t-213 92.5t-165.5 -51.5t-65.5 -131.5z" />
<glyph unicode="&#xa8;" horiz-adv-x="800" d="M143 1366q0 47 30 83t73 36t63.5 -27.5t20.5 -69.5t-29 -84t-72 -42t-64.5 28.5t-21.5 75.5zM471 1366q0 47 29.5 83t72.5 36t63.5 -27.5t20.5 -69.5t-28.5 -84t-71.5 -42t-64.5 28.5t-21.5 75.5z" />
<glyph unicode="&#xa9;" horiz-adv-x="1548" d="M131 905.5q0 270.5 188.5 460.5t454.5 190t454.5 -190t188.5 -460.5t-188.5 -461t-454.5 -190.5t-454.5 190.5t-188.5 461zM254 905q0 -225 151.5 -384t366.5 -159t367.5 159t152.5 384t-152.5 384t-367.5 159t-366.5 -159t-151.5 -384zM418 905q0 164 102 279.5 t264 115.5q86 0 158 -33.5t72 -78.5q0 -57 -56 -58q-16 0 -66 29t-97 29q-119 0 -185.5 -85t-66.5 -202t72.5 -198.5t179.5 -81.5q57 0 118.5 25.5t73.5 25.5q45 0 45 -47q0 -33 -71.5 -75t-176.5 -42q-156 0 -261 116.5t-105 280.5z" />
<glyph unicode="&#xaa;" horiz-adv-x="839" d="M96 1123q0 128 82 229.5t207 101.5q90 0 156 -65q10 66 67 65q68 0 68 -117q0 -18 -25 -219q0 -45 13 -114q12 -82 49 -91q8 -2 14 -4q14 -2 14 -10q0 -43 -25.5 -69.5t-68.5 -26.5q-80 0 -96 164q-27 -68 -87.5 -116t-131.5 -48q-111 0 -173.5 96t-62.5 224zM215 1121 q0 -91 34 -150.5t92 -59.5t117.5 64.5t86.5 150.5l-6 150q-66 66 -144 65.5t-129 -65t-51 -155.5z" />
<glyph unicode="&#xab;" horiz-adv-x="1038" d="M90 717.5q0 25.5 16.5 48t69.5 71t75.5 71t52.5 55t44 45.5q35 37 66.5 36.5t50 -19.5t18.5 -47t-19.5 -48.5t-61.5 -50t-62 -48.5q-98 -88 -98 -116.5t98 -116.5q20 -18 62 -48t61.5 -50.5t19.5 -48t-18.5 -47t-42 -19.5t-43 11.5t-32.5 24.5t-43 46t-53.5 56.5t-60 57 t-54 50t-32 39t-14.5 48zM518 717.5q0 25.5 16.5 48t69.5 71t75.5 71t52.5 55l42 45.5q37 37 68.5 36.5t50 -19.5t18.5 -47t-19.5 -48.5t-61.5 -50t-62 -48.5q-98 -88 -98 -116.5t98 -116.5q20 -18 62 -48t61.5 -50.5t19.5 -48t-18.5 -47t-42 -19.5t-43 11.5t-32.5 24.5 t-43 46t-53.5 56.5t-60 57t-54 50t-32 39t-14.5 48z" />
<glyph unicode="&#xac;" horiz-adv-x="1298" d="M160 534.5q0 30.5 22.5 49t61.5 18.5l403 -6l404 6q88 0 88 -88l-4 -123l4 -123q0 -37 -20.5 -60.5t-51.5 -23.5t-51.5 23.5t-20.5 60.5l6 123v78q-160 4 -354 4l-403 -6q-39 0 -61.5 18.5t-22.5 49z" />
<glyph unicode="&#xad;" horiz-adv-x="876" d="M135 534.5q0 30.5 23.5 49t60.5 18.5l219 -6l219 6q37 0 60.5 -18.5t23.5 -49t-23.5 -49t-60.5 -18.5l-219 6l-219 -6q-37 0 -60.5 18.5t-23.5 49z" />
<glyph unicode="&#xae;" horiz-adv-x="1548" d="M131 905.5q0 270.5 188.5 460.5t454.5 190t454.5 -190t188.5 -460.5t-188.5 -461t-454.5 -190.5t-454.5 190.5t-188.5 461zM254 905q0 -225 151.5 -384t366.5 -159t367.5 159t152.5 384t-152.5 384t-367.5 159t-366.5 -159t-151.5 -384zM494 1221q0 96 251 96 q147 0 224.5 -74t77.5 -166q0 -147 -166 -225q20 -33 37 -66q35 -59 59 -90q35 -51 86 -51q14 0 14 -10q0 -39 -25.5 -66.5t-59.5 -27.5t-63.5 27.5t-49 60.5t-54 95t-59.5 101q-49 -8 -74.5 -8t-75.5 8q6 -147 6.5 -193t-18 -69.5t-47.5 -23.5q-61 0 -61 77l8 324zM610 948 q41 18 88 18.5t113 -22.5q39 0 77 39t38 92t-42 92t-125 39t-143 -18q0 -25 -3 -109t-3 -131z" />
<glyph unicode="&#xaf;" horiz-adv-x="892" d="M102 1372q0 31 24 49.5t60 18.5l260 -6l261 6q37 0 60.5 -18.5t23.5 -49.5t-24 -49t-60 -18l-261 6l-260 -6q-37 0 -60.5 18t-23.5 49z" />
<glyph unicode="&#xb0;" horiz-adv-x="684" d="M100 1165q0 127 66.5 213t175.5 86t175.5 -86t66.5 -213t-66.5 -213t-175.5 -86t-175.5 86t-66.5 213zM223 1165q0 -80 32 -133t88 -53t87 52t31 134t-31 134.5t-87 52.5t-88 -53.5t-32 -133.5z" />
<glyph unicode="&#xb1;" horiz-adv-x="1167" d="M137 61.5q0 30.5 23.5 49t60.5 18.5q1 0 363 -6l362 6q37 0 60.5 -18.5t23.5 -49t-23.5 -49t-60.5 -18.5l-362 6l-363 -6q-37 0 -60.5 18.5t-23.5 49zM137 667.5q0 30.5 23.5 49t60.5 18.5l303 -6q-8 221 -8 232q0 84 68 83q33 0 52 -22.5t19 -47t-8 -245.5l299 6 q37 0 60.5 -18.5t23.5 -49t-23.5 -49t-60.5 -18.5q-102 0 -299 6l8 -260q0 -39 -19.5 -61.5t-51.5 -22.5q-68 0 -68 84q0 6 8 260q-209 -6 -274.5 -6t-89 18.5t-23.5 49z" />
<glyph unicode="&#xb2;" horiz-adv-x="765" d="M100 755.5q0 32.5 17.5 64.5t42.5 61q322 360 321 462q0 45 -29.5 74t-85 29t-103.5 -46t-76.5 -46t-44 16t-15.5 43q0 45 71.5 99.5t180 54.5t172 -63.5t63.5 -143.5q0 -55 -18 -93t-27.5 -57.5t-31 -51.5t-30.5 -44t-35 -46t-44 -59.5t-82.5 -103.5t-79.5 -100h105 l211 10q86 0 86 -65.5t-86 -65.5l-209 8l-191 -8q-33 0 -57.5 19.5t-24.5 52z" />
<glyph unicode="&#xb3;" horiz-adv-x="757" d="M98 859q0 52 49 52q25 0 52 -26q82 -78 163.5 -78t127 47t45.5 123t-52.5 126t-128.5 54q-66 -68 -112 -67q-74 0 -74 69q0 29 30.5 56.5t92.5 39.5q78 82 170 187q-92 6 -121 6l-145 -6q-80 0 -80 59q0 29 21.5 47.5t58.5 18.5l165 -4l150 4q111 0 111 -76 q0 -25 -21.5 -51.5t-76 -81.5t-99.5 -111q113 -25 176.5 -99.5t63.5 -181t-82 -194.5t-222 -88q-98 0 -180 61.5t-82 113.5z" />
<glyph unicode="&#xb4;" horiz-adv-x="583" d="M143 1257q0 25 33 62t48.5 56.5t37 71.5t45 80.5t60 28.5t55 -23t18.5 -54q0 -88 -93 -176.5t-148.5 -88.5t-55.5 43z" />
<glyph unicode="&#xb5;" horiz-adv-x="1251" d="M170 889q0 154 94 153q82 0 82 -124q0 -20 -2 -84q-8 -147 -8 -447q0 -121 61.5 -196.5t164 -75.5t200.5 116.5t137 264.5l-6 444q0 104 78 104q94 0 94 -144t-41 -404q0 -154 22.5 -251.5t53.5 -109.5q12 -6 29.5 -8t24.5 -6t7 -17q0 -55 -33.5 -89.5t-85.5 -34.5 q-129 0 -129 262q-57 -98 -151 -180t-210 -82t-218 102l14 -449q0 -47 -21.5 -75.5t-58.5 -28.5t-58.5 28.5t-21.5 75.5l13 715q-31 422 -31 541z" />
<glyph unicode="&#xb6;" horiz-adv-x="1286" d="M90 1092q0 217 134 338.5t370 125.5l207 -6l178 6q45 0 71.5 -28.5t26.5 -75.5l-10 -909q0 -369 6 -627t6 -294t-21.5 -64.5t-58 -28.5t-58 28.5t-21.5 64.5t2 165q10 387 10 756l-10 880q-70 4 -121 4t-121 -4q-10 -573 -10 -832t3 -467t6 -337t3 -154q0 -104 -80 -104 t-80 104q0 25 2 154q10 387 11 756v129q-195 8 -320 128t-125 292z" />
<glyph unicode="&#xb7;" horiz-adv-x="454" d="M131 519q0 48 29.5 87t74 39t67 -31.5t22.5 -80t-30 -88t-73 -39.5t-66.5 32.5t-23.5 80.5z" />
<glyph unicode="&#xb8;" horiz-adv-x="677" d="M88 -328q0 14 10.5 26.5t26.5 12.5t70.5 -25.5t100.5 -25.5t78 18.5t32 43t-31 48t-68 43t-67.5 55.5t-30.5 79v78h131v-45q0 -61 106 -119q41 -23 75 -60t34 -82q0 -82 -71.5 -136t-172 -54t-162 47t-61.5 96z" />
<glyph unicode="&#xb9;" horiz-adv-x="608" d="M53 1206q0 35 68.5 102.5t128 139.5t85 95.5t60.5 23.5q74 0 74 -105l-6 -336l6 -352q0 -37 -18.5 -59.5t-48 -22.5t-48 22.5t-18.5 59.5l6 352v246l-63 -72q-8 -10 -48 -59q-74 -96 -114 -96q-63 0 -64 61z" />
<glyph unicode="&#xba;" horiz-adv-x="733" d="M98 1132.5q0 143.5 75 237.5t193.5 94t193.5 -94t75 -237.5t-75 -235.5t-193.5 -92t-193.5 92t-75 235.5zM221 1131.5q0 -97.5 39 -155.5t107.5 -58t106.5 58t38 156.5t-39 159t-106.5 60.5t-106.5 -61.5t-39 -159z" />
<glyph unicode="&#xbb;" horiz-adv-x="1036" d="M127 451.5q0 27.5 19.5 48t61.5 50.5t62 48q98 88 98.5 116.5t-98.5 116.5q-20 18 -62 48t-61.5 50.5t-19.5 48.5t18.5 47t42 19t43 -11t32.5 -24.5t43 -46t53.5 -56t60.5 -57.5t54.5 -50.5t31.5 -39t14 -48t-16.5 -48t-69.5 -70.5t-75.5 -70.5t-52.5 -55.5t-44 -45 q-35 -37 -66.5 -37t-50 19.5t-18.5 47zM555 451.5q0 27.5 19.5 48t61.5 50.5t62 48q98 88 98.5 116.5t-98.5 116.5q-20 18 -62 48t-61.5 50.5t-19.5 48.5t18.5 47t42 19t43 -11t33 -24.5t43 -46t53 -56t60.5 -57.5t54.5 -50.5t31.5 -39t14 -48t-16.5 -48t-69.5 -70.5 t-75.5 -70.5t-52 -55.5t-42.5 -45q-37 -37 -68.5 -37t-50 19.5t-18.5 47z" />
<glyph unicode="&#xbc;" horiz-adv-x="1728" d="M84 1206q0 35 68.5 102.5t128 139.5t85 95.5t60.5 23.5q74 0 74 -105l-6 -336l6 -352q0 -37 -18.5 -59.5t-48.5 -22.5t-48 22.5t-18 59.5l6 352v246l-64 -72q-8 -10 -47 -59q-74 -96 -115 -96q-63 0 -63 61zM492 40q0 36 31.5 120t103 261t130 346t113 327.5t87 254 t47.5 134.5q27 86 92 86q20 0 40.5 -16.5t20.5 -52.5t-32.5 -120t-104.5 -259t-132.5 -345t-113.5 -330q-86 -266 -113.5 -348t-51 -104.5t-50.5 -22.5t-47 16.5t-20 52.5zM975 330.5q0 27.5 31.5 76t144.5 195.5l154 199q66 84 111.5 84t69 -34t23.5 -83l-6 -395 q61 4 78.5 4t35 -17.5t17.5 -38t-17.5 -39t-49 -18.5t-64.5 2l6 -198q0 -88 -62.5 -88t-62.5 88l7 202l-80 2l-269 -6q-35 0 -51 18.5t-16 46zM1120 373h269q2 80 2 196l-2 160q-38 -41 -269 -356z" />
<glyph unicode="&#xbd;" horiz-adv-x="1748" d="M84 1206q0 35 68.5 102.5t128 139.5t85 95.5t60.5 23.5q74 0 74 -105l-6 -336l6 -352q0 -37 -18.5 -59.5t-48.5 -22.5t-48 22.5t-18 59.5l6 352v246l-64 -72q-8 -10 -47 -59q-74 -96 -115 -96q-63 0 -63 61zM492 40q0 36 31.5 120t103 261t130 346t113 327.5t87 254 t47.5 134.5q27 86 92 86q20 0 40.5 -16.5t20.5 -52.5t-32.5 -120t-104.5 -259t-132.5 -345t-113.5 -330q-86 -266 -113.5 -348t-51 -104.5t-50.5 -22.5t-47 16.5t-20 52.5zM1077 65.5q0 32.5 17.5 64.5t42.5 58q322 362 321 465q0 45 -29.5 74t-85 29t-103.5 -46t-76.5 -46 t-44 16t-15.5 43q0 45 71.5 99.5t180 54.5t172 -63.5t63.5 -143.5q0 -55 -18.5 -93t-27.5 -57.5t-30.5 -51.5t-30.5 -44t-35 -46t-44.5 -59.5t-83 -103.5t-78.5 -100h105l211 10q86 0 86 -65.5t-86 -65.5l-209 8l-191 -8q-33 0 -57.5 19.5t-24.5 52z" />
<glyph unicode="&#xbe;" horiz-adv-x="1830" d="M111 859q0 52 49 52q25 0 51 -26q82 -78 164 -78t127 47t45 123t-52.5 126t-127.5 54q-66 -68 -113 -67q-74 0 -74 69q0 29 31 56.5t92 39.5q78 82 170 187q-92 6 -121 6l-145 -6q-80 0 -80 59q0 29 21.5 47.5t58.5 18.5l166 -4l149 4q111 0 111 -76q0 -25 -21.5 -51.5 t-76 -81.5t-99.5 -111q113 -25 176.5 -99.5t63.5 -181t-82 -194.5t-221 -88q-98 0 -180 61.5t-82 113.5zM598 40q0 36 32 120t103.5 261t130 346t112.5 327.5t87 254t47 134.5q27 86 92 86q20 0 41 -16.5t21 -52.5t-33 -120t-104.5 -259t-132 -345t-113.5 -330 q-86 -266 -114 -348t-51.5 -104.5t-50 -22.5t-47 16.5t-20.5 52.5zM1081 330.5q0 27.5 32 76t144 195.5l154 199q66 84 112 84t69.5 -34t23.5 -83l-6 -395q61 4 78.5 4t35 -17.5t17.5 -38t-17.5 -39t-49 -18.5t-64.5 2l6 -198q0 -88 -62.5 -88t-62.5 88l6 202l-80 2l-268 -6 q-35 0 -51.5 18.5t-16.5 46zM1227 373h268q2 80 2 196l-2 160q-37 -41 -268 -356z" />
<glyph unicode="&#xbf;" horiz-adv-x="907" d="M96 -104q0 164 127 297q53 57 107 110q127 127 127 247t71 120q76 0 76 -115q0 -156 -127 -293q-53 -57 -106 -110q-127 -131 -127 -256q0 -98 70.5 -167t145.5 -69t124 24.5t71 53.5q57 78 92 78t52.5 -19.5t17.5 -46.5q0 -72 -105.5 -146.5t-234.5 -74.5 q-170 0 -275.5 105.5t-105.5 261.5zM436 990q0 48 30 87t72 39t64.5 -32.5t22.5 -79t-30 -85t-72 -38.5t-64.5 30.5t-22.5 78.5z" />
<glyph unicode="&#xc0;" horiz-adv-x="1314" d="M80 50q0 30 18.5 92.5t56.5 173t60 184.5h-37q-98 0 -98 75.5t98 75.5q47 0 84 -2q6 16 268 785q43 123 119 122q51 0 79 -29.5t46.5 -75.5t61.5 -177q134 -412 208 -623l91 2q45 0 73.5 -22.5t28.5 -57.5q0 -78 -143 -77q33 -100 48 -147.5t42 -119.5q53 -147 53 -175.5 t-18.5 -51t-51.5 -22.5q-59 0 -90 71q-29 78 -70.5 217.5t-72.5 235.5q-246 6 -342 6t-230 -6q-127 -426 -135 -449q-29 -76 -80 -75q-31 0 -49 20t-18 50zM408 645q115 -6 244.5 -6t236.5 6q-211 678 -236 678q-29 0 -190 -508zM449 1909q0 31 18 54.5t55 23.5t60.5 -29 t45 -81t37 -71.5t40.5 -46.5q40 -46 40 -71q0 -43 -55 -43t-148 88t-93 176z" />
<glyph unicode="&#xc1;" horiz-adv-x="1314" d="M80 50q0 30 18.5 92.5t56.5 173t60 184.5h-37q-98 0 -98 75.5t98 75.5q47 0 84 -2q6 16 268 785q43 123 119 122q51 0 79 -29.5t46.5 -75.5t61.5 -177q134 -412 208 -623l91 2q45 0 73.5 -22.5t28.5 -57.5q0 -78 -143 -77q33 -100 48 -147.5t42 -119.5q53 -147 53 -175.5 t-18.5 -51t-51.5 -22.5q-59 0 -90 71q-29 78 -70.5 217.5t-72.5 235.5q-246 6 -342 6t-230 -6q-127 -426 -135 -449q-29 -76 -80 -75q-31 0 -49 20t-18 50zM408 645q115 -6 244.5 -6t236.5 6q-211 678 -236 678q-29 0 -190 -508zM551 1688q0 25 32.5 61.5t48 56t37 71.5 t45 81t60.5 29t55.5 -23.5t18.5 -54.5q0 -88 -93 -176t-148.5 -88t-55.5 43z" />
<glyph unicode="&#xc2;" horiz-adv-x="1314" d="M80 50q0 30 18.5 92.5t56.5 173t60 184.5h-37q-98 0 -98 75.5t98 75.5q47 0 84 -2q6 16 268 785q43 123 119 122q51 0 79 -29.5t46.5 -75.5t61.5 -177q134 -412 208 -623l91 2q45 0 73.5 -22.5t28.5 -57.5q0 -78 -143 -77q33 -100 48 -147.5t42 -119.5q53 -147 53 -175.5 t-18.5 -51t-51.5 -22.5q-59 0 -90 71q-29 78 -70.5 217.5t-72.5 235.5q-246 6 -342 6t-230 -6q-127 -426 -135 -449q-29 -76 -80 -75q-31 0 -49 20t-18 50zM360 1719.5q0 21.5 9.5 37t18.5 24.5t37 32.5t52.5 47t60 70.5t59.5 65.5t60.5 18.5t61 -18.5t61.5 -65.5 t61.5 -70.5t51.5 -47t37 -32.5t18 -24.5t8 -37t-18 -39t-44 -17.5t-48.5 18.5t-44 48t-29.5 35.5q-82 98 -113.5 98.5t-113.5 -98.5q-8 -6 -29 -36q-49 -66 -84 -66t-53.5 17.5t-18.5 39zM408 645q115 -6 244.5 -6t236.5 6q-211 678 -236 678q-29 0 -190 -508z" />
<glyph unicode="&#xc3;" horiz-adv-x="1314" d="M80 50q0 30 18.5 92.5t56.5 173t60 184.5h-37q-98 0 -98 75.5t98 75.5q47 0 84 -2q6 16 268 785q43 123 119 122q51 0 79 -29.5t46.5 -75.5t61.5 -177q134 -412 208 -623l91 2q45 0 73.5 -22.5t28.5 -57.5q0 -78 -143 -77q33 -100 48 -147.5t42 -119.5q53 -147 53 -175.5 t-18.5 -51t-51.5 -22.5q-59 0 -90 71q-29 78 -70.5 217.5t-72.5 235.5q-246 6 -342 6t-230 -6q-127 -426 -135 -449q-29 -76 -80 -75q-31 0 -49 20t-18 50zM293 1755q0 72 65.5 126t150.5 54t190.5 -57t149.5 -57t79 52t53 52t30.5 -17t12.5 -40q0 -70 -52 -122t-123 -52 t-169 56t-140 56t-70 -30.5t-52.5 -62.5t-54 -32t-50 22.5t-20.5 51.5zM408 645q115 -6 244.5 -6t236.5 6q-211 678 -236 678q-29 0 -190 -508z" />
<glyph unicode="&#xc4;" horiz-adv-x="1314" d="M80 50q0 30 18.5 92.5t56.5 173t60 184.5h-37q-98 0 -98 75.5t98 75.5q47 0 84 -2q6 16 268 785q43 123 119 122q51 0 79 -29.5t46.5 -75.5t61.5 -177q134 -412 208 -623l91 2q45 0 73.5 -22.5t28.5 -57.5q0 -78 -143 -77q33 -100 48 -147.5t42 -119.5q53 -147 53 -175.5 t-18.5 -51t-51.5 -22.5q-59 0 -90 71q-29 78 -70.5 217.5t-72.5 235.5q-246 6 -342 6t-230 -6q-127 -426 -135 -449q-29 -76 -80 -75q-31 0 -49 20t-18 50zM408 645q115 -6 244.5 -6t236.5 6q-211 678 -236 678q-29 0 -190 -508zM412 1837q0 47 29.5 83t72.5 36t63.5 -27.5 t20.5 -69.5t-28.5 -84t-71.5 -42t-64.5 28.5t-21.5 75.5zM739 1837q0 47 30 83t73 36t63.5 -27.5t20.5 -69.5t-29 -84t-72 -42t-64.5 28.5t-21.5 75.5z" />
<glyph unicode="&#xc5;" horiz-adv-x="1314" d="M80 50q0 30 18.5 92.5t56.5 173t60 184.5h-37q-98 0 -98 75.5t98 75.5q47 0 84 -2q6 16 268 785q43 123 119 122q51 0 79 -29.5t46.5 -75.5t61.5 -177q134 -412 208 -623l91 2q45 0 73.5 -22.5t28.5 -57.5q0 -78 -143 -77q33 -100 48 -147.5t42 -119.5q53 -147 53 -175.5 t-18.5 -51t-51.5 -22.5q-59 0 -90 71q-29 78 -70.5 217.5t-72.5 235.5q-246 6 -342 6t-230 -6q-127 -426 -135 -449q-29 -76 -80 -75q-31 0 -49 20t-18 50zM408 645q115 -6 244.5 -6t236.5 6q-211 678 -236 678q-29 0 -190 -508zM465 1824q0 83 53 139t133 56t133.5 -56 t53.5 -138t-51.5 -137.5t-135.5 -55.5t-135 54.5t-51 137.5zM561 1826q0 -38 26.5 -67.5t63.5 -29.5t63.5 29.5t26.5 67.5t-27.5 67.5t-62.5 29.5t-62.5 -29.5t-27.5 -67.5z" />
<glyph unicode="&#xc6;" horiz-adv-x="1722" d="M80 59q0 33 56.5 199t78.5 242h-37q-98 0 -98 75.5t98 75.5q47 0 84 -2q25 70 266 774q43 123 121 123l434 -10l287 10q102 0 102.5 -77.5t-102.5 -77.5l-287 10q-217 0 -286 -8q41 -258 82 -492q90 -4 149 -4l348 10q47 0 75 -21.5t28 -58.5q0 -76 -103 -75l-348 10 q-49 0 -123 -4q104 -563 119 -615q131 -8 262 -8l311 10q102 0 102.5 -77.5t-102.5 -77.5l-311 10l-305 -10q-98 0 -113 88q-27 152 -69 434q-266 0 -437 -8q-131 -440 -147 -477q-31 -41 -59 -43q-76 0 -76 75zM408 645q115 -6 195.5 -6t123.5 1t57 1q-78 492 -131 682 q-29 0 -190 -508z" />
<glyph unicode="&#xc7;" horiz-adv-x="1304" d="M117 787.5q0 316.5 184 548t463 231.5q162 0 291 -63.5t129 -143.5q0 -33 -19.5 -51.5t-52.5 -18.5t-76 33q-131 100 -272 100q-209 0 -345 -193.5t-136 -456.5t136 -461.5t343 -198.5q123 0 211 33.5t134 67.5t67 34q55 0 55 -58.5t-133 -136.5t-314 -84q6 -57 113 -112 q39 -20 70.5 -56.5t31.5 -81.5q0 -82 -71.5 -136t-172 -54t-162 47t-61.5 96q0 14 10.5 26.5t27 12.5t70.5 -25.5t100 -25.5t78 18.5t32 43t-31 49t-67.5 46t-67.5 65.5t-31 98q-238 45 -386 268t-148 539.5z" />
<glyph unicode="&#xc8;" horiz-adv-x="1204" d="M94 817q0 35 26.5 57.5t60.5 22.5t52 -2q-4 412 -14 498q-25 35 -24 75q0 78 108 78l395 -10l308 10q102 0 102 -77.5t-102 -77.5l-308 10q-233 0 -307 -8q-10 -268 -10 -502q90 -4 143 -4l369 10q47 0 74.5 -21.5t27.5 -58.5q0 -76 -102 -76l-369 11q-57 0 -143 -4v-203 q0 -305 10 -402q144 -8 283 -8l332 10q102 0 102 -77.5t-102 -77.5l-332 10l-359 -10q-92 0 -92 78q0 72 5 241.5t5 433.5q-18 -2 -40 -2q-98 0 -99 76zM412 1909q0 31 18.5 54.5t55 23.5t60 -29t45 -81t37 -71.5t40.5 -46.5q41 -46 41 -71q0 -43 -55.5 -43t-148.5 88 t-93 176z" />
<glyph unicode="&#xc9;" horiz-adv-x="1204" d="M94 817q0 35 26.5 57.5t60.5 22.5t52 -2q-4 412 -14 498q-25 35 -24 75q0 78 108 78l395 -10l308 10q102 0 102 -77.5t-102 -77.5l-308 10q-233 0 -307 -8q-10 -268 -10 -502q90 -4 143 -4l369 10q47 0 74.5 -21.5t27.5 -58.5q0 -76 -102 -76l-369 11q-57 0 -143 -4v-203 q0 -305 10 -402q144 -8 283 -8l332 10q102 0 102 -77.5t-102 -77.5l-332 10l-359 -10q-92 0 -92 78q0 72 5 241.5t5 433.5q-18 -2 -40 -2q-98 0 -99 76zM555 1688q0 25 33 61.5t48 56t36.5 71.5t45 81t60.5 29t55.5 -23.5t18.5 -54.5q0 -88 -93 -176t-148.5 -88t-55.5 43z " />
<glyph unicode="&#xca;" horiz-adv-x="1204" d="M94 817q0 35 26.5 57.5t60.5 22.5t52 -2q-4 412 -14 498q-25 35 -24 75q0 78 108 78l395 -10l308 10q102 0 102 -77.5t-102 -77.5l-308 10q-233 0 -307 -8q-10 -268 -10 -502q90 -4 143 -4l369 10q47 0 74.5 -21.5t27.5 -58.5q0 -76 -102 -76l-369 11q-57 0 -143 -4v-203 q0 -305 10 -402q144 -8 283 -8l332 10q102 0 102 -77.5t-102 -77.5l-332 10l-359 -10q-92 0 -92 78q0 72 5 241.5t5 433.5q-18 -2 -40 -2q-98 0 -99 76zM344 1719.5q0 21.5 9 37t18.5 24.5t37 32.5t52 47t60.5 70.5t59.5 65.5t60.5 18.5t61.5 -18.5t61.5 -65.5t61.5 -70.5 t51 -47t37 -32.5t18.5 -24.5t8 -37t-18.5 -39t-44 -17.5t-48 18.5t-44 48t-29.5 35.5q-82 98 -114 98.5t-114 -98.5q-8 -6 -28 -36q-49 -66 -84 -66t-53.5 17.5t-18.5 39z" />
<glyph unicode="&#xcb;" horiz-adv-x="1204" d="M94 817q0 35 26.5 57.5t60.5 22.5t52 -2q-4 412 -14 498q-25 35 -24 75q0 78 108 78l395 -10l308 10q102 0 102 -77.5t-102 -77.5l-308 10q-233 0 -307 -8q-10 -268 -10 -502q90 -4 143 -4l369 10q47 0 74.5 -21.5t27.5 -58.5q0 -76 -102 -76l-369 11q-57 0 -143 -4v-203 q0 -305 10 -402q144 -8 283 -8l332 10q102 0 102 -77.5t-102 -77.5l-332 10l-359 -10q-92 0 -92 78q0 72 5 241.5t5 433.5q-18 -2 -40 -2q-98 0 -99 76zM406 1837q0 47 29.5 83t72.5 36t63.5 -27.5t20.5 -69.5t-28.5 -84t-71.5 -42t-64.5 28.5t-21.5 75.5zM733 1837 q0 47 30 83t73 36t63.5 -27.5t20.5 -69.5t-29 -84t-72 -42t-64.5 28.5t-21.5 75.5z" />
<glyph unicode="&#xcc;" horiz-adv-x="892" d="M76 67.5q0 77.5 102 77.5q23 0 187 -10q10 461 10 632t-10 632q-180 -8 -187 -8q-98 0 -98 75q0 37 26.5 58.5t71.5 21.5l271 -10q70 0 161.5 6t119.5 6t57.5 -23.5t29.5 -58t-28.5 -56t-60.5 -21.5t-196 10q-10 -471 -10 -637t10 -627l181 10q47 0 74.5 -21.5t27.5 -56 t-28.5 -57t-73.5 -22.5l-264 12l-271 -10q-102 0 -102 77.5zM238 1909q0 31 18 54.5t55 23.5t60.5 -29t45 -81t37 -71.5t38.5 -46.5q43 -46 43 -71q0 -43 -55.5 -43t-148.5 88t-93 176z" />
<glyph unicode="&#xcd;" horiz-adv-x="892" d="M76 67.5q0 77.5 102 77.5q23 0 187 -10q10 461 10 632t-10 632q-180 -8 -187 -8q-98 0 -98 75q0 37 26.5 58.5t71.5 21.5l271 -10q70 0 161.5 6t119.5 6t57.5 -23.5t29.5 -58t-28.5 -56t-60.5 -21.5t-196 10q-10 -471 -10 -637t10 -627l181 10q47 0 74.5 -21.5t27.5 -56 t-28.5 -57t-73.5 -22.5l-264 12l-271 -10q-102 0 -102 77.5zM360 1688q0 25 33 61.5t48.5 56t37 71.5t45 81t60.5 29t55 -23.5t18 -54.5q0 -88 -93 -176t-148.5 -88t-55.5 43z" />
<glyph unicode="&#xce;" horiz-adv-x="892" d="M76 67.5q0 77.5 102 77.5q23 0 187 -10q10 461 10 632t-10 632q-180 -8 -187 -8q-98 0 -98 75q0 37 26.5 58.5t71.5 21.5l271 -10q70 0 161.5 6t119.5 6t57.5 -23.5t29.5 -58t-28.5 -56t-60.5 -21.5t-196 10q-10 -471 -10 -637t10 -627l181 10q47 0 74.5 -21.5t27.5 -56 t-28.5 -57t-73.5 -22.5l-264 12l-271 -10q-102 0 -102 77.5zM152 1719.5q0 21.5 9 37t18 24.5t37 32.5t52.5 47t60.5 70.5t59.5 65.5t60 18.5t61.5 -18.5t61.5 -65.5t61 -70.5t51.5 -47t37 -32.5t18.5 -24.5t8.5 -37t-18.5 -39t-44.5 -17.5t-48.5 18.5t-44 48t-29.5 35.5 q-82 98 -113.5 98.5t-113.5 -98.5q-8 -6 -29 -36q-49 -66 -84 -66t-53 17.5t-18 39z" />
<glyph unicode="&#xcf;" horiz-adv-x="892" d="M76 67.5q0 77.5 102 77.5q23 0 187 -10q10 461 10 632t-10 632q-180 -8 -187 -8q-98 0 -98 75q0 37 26.5 58.5t71.5 21.5l271 -10q70 0 161.5 6t119.5 6t57.5 -23.5t29.5 -58t-28.5 -56t-60.5 -21.5t-196 10q-10 -471 -10 -637t10 -627l181 10q47 0 74.5 -21.5t27.5 -56 t-28.5 -57t-73.5 -22.5l-264 12l-271 -10q-102 0 -102 77.5zM190 1837q0 47 30 83t73 36t63.5 -27.5t20.5 -69.5t-29 -84t-72 -42t-64.5 28.5t-21.5 75.5zM518 1837q0 47 30 83t73 36t63.5 -27.5t20.5 -69.5t-29 -84t-72 -42t-64.5 28.5t-21.5 75.5z" />
<glyph unicode="&#xd0;" horiz-adv-x="1490" d="M14 760q0 31 23.5 49t65.5 18t171 -6l-10 518q-98 0 -98 78q0 70 135 104.5t305 34.5t323.5 -69.5t250.5 -183.5q197 -238 196 -558q0 -307 -190 -532q-92 -111 -240.5 -177.5t-340 -66.5t-319.5 44t-128 114q0 25 15 41t42 16t53 -14l6 526q-164 -4 -188.5 -4t-48 18.5 t-23.5 49.5zM422 698q0 -346 12 -571q57 -12 172 -12q291 0 451 186t160 455q0 262 -156 450q-76 92 -199 147.5t-276 55.5q-76 0 -154 -18q-10 -143 -10 -570l258 6q37 0 60.5 -18t23.5 -49t-23.5 -49.5t-82 -18.5t-236.5 6z" />
<glyph unicode="&#xd1;" horiz-adv-x="1415" d="M199 69.5q0 30.5 3 126t5 250t2 316.5t-2 319.5t-5 255t-3 128t24.5 61t61.5 30.5q66 0 98 -55q18 -29 302 -537.5t374 -654.5v453l-10 690q0 45 24.5 74.5t59 29.5t59.5 -29.5t25 -74.5l-11 -690l4 -678q0 -47 -25.5 -75.5t-70.5 -28.5t-78 55q-10 16 -73 133 q-201 365 -298.5 529.5t-185.5 325.5t-123 216v-477q0 -344 5.5 -503t5.5 -189.5t-25 -60t-59.5 -29.5t-59 29.5t-24.5 60zM348 1739q0 72 65.5 126t150.5 54t190.5 -57.5t149.5 -57.5t79 52.5t53.5 52.5t30.5 -17.5t12 -40.5q0 -70 -52 -122t-122.5 -52t-169 56.5 t-140.5 56.5t-69.5 -30.5t-52 -62.5t-54.5 -32t-50.5 22.5t-20.5 51.5z" />
<glyph unicode="&#xd2;" horiz-adv-x="1585" d="M117 769q0 333 194.5 565.5t483 232.5t481 -231.5t192.5 -565.5t-194.5 -567.5t-482 -233.5t-481 233.5t-193.5 566.5zM283 773q0 -261 146 -457.5t363.5 -196.5t364 196.5t146.5 457.5t-145.5 452.5t-365 191.5t-364.5 -191.5t-145 -452.5zM582 1909q0 31 18 54.5 t55 23.5t60.5 -29t45 -81t37 -71.5t38.5 -46.5q43 -46 43 -71q0 -43 -55.5 -43t-148.5 88t-93 176z" />
<glyph unicode="&#xd3;" horiz-adv-x="1585" d="M117 769q0 333 194.5 565.5t483 232.5t481 -231.5t192.5 -565.5t-194.5 -567.5t-482 -233.5t-481 233.5t-193.5 566.5zM283 773q0 -261 146 -457.5t363.5 -196.5t364 196.5t146.5 457.5t-145.5 452.5t-365 191.5t-364.5 -191.5t-145 -452.5zM705 1688q0 25 32.5 61.5 t48 56t37 71.5t45 81t60.5 29t55 -23.5t18 -54.5q0 -88 -93 -176t-148 -88t-55 43z" />
<glyph unicode="&#xd4;" horiz-adv-x="1585" d="M117 769q0 333 194.5 565.5t483 232.5t481 -231.5t192.5 -565.5t-194.5 -567.5t-482 -233.5t-481 233.5t-193.5 566.5zM283 773q0 -261 146 -457.5t363.5 -196.5t364 196.5t146.5 457.5t-145.5 452.5t-365 191.5t-364.5 -191.5t-145 -452.5zM494 1719.5q0 21.5 9 37 t18 24.5t37 32.5t52.5 47t60.5 70.5t59.5 65.5t60 18.5t61.5 -18.5t61.5 -65.5t61 -70.5t51.5 -47t37 -32.5t18.5 -24.5t8.5 -37t-18.5 -39t-44.5 -17.5t-48.5 18.5t-44 48t-29.5 35.5q-82 98 -113.5 98.5t-113.5 -98.5q-8 -6 -31 -36q-47 -66 -82 -66t-53 17.5t-18 39z" />
<glyph unicode="&#xd5;" horiz-adv-x="1585" d="M117 769q0 333 194.5 565.5t483 232.5t481 -231.5t192.5 -565.5t-194.5 -567.5t-482 -233.5t-481 233.5t-193.5 566.5zM283 773q0 -261 146 -457.5t363.5 -196.5t364 196.5t146.5 457.5t-145.5 452.5t-365 191.5t-364.5 -191.5t-145 -452.5zM426 1755q0 72 65.5 126 t150.5 54t190.5 -57t149.5 -57t79 52t53.5 52t30.5 -17t12 -40q0 -70 -52 -122t-123 -52t-169 56t-140 56t-70 -30.5t-52.5 -62.5t-54 -32t-50 22.5t-20.5 51.5z" />
<glyph unicode="&#xd6;" horiz-adv-x="1585" d="M117 769q0 333 194.5 565.5t483 232.5t481 -231.5t192.5 -565.5t-194.5 -567.5t-482 -233.5t-481 233.5t-193.5 566.5zM283 773q0 -261 146 -457.5t363.5 -196.5t364 196.5t146.5 457.5t-145.5 452.5t-365 191.5t-364.5 -191.5t-145 -452.5zM535 1837q0 47 29.5 83 t72.5 36t63.5 -27.5t20.5 -69.5t-28.5 -84t-71.5 -42t-64.5 28.5t-21.5 75.5zM862 1837q0 47 30 83t73 36t63.5 -27.5t20.5 -69.5t-29 -84t-72 -42t-64.5 28.5t-21.5 75.5z" />
<glyph unicode="&#xd7;" horiz-adv-x="1032" d="M143 210q0 28 19.5 47t64.5 62q147 145 205 205q-53 57 -148.5 149.5t-114.5 114t-19 49t20 47t49 19.5t52.5 -23.5t106.5 -114.5t138 -149q205 225 236.5 257t60.5 32t49.5 -19.5t20.5 -47t-19.5 -49t-64.5 -64.5q-145 -141 -199 -199q57 -59 153.5 -153t116 -113.5 t19.5 -47.5t-19.5 -48.5t-48 -20.5t-52.5 22.5t-60 63.5q-86 94 -193 207q-223 -244 -249.5 -269.5t-55.5 -25.5t-48.5 20.5t-19.5 48.5z" />
<glyph unicode="&#xd8;" horiz-adv-x="1546" d="M119 770q0 332 189.5 564.5t467.5 232.5q109 0 215 -43l21 51q31 72 84 72q35 0 53 -22.5t18 -51.5t-39 -127q139 -106 220.5 -285.5t81.5 -390.5q0 -334 -189.5 -567.5t-468.5 -233.5q-117 0 -223 45q-8 -16 -32.5 -80.5t-80.5 -64.5q-31 0 -51 20.5t-20 53t49 151.5 q-137 109 -216 288t-79 388zM285 770q0 -152 52 -290t142 -230q99 221 226 532l233 598q-76 37 -164 37q-211 0 -350 -191.5t-139 -455.5zM604 160q78 -41 170 -41q209 0 349.5 196.5t140.5 454.5q0 156 -53.5 295t-147.5 229q-252 -588 -459 -1134z" />
<glyph unicode="&#xd9;" horiz-adv-x="1398" d="M186.5 1471.5q-0.5 27.5 22 56t61.5 28.5t61.5 -28.5t22.5 -61t-2 -139.5q-8 -252 -8 -489.5t7 -313t28.5 -157.5t58.5 -134q88 -121 260 -120q215 0 291 170q66 147 66 389.5t-5.5 509t-5.5 270.5q0 47 23 75.5t61.5 28.5t61 -28.5t22.5 -75.5q0 -385 -12 -948 q-4 -223 -133 -379t-368.5 -156t-367.5 157t-132 380q-12 938 -12.5 965.5zM510 1909q0 31 18.5 54.5t55.5 23.5t60.5 -29t45 -81t36.5 -71.5t40 -46.5q41 -46 41 -71q0 -43 -55.5 -43t-148.5 88t-93 176z" />
<glyph unicode="&#xda;" horiz-adv-x="1398" d="M186.5 1471.5q-0.5 27.5 22 56t61.5 28.5t61.5 -28.5t22.5 -61t-2 -139.5q-8 -252 -8 -489.5t7 -313t28.5 -157.5t58.5 -134q88 -121 260 -120q215 0 291 170q66 147 66 389.5t-5.5 509t-5.5 270.5q0 47 23 75.5t61.5 28.5t61 -28.5t22.5 -75.5q0 -385 -12 -948 q-4 -223 -133 -379t-368.5 -156t-367.5 157t-132 380q-12 938 -12.5 965.5zM612 1688q0 25 33 61.5t48.5 56t37 71.5t45 81t60 29t55 -23.5t18.5 -54.5q0 -88 -93 -176t-148.5 -88t-55.5 43z" />
<glyph unicode="&#xdb;" horiz-adv-x="1398" d="M186.5 1471.5q-0.5 27.5 22 56t61.5 28.5t61.5 -28.5t22.5 -61t-2 -139.5q-8 -252 -8 -489.5t7 -313t28.5 -157.5t58.5 -134q88 -121 260 -120q215 0 291 170q66 147 66 389.5t-5.5 509t-5.5 270.5q0 47 23 75.5t61.5 28.5t61 -28.5t22.5 -75.5q0 -385 -12 -948 q-4 -223 -133 -379t-368.5 -156t-367.5 157t-132 380q-12 938 -12.5 965.5zM406 1719.5q0 21.5 9 37t18 24.5t37 32.5t52.5 47t60 70.5t59.5 65.5t60.5 18.5t61 -18.5t61.5 -65.5t61.5 -70.5t51.5 -47t37 -32.5t18 -24.5t8 -37t-18 -39t-44 -17.5t-48.5 18.5t-44 48 t-29.5 35.5q-82 98 -113.5 98.5t-113.5 -98.5q-8 -6 -29 -36q-49 -66 -84 -66t-53 17.5t-18 39z" />
<glyph unicode="&#xdc;" horiz-adv-x="1398" d="M186.5 1471.5q-0.5 27.5 22 56t61.5 28.5t61.5 -28.5t22.5 -61t-2 -139.5q-8 -252 -8 -489.5t7 -313t28.5 -157.5t58.5 -134q88 -121 260 -120q215 0 291 170q66 147 66 389.5t-5.5 509t-5.5 270.5q0 47 23 75.5t61.5 28.5t61 -28.5t22.5 -75.5q0 -385 -12 -948 q-4 -223 -133 -379t-368.5 -156t-367.5 157t-132 380q-12 938 -12.5 965.5zM444 1837q0 47 30 83t73 36t63.5 -27.5t20.5 -69.5t-29 -84t-72 -42t-64.5 28.5t-21.5 75.5zM772 1837q0 47 29.5 83t73 36t63.5 -27.5t20 -69.5t-28.5 -84t-71.5 -42t-64.5 28.5t-21.5 75.5z" />
<glyph unicode="&#xdd;" horiz-adv-x="1134" d="M31 1486.5q0 24.5 18.5 47t49 22.5t51 -16t45 -57t47.5 -86q154 -315 333 -596q188 297 314 555q14 31 31.5 62.5t26.5 50t20.5 36t18.5 25.5t18 14q14 12 39.5 12t43 -18t17.5 -41.5t-6 -45t-26.5 -60.5t-40 -73t-65.5 -112t-83 -143l-240 -420q0 -285 5 -418t5 -143 q0 -102 -84 -102t-84 102q0 14 2 94q8 186 9 467l-226 395q-39 68 -82 140l-67 112q-68 115 -79 143.5t-11 53zM498 1688q0 25 32.5 61.5t48 56t37 71.5t45 81t60.5 29t55.5 -23.5t18.5 -54.5q0 -88 -93.5 -176t-148.5 -88t-55 43z" />
<glyph unicode="&#xde;" horiz-adv-x="1161" d="M201 82l10 686l-10 686q0 102 77.5 102t77.5 -102q0 -37 -6 -215q98 35 242 35q229 0 370.5 -123t141.5 -308.5t-141.5 -308t-372.5 -122.5q-143 0 -242 34l8 -364q0 -102 -77.5 -102t-77.5 102zM348 842.5q0 -183.5 2 -269.5q106 -33 252 -32.5t247 83.5t101 219 t-100 219t-245.5 83t-252.5 -33q-4 -86 -4 -269.5z" />
<glyph unicode="&#xdf;" horiz-adv-x="1114" d="M41 963q0 33 22.5 49t55.5 16l102 -4v174q0 190 92.5 274t242 84t233 -85t83.5 -211q0 -82 -34.5 -156t-77.5 -117q-113 -109 -113 -175.5t42 -115.5t102.5 -87t120 -80t101.5 -108.5t42 -152.5q0 -125 -86 -206.5t-204 -81.5t-201 47t-83 102q0 70 68 70q16 0 77.5 -43 t122 -43t108.5 41t48 103t-30.5 107.5t-75.5 74t-99.5 65.5t-99.5 72.5t-75.5 94t-30.5 123t34.5 126t77.5 106.5q113 119 113 207t-47 137t-126 49t-127 -51t-48 -188v-1096q0 -47 -21.5 -75.5t-58.5 -28.5t-58.5 28.5t-21.5 60t2 128.5q10 289 10 571v137l-104 -4 q-78 0 -78 62z" />
<glyph unicode="&#xe0;" horiz-adv-x="1169" d="M98 489q0 223 129 389t332 166q154 0 266 -104q0 104 78 104q94 0 94 -144t-41 -404q0 -154 22.5 -251.5t53.5 -109.5q12 -6 29.5 -8t25 -6t7.5 -17q0 -55 -30 -89.5t-89.5 -34.5t-92 75.5t-32.5 194.5q-51 -115 -150.5 -192.5t-223.5 -77.5t-214 81q-164 150 -164 428z M244 501q0 -169 62.5 -278.5t177 -109.5t209 102t145.5 262l-11 316q-123 119 -257 118.5t-230 -121t-96 -289.5zM395 1479q0 31 18.5 54t55.5 23t60.5 -28.5t45 -80.5t37 -71.5t37.5 -46.5q43 -47 43 -72q0 -43 -55 -43t-148.5 88.5t-93.5 176.5z" />
<glyph unicode="&#xe1;" horiz-adv-x="1169" d="M98 489q0 223 129 389t332 166q154 0 266 -104q0 104 78 104q94 0 94 -144t-41 -404q0 -154 22.5 -251.5t53.5 -109.5q12 -6 29.5 -8t25 -6t7.5 -17q0 -55 -30 -89.5t-89.5 -34.5t-92 75.5t-32.5 194.5q-51 -115 -150.5 -192.5t-223.5 -77.5t-214 81q-164 150 -164 428z M244 501q0 -169 62.5 -278.5t177 -109.5t209 102t145.5 262l-11 316q-123 119 -257 118.5t-230 -121t-96 -289.5zM498 1257q0 25 32.5 62t48 56.5t37 71.5t45 80.5t60.5 28.5t55.5 -23t18.5 -54q0 -88 -93.5 -176.5t-148.5 -88.5t-55 43z" />
<glyph unicode="&#xe2;" horiz-adv-x="1169" d="M98 489q0 223 129 389t332 166q154 0 266 -104q0 104 78 104q94 0 94 -144t-41 -404q0 -154 22.5 -251.5t53.5 -109.5q12 -6 29.5 -8t25 -6t7.5 -17q0 -55 -30 -89.5t-89.5 -34.5t-92 75.5t-32.5 194.5q-51 -115 -150.5 -192.5t-223.5 -77.5t-214 81q-164 150 -164 428z M244 501q0 -169 62.5 -278.5t177 -109.5t209 102t145.5 262l-11 316q-123 119 -257 118.5t-230 -121t-96 -289.5zM287 1260.5q0 21.5 9 37t18.5 24.5t37 32.5t52 47t60.5 71t59.5 65.5t60.5 18t61.5 -18t61 -65.5t61.5 -71t51.5 -47t36.5 -32.5t18.5 -24.5t8.5 -37 t-18.5 -39t-44 -17.5t-48 18.5t-44 48t-30.5 36.5q-82 98 -113.5 98t-113.5 -98q-8 -6 -29 -37q-49 -66 -83.5 -66t-53 17.5t-18.5 39z" />
<glyph unicode="&#xe3;" horiz-adv-x="1169" d="M98 489q0 223 129 389t332 166q154 0 266 -104q0 104 78 104q94 0 94 -144t-41 -404q0 -154 22.5 -251.5t53.5 -109.5q12 -6 29.5 -8t25 -6t7.5 -17q0 -55 -30 -89.5t-89.5 -34.5t-92 75.5t-32.5 194.5q-51 -115 -150.5 -192.5t-223.5 -77.5t-214 81q-164 150 -164 428z M244 501q0 -169 62.5 -278.5t177 -109.5t209 102t145.5 262l-11 316q-123 119 -257 118.5t-230 -121t-96 -289.5zM260 1284q0 72 65.5 126t150.5 54t190.5 -57t149.5 -57t79 52t53.5 52t30.5 -17t12 -40q0 -70 -52 -122t-122.5 -52t-169 56t-140.5 56t-69.5 -30.5t-52 -62.5 t-54.5 -32t-50.5 22.5t-20.5 51.5z" />
<glyph unicode="&#xe4;" horiz-adv-x="1169" d="M98 489q0 223 129 389t332 166q154 0 266 -104q0 104 78 104q94 0 94 -144t-41 -404q0 -154 22.5 -251.5t53.5 -109.5q12 -6 29.5 -8t25 -6t7.5 -17q0 -55 -30 -89.5t-89.5 -34.5t-92 75.5t-32.5 194.5q-51 -115 -150.5 -192.5t-223.5 -77.5t-214 81q-164 150 -164 428z M244 501q0 -169 62.5 -278.5t177 -109.5t209 102t145.5 262l-11 316q-123 119 -257 118.5t-230 -121t-96 -289.5zM328 1366q0 47 29.5 83t72.5 36t63.5 -27.5t20.5 -69.5t-28.5 -84t-71.5 -42t-64.5 28.5t-21.5 75.5zM655 1366q0 47 30 83t73 36t63.5 -27.5t20.5 -69.5 t-29 -84t-72 -42t-64.5 28.5t-21.5 75.5z" />
<glyph unicode="&#xe5;" horiz-adv-x="1169" d="M98 489q0 223 129 389t332 166q154 0 266 -104q0 104 78 104q94 0 94 -144t-41 -404q0 -154 22.5 -251.5t53.5 -109.5q12 -6 29.5 -8t25 -6t7.5 -17q0 -55 -30 -89.5t-89.5 -34.5t-92 75.5t-32.5 194.5q-51 -115 -150.5 -192.5t-223.5 -77.5t-214 81q-164 150 -164 428z M244 501q0 -169 62.5 -278.5t177 -109.5t209 102t145.5 262l-11 316q-123 119 -257 118.5t-230 -121t-96 -289.5zM389 1371q0 83 53 139.5t133 56.5t133.5 -56.5t53.5 -138.5t-51.5 -137t-135.5 -55t-135 54t-51 137zM485 1373q0 -38 27 -67.5t63.5 -29.5t63 29.5t26.5 67.5 t-27.5 67.5t-62 29.5t-62.5 -29.5t-28 -67.5z" />
<glyph unicode="&#xe6;" horiz-adv-x="1714" d="M80 305.5q0 145.5 109.5 243.5t249 98t319.5 -51q0 174 -75 249t-191 75q-57 0 -104.5 -18.5t-72.5 -41.5q-63 -61 -100 -61q-70 0 -70 64.5t104.5 128t239 63.5t229.5 -62.5t144 -165.5q147 227 398 228q147 0 250.5 -92.5t103.5 -240t-128 -224t-295 -76.5t-280 22 q12 -139 107.5 -240.5t212.5 -101.5q70 0 129 19.5t90 42.5q82 63 107.5 63t41 -15t15.5 -38q0 -57 -118 -131t-255 -74q-274 0 -405 248q-127 -248 -392 -248q-154 0 -259 95.5t-105 241zM225 304q0 -85 67.5 -142.5t173 -57.5t197 95.5t91.5 265.5q-137 49 -265.5 49 t-196 -62.5t-67.5 -147.5zM913 578q106 -27 248 -27t224.5 47t82.5 127t-54 138.5t-154 58.5q-135 0 -227.5 -103.5t-119.5 -240.5z" />
<glyph unicode="&#xe7;" horiz-adv-x="1042" d="M94 529.5q0 207.5 144.5 366.5t379.5 159q129 0 228.5 -58.5t99.5 -119.5q0 -33 -20.5 -54.5t-47 -21.5t-61.5 30q-106 90 -217 91q-141 0 -246.5 -119t-105.5 -289t106.5 -291t263.5 -121q121 0 236 82q39 27 59 27q51 0 51.5 -54.5t-116.5 -120t-248 -67.5 q6 -57 113 -112q39 -20 70.5 -56.5t31.5 -81.5q0 -82 -71.5 -136t-172 -54t-162 47t-61.5 96q0 14 10.5 26.5t26.5 12.5t70.5 -25.5t100.5 -25.5t78 18.5t32 43t-31 49t-68 47t-67.5 67.5t-30.5 103q-168 43 -271.5 188.5t-103.5 353z" />
<glyph unicode="&#xe8;" horiz-adv-x="1103" d="M49 586q0 31 17.5 48t42 17t61.5 -18q45 184 171 303t291 119t268.5 -92.5t103.5 -240t-128 -224t-315 -76.5q-106 0 -260 31q12 -143 107.5 -247t212.5 -104q70 0 129 19.5t90 42.5q82 63 107.5 63t41 -15t15.5 -38q0 -57 -118 -131t-255 -74q-213 0 -338 149.5 t-135 360.5q-109 33 -109 107zM303 584q113 -33 251 -33t221 47t83 127t-54 138.5t-155 58.5q-135 0 -227 -101.5t-119 -236.5zM391 1479q0 31 18.5 54t55.5 23t60.5 -28.5t45 -80.5t37 -71.5t37.5 -46.5q43 -47 43 -72q0 -43 -55 -43t-148.5 88.5t-93.5 176.5z" />
<glyph unicode="&#xe9;" horiz-adv-x="1103" d="M49 586q0 31 17.5 48t42 17t61.5 -18q45 184 171 303t291 119t268.5 -92.5t103.5 -240t-128 -224t-315 -76.5q-106 0 -260 31q12 -143 107.5 -247t212.5 -104q70 0 129 19.5t90 42.5q82 63 107.5 63t41 -15t15.5 -38q0 -57 -118 -131t-255 -74q-213 0 -338 149.5 t-135 360.5q-109 33 -109 107zM303 584q113 -33 251 -33t221 47t83 127t-54 138.5t-155 58.5q-135 0 -227 -101.5t-119 -236.5zM520 1257q0 25 33 62t48 56.5t36.5 71.5t45.5 80.5t60.5 28.5t55 -23t18.5 -54q0 -88 -93 -176.5t-148.5 -88.5t-55.5 43z" />
<glyph unicode="&#xea;" horiz-adv-x="1103" d="M49 586q0 31 17.5 48t42 17t61.5 -18q45 184 171 303t291 119t268.5 -92.5t103.5 -240t-128 -224t-315 -76.5q-106 0 -260 31q12 -143 107.5 -247t212.5 -104q70 0 129 19.5t90 42.5q82 63 107.5 63t41 -15t15.5 -38q0 -57 -118 -131t-255 -74q-213 0 -338 149.5 t-135 360.5q-109 33 -109 107zM303 584q113 -33 251 -33t221 47t83 127t-54 138.5t-155 58.5q-135 0 -227 -101.5t-119 -236.5zM313 1260.5q0 21.5 9.5 37t18.5 24.5t37 32.5t52.5 47t60 71t59 65.5t60.5 18t61.5 -18t61.5 -65.5t61.5 -71t51 -47t37 -32.5t18.5 -24.5t8 -37 t-18.5 -39t-44 -17.5t-48 18.5t-44 48t-29.5 36.5q-82 98 -113.5 98t-113.5 -98q-8 -6 -31 -37q-47 -66 -82 -66t-53.5 17.5t-18.5 39z" />
<glyph unicode="&#xeb;" horiz-adv-x="1103" d="M49 586q0 31 17.5 48t42 17t61.5 -18q45 184 171 303t291 119t268.5 -92.5t103.5 -240t-128 -224t-315 -76.5q-106 0 -260 31q12 -143 107.5 -247t212.5 -104q70 0 129 19.5t90 42.5q82 63 107.5 63t41 -15t15.5 -38q0 -57 -118 -131t-255 -74q-213 0 -338 149.5 t-135 360.5q-109 33 -109 107zM303 584q113 -33 251 -33t221 47t83 127t-54 138.5t-155 58.5q-135 0 -227 -101.5t-119 -236.5zM360 1366q0 47 30 83t73 36t63.5 -27.5t20.5 -69.5t-29 -84t-72 -42t-64.5 28.5t-21.5 75.5zM688 1366q0 47 29.5 83t72.5 36t63.5 -27.5 t20.5 -69.5t-28.5 -84t-71.5 -42t-64.5 28.5t-21.5 75.5z" />
<glyph unicode="&#xec;" horiz-adv-x="458" d="M61 1479q0 31 18.5 54t55.5 23t60.5 -28.5t45 -80.5t37 -71.5t37.5 -46.5q43 -47 43 -72q0 -43 -55 -43t-148.5 88.5t-93.5 176.5zM152 82l10 430l-10 430q0 102 77.5 102t77.5 -102l-10 -430l10 -430q0 -102 -77.5 -102t-77.5 102z" />
<glyph unicode="&#xed;" horiz-adv-x="458" d="M100 1257q0 25 33 62t48.5 56.5t37 71.5t45 80.5t60 28.5t55 -23t18.5 -54q0 -88 -93 -176.5t-148.5 -88.5t-55.5 43zM152 82l10 430l-10 430q0 102 77.5 102t77.5 -102l-10 -430l10 -430q0 -102 -77.5 -102t-77.5 102z" />
<glyph unicode="&#xee;" horiz-adv-x="458" d="M-68 1260.5q0 21.5 9.5 37t18.5 24.5t37 32.5t52.5 47t60 71t59.5 65.5t60.5 18t61 -18t61.5 -65.5t61.5 -71t51.5 -47t37 -32.5t18 -24.5t8 -37t-18 -39t-44 -17.5t-48.5 18.5t-44 48t-29.5 36.5q-82 98 -113.5 98t-113.5 -98q-8 -6 -31 -37q-47 -66 -82 -66t-53.5 17.5 t-18.5 39zM152 82l10 430l-10 430q0 102 77.5 102t77.5 -102l-10 -430l10 -430q0 -102 -77.5 -102t-77.5 102z" />
<glyph unicode="&#xef;" horiz-adv-x="458" d="M-27 1366q0 47 30 83t73 36t63.5 -27.5t20.5 -69.5t-29 -84t-72 -42t-64.5 28.5t-21.5 75.5zM152 82l10 430l-10 430q0 102 77.5 102t77.5 -102l-10 -430l10 -430q0 -102 -77.5 -102t-77.5 102zM301 1366q0 47 29.5 83t72.5 36t63.5 -27.5t20.5 -69.5t-28.5 -84 t-71.5 -42t-64.5 28.5t-21.5 75.5z" />
<glyph unicode="&#xf0;" horiz-adv-x="1171" d="M98 493.5q0 202.5 115 354t315 151.5q115 0 209 -50t146 -118q-51 260 -238 422q-37 -33 -71.5 -68.5t-49.5 -49.5q-35 -35 -64.5 -35t-48 17.5t-18.5 38t5 31.5t20.5 26.5t30 26.5t46 35.5t56.5 45.5q-86 51 -195 61q-45 4 -65 11q-49 12 -49 61q0 25 25.5 44.5 t72.5 19.5q145 0 313 -97q31 27 65 61t48 46q37 35 67.5 35t49 -17.5t18.5 -39t-4 -33t-18.5 -26.5t-26.5 -25.5t-43 -35t-55 -45.5q139 -127 214.5 -320.5t75.5 -404.5q0 -285 -121.5 -460.5t-363.5 -175.5q-205 0 -333 155.5t-128 358zM246 494.5q0 -160.5 91 -272 t226 -111.5t227.5 109.5t92.5 262t-92.5 269t-234.5 116.5t-226 -106.5t-84 -267z" />
<glyph unicode="&#xf1;" horiz-adv-x="1185" d="M139 124q0 144 41 404q0 86 -17.5 238t-17.5 187.5t21.5 63t58.5 27.5t58.5 -27.5t21.5 -62t-1 -85t-1 -85.5q150 260 369 260q164 0 254 -116.5t90 -282.5l-10 -321q0 -57 1 -87t12 -62t27.5 -39t34 -9t24.5 -6t7 -17q0 -53 -34 -88.5t-79 -35.5q-78 0 -107.5 61 t-29.5 180l8 377q0 139 -59 225t-164.5 86t-204 -116.5t-137.5 -264.5l6 -444q0 -104 -78 -104q-94 0 -94 144zM213 1284q0 72 65.5 126t150.5 54t190.5 -57t149.5 -57t79 52t53.5 52t30.5 -17t12 -40q0 -70 -52 -122t-122.5 -52t-169 56t-140.5 56t-69.5 -30.5t-52 -62.5 t-54.5 -32t-50.5 22.5t-20.5 51.5z" />
<glyph unicode="&#xf2;" d="M94 510q0 227 136.5 386t346 159t345 -157t135.5 -384t-137.5 -386t-346 -159t-344 157t-135.5 384zM240 510q0 -170 95 -289t236.5 -119t240.5 121t99 291t-95 289t-236.5 119t-240.5 -121t-99 -291zM385 1479q0 31 18.5 54t55.5 23t60.5 -28.5t45 -80.5t36.5 -71.5 t38 -46.5q43 -47 43 -72q0 -43 -55.5 -43t-148.5 88.5t-93 176.5z" />
<glyph unicode="&#xf3;" d="M94 510q0 227 136.5 386t346 159t345 -157t135.5 -384t-137.5 -386t-346 -159t-344 157t-135.5 384zM240 510q0 -170 95 -289t236.5 -119t240.5 121t99 291t-95 289t-236.5 119t-240.5 -121t-99 -291zM487 1257q0 25 33 62t48.5 56.5t37 71.5t45 80.5t60 28.5t55 -23 t18.5 -54q0 -88 -93 -176.5t-148.5 -88.5t-55.5 43z" />
<glyph unicode="&#xf4;" d="M94 510q0 227 136.5 386t346 159t345 -157t135.5 -384t-137.5 -386t-346 -159t-344 157t-135.5 384zM240 510q0 -170 95 -289t236.5 -119t240.5 121t99 291t-95 289t-236.5 119t-240.5 -121t-99 -291zM277 1260.5q0 21.5 9 37t18.5 24.5t37 32.5t52 47t60.5 71t59.5 65.5 t60.5 18t61.5 -18t61.5 -65.5t61.5 -71t51 -47t36.5 -32.5t18.5 -24.5t8.5 -37t-18.5 -39t-44 -17.5t-48 18.5t-44 48t-29.5 36.5q-82 98 -114 98t-114 -98q-8 -6 -28 -37q-49 -66 -84 -66t-53.5 17.5t-18.5 39z" />
<glyph unicode="&#xf5;" d="M94 510q0 227 136.5 386t346 159t345 -157t135.5 -384t-137.5 -386t-346 -159t-344 157t-135.5 384zM209 1284q0 72 65.5 126t150.5 54t190.5 -57t149.5 -57t79 52t53.5 52t30.5 -17t12 -40q0 -70 -52 -122t-122.5 -52t-169 56t-140.5 56t-69.5 -30.5t-52 -62.5 t-54.5 -32t-50.5 22.5t-20.5 51.5zM240 510q0 -170 95 -289t236.5 -119t240.5 121t99 291t-95 289t-236.5 119t-240.5 -121t-99 -291z" />
<glyph unicode="&#xf6;" d="M94 510q0 227 136.5 386t346 159t345 -157t135.5 -384t-137.5 -386t-346 -159t-344 157t-135.5 384zM240 510q0 -170 95 -289t236.5 -119t240.5 121t99 291t-95 289t-236.5 119t-240.5 -121t-99 -291zM317 1366q0 47 30 83t73 36t63.5 -27.5t20.5 -69.5t-29 -84t-72 -42 t-64.5 28.5t-21.5 75.5zM645 1366q0 47 30 83t73 36t63 -27.5t20 -69.5t-28.5 -84t-71.5 -42t-64.5 28.5t-21.5 75.5z" />
<glyph unicode="&#xf7;" horiz-adv-x="1142" d="M125 534.5q0 30.5 23.5 49t60.5 18.5l362 -6l363 6q37 0 60.5 -18.5t23.5 -49t-23.5 -49t-60.5 -18.5l-363 6l-362 -6q-37 0 -60.5 18.5t-23.5 49zM479 190.5q0 45.5 29 82t71 36.5t63.5 -29.5t21.5 -75.5t-29 -84t-70 -38t-63.5 31.5t-22.5 77zM479 868q0 45 29 82 t71 37t63.5 -29.5t21.5 -75.5t-29 -84t-70 -38t-63.5 31.5t-22.5 76.5z" />
<glyph unicode="&#xf8;" d="M94 512q0 225 136.5 384t342.5 159q68 0 129 -19q10 29 35 94q31 72 84 72q31 0 51.5 -21.5t20.5 -56t-53 -153.5q102 -72 159.5 -193t57.5 -266q0 -225 -137.5 -384t-344.5 -159q-57 0 -131 19l-36 -103q-29 -72 -84 -71q-31 0 -51.5 22.5t-20.5 53t55 163.5 q-100 72 -156.5 193t-56.5 266zM240 491.5q0 -188.5 127 -305.5q152 346 290 723q-37 12 -79 13q-139 0 -238.5 -121t-99.5 -309.5zM492 113q45 -10 81 -11q140 0 239 121t99 307.5t-129 309.5q-125 -289 -290 -727z" />
<glyph unicode="&#xf9;" horiz-adv-x="1196" d="M127 962.5q0 30.5 24.5 56t63.5 25.5q94 1 94 -167l-16 -451q0 -139 59.5 -226t165 -87t203.5 117.5t137 265.5l-6 444q0 104 78 104q94 0 94 -144t-41 -404q0 -154 22.5 -251.5t53.5 -109.5q12 -6 29.5 -8t24.5 -6t7 -17q0 -55 -33.5 -89.5t-85.5 -34.5q-129 0 -129 262 q-152 -262 -380 -262q-164 0 -254.5 121.5t-90.5 297.5l13 310q0 82 -16.5 152.5t-16.5 101zM366 1479q0 31 18.5 54t55.5 23t60.5 -28.5t45 -80.5t37 -71.5t37.5 -46.5q43 -47 43 -72q0 -43 -55 -43t-148.5 88.5t-93.5 176.5z" />
<glyph unicode="&#xfa;" horiz-adv-x="1196" d="M127 962.5q0 30.5 24.5 56t63.5 25.5q94 1 94 -167l-16 -451q0 -139 59.5 -226t165 -87t203.5 117.5t137 265.5l-6 444q0 104 78 104q94 0 94 -144t-41 -404q0 -154 22.5 -251.5t53.5 -109.5q12 -6 29.5 -8t24.5 -6t7 -17q0 -55 -33.5 -89.5t-85.5 -34.5q-129 0 -129 262 q-152 -262 -380 -262q-164 0 -254.5 121.5t-90.5 297.5l13 310q0 82 -16.5 152.5t-16.5 101zM489 1257q0 25 33 62t48.5 56.5t37 71.5t45 80.5t60.5 28.5t55 -23t18 -54q0 -88 -93 -176.5t-148.5 -88.5t-55.5 43z" />
<glyph unicode="&#xfb;" horiz-adv-x="1196" d="M127 962.5q0 30.5 24.5 56t63.5 25.5q94 1 94 -167l-16 -451q0 -139 59.5 -226t165 -87t203.5 117.5t137 265.5l-6 444q0 104 78 104q94 0 94 -144t-41 -404q0 -154 22.5 -251.5t53.5 -109.5q12 -6 29.5 -8t24.5 -6t7 -17q0 -55 -33.5 -89.5t-85.5 -34.5q-129 0 -129 262 q-152 -262 -380 -262q-164 0 -254.5 121.5t-90.5 297.5l13 310q0 82 -16.5 152.5t-16.5 101zM283 1260.5q0 21.5 9 37t18 24.5t37 32.5t52.5 47t60.5 71t59.5 65.5t60 18t61.5 -18t61.5 -65.5t61 -71t51.5 -47t37 -32.5t18.5 -24.5t8.5 -37t-18.5 -39t-44 -17.5t-48.5 18.5 t-44.5 48t-29.5 36.5q-82 98 -113.5 98t-113.5 -98q-8 -6 -29 -37q-49 -66 -84 -66t-53 17.5t-18 39z" />
<glyph unicode="&#xfc;" horiz-adv-x="1196" d="M127 962.5q0 30.5 24.5 56t63.5 25.5q94 1 94 -167l-16 -451q0 -139 59.5 -226t165 -87t203.5 117.5t137 265.5l-6 444q0 104 78 104q94 0 94 -144t-41 -404q0 -154 22.5 -251.5t53.5 -109.5q12 -6 29.5 -8t24.5 -6t7 -17q0 -55 -33.5 -89.5t-85.5 -34.5q-129 0 -129 262 q-152 -262 -380 -262q-164 0 -254.5 121.5t-90.5 297.5l13 310q0 82 -16.5 152.5t-16.5 101zM340 1366q0 47 29.5 83t72.5 36t63.5 -27.5t20.5 -69.5t-28.5 -84t-71.5 -42t-64.5 28.5t-21.5 75.5zM668 1366q0 47 29.5 83t72.5 36t63.5 -27.5t20.5 -69.5t-28.5 -84t-71.5 -42 t-64.5 28.5t-21.5 75.5z" />
<glyph unicode="&#xfd;" horiz-adv-x="1163" d="M127 962.5q0 30.5 24.5 56t63.5 25.5q94 0 94 -167l-16 -451q0 -139 59.5 -226t165 -87t203.5 118t137 265l-6 444q0 104 78 104q94 0 94 -153q0 -121 -43 -395q25 -250 25 -373q0 -268 -131.5 -431t-368.5 -163q-127 0 -239.5 52t-112.5 104.5t47 52.5q20 0 113.5 -38 t191.5 -38q172 0 272.5 123t100.5 317q0 72 -7 140q-152 -262 -380 -262q-164 0 -254.5 121.5t-90.5 297.5l13 310q0 82 -16.5 152.5t-16.5 101zM502 1257q0 25 32.5 62t48 56.5t37 71.5t45 80.5t60.5 28.5t55.5 -23t18.5 -54q0 -88 -93.5 -176.5t-148.5 -88.5t-55 43z" />
<glyph unicode="&#xfe;" horiz-adv-x="1163" d="M109 -331.5q0 67.5 8 160.5t24.5 245.5t26.5 275.5v39l2 78v33q0 139 -19.5 539.5t-19.5 431t21.5 58t58.5 27.5t58.5 -27.5t21.5 -74.5v-674q68 125 151.5 194.5t217 69.5t229.5 -86t137 -198.5t41 -224.5q0 -223 -135 -389t-346 -166q-154 0 -291 100q-4 -248 -4 -368 t-20.5 -151.5t-63.5 -31.5t-70.5 36t-27.5 103.5zM295 231q123 -119 291 -118q131 0 230 120.5t99 283.5t-71.5 278.5t-194.5 115.5q-215 0 -354 -354v-326z" />
<glyph unicode="&#xff;" horiz-adv-x="1163" d="M127 962.5q0 30.5 24.5 56t63.5 25.5q94 0 94 -167l-16 -451q0 -139 59.5 -226t165 -87t203.5 118t137 265l-6 444q0 104 78 104q94 0 94 -153q0 -121 -43 -395q25 -250 25 -373q0 -268 -131.5 -431t-368.5 -163q-127 0 -239.5 52t-112.5 104.5t47 52.5q20 0 113.5 -38 t191.5 -38q172 0 272.5 123t100.5 317q0 72 -7 140q-152 -262 -380 -262q-164 0 -254.5 121.5t-90.5 297.5l13 310q0 82 -16.5 152.5t-16.5 101zM344 1366q0 47 30 83t73 36t63.5 -27.5t20.5 -69.5t-29 -84t-72 -42t-64.5 28.5t-21.5 75.5zM672 1366q0 47 29.5 83t72.5 36 t63.5 -27.5t20.5 -69.5t-28.5 -84t-71.5 -42t-64.5 28.5t-21.5 75.5z" />
<glyph unicode="&#x152;" horiz-adv-x="1939" d="M117 769q0 333 183 565.5t454 232.5q109 0 200 -43q27 23 88 22l396 -10l307 10q102 0 102 -77.5t-102 -77.5l-307 10q-231 0 -299 -8q184 -191 219 -506q246 10 283.5 10t65.5 -21.5t28 -58.5q0 -76 -103 -76q-4 0 -266 9q-2 -182 -63.5 -341t-165.5 -268q106 -6 276 -6 l332 10q102 0 102 -77.5t-102 -77.5l-332 10l-358 -10q-61 0 -82 33q-102 -53 -223 -54q-270 0 -451.5 233.5t-181.5 566.5zM283 773q0 -261 134 -457.5t329.5 -196.5t324.5 196.5t129 457.5t-128 452.5t-324.5 191.5t-330.5 -191.5t-134 -452.5z" />
<glyph unicode="&#x153;" horiz-adv-x="1859" d="M94 510q0 227 136.5 386t342.5 159q137 0 246 -70t170 -188q145 258 416 258q147 0 250.5 -92.5t103.5 -240t-128 -224t-314 -76.5q-106 0 -260 31q12 -143 107.5 -247t211.5 -104q70 0 129.5 19.5t89.5 42.5q82 63 108 63t41 -15t15 -38q0 -57 -117.5 -131t-255.5 -74 q-274 0 -405 248q-63 -115 -169.5 -181.5t-236.5 -66.5q-211 0 -346 157t-135 384zM240 510q0 -170 95 -289t236.5 -119t240.5 121t99 291t-95 289t-236.5 119t-240.5 -121t-99 -291zM1059 584q113 -33 251 -33t221 47t83 127t-54.5 138.5t-154.5 58.5q-135 0 -227.5 -101.5 t-118.5 -236.5z" />
<glyph unicode="&#x178;" horiz-adv-x="1134" d="M31 1486.5q0 24.5 18.5 47t49 22.5t51 -16t45 -57t47.5 -86q154 -315 333 -596q188 297 314 555q14 31 31.5 62.5t26.5 50t20.5 36t18.5 25.5t18 14q14 12 39.5 12t43 -18t17.5 -41.5t-6 -45t-26.5 -60.5t-40 -73t-65.5 -112t-83 -143l-240 -420q0 -285 5 -418t5 -143 q0 -102 -84 -102t-84 102q0 14 2 94q8 186 9 467l-226 395q-39 68 -82 140l-67 112q-68 115 -79 143.5t-11 53zM328 1837q0 47 29.5 83t72.5 36t63.5 -27.5t20.5 -69.5t-28.5 -84t-71.5 -42t-64.5 28.5t-21.5 75.5zM655 1837q0 47 30 83t73 36t63.5 -27.5t20.5 -69.5 t-29 -84t-72 -42t-64.5 28.5t-21.5 75.5z" />
<glyph unicode="&#x2c6;" horiz-adv-x="841" d="M123 1260.5q0 21.5 9 37t18.5 24.5t37 32.5t52 47t60.5 71t59.5 65.5t60.5 18t61.5 -18t61.5 -65.5t61.5 -71t51 -47t36.5 -32.5t18.5 -24.5t8.5 -37t-18.5 -39t-44 -17.5t-48 18.5t-44 48t-29.5 36.5q-82 98 -114 98t-114 -98q-8 -6 -28 -37q-49 -66 -84 -66t-53.5 17.5 t-18.5 39z" />
<glyph unicode="&#x2dc;" horiz-adv-x="1017" d="M143 1284q0 72 65.5 126t150.5 54t190.5 -57t149.5 -57t79 52t53.5 52t30.5 -17t12 -40q0 -70 -52 -122t-122.5 -52t-169 56t-140.5 56t-69.5 -30.5t-52 -62.5t-54.5 -32t-50.5 22.5t-20.5 51.5z" />
<glyph unicode="&#x2000;" horiz-adv-x="1009" />
<glyph unicode="&#x2001;" horiz-adv-x="2019" />
<glyph unicode="&#x2002;" horiz-adv-x="1009" />
<glyph unicode="&#x2003;" horiz-adv-x="2019" />
<glyph unicode="&#x2004;" horiz-adv-x="673" />
<glyph unicode="&#x2005;" horiz-adv-x="504" />
<glyph unicode="&#x2006;" horiz-adv-x="336" />
<glyph unicode="&#x2007;" horiz-adv-x="336" />
<glyph unicode="&#x2008;" horiz-adv-x="252" />
<glyph unicode="&#x2009;" horiz-adv-x="403" />
<glyph unicode="&#x200a;" horiz-adv-x="112" />
<glyph unicode="&#x2010;" horiz-adv-x="876" d="M135 534.5q0 30.5 23.5 49t60.5 18.5l219 -6l219 6q37 0 60.5 -18.5t23.5 -49t-23.5 -49t-60.5 -18.5l-219 6l-219 -6q-37 0 -60.5 18.5t-23.5 49z" />
<glyph unicode="&#x2011;" horiz-adv-x="876" d="M135 534.5q0 30.5 23.5 49t60.5 18.5l219 -6l219 6q37 0 60.5 -18.5t23.5 -49t-23.5 -49t-60.5 -18.5l-219 6l-219 -6q-37 0 -60.5 18.5t-23.5 49z" />
<glyph unicode="&#x2012;" horiz-adv-x="876" d="M135 534.5q0 30.5 23.5 49t60.5 18.5l219 -6l219 6q37 0 60.5 -18.5t23.5 -49t-23.5 -49t-60.5 -18.5l-219 6l-219 -6q-37 0 -60.5 18.5t-23.5 49z" />
<glyph unicode="&#x2013;" horiz-adv-x="1163" d="M135 534.5q0 30.5 23.5 49t60.5 18.5q1 0 363 -6l362 6q37 0 60.5 -18.5t23.5 -49t-23.5 -49t-60.5 -18.5l-362 6l-363 -6q-37 0 -60.5 18.5t-23.5 49z" />
<glyph unicode="&#x2014;" horiz-adv-x="1736" d="M135 534.5q0 30.5 23.5 49t60.5 18.5l649 -6l650 6q37 0 60.5 -18.5t23.5 -49t-24 -49t-60 -18.5l-650 6l-649 -6q-37 0 -60.5 18.5t-23.5 49z" />
<glyph unicode="&#x2018;" horiz-adv-x="446" d="M102 1077q0 141 73 277.5t142 136.5q16 0 28.5 -11.5t12.5 -26.5t-37.5 -79t-37.5 -127l12 -149q0 -45 -27.5 -84t-74 -39t-69 31.5t-22.5 70.5z" />
<glyph unicode="&#x2019;" horiz-adv-x="448" d="M98 1011.5q0 14.5 38 79.5t38 128l-12 149q0 45 27.5 84t73.5 39t68.5 -32t22.5 -70q0 -141 -72.5 -277.5t-142.5 -136.5q-16 0 -28.5 11t-12.5 25.5z" />
<glyph unicode="&#x201a;" horiz-adv-x="430" d="M117 90q0 41 29.5 80t73.5 39t66.5 -32t22.5 -77q0 -127 -46 -251.5t-95 -124.5q-41 0 -41 43l6 163q0 43 -8 81t-8 79z" />
<glyph unicode="&#x201c;" horiz-adv-x="778" d="M102 1077q0 141 73 277.5t142 136.5q16 0 28.5 -11.5t12.5 -26.5t-37.5 -79t-37.5 -127l12 -149q0 -45 -27.5 -84t-74 -39t-69 31.5t-22.5 70.5zM434 1077q0 141 73 277.5t142 136.5q16 0 28.5 -11.5t12.5 -26.5t-38 -79t-38 -127l13 -149q0 -45 -28 -84t-74 -39 t-68.5 31.5t-22.5 70.5z" />
<glyph unicode="&#x201d;" horiz-adv-x="780" d="M98 1011.5q0 14.5 38 79.5t38 128l-12 149q0 45 27.5 84t73.5 39t68.5 -32t22.5 -70q0 -141 -72.5 -277.5t-142.5 -136.5q-16 0 -28.5 11t-12.5 25.5zM430 1011.5q0 14.5 38 79.5t38 128l-12 149q0 45 27.5 84t73.5 39t68.5 -32t22.5 -70q0 -141 -72.5 -277.5 t-142.5 -136.5q-16 0 -28.5 11t-12.5 25.5z" />
<glyph unicode="&#x201e;" horiz-adv-x="798" d="M117 90q0 41 29.5 80t73.5 39t66.5 -32t22.5 -77q0 -127 -46 -251.5t-95 -124.5q-41 0 -41 43l6 163q0 43 -8 81t-8 79zM485 90q0 41 30 80t74 39t66.5 -32t22.5 -77q0 -127 -46 -251.5t-95 -124.5q-41 0 -41 43l6 163q0 43 -8.5 81t-8.5 79z" />
<glyph unicode="&#x2022;" horiz-adv-x="591" d="M104 793.5q0 95.5 59.5 173t147.5 77.5t133 -62t45 -160.5t-59 -177.5t-145 -79t-133.5 66.5t-47.5 162z" />
<glyph unicode="&#x2026;" horiz-adv-x="1193" d="M115 93q0 48 29.5 87t73.5 39t66.5 -31.5t22.5 -80t-29.5 -88t-72.5 -39.5t-66.5 32.5t-23.5 80.5zM500 93q0 48 29.5 87t73.5 39t66.5 -31.5t22.5 -80t-29.5 -88t-72.5 -39.5t-66.5 32.5t-23.5 80.5zM885 93q0 48 29.5 87t73.5 39t66.5 -31.5t22.5 -80t-29.5 -88 t-72.5 -39.5t-66.5 32.5t-23.5 80.5z" />
<glyph unicode="&#x202f;" horiz-adv-x="403" />
<glyph unicode="&#x2039;" horiz-adv-x="610" d="M90 717.5q0 25.5 16.5 48t69.5 71t75.5 71t52.5 55t44 45.5q35 37 66.5 36.5t50 -19.5t18.5 -47t-19.5 -48.5t-61.5 -50t-62 -48.5q-98 -88 -98 -116.5t98 -116.5q20 -18 62 -48t61.5 -50.5t19.5 -48t-18.5 -47t-42 -19.5t-43 11.5t-32.5 24.5t-43 46t-53.5 56.5t-60 57 t-54 50t-32 39t-14.5 48z" />
<glyph unicode="&#x203a;" horiz-adv-x="608" d="M127 451.5q0 27.5 19.5 48t61.5 50.5t62 48q98 88 98.5 116.5t-98.5 116.5q-20 18 -62 48t-61.5 50.5t-19.5 48.5t18.5 47t42 19t43 -11t32.5 -24.5t43 -46t53.5 -56t60.5 -57.5t54.5 -50.5t31.5 -39t14 -48t-16.5 -48t-69.5 -70.5t-75.5 -70.5t-52.5 -55.5t-44 -45 q-35 -37 -66.5 -37t-50 19.5t-18.5 47z" />
<glyph unicode="&#x205f;" horiz-adv-x="504" />
<glyph unicode="&#x20ac;" horiz-adv-x="1316" d="M104 583.5q0 30.5 24 49t60 18.5l363 -6l362 6q37 0 60.5 -18.5t23.5 -49t-23.5 -49t-60.5 -18.5l-362 6q-82 0 -123 -2q35 -190 133 -305t250 -115q66 0 122 21.5t87 46.5q84 68 111.5 68t44 -18.5t16.5 -43.5q0 -61 -112.5 -133t-268.5 -72q-205 0 -344 152.5 t-182 396.5q-43 -2 -88 -2t-69 18.5t-24 49zM104 837.5q0 30.5 24 49t60 18.5l95 -2q39 250 179 405.5t349 155.5q145 0 248.5 -64.5t103.5 -135.5q0 -23 -15 -42.5t-44 -19.5t-56.5 20.5t-52 46t-74 46t-110.5 20.5q-154 0 -254 -119.5t-133 -316.5h127l362 6 q37 0 60.5 -18.5t23.5 -49t-23.5 -49t-60.5 -18.5l-362 6l-363 -6q-37 0 -60.5 18.5t-23.5 49z" />
<glyph unicode="&#x2122;" horiz-adv-x="1771" d="M137 1483.5q0 60.5 84 60.5l211 -6l199 8q41 0 64.5 -17.5t23.5 -43.5q0 -61 -88 -62l-137 4q-6 -141 -7 -307l7 -356q0 -78 -61.5 -78t-61.5 78l6 356q0 236 -6 310l-150 -7q-84 0 -84 60.5zM836 764l4 352v170l-2 182q0 33 18 55.5t49 22.5q70 0 107 -76 q49 -102 209 -462q45 90 104 235.5t96 224t92 78.5q33 0 51.5 -22.5t18.5 -55.5l-2 -182v-170l4 -354q0 -76 -59 -76q-63 0 -64 78l6 352q0 154 -2 213q-197 -459 -202 -471q-14 -35 -45 -35t-50 39q0 4 -75.5 170t-139.5 297q-2 -59 -2 -213l6 -352q0 -78 -63 -78 q-59 0 -59 78z" />
<glyph unicode="&#x25fc;" horiz-adv-x="1054" d="M0 0v1055h1055v-1055h-1055z" />
<glyph unicode="&#xfb01;" horiz-adv-x="1136" d="M41 963q0 33 22.5 49t55.5 16l102 -4v174q0 190 75 274t173 84t162.5 -37.5t64.5 -80.5q0 -68 -57 -68q-27 0 -73 24.5t-81 24.5q-127 0 -127 -239v-156h45l502 12q80 0 80 -98l-10 -426l12 -428q0 -47 -22.5 -75.5t-59.5 -28.5t-57.5 28.5t-20.5 75.5l13 428 q0 10 -11 389q-135 8 -243.5 8t-227.5 -4v-137q0 -283 6.5 -475.5t6.5 -224t-21.5 -60t-58.5 -28.5t-58.5 28.5t-21.5 60t2 128.5q10 289 10 571v137l-104 -4q-78 0 -78 62zM813 1372q0 47 29.5 83t72.5 36t63.5 -27.5t20.5 -70.5t-25.5 -84t-70.5 -41t-67.5 28.5 t-22.5 75.5z" />
<glyph unicode="&#xfb02;" d="M41 963q0 33 22.5 49t55.5 16l102 -2v172q0 190 122 274t301 84t298 -59q57 -33 57 -119l-10 -610q0 -283 6 -475.5t6 -208.5q0 -104 -79.5 -104t-79.5 104q0 16 2 113q10 289 10 571l-10 621q-100 31 -195 30q-291 0 -291 -239v-156l199 4q33 0 55.5 -16.5t22.5 -48.5 q0 -61 -78 -62l-199 4v-137q0 -283 6.5 -475.5t6.5 -224t-21.5 -60t-58.5 -28.5t-58.5 28.5t-21.5 60t2 128.5q10 289 10 571v135l-104 -2q-78 0 -78 62z" />
<glyph unicode="&#xfb03;" horiz-adv-x="1769" d="M41 961q0 72 98 71q45 0 80 -2v168q0 190 75 274t173 84t162.5 -37.5t64.5 -80.5q0 -68 -57 -68q-27 0 -72 24.5t-82 24.5q-127 0 -127 -239v-154q193 -4 317 -4t183 2v174q0 190 75 274t173 84t162.5 -37.5t64.5 -80.5q0 -68 -57 -68q-27 0 -73 24.5t-81 24.5 q-127 0 -127 -239v-156h43l502 12q80 0 80 -98l-10 -426l12 -428q0 -47 -22.5 -75.5t-59.5 -28.5t-57.5 28.5t-20.5 75.5l13 428q0 10 -11 389q-135 8 -243.5 8t-227.5 -4v-137q0 -283 6.5 -475.5t6.5 -224t-21.5 -60t-58.5 -28.5q-76 0 -76 104l10 684v133l-182 2 q-31 0 -320 -6v-129q0 -283 6.5 -475.5t6.5 -208.5q0 -104 -79 -104t-79 104q0 16 2 113q8 225 8 571v125h-82q-98 0 -98 68zM1446 1372q0 47 29.5 83t72.5 36t63.5 -27.5t20.5 -70.5t-25.5 -84t-70.5 -41t-67.5 28.5t-22.5 75.5z" />
</font>
</defs>
</svg>
