<?xml version="1.0" encoding="utf-8"?>
<!-- Generator: Adobe Illustrator 18.1.1, SVG Export Plug-In . SVG Version: 6.00 Build 0)  -->
<svg version="1.1" id="icon_x5F_small_x5F_travel_x5F_advice_1_" opacity="0.6"
	 xmlns="http://www.w3.org/2000/svg" xmlns:xlink="http://www.w3.org/1999/xlink" x="0px" y="0px" viewBox="0 0 35 37"
	 enable-background="new 0 0 35 37" xml:space="preserve">
<g id="icon_x5F_small_x5F_travel_x5F_advice">
	<g>
		<path fill="#6d7980" d="M4.5,18.6h8c1.4,0,2.5-1.1,2.5-2.5s-1.1-2.5-2.5-2.5h-8c-1.4,0-2.5,1.1-2.5,2.5S3.1,18.6,4.5,18.6z
			 M12,31.9H6c-1.1,0-2,0.9-2,2s0.9,2,2,2h6c1.1,0,2-0.9,2-2S13.1,31.9,12,31.9z M28.4,14.4c-0.8,0-1.6,0.2-2.3,0.7
			c-0.9-1.7-1.8-3.7-3.4-4.9c-3.3-2.5-4.3-2.6-5.7-3.6c-2.7-2-0.5-6.4-2.9-6.6c-1.5-0.1-3.7,1.3-3.7,4.8c0,2.9,1.3,5.3,2.2,6.7
			c1.1,0.1,2,0.5,2.8,1.2h0.3c0.9,0,1.1,0.6,0.5,0.8c0.5,0.7,0.8,1.6,0.8,2.6c0,0.9-0.3,1.8-0.7,2.5c1.1,0.8,1.7,2.1,1.7,3.6
			c0,1.5-0.7,2.8-1.7,3.6c0.5,0.7,0.7,1.6,0.7,2.5c0,1.4-0.6,2.6-1.6,3.5c0.4,0.6,0.6,1.3,0.6,2.1c0,0.7-0.2,1.4-0.5,2l0.6,0
			c4.5,0,6-1.4,8.3-2.3c1.1,1.5,2.6,2.4,4.1,2.4c3.6,0,6.6-4.9,6.6-10.8C35,19.3,32.1,14.4,28.4,14.4z M28.4,33.8
			c-0.7,0-1.4-0.3-2-0.8c0.5-0.1,1-0.1,1.5-0.2c0.1,0,0.3,0.1,0.4,0.1c1.9,0,3.5-3.4,3.5-7.6c0-3.9-1.3-7-3-7.6v0c0,0-0.1,0-0.1,0
			c-0.1,0-0.2,0-0.3,0c-0.4-0.1-0.8-0.4-1.1-0.7c0.3-0.1,0.7-0.2,1-0.2c2.5,0,4.6,3.8,4.6,8.6C33,30,31,33.8,28.4,33.8z M13.5,19.6
			h-11c-1.4,0-2.5,1.1-2.5,2.5c0,1.4,1.1,2.5,2.5,2.5h11c1.4,0,2.5-1.1,2.5-2.5C16,20.8,14.9,19.6,13.5,19.6z M12.5,25.8h-8
			c-1.4,0-2.5,1.1-2.5,2.5s1.1,2.5,2.5,2.5h8c1.4,0,2.5-1.1,2.5-2.5S13.9,25.8,12.5,25.8z"/>
	</g>
</g>
</svg>
