<?xml version="1.0" encoding="utf-8"?>
<!-- Generator: Adobe Illustrator 18.1.1, SVG Export Plug-In . SVG Version: 6.00 Build 0)  -->
<svg version="1.1" id="icon_x5F_small_x5F_plane_1_" opacity="0.6"
	 xmlns="http://www.w3.org/2000/svg" xmlns:xlink="http://www.w3.org/1999/xlink" x="0px" y="0px" viewBox="0 0 33 33"
	 enable-background="new 0 0 33 33" xml:space="preserve">
<g id="icon_x5F_small_x5F_plane">
	<g>
		<path fill="#6d7980" d="M27.4,14.1v5.5l2-2c0.8-0.8,0.8-2.1,0-3C28.9,14.1,28.1,13.9,27.4,14.1z M18.3,3.5c-0.8-0.8-2.1-0.8-3,0
			l-2,2l5.5,0C19,4.9,18.9,4.1,18.3,3.5z M32.5,0.5c-1.4-1.4-4.7-0.4-11.8,6.1l-16.5,0c-1.6,0-3.1,1-3.7,2.4L0,10.1
			c-0.1,0.3,0,0.6,0.3,0.7l7.9,3.8c0.7,0.3,1.6,0.1,2.2-0.4l1.8-1.8c0.5-0.5,2.3-0.5,2.7,0l-3.3,3.3c-1.8,1.9-3.2,4.2-4.4,5.7
			c-0.1,0.1-0.3,0.2-0.4,0.2H1.2c-0.3,0-0.5,0.2-0.5,0.5v1.6c0,0.3,0.2,0.6,0.5,0.7l3,1.2c-0.9,1.8-1.1,3.1-0.5,3.7
			c0.6,0.6,1.8,0.4,3.7-0.5l1.2,2.9c0.1,0.3,0.4,0.5,0.7,0.5h1.6c0.3,0,0.5-0.2,0.5-0.5v-5.6c0-0.2,0.1-0.3,0.2-0.4
			c1.6-1.2,3.9-2.7,5.8-4.4l3.3-3.3c0.5,0.5,0.5,2.3,0,2.7l-1.8,1.8c-0.6,0.6-0.7,1.4-0.4,2.2l3.8,7.9c0.1,0.3,0.4,0.4,0.7,0.3
			l1.1-0.5c1.5-0.6,2.4-2.1,2.4-3.7l0-16.4C32.8,5.2,33.8,1.9,32.5,0.5z"/>
	</g>
</g>
</svg>
