<?xml version="1.0" encoding="utf-8"?>
<!-- Generator: Adobe Illustrator 18.1.1, SVG Export Plug-In . SVG Version: 6.00 Build 0)  -->
<svg version="1.1" id="icon_x5F_small_x5F_info_1_" opacity="0.6"
	 xmlns="http://www.w3.org/2000/svg" xmlns:xlink="http://www.w3.org/1999/xlink" x="0px" y="0px" viewBox="0 0 39 39"
	 enable-background="new 0 0 39 39" xml:space="preserve">
<g id="icon_x5F_small_x5F_info">
	<g>
		<path fill="#6d7980" d="M19.5,4.5c-8.3,0-15,6.7-15,15s6.7,15,15,15c8.3,0,15-6.7,15-15S27.8,4.5,19.5,4.5z M23.1,29.5
			c-1,0.4-1.7,0.7-2.3,0.9c-0.6,0.2-1.2,0.3-2,0.3c-1.2,0-2.1-0.3-2.7-0.9c-0.6-0.6-1-1.3-1-2.2c0-0.3,0-0.7,0.1-1
			c0-0.4,0.1-0.8,0.2-1.2l1.2-4.3c0.1-0.4,0.2-0.8,0.3-1.2s0.1-0.7,0.1-1c0-0.5-0.1-0.9-0.3-1.1c-0.2-0.2-0.7-0.3-1.3-0.3
			c-0.3,0-0.6,0-1,0.1c-0.3,0.1-0.6,0.2-0.8,0.3l0.3-1.3c0.8-0.3,1.5-0.6,2.3-0.8c0.7-0.2,1.4-0.3,2.1-0.3c1.2,0,2.1,0.3,2.7,0.8
			c0.6,0.6,0.9,1.3,0.9,2.2c0,0.2,0,0.5-0.1,1c0,0.5-0.1,0.9-0.2,1.3L20.3,25c-0.1,0.3-0.2,0.7-0.3,1.2c-0.1,0.4-0.1,0.8-0.1,1
			c0,0.6,0.1,1,0.4,1.2c0.3,0.2,0.7,0.3,1.3,0.3c0.3,0,0.6-0.1,1-0.2c0.4-0.1,0.6-0.2,0.8-0.3L23.1,29.5z M22.8,12.2
			c-0.6,0.5-1.2,0.8-2,0.8c-0.8,0-1.5-0.3-2-0.8c-0.6-0.5-0.8-1.2-0.8-1.9s0.3-1.4,0.8-1.9c0.6-0.5,1.2-0.8,2-0.8
			c0.8,0,1.5,0.3,2,0.8c0.6,0.5,0.8,1.2,0.8,1.9S23.4,11.7,22.8,12.2z M19.5,0C8.7,0,0,8.7,0,19.5S8.7,39,19.5,39
			C30.3,39,39,30.3,39,19.5S30.3,0,19.5,0z M19.5,36C10.4,36,3,28.6,3,19.5S10.4,3,19.5,3C28.6,3,36,10.4,36,19.5S28.6,36,19.5,36z"
			/>
	</g>
</g>
</svg>
