<?xml version="1.0" encoding="utf-8"?>
<!-- Generator: Adobe Illustrator 18.1.1, SVG Export Plug-In . SVG Version: 6.00 Build 0)  -->
<svg version="1.1" id="icon_x5F_small_x5F_travel_x5F_history_1_" opacity="0.6"
	 xmlns="http://www.w3.org/2000/svg" xmlns:xlink="http://www.w3.org/1999/xlink" x="0px" y="0px" viewBox="0 0 37 35"
	 enable-background="new 0 0 37 35" xml:space="preserve">
<g id="icon_x5F_small_x5F_travel_x5F_history">
	<g>
		<path fill="#6d7980" d="M28.9,27.1c0.1,0.1,0.2,0.1,0.4,0.2c-1.4,1.5-3.1,2.8-5,3.7c0.7-1.1,1.4-2.4,1.9-3.8
			c-1.2-0.9-2.8-2.6-4.5-4.7c-0.8-0.1-1.5-0.2-2.3-0.2v-3.1c-1.1-1.8-2.1-3.6-2.8-5.2v2.2h-5.7c0.1-1.4,0.2-2.8,0.5-4.1
			c1.5,0.3,3.1,0.5,4.8,0.6c-0.3-1.1-0.4-2-0.2-2.7c-1.4-0.1-2.8-0.2-4-0.5c1-3.3,2.7-5.7,4.6-6.5v3.6c0.9-2.6,2.8-4.8,5.2-6.1
			C20.5,0.2,19.2,0,17.9,0C12,0,6.8,2.8,3.6,7C3.5,7.1,3.5,7.2,3.4,7.3c-1.9,2.5-3.1,5.6-3.4,8.9H0v2.7h0.1c0.3,3.3,1.5,6.4,3.4,8.9
			c0.1,0.1,0.1,0.1,0.2,0.2c3.3,4.3,8.4,7,14.3,7c5.9,0,11-2.8,14.3-7c0.1-0.1,0.1-0.1,0.2-0.2c1.9-2.5,3.1-5.5,3.3-8.8
			C33.5,22.4,30.7,25.7,28.9,27.1z M11.6,4.1c-0.9,1.3-1.7,3-2.2,4.8c-1-0.3-2-0.7-2.8-1.1C7.9,6.2,9.7,4.9,11.6,4.1z M5,9.8
			c1.1,0.6,2.3,1.2,3.7,1.6c-0.3,1.5-0.5,3.1-0.6,4.8H2.8C3,13.9,3.8,11.7,5,9.8z M2.8,18.9h5.3c0.1,1.7,0.3,3.3,0.6,4.8
			c-1.4,0.4-2.6,1-3.7,1.6C3.8,23.3,3,21.2,2.8,18.9z M6.5,27.3c0.8-0.4,1.8-0.8,2.8-1.1c0.6,1.8,1.3,3.5,2.2,4.8
			C9.7,30.1,7.9,28.8,6.5,27.3z M16.5,32c-1.9-0.8-3.5-3.2-4.6-6.5c1.4-0.3,3-0.5,4.6-0.5V32z M16.5,22.3c-1.8,0.1-3.6,0.3-5.2,0.6
			c-0.2-1.3-0.4-2.6-0.5-4.1h5.7V22.3z M19.3,32v-7c1.6,0.1,3.1,0.2,4.6,0.5C22.8,28.8,21.2,31.2,19.3,32z M18.4,10.2
			C18.4,10.2,18.4,10.2,18.4,10.2c-1.1,3.7,7.1,14.6,9,14.6c0,0,0,0,0,0c0,0,0,0,0,0c1.9,0,10.1-10.8,9-14.5c0,0,0,0,0,0
			c0-4.9-4-8.8-9-8.8C22.4,1.3,18.4,5.3,18.4,10.2z M27.4,4.3c3.3,0,6,2.6,6,5.9c0,3.3-2.7,5.9-6,5.9c-3.3,0-6-2.6-6-5.9
			C21.4,6.9,24.1,4.3,27.4,4.3z M27.4,13.1c1.7,0,3-1.3,3-2.9c0-1.6-1.3-2.9-3-2.9c-1.7,0-3,1.3-3,2.9
			C24.4,11.8,25.7,13.1,27.4,13.1z"/>
	</g>
</g>
</svg>
