<?xml version="1.0" encoding="utf-8"?>
<!-- Generator: Adobe Illustrator 18.1.1, SVG Export Plug-In . SVG Version: 6.00 Build 0)  -->
<svg version="1.1" id="icon_x5F_small_x5F_travel_x5F_tools_1_" opacity="0.6"
	 xmlns="http://www.w3.org/2000/svg" xmlns:xlink="http://www.w3.org/1999/xlink" x="0px" y="0px" viewBox="0 0 39 43"
	 enable-background="new 0 0 39 43" xml:space="preserve">
<g id="icon_x5F_small_x5F_travel_x5F_tools">
	<g>
		<path fill="#6d7980" d="M15,23.7l-1.1-1.8l-5.5,1.2c-0.5,0.1-0.5,0.8,0,1l6.9,1.6l-2.2,4.2l4.3-2.3l1.6,7c0.1,0.5,0.8,0.5,1,0
			l1.2-5.4L19.3,28C17,27.9,15.1,26,15,23.7z M19.5,19.1c1.7,0,3.2,1,4,2.4l2.4-4.4l-4.3,2.3l-1.6-6.8c-0.1-0.5-0.8-0.5-1,0
			l-1.3,5.5l1.5,1C19.3,19.1,19.4,19.1,19.5,19.1z M30.4,23.2l-6.9-1.6c0.3,0.6,0.5,1.3,0.5,2c0,0.1,0,0.2,0,0.3l1,1.6l5.5-1.3
			C30.9,24,30.9,23.3,30.4,23.2z M22.1,4.3c0.6-0.5,1-1.1,1-1.7C23,1.1,21.4,0,19.4,0c-2,0-3.6,1.1-3.6,2.6c0,0.7,0.4,1.3,1,1.7
			C7.3,5.6,0,13.7,0,23.5C0,34.3,8.7,43,19.5,43C30.3,43,39,34.3,39,23.5C39,13.7,31.6,5.5,22.1,4.3z M19.4,1.6c0.8,0,1.5,0.4,1.5,1
			c0,0.5-0.7,1-1.5,1c-0.8,0-1.5-0.4-1.5-1C17.9,2,18.6,1.6,19.4,1.6z M19.5,41C9.8,41,2,33.2,2,23.5S9.8,6.1,19.5,6.1
			c9.7,0,17.5,7.8,17.5,17.5S29.2,41,19.5,41z M22.6,23.2c-0.7-1.1-1.6-2.1-2.7-2.7L12,15.5c-0.4-0.3-0.9,0.2-0.7,0.7l4.9,7.8
			c0.7,1.1,1.6,2.1,2.7,2.7l7.9,4.9c0.4,0.3,0.9-0.2,0.7-0.7L22.6,23.2z M19.5,25c-0.8,0-1.5-0.7-1.5-1.5c0-0.8,0.7-1.5,1.5-1.5
			s1.5,0.7,1.5,1.5C21,24.4,20.3,25,19.5,25z M19.5,7.3c-9,0-16.2,7.3-16.2,16.2c0,9,7.3,16.2,16.2,16.2c9,0,16.2-7.3,16.2-16.2
			C35.7,14.6,28.5,7.3,19.5,7.3z M33,25h-1.1c-0.3,2.5-1.4,4.8-3,6.7l0.9,1.4c0.3,0.6-0.3,1.2-0.9,0.9l-1.5-0.9
			c-1.8,1.5-4,2.5-6.5,2.8V37c0,0.6-0.4,1-1,1h-1c-0.6,0-1-0.4-1-1v-1.1c-2.5-0.3-4.7-1.3-6.6-2.9l-1.5,1c-0.6,0.3-1.2-0.3-0.9-0.9
			l1-1.5c-1.6-1.8-2.6-4.1-2.9-6.6H6c-0.6,0-1-0.4-1-1v-1c0-0.6,0.4-1,1-1h1.1c0.3-2.5,1.3-4.7,2.8-6.5L9,14.1
			c-0.3-0.6,0.3-1.2,0.9-0.9l1.4,0.9c1.8-1.6,4.1-2.7,6.7-3v-1.1c0-0.6,0.4-1,1-1h1c0.6,0,1,0.4,1,1v1.1c2.5,0.3,4.8,1.4,6.6,2.9
			l1.3-0.8c0.6-0.3,1.2,0.3,0.9,0.9L29,15.5c1.6,1.8,2.6,4.1,2.9,6.6H33c0.6,0,1,0.4,1,1v1C34,24.6,33.6,25,33,25z"/>
	</g>
</g>
</svg>
