<?xml version="1.0" encoding="utf-8"?>
<!-- Generator: Adobe Illustrator 18.1.1, SVG Export Plug-In . SVG Version: 6.00 Build 0)  -->
<svg version="1.1" id="icon_x5F_small_x5F_perks_1_" opacity="0.6"
	 xmlns="http://www.w3.org/2000/svg" xmlns:xlink="http://www.w3.org/1999/xlink" x="0px" y="0px" viewBox="0 0 39 39"
	 enable-background="new 0 0 39 39" xml:space="preserve">
<g id="icon_x5F_small_x5F_perks">
	<g>
		<path fill="#6d7980" d="M19.5,0C8.7,0,0,8.7,0,19.5S8.7,39,19.5,39C30.3,39,39,30.3,39,19.5S30.3,0,19.5,0z M33.9,13.7l-7.5-0.2
			c-1.3,0-2.4-0.8-2.8-2L21,4.1C26.8,4.6,31.7,8.4,33.9,13.7z M18,4.1l-2.6,7.4c-0.4,1.2-1.5,2-2.8,2l-7.5,0.2
			C7.3,8.4,12.2,4.6,18,4.1z M11.2,24.5l-1.9,6.5C6,28.3,4,24.1,4,19.5c0-0.9,0.1-1.8,0.3-2.7l5.9,4.5C11.1,22,11.5,23.3,11.2,24.5z
			 M19.5,35c-2.6,0-5.1-0.7-7.3-1.8l4.8-3.3c0-0.1,0-0.2,0-0.3l0-0.2c-0.4-0.1-0.8-0.3-1.2-0.5c-0.8-0.5-1.4-1.1-1.8-1.9
			c-0.3-0.6-0.3-1.2-0.2-1.8c0.2-0.6,0.6-1.1,1.2-1.4c0.2-0.1,0.4-0.2,0.6-0.2c0.5-0.1,1.4-0.1,2.1,0.9c0.5,0.6,0.8,0.5,0.9,0.5
			c0.1,0,0.2,0,0.3-0.1c0.3-0.1,0.4-0.3,0.5-0.6c0.1-0.2,0.1-0.4,0-0.7c-0.1-0.3-0.4-0.6-0.9-0.9l-0.9-0.7c-0.7-0.5-1.3-1-1.8-1.5
			c-0.5-0.5-0.9-1.1-1.1-1.6c-0.4-0.9-0.6-1.8-0.5-2.7c0.1-0.9,0.4-1.8,1-2.6c0.4-0.6,1-1.1,1.6-1.5l0-0.7c0-0.7,0.1-1.2,0.2-1.6
			c0.2-0.5,0.6-1,1.2-1.2c0.2-0.1,0.4-0.2,0.6-0.2c0.4-0.1,0.7,0,1.1,0.1c0.6,0.2,1,0.6,1.3,1.1c0.2,0.4,0.2,0.8,0.3,1.6l0,0.2
			c0.3,0.1,0.7,0.2,1,0.4c0.8,0.4,1.3,0.9,1.7,1.6c0.3,0.6,0.3,1.1,0.2,1.7C24,15.5,23.6,16,23,16.2c-0.2,0.1-0.4,0.1-0.5,0.2
			c-0.4,0.1-1.1,0.1-1.8-0.4l-0.4-0.3c-0.1-0.1-0.2-0.1-0.4-0.1c-0.1,0-0.2,0-0.2,0c-0.1,0-0.2,0-0.2,0.1C19.1,15.8,19,16,19,16.1
			c-0.1,0.1-0.1,0.3,0.1,0.6c0,0,0.1,0.1,0.3,0.3c0.2,0.2,0.5,0.4,0.8,0.7c0.6,0.4,1.1,0.8,1.6,1.3c0.6,0.5,1,0.9,1.2,1.1
			c0.2,0.3,0.5,0.7,0.7,1.1c0.4,0.9,0.6,1.9,0.5,2.9c-0.1,1-0.4,1.9-1,2.8c-0.4,0.6-1,1.1-1.6,1.5l0,0.8c0,0.1,0,0.2,0,0.3l5.2,3.6
			C24.6,34.3,22.1,35,19.5,35z M29.8,31.1l-1.9-6.5c-0.4-1.2,0.1-2.5,1.1-3.3l5.9-4.5c0.2,0.9,0.3,1.8,0.3,2.7
			C35,24.1,33,28.3,29.8,31.1z M22.9,24.1c0.1-0.8-0.1-1.5-0.4-2.3c-0.2-0.4-0.4-0.7-0.5-0.9c-0.2-0.2-0.5-0.5-1.1-1
			c-0.5-0.4-1.1-0.8-1.6-1.3c-0.4-0.3-0.7-0.6-1-0.8c-0.2-0.2-0.4-0.5-0.5-0.7c-0.3-0.6-0.3-1.1-0.1-1.6c0.2-0.5,0.6-0.9,1.1-1.2
			c0.3-0.2,0.7-0.2,1.1-0.2c0.4,0,0.7,0.1,1.1,0.4l0.4,0.3c0.4,0.3,0.8,0.3,1.1,0.2c0.3-0.1,0.4-0.3,0.5-0.6c0.1-0.3,0-0.5-0.1-0.8
			c-0.2-0.4-0.6-0.8-1.1-1.1c-0.5-0.3-1.1-0.4-1.7-0.4l0-1.3c0-0.5-0.1-0.9-0.1-1.1c-0.1-0.2-0.3-0.4-0.5-0.5
			c-0.2-0.1-0.5-0.1-0.7,0.1c-0.3,0.1-0.4,0.3-0.5,0.5C18.1,10.1,18,10.5,18,11l0,1.5l-0.1,0.1c-0.7,0.4-1.3,0.8-1.8,1.4
			c-0.5,0.6-0.7,1.3-0.8,2c-0.1,0.7,0.1,1.4,0.4,2.1c0.2,0.4,0.5,0.9,0.9,1.3c0.4,0.4,1,0.9,1.6,1.4l0.9,0.7
			c0.6,0.4,1.1,0.9,1.3,1.4c0.3,0.6,0.3,1.1,0.1,1.7c-0.2,0.6-0.6,1-1.2,1.3c-1,0.5-1.9,0.2-2.8-0.8c-0.3-0.4-0.7-0.5-1.2-0.3
			c-0.3,0.1-0.5,0.4-0.6,0.7c-0.1,0.3-0.1,0.6,0.1,0.9c0.3,0.6,0.7,1,1.3,1.4c0.6,0.3,1.2,0.5,1.9,0.5l0,1.4c0,0.5,0,0.9,0.1,1.1
			c0.1,0.2,0.3,0.4,0.5,0.5c0.2,0.1,0.5,0.1,0.7-0.1c0.3-0.1,0.4-0.3,0.5-0.5c0.1-0.2,0.1-0.6,0.1-1.2l0-1.6l0,0
			c0.7-0.4,1.4-0.9,1.8-1.5C22.6,25.6,22.9,24.9,22.9,24.1z"/>
	</g>
</g>
</svg>
